<?xml version="1.0" encoding="UTF-8" standalone="no"?>
<!-- Created with Inkscape (http://www.inkscape.org/) -->

<svg
   width="300"
   height="74"
   viewBox="0 0 79.374998 19.579166"
   version="1.1"
   id="svg5"
   inkscape:version="1.1.2 (0a00cf5339, 2022-02-04)"
   sodipodi:docname="building_index_logo.svg"
   xmlns:inkscape="http://www.inkscape.org/namespaces/inkscape"
   xmlns:sodipodi="http://sodipodi.sourceforge.net/DTD/sodipodi-0.dtd"
   xmlns="http://www.w3.org/2000/svg"
   xmlns:svg="http://www.w3.org/2000/svg">
  <sodipodi:namedview
     id="namedview7"
     pagecolor="#505050"
     bordercolor="#eeeeee"
     borderopacity="1"
     inkscape:pageshadow="0"
     inkscape:pageopacity="0"
     inkscape:pagecheckerboard="0"
     inkscape:document-units="px"
     showgrid="false"
     inkscape:showpageshadow="false"
     inkscape:zoom="1.7866667"
     inkscape:cx="160.91418"
     inkscape:cy="-33.861941"
     inkscape:window-width="2523"
     inkscape:window-height="1406"
     inkscape:window-x="33"
     inkscape:window-y="0"
     inkscape:window-maximized="1"
     inkscape:current-layer="layer1"
     inkscape:snap-global="true"
     inkscape:snap-bbox="false"
     units="px"
     inkscape:snap-nodes="true" />
  <defs
     id="defs2" />
  <g
     inkscape:label="Livello 1"
     inkscape:groupmode="layer"
     id="layer1">
    <g
       id="path34461"
       style="fill:#0064a3;fill-opacity:1">
      <path
         style="color:#000000;fill:#0064a3;fill-opacity:1;stroke-width:0.926042;-inkscape-stroke:none"
         d="M 20.184966,14.143537 H 76.053449"
         id="path42950" />
      <path
         style="color:#000000;fill:#0064a3;fill-opacity:1;-inkscape-stroke:none"
         d="m 20.185547,13.679688 v 0.927734 l 33.334262,0 v -0.927734 z"
         id="path42952"
         sodipodi:nodetypes="ccccc" />
    </g>
    <circle
       style="fill:#0064a3;fill-opacity:1;stroke-width:0.0330729"
       cx="9.6858282"
       cy="10.097071"
       r="8.4666662"
       id="circle100235" />
    <path
       style="fill:#00548c;fill-opacity:1;stroke-width:0.0330729"
       d="M 18.122889,10.087162 12.112151,6.3147981 9.6942566,11.22745 7.2595055,13.879364 9.6562228,18.553827 c 4.6759812,0 8.4666662,-3.790684 8.4666662,-8.466665 z"
       id="path100237"
       sodipodi:nodetypes="cccccc" />
    <g
       id="g172801"
       transform="matrix(0.02024652,0,0,0.02024652,4.5027191,4.9139616)">
      <polygon
         style="fill:#acabb1"
         points="136.161,69.189 136.161,442.812 256,512 375.839,442.812 375.839,69.189 256,0 "
         id="polygon172247" />
      <polygon
         style="fill:#e0e0e2"
         points="136.161,69.189 256,0 375.839,69.189 256,138.379 "
         id="polygon172249" />
      <polygon
         style="fill:#c6c5cb"
         points="256,138.379 256,512 136.161,442.812 136.161,69.189 "
         id="polygon172251" />
      <g
         id="g172421">
        <polygon
           style="fill:#2487ff"
           points="267.985,145.298 267.985,159.135 279.968,152.216 279.968,138.379 "
           id="polygon172253" />
        <polygon
           style="fill:#2487ff"
           points="284.762,135.608 284.762,149.446 296.746,142.527 296.746,128.689 "
           id="polygon172255" />
        <polygon
           style="fill:#2487ff"
           points="301.539,125.919 301.539,139.756 313.523,132.837 313.523,118.999 "
           id="polygon172257" />
        <polygon
           style="fill:#2487ff"
           points="318.316,116.228 318.316,130.066 330.301,123.147 330.301,109.309 "
           id="polygon172259" />
        <polygon
           style="fill:#2487ff"
           points="335.095,106.539 335.095,120.376 347.078,113.457 347.078,99.62 "
           id="polygon172261" />
        <polygon
           style="fill:#2487ff"
           points="351.872,96.849 351.872,110.687 363.856,103.768 363.856,89.93 "
           id="polygon172263" />
        <polygon
           style="fill:#2487ff"
           points="267.985,170.845 267.985,184.682 279.968,177.763 279.968,163.926 "
           id="polygon172265" />
        <polygon
           style="fill:#2487ff"
           points="284.762,161.155 284.762,174.993 296.746,168.074 296.746,154.236 "
           id="polygon172267" />
        <polygon
           style="fill:#2487ff"
           points="301.539,151.466 301.539,165.303 313.523,158.384 313.523,144.547 "
           id="polygon172269" />
        <polygon
           style="fill:#2487ff"
           points="318.316,141.775 318.316,155.614 330.301,148.694 330.301,134.856 "
           id="polygon172271" />
        <polygon
           style="fill:#2487ff"
           points="335.095,132.086 335.095,145.923 347.078,139.004 347.078,125.167 "
           id="polygon172273" />
        <polygon
           style="fill:#2487ff"
           points="351.872,122.396 351.872,136.234 363.856,129.315 363.856,115.477 "
           id="polygon172275" />
        <polygon
           style="fill:#2487ff"
           points="267.985,196.392 267.985,210.229 279.968,203.311 279.968,189.473 "
           id="polygon172277" />
        <polygon
           style="fill:#2487ff"
           points="284.762,186.702 284.762,200.54 296.746,193.621 296.746,179.783 "
           id="polygon172279" />
        <polygon
           style="fill:#2487ff"
           points="301.539,177.013 301.539,190.85 313.523,183.932 313.523,170.094 "
           id="polygon172281" />
        <polygon
           style="fill:#2487ff"
           points="318.316,167.323 318.316,181.161 330.301,174.242 330.301,160.403 "
           id="polygon172283" />
        <polygon
           style="fill:#2487ff"
           points="335.095,157.633 335.095,171.47 347.078,164.551 347.078,150.714 "
           id="polygon172285" />
        <polygon
           style="fill:#2487ff"
           points="351.872,147.943 351.872,161.781 363.856,154.862 363.856,141.024 "
           id="polygon172287" />
        <polygon
           style="fill:#2487ff"
           points="267.985,221.939 267.985,235.776 279.968,228.858 279.968,215.02 "
           id="polygon172289" />
        <polygon
           style="fill:#2487ff"
           points="284.762,212.249 284.762,226.087 296.746,219.168 296.746,205.33 "
           id="polygon172291" />
        <polygon
           style="fill:#2487ff"
           points="301.539,202.56 301.539,216.397 313.523,209.479 313.523,195.641 "
           id="polygon172293" />
        <polygon
           style="fill:#2487ff"
           points="318.316,192.87 318.316,206.708 330.301,199.789 330.301,185.951 "
           id="polygon172295" />
        <polygon
           style="fill:#2487ff"
           points="335.095,183.18 335.095,197.018 347.078,190.1 347.078,176.261 "
           id="polygon172297" />
        <polygon
           style="fill:#2487ff"
           points="351.872,173.49 351.872,187.328 363.856,180.409 363.856,166.571 "
           id="polygon172299" />
        <polygon
           style="fill:#2487ff"
           points="267.985,247.486 267.985,261.323 279.968,254.405 279.968,240.567 "
           id="polygon172301" />
        <polygon
           style="fill:#2487ff"
           points="284.762,237.796 284.762,251.634 296.746,244.715 296.746,230.877 "
           id="polygon172303" />
        <polygon
           style="fill:#2487ff"
           points="301.539,228.107 301.539,241.944 313.523,235.026 313.523,221.188 "
           id="polygon172305" />
        <polygon
           style="fill:#2487ff"
           points="318.316,218.417 318.316,232.255 330.301,225.336 330.301,211.498 "
           id="polygon172307" />
        <polygon
           style="fill:#2487ff"
           points="335.095,208.728 335.095,222.565 347.078,215.647 347.078,201.808 "
           id="polygon172309" />
        <polygon
           style="fill:#2487ff"
           points="351.872,199.037 351.872,212.876 363.856,205.956 363.856,192.118 "
           id="polygon172311" />
        <polygon
           style="fill:#2487ff"
           points="267.985,273.033 267.985,286.871 279.968,279.952 279.968,266.114 "
           id="polygon172313" />
        <polygon
           style="fill:#2487ff"
           points="284.762,263.343 284.762,277.181 296.746,270.262 296.746,256.424 "
           id="polygon172315" />
        <polygon
           style="fill:#2487ff"
           points="301.539,253.654 301.539,267.491 313.523,260.573 313.523,246.735 "
           id="polygon172317" />
        <polygon
           style="fill:#2487ff"
           points="318.316,243.964 318.316,257.802 330.301,250.883 330.301,237.045 "
           id="polygon172319" />
        <polygon
           style="fill:#2487ff"
           points="335.095,234.275 335.095,248.112 347.078,241.194 347.078,227.356 "
           id="polygon172321" />
        <polygon
           style="fill:#2487ff"
           points="351.872,224.584 351.872,238.423 363.856,231.504 363.856,217.665 "
           id="polygon172323" />
        <polygon
           style="fill:#2487ff"
           points="267.985,298.581 267.985,312.418 279.968,305.5 279.968,291.661 "
           id="polygon172325" />
        <polygon
           style="fill:#2487ff"
           points="284.762,288.89 284.762,302.729 296.746,295.81 296.746,281.971 "
           id="polygon172327" />
        <polygon
           style="fill:#2487ff"
           points="301.539,279.201 301.539,293.038 313.523,286.12 313.523,272.282 "
           id="polygon172329" />
        <polygon
           style="fill:#2487ff"
           points="318.316,269.511 318.316,283.349 330.301,276.43 330.301,262.592 "
           id="polygon172331" />
        <polygon
           style="fill:#2487ff"
           points="335.095,259.822 335.095,273.659 347.078,266.741 347.078,252.903 "
           id="polygon172333" />
        <polygon
           style="fill:#2487ff"
           points="351.872,250.132 351.872,263.97 363.856,257.051 363.856,243.213 "
           id="polygon172335" />
        <polygon
           style="fill:#2487ff"
           points="267.985,324.128 267.985,337.966 279.968,331.047 279.968,317.209 "
           id="polygon172337" />
        <polygon
           style="fill:#2487ff"
           points="284.762,314.438 284.762,328.276 296.746,321.357 296.746,307.518 "
           id="polygon172339" />
        <polygon
           style="fill:#2487ff"
           points="301.539,304.748 301.539,318.587 313.523,311.667 313.523,297.829 "
           id="polygon172341" />
        <polygon
           style="fill:#2487ff"
           points="318.316,295.058 318.316,308.896 330.301,301.977 330.301,288.139 "
           id="polygon172343" />
        <polygon
           style="fill:#2487ff"
           points="335.095,285.369 335.095,299.206 347.078,292.288 347.078,278.45 "
           id="polygon172345" />
        <polygon
           style="fill:#2487ff"
           points="351.872,275.679 351.872,289.517 363.856,282.598 363.856,268.76 "
           id="polygon172347" />
        <polygon
           style="fill:#2487ff"
           points="267.985,349.675 267.985,363.513 279.968,356.594 279.968,342.756 "
           id="polygon172349" />
        <polygon
           style="fill:#2487ff"
           points="284.762,339.985 284.762,353.823 296.746,346.904 296.746,333.067 "
           id="polygon172351" />
        <polygon
           style="fill:#2487ff"
           points="301.539,330.295 301.539,344.134 313.523,337.215 313.523,323.376 "
           id="polygon172353" />
        <polygon
           style="fill:#2487ff"
           points="318.316,320.605 318.316,334.443 330.301,327.524 330.301,313.686 "
           id="polygon172355" />
        <polygon
           style="fill:#2487ff"
           points="335.095,310.916 335.095,324.754 347.078,317.835 347.078,303.997 "
           id="polygon172357" />
        <polygon
           style="fill:#2487ff"
           points="351.872,301.226 351.872,315.064 363.856,308.145 363.856,294.308 "
           id="polygon172359" />
        <polygon
           style="fill:#2487ff"
           points="267.985,375.222 267.985,389.06 279.968,382.141 279.968,368.303 "
           id="polygon172361" />
        <polygon
           style="fill:#2487ff"
           points="284.762,365.532 284.762,379.37 296.746,372.451 296.746,358.614 "
           id="polygon172363" />
        <polygon
           style="fill:#2487ff"
           points="301.539,355.843 301.539,369.681 313.523,362.762 313.523,348.923 "
           id="polygon172365" />
        <polygon
           style="fill:#2487ff"
           points="318.316,346.152 318.316,359.991 330.301,353.071 330.301,339.234 "
           id="polygon172367" />
        <polygon
           style="fill:#2487ff"
           points="335.095,336.463 335.095,350.301 347.078,343.382 347.078,329.544 "
           id="polygon172369" />
        <polygon
           style="fill:#2487ff"
           points="351.872,326.773 351.872,340.611 363.856,333.692 363.856,319.855 "
           id="polygon172371" />
        <polygon
           style="fill:#2487ff"
           points="267.985,400.769 267.985,414.607 279.968,407.688 279.968,393.85 "
           id="polygon172373" />
        <polygon
           style="fill:#2487ff"
           points="284.762,391.079 284.762,404.917 296.746,397.998 296.746,384.161 "
           id="polygon172375" />
        <polygon
           style="fill:#2487ff"
           points="301.539,381.39 301.539,395.228 313.523,388.309 313.523,374.471 "
           id="polygon172377" />
        <polygon
           style="fill:#2487ff"
           points="318.316,371.699 318.316,385.538 330.301,378.619 330.301,364.781 "
           id="polygon172379" />
        <polygon
           style="fill:#2487ff"
           points="335.095,362.01 335.095,375.848 347.078,368.929 347.078,355.091 "
           id="polygon172381" />
        <polygon
           style="fill:#2487ff"
           points="351.872,352.32 351.872,366.158 363.856,359.239 363.856,345.402 "
           id="polygon172383" />
        <polygon
           style="fill:#2487ff"
           points="267.985,426.316 267.985,440.154 279.968,433.235 279.968,419.397 "
           id="polygon172385" />
        <polygon
           style="fill:#2487ff"
           points="284.762,416.626 284.762,430.464 296.746,423.545 296.746,409.708 "
           id="polygon172387" />
        <polygon
           style="fill:#2487ff"
           points="301.539,406.937 301.539,420.775 313.523,413.856 313.523,400.018 "
           id="polygon172389" />
        <polygon
           style="fill:#2487ff"
           points="318.316,397.247 318.316,411.085 330.301,404.166 330.301,390.329 "
           id="polygon172391" />
        <polygon
           style="fill:#2487ff"
           points="335.095,387.557 335.095,401.396 347.078,394.476 347.078,380.638 "
           id="polygon172393" />
        <polygon
           style="fill:#2487ff"
           points="351.872,377.867 351.872,391.705 363.856,384.786 363.856,370.949 "
           id="polygon172395" />
        <polygon
           style="fill:#2487ff"
           points="267.985,451.863 267.985,465.701 279.968,458.782 279.968,444.944 "
           id="polygon172397" />
        <polygon
           style="fill:#2487ff"
           points="284.762,442.173 284.762,456.011 296.746,449.092 296.746,435.255 "
           id="polygon172399" />
        <polygon
           style="fill:#2487ff"
           points="301.539,432.484 301.539,446.322 313.523,439.403 313.523,425.565 "
           id="polygon172401" />
        <polygon
           style="fill:#2487ff"
           points="318.316,422.794 318.316,436.632 330.301,429.713 330.301,415.876 "
           id="polygon172403" />
        <polygon
           style="fill:#2487ff"
           points="335.095,413.105 335.095,426.943 347.078,420.024 347.078,406.185 "
           id="polygon172405" />
        <polygon
           style="fill:#2487ff"
           points="351.872,403.414 351.872,417.253 363.856,410.333 363.856,396.496 "
           id="polygon172407" />
        <polygon
           style="fill:#2487ff"
           points="267.985,477.411 267.985,491.249 279.968,484.33 279.968,470.491 "
           id="polygon172409" />
        <polygon
           style="fill:#2487ff"
           points="284.762,467.72 284.762,481.558 296.746,474.639 296.746,460.802 "
           id="polygon172411" />
        <polygon
           style="fill:#2487ff"
           points="301.539,458.031 301.539,471.869 313.523,464.95 313.523,451.112 "
           id="polygon172413" />
        <polygon
           style="fill:#2487ff"
           points="318.316,448.342 318.316,462.179 330.301,455.26 330.301,441.423 "
           id="polygon172415" />
        <polygon
           style="fill:#2487ff"
           points="335.095,438.652 335.095,452.49 347.078,445.571 347.078,431.733 "
           id="polygon172417" />
        <polygon
           style="fill:#2487ff"
           points="351.872,428.963 351.872,442.8 363.856,435.881 363.856,422.043 "
           id="polygon172419" />
      </g>
      <g
         id="g172591">
        <polygon
           style="fill:#59a4ff"
           points="244.016,145.298 244.016,159.135 232.033,152.216 232.033,138.379 "
           id="polygon172423" />
        <polygon
           style="fill:#59a4ff"
           points="227.239,135.608 227.239,149.446 215.254,142.527 215.254,128.689 "
           id="polygon172425" />
        <polygon
           style="fill:#59a4ff"
           points="210.462,125.919 210.462,139.756 198.477,132.837 198.477,118.999 "
           id="polygon172427" />
        <polygon
           style="fill:#59a4ff"
           points="193.684,116.228 193.684,130.066 181.7,123.147 181.7,109.309 "
           id="polygon172429" />
        <polygon
           style="fill:#59a4ff"
           points="176.906,106.539 176.906,120.376 164.923,113.457 164.923,99.62 "
           id="polygon172431" />
        <polygon
           style="fill:#59a4ff"
           points="160.129,96.849 160.129,110.687 148.145,103.768 148.145,89.93 "
           id="polygon172433" />
        <polygon
           style="fill:#59a4ff"
           points="244.016,170.845 244.016,184.682 232.033,177.763 232.033,163.926 "
           id="polygon172435" />
        <polygon
           style="fill:#59a4ff"
           points="227.239,161.155 227.239,174.993 215.254,168.074 215.254,154.236 "
           id="polygon172437" />
        <polygon
           style="fill:#59a4ff"
           points="210.462,151.466 210.462,165.303 198.477,158.384 198.477,144.547 "
           id="polygon172439" />
        <polygon
           style="fill:#59a4ff"
           points="193.684,141.775 193.684,155.614 181.7,148.694 181.7,134.856 "
           id="polygon172441" />
        <polygon
           style="fill:#59a4ff"
           points="176.906,132.086 176.906,145.923 164.923,139.004 164.923,125.167 "
           id="polygon172443" />
        <polygon
           style="fill:#59a4ff"
           points="160.129,122.396 160.129,136.234 148.145,129.315 148.145,115.477 "
           id="polygon172445" />
        <polygon
           style="fill:#59a4ff"
           points="244.016,196.392 244.016,210.229 232.033,203.311 232.033,189.473 "
           id="polygon172447" />
        <polygon
           style="fill:#59a4ff"
           points="227.239,186.702 227.239,200.54 215.254,193.621 215.254,179.783 "
           id="polygon172449" />
        <polygon
           style="fill:#59a4ff"
           points="210.462,177.013 210.462,190.85 198.477,183.932 198.477,170.094 "
           id="polygon172451" />
        <polygon
           style="fill:#59a4ff"
           points="193.684,167.323 193.684,181.161 181.7,174.242 181.7,160.403 "
           id="polygon172453" />
        <polygon
           style="fill:#59a4ff"
           points="176.906,157.633 176.906,171.47 164.923,164.551 164.923,150.714 "
           id="polygon172455" />
        <polygon
           style="fill:#59a4ff"
           points="160.129,147.943 160.129,161.781 148.145,154.862 148.145,141.024 "
           id="polygon172457" />
        <polygon
           style="fill:#59a4ff"
           points="244.016,221.939 244.016,235.776 232.033,228.858 232.033,215.02 "
           id="polygon172459" />
        <polygon
           style="fill:#59a4ff"
           points="227.239,212.249 227.239,226.087 215.254,219.168 215.254,205.33 "
           id="polygon172461" />
        <polygon
           style="fill:#59a4ff"
           points="210.462,202.56 210.462,216.397 198.477,209.479 198.477,195.641 "
           id="polygon172463" />
        <polygon
           style="fill:#59a4ff"
           points="193.684,192.87 193.684,206.708 181.7,199.789 181.7,185.951 "
           id="polygon172465" />
        <polygon
           style="fill:#59a4ff"
           points="176.906,183.18 176.906,197.018 164.923,190.1 164.923,176.261 "
           id="polygon172467" />
        <polygon
           style="fill:#59a4ff"
           points="160.129,173.49 160.129,187.328 148.145,180.409 148.145,166.571 "
           id="polygon172469" />
        <polygon
           style="fill:#59a4ff"
           points="244.016,247.486 244.016,261.323 232.033,254.405 232.033,240.567 "
           id="polygon172471" />
        <polygon
           style="fill:#59a4ff"
           points="227.239,237.796 227.239,251.634 215.254,244.715 215.254,230.877 "
           id="polygon172473" />
        <polygon
           style="fill:#59a4ff"
           points="210.462,228.107 210.462,241.944 198.477,235.026 198.477,221.188 "
           id="polygon172475" />
        <polygon
           style="fill:#59a4ff"
           points="193.684,218.417 193.684,232.255 181.7,225.336 181.7,211.498 "
           id="polygon172477" />
        <polygon
           style="fill:#59a4ff"
           points="176.906,208.728 176.906,222.565 164.923,215.647 164.923,201.808 "
           id="polygon172479" />
        <polygon
           style="fill:#59a4ff"
           points="160.129,199.037 160.129,212.876 148.145,205.956 148.145,192.118 "
           id="polygon172481" />
        <polygon
           style="fill:#59a4ff"
           points="244.016,273.033 244.016,286.871 232.033,279.952 232.033,266.114 "
           id="polygon172483" />
        <polygon
           style="fill:#59a4ff"
           points="227.239,263.343 227.239,277.181 215.254,270.262 215.254,256.424 "
           id="polygon172485" />
        <polygon
           style="fill:#59a4ff"
           points="210.462,253.654 210.462,267.491 198.477,260.573 198.477,246.735 "
           id="polygon172487" />
        <polygon
           style="fill:#59a4ff"
           points="193.684,243.964 193.684,257.802 181.7,250.883 181.7,237.045 "
           id="polygon172489" />
        <polygon
           style="fill:#59a4ff"
           points="176.906,234.275 176.906,248.112 164.923,241.194 164.923,227.356 "
           id="polygon172491" />
        <polygon
           style="fill:#59a4ff"
           points="160.129,224.584 160.129,238.423 148.145,231.504 148.145,217.665 "
           id="polygon172493" />
        <polygon
           style="fill:#59a4ff"
           points="244.016,298.581 244.016,312.418 232.033,305.5 232.033,291.661 "
           id="polygon172495" />
        <polygon
           style="fill:#59a4ff"
           points="227.239,288.89 227.239,302.729 215.254,295.81 215.254,281.971 "
           id="polygon172497" />
        <polygon
           style="fill:#59a4ff"
           points="210.462,279.201 210.462,293.038 198.477,286.12 198.477,272.282 "
           id="polygon172499" />
        <polygon
           style="fill:#59a4ff"
           points="193.684,269.511 193.684,283.349 181.7,276.43 181.7,262.592 "
           id="polygon172501" />
        <polygon
           style="fill:#59a4ff"
           points="176.906,259.822 176.906,273.659 164.923,266.741 164.923,252.903 "
           id="polygon172503" />
        <polygon
           style="fill:#59a4ff"
           points="160.129,250.132 160.129,263.97 148.145,257.051 148.145,243.213 "
           id="polygon172505" />
        <polygon
           style="fill:#59a4ff"
           points="244.016,324.128 244.016,337.966 232.033,331.047 232.033,317.209 "
           id="polygon172507" />
        <polygon
           style="fill:#59a4ff"
           points="227.239,314.438 227.239,328.276 215.254,321.357 215.254,307.518 "
           id="polygon172509" />
        <polygon
           style="fill:#59a4ff"
           points="210.462,304.748 210.462,318.587 198.477,311.667 198.477,297.829 "
           id="polygon172511" />
        <polygon
           style="fill:#59a4ff"
           points="193.684,295.058 193.684,308.896 181.7,301.977 181.7,288.139 "
           id="polygon172513" />
        <polygon
           style="fill:#59a4ff"
           points="176.906,285.369 176.906,299.206 164.923,292.288 164.923,278.45 "
           id="polygon172515" />
        <polygon
           style="fill:#59a4ff"
           points="160.129,275.679 160.129,289.517 148.145,282.598 148.145,268.76 "
           id="polygon172517" />
        <polygon
           style="fill:#59a4ff"
           points="244.016,349.675 244.016,363.513 232.033,356.594 232.033,342.756 "
           id="polygon172519" />
        <polygon
           style="fill:#59a4ff"
           points="227.239,339.985 227.239,353.823 215.254,346.904 215.254,333.067 "
           id="polygon172521" />
        <polygon
           style="fill:#59a4ff"
           points="210.462,330.295 210.462,344.134 198.477,337.215 198.477,323.376 "
           id="polygon172523" />
        <polygon
           style="fill:#59a4ff"
           points="193.684,320.605 193.684,334.443 181.7,327.524 181.7,313.686 "
           id="polygon172525" />
        <polygon
           style="fill:#59a4ff"
           points="176.906,310.916 176.906,324.754 164.923,317.835 164.923,303.997 "
           id="polygon172527" />
        <polygon
           style="fill:#59a4ff"
           points="160.129,301.226 160.129,315.064 148.145,308.145 148.145,294.308 "
           id="polygon172529" />
        <polygon
           style="fill:#59a4ff"
           points="244.016,375.222 244.016,389.06 232.033,382.141 232.033,368.303 "
           id="polygon172531" />
        <polygon
           style="fill:#59a4ff"
           points="227.239,365.532 227.239,379.37 215.254,372.451 215.254,358.614 "
           id="polygon172533" />
        <polygon
           style="fill:#59a4ff"
           points="210.462,355.843 210.462,369.681 198.477,362.762 198.477,348.923 "
           id="polygon172535" />
        <polygon
           style="fill:#59a4ff"
           points="193.684,346.152 193.684,359.991 181.7,353.071 181.7,339.234 "
           id="polygon172537" />
        <polygon
           style="fill:#59a4ff"
           points="176.906,336.463 176.906,350.301 164.923,343.382 164.923,329.544 "
           id="polygon172539" />
        <polygon
           style="fill:#59a4ff"
           points="160.129,326.773 160.129,340.611 148.145,333.692 148.145,319.855 "
           id="polygon172541" />
        <polygon
           style="fill:#59a4ff"
           points="244.016,400.769 244.016,414.607 232.033,407.688 232.033,393.85 "
           id="polygon172543" />
        <polygon
           style="fill:#59a4ff"
           points="227.239,391.079 227.239,404.917 215.254,397.998 215.254,384.161 "
           id="polygon172545" />
        <polygon
           style="fill:#59a4ff"
           points="210.462,381.39 210.462,395.228 198.477,388.309 198.477,374.471 "
           id="polygon172547" />
        <polygon
           style="fill:#59a4ff"
           points="193.684,371.699 193.684,385.538 181.7,378.619 181.7,364.781 "
           id="polygon172549" />
        <polygon
           style="fill:#59a4ff"
           points="176.906,362.01 176.906,375.848 164.923,368.929 164.923,355.091 "
           id="polygon172551" />
        <polygon
           style="fill:#59a4ff"
           points="160.129,352.32 160.129,366.158 148.145,359.239 148.145,345.402 "
           id="polygon172553" />
        <polygon
           style="fill:#59a4ff"
           points="244.016,426.316 244.016,440.154 232.033,433.235 232.033,419.397 "
           id="polygon172555" />
        <polygon
           style="fill:#59a4ff"
           points="227.239,416.626 227.239,430.464 215.254,423.545 215.254,409.708 "
           id="polygon172557" />
        <polygon
           style="fill:#59a4ff"
           points="210.462,406.937 210.462,420.775 198.477,413.856 198.477,400.018 "
           id="polygon172559" />
        <polygon
           style="fill:#59a4ff"
           points="193.684,397.247 193.684,411.085 181.7,404.166 181.7,390.329 "
           id="polygon172561" />
        <polygon
           style="fill:#59a4ff"
           points="176.906,387.557 176.906,401.396 164.923,394.476 164.923,380.638 "
           id="polygon172563" />
        <polygon
           style="fill:#59a4ff"
           points="160.129,377.867 160.129,391.705 148.145,384.786 148.145,370.949 "
           id="polygon172565" />
        <polygon
           style="fill:#59a4ff"
           points="244.016,451.863 244.016,465.701 232.033,458.782 232.033,444.944 "
           id="polygon172567" />
        <polygon
           style="fill:#59a4ff"
           points="227.239,442.173 227.239,456.011 215.254,449.092 215.254,435.255 "
           id="polygon172569" />
        <polygon
           style="fill:#59a4ff"
           points="210.462,432.484 210.462,446.322 198.477,439.403 198.477,425.565 "
           id="polygon172571" />
        <polygon
           style="fill:#59a4ff"
           points="193.684,422.794 193.684,436.632 181.7,429.713 181.7,415.876 "
           id="polygon172573" />
        <polygon
           style="fill:#59a4ff"
           points="176.906,413.105 176.906,426.943 164.923,420.024 164.923,406.185 "
           id="polygon172575" />
        <polygon
           style="fill:#59a4ff"
           points="160.129,403.414 160.129,417.253 148.145,410.333 148.145,396.496 "
           id="polygon172577" />
        <polygon
           style="fill:#59a4ff"
           points="244.016,477.411 244.016,491.249 232.033,484.33 232.033,470.491 "
           id="polygon172579" />
        <polygon
           style="fill:#59a4ff"
           points="227.239,467.72 227.239,481.558 215.254,474.639 215.254,460.802 "
           id="polygon172581" />
        <polygon
           style="fill:#59a4ff"
           points="210.462,458.031 210.462,471.869 198.477,464.95 198.477,451.112 "
           id="polygon172583" />
        <polygon
           style="fill:#59a4ff"
           points="193.684,448.342 193.684,462.179 181.7,455.26 181.7,441.423 "
           id="polygon172585" />
        <polygon
           style="fill:#59a4ff"
           points="176.906,438.652 176.906,452.49 164.923,445.571 164.923,431.733 "
           id="polygon172587" />
        <polygon
           style="fill:#59a4ff"
           points="160.129,428.963 160.129,442.8 148.145,435.881 148.145,422.043 "
           id="polygon172589" />
      </g>
      <polygon
         style="fill:#898890"
         points="160.129,69.189 256,124.541 351.872,69.189 256,13.838 "
         id="polygon172593" />
      <polygon
         style="fill:#acabb1"
         points="256,27.675 172.113,76.108 160.129,69.189 256,13.838 "
         id="polygon172595" />
      <polyline
         style="fill:#c6c5cb"
         points="256,27.675 339.887,76.108 351.872,69.189 256,13.838 "
         id="polyline172597" />
      <polygon
         style="fill:#e0e0e2"
         points="237.993,48.952 261.962,35.113 312.525,64.204 312.525,78.042 288.558,91.879 237.993,62.79 "
         id="polygon172599" />
      <polygon
         style="fill:#c6c5cb"
         points="237.993,48.952 237.993,62.79 288.558,91.879 288.558,78.042 "
         id="polygon172601" />
      <polygon
         style="fill:#acabb1"
         points="288.558,91.879 312.525,78.042 312.525,64.204 288.558,78.042 "
         id="polygon172603" />
      <path
         style="fill:#c6c5cb"
         d="m 235.896,82.301 v -7.582 0 c 0.003,-2.508 -1.642,-5.016 -4.939,-6.919 -6.591,-3.805 -17.377,-3.805 -23.968,0 -3.296,1.903 -4.946,4.411 -4.947,6.919 v 0 7.582 0 c -0.004,2.508 1.64,5.015 4.933,6.917 6.584,3.801 17.37,3.801 23.968,0 3.3,-1.902 4.952,-4.41 4.953,-6.917 z"
         id="path172605" />
      <path
         style="fill:#e0e0e2"
         d="m 206.988,67.8 c -6.591,3.805 -6.598,10.028 -0.014,13.83 6.584,3.801 17.37,3.801 23.968,0 6.599,-3.801 6.605,-10.024 0.014,-13.83 -6.591,-3.806 -17.376,-3.806 -23.968,0 z"
         id="path172607" />
      <path
         style="fill:#c6c5cb"
         d="m 266.535,100.563 v -7.582 0 c 0.003,-2.508 -1.642,-5.016 -4.939,-6.919 -6.591,-3.805 -17.377,-3.805 -23.968,0 -3.296,1.903 -4.946,4.412 -4.947,6.919 v 0 7.582 0 c -0.004,2.508 1.64,5.016 4.933,6.917 6.583,3.801 17.369,3.801 23.968,0 3.3,-1.901 4.951,-4.409 4.953,-6.917 z"
         id="path172609" />
      <path
         style="fill:#e0e0e2"
         d="m 237.627,86.063 c -6.591,3.805 -6.598,10.028 -0.014,13.829 6.583,3.801 17.369,3.801 23.968,0 6.599,-3.801 6.605,-10.024 0.014,-13.829 -6.591,-3.806 -17.376,-3.806 -23.968,0 z"
         id="path172611" />
    </g>
    <g
       aria-label="LOCAZIONI"
       id="text3108"
       style="font-size:7.54306px;line-height:1.25;fill:#0064a3;stroke-width:0.56573"
       transform="translate(4.501884,20.010678)">
      <path
         d="m 18.887043,-8.4366659 v 0.8986849 h -2.983339 v -5.362644 h 1.086525 v 4.4639591 z"
         style="font-weight:bold;font-family:'Roboto Condensed';-inkscape-font-specification:'Roboto Condensed,  Bold'"
         id="path17909" />
      <path
         d="m 23.052669,-9.7404956 q 0,1.1344055 -0.530372,1.7052914 -0.530371,0.5708859 -1.395908,0.5708859 -0.861853,0 -1.399591,-0.5708859 -0.537738,-0.5708859 -0.537738,-1.7052914 v -0.8913184 q 0,-1.160188 0.534055,-1.749489 0.534054,-0.592985 1.395908,-0.592985 0.865537,0 1.399591,0.592985 0.534055,0.589301 0.534055,1.749489 z M 21.969827,-10.63918 q 0,-0.766092 -0.217305,-1.097575 -0.217305,-0.331482 -0.633499,-0.331482 -0.412511,0 -0.629816,0.327799 -0.213622,0.324116 -0.217305,1.071792 v 0.9281504 q 0,0.7292607 0.217305,1.0533765 0.220988,0.3204328 0.637182,0.3204328 0.412511,0 0.626133,-0.3167496 0.213622,-0.3167496 0.217305,-1.0312777 z"
         style="font-weight:bold;font-family:'Roboto Condensed';-inkscape-font-specification:'Roboto Condensed,  Bold'"
         id="path17906" />
      <path
         d="m 26.382222,-9.3279845 h 1.082842 q -0.03683,0.9134174 -0.515639,1.3885418 -0.478808,0.4751244 -1.340661,0.4751244 -0.883953,0 -1.37381,-0.5782522 -0.489856,-0.5782521 -0.500906,-1.66846 v -0.9612985 q 0,-1.123356 0.50459,-1.712657 0.508272,-0.592985 1.384858,-0.592985 0.876586,0 1.333295,0.49354 0.456709,0.489857 0.515639,1.403274 h -1.082842 q -0.01842,-0.574569 -0.180473,-0.784507 -0.162058,-0.213622 -0.585619,-0.213622 -0.416194,0 -0.607717,0.298334 -0.191523,0.298334 -0.198889,1.042327 v 0.9760306 q 0,0.7587258 0.165741,1.0791585 0.165741,0.3204327 0.626133,0.3204327 0.401461,0 0.578252,-0.191523 0.17679,-0.191523 0.195206,-0.7734583 z"
         style="font-weight:bold;font-family:'Roboto Condensed';-inkscape-font-specification:'Roboto Condensed,  Bold'"
         id="path17903" />
      <path
         d="m 27.781814,-7.537981 1.675826,-5.362644 h 0.990763 l 1.686876,5.362644 h -1.152821 l -0.287285,-1.0975742 h -1.476937 l -0.287284,1.0975742 z m 1.672143,-1.9999422 h 1.005496 l -0.50459,-1.9152298 z"
         style="font-weight:bold;font-family:'Roboto Condensed';-inkscape-font-specification:'Roboto Condensed,  Bold'"
         id="path17900" />
      <path
         d="m 32.474127,-11.998257 v -0.902368 h 3.462147 v 0.633499 l -2.17305,3.8304601 h 2.209881 v 0.8986849 h -3.476879 v -0.6519149 l 2.187782,-3.8083611 z"
         style="font-weight:bold;font-family:'Roboto Condensed';-inkscape-font-specification:'Roboto Condensed,  Bold'"
         id="path17897" />
      <path
         d="m 37.770474,-12.900625 v 5.362644 h -1.082841 v -5.362644 z"
         style="font-weight:bold;font-family:'Roboto Condensed';-inkscape-font-specification:'Roboto Condensed,  Bold'"
         id="path17894" />
      <path
         d="m 42.455422,-9.7404956 q 0,1.1344055 -0.530372,1.7052914 -0.530371,0.5708859 -1.395908,0.5708859 -0.861853,0 -1.399591,-0.5708859 -0.537738,-0.5708859 -0.537738,-1.7052914 v -0.8913184 q 0,-1.160188 0.534055,-1.749489 0.534054,-0.592985 1.395908,-0.592985 0.865537,0 1.399591,0.592985 0.534055,0.589301 0.534055,1.749489 z M 41.37258,-10.63918 q 0,-0.766092 -0.217305,-1.097575 -0.217305,-0.331482 -0.633499,-0.331482 -0.412511,0 -0.629816,0.327799 -0.213622,0.324116 -0.217305,1.071792 v 0.9281504 q 0,0.7292607 0.217305,1.0533765 0.220988,0.3204328 0.637182,0.3204328 0.412511,0 0.626133,-0.3167496 0.213622,-0.3167496 0.217305,-1.0312777 z"
         style="font-weight:bold;font-family:'Roboto Condensed';-inkscape-font-specification:'Roboto Condensed,  Bold'"
         id="path17891" />
      <path
         d="m 46.985678,-12.900625 v 5.362644 h -1.082842 l -1.583748,-3.517394 v 3.517394 h -1.086525 v -5.362644 h 1.086525 l 1.583748,3.5210766 v -3.5210766 z"
         style="font-weight:bold;font-family:'Roboto Condensed';-inkscape-font-specification:'Roboto Condensed,  Bold'"
         id="path17888" />
      <path
         d="m 48.981936,-12.900625 v 5.362644 h -1.082841 v -5.362644 z"
         style="font-weight:bold;font-family:'Roboto Condensed';-inkscape-font-specification:'Roboto Condensed,  Bold'"
         id="path17885" />
    </g>
  </g>
</svg>
