<?xml version="1.0" encoding="UTF-8" standalone="no"?>
<!-- Created with Inkscape (http://www.inkscape.org/) -->

<svg
   width="300"
   height="74"
   viewBox="0 0 79.374996 19.579166"
   version="1.1"
   id="svg5"
   inkscape:version="1.2.2 (b0a8486541, 2022-12-01)"
   sodipodi:docname="category_index_logo.svg"
   xml:space="preserve"
   xmlns:inkscape="http://www.inkscape.org/namespaces/inkscape"
   xmlns:sodipodi="http://sodipodi.sourceforge.net/DTD/sodipodi-0.dtd"
   xmlns="http://www.w3.org/2000/svg"
   xmlns:svg="http://www.w3.org/2000/svg"><sodipodi:namedview
     id="namedview7"
     pagecolor="#505050"
     bordercolor="#eeeeee"
     borderopacity="1"
     inkscape:pageshadow="0"
     inkscape:pageopacity="0"
     inkscape:pagecheckerboard="0"
     inkscape:document-units="px"
     showgrid="false"
     inkscape:showpageshadow="false"
     inkscape:zoom="3.96"
     inkscape:cx="158.33333"
     inkscape:cy="72.348485"
     inkscape:window-width="2528"
     inkscape:window-height="1404"
     inkscape:window-x="32"
     inkscape:window-y="0"
     inkscape:window-maximized="1"
     inkscape:current-layer="layer1"
     inkscape:snap-global="false"
     inkscape:snap-bbox="false"
     units="px"
     inkscape:snap-nodes="true"
     inkscape:deskcolor="#505050" /><defs
     id="defs2" /><g
     inkscape:label="Livello 1"
     inkscape:groupmode="layer"
     id="layer1"><circle
       style="fill:#1d6862;fill-opacity:1;stroke-width:0.0330729"
       cx="9.5250006"
       cy="9.7895823"
       r="8.4666662"
       id="circle1004" /><path
       style="fill:#1a5b56;fill-opacity:1;stroke-width:0.0330729"
       d="M 17.991665,9.7895831 13.269402,5.4660686 6.1143515,5.4434694 C 5.2031316,6.9058445 5.0928357,10.04579 5.3142109,13.496739 l 3.0797279,-2.704214 -3.1250404,2.71264 4.2561009,4.751084 c 4.6759827,0 8.4666657,-3.790685 8.4666657,-8.4666659 z"
       id="path1006"
       sodipodi:nodetypes="cccccccc" /><g
       id="path34461"
       style="fill:#1d6862;fill-opacity:1"><path
         style="color:#000000;fill:#1d6862;stroke-width:0.926042;-inkscape-stroke:none;fill-opacity:1"
         d="M 20.184966,14.143537 H 76.053449"
         id="path42950" /><path
         style="color:#000000;fill:#1d6862;fill-opacity:1;-inkscape-stroke:none"
         d="m 20.185547,13.679688 v 0.927734 l 34.611902,0 v -0.927734 z"
         id="path42952"
         sodipodi:nodetypes="ccccc" /></g><g
       id="g1578"
       transform="translate(35.932329,4.0665193)"
       style="fill:#ff2a2a"><path
         d="m -28.514917,1.2950779 h -0.841309 c -0.969719,0 -1.478932,0.5092132 -1.478932,1.4745043 V 3.610891 c 0,0.9652911 0.509213,1.4745043 1.474504,1.4745043 h 0.841309 c 0.965291,0 1.474504,-0.5092132 1.474504,-1.4745043 V 2.7695822 c 0.0045,-0.9652911 -0.504785,-1.4745043 -1.470076,-1.4745043 z"
         fill="#292d32"
         id="path1082"
         style="fill:#ff2a2a;stroke-width:0.442794" /><path
         opacity="0.4"
         d="m -23.454002,1.2950779 h -0.841309 c -0.965291,0 -1.474504,0.5092132 -1.474504,1.4745043 V 3.610891 c 0,0.9652911 0.509213,1.4745043 1.474504,1.4745043 h 0.841309 c 0.965291,0 1.474504,-0.5092132 1.474504,-1.4745043 V 2.7695822 c 0,-0.9652911 -0.509213,-1.4745043 -1.474504,-1.4745043 z"
         fill="#292d32"
         id="path1084"
         style="opacity:1;fill:#ff2a2a;stroke-width:0.442794" /><path
         d="m -23.454002,6.3563028 h -0.841309 c -0.965291,0 -1.474504,0.5092132 -1.474504,1.4745043 v 0.8413085 c 0,0.9652915 0.509213,1.4745044 1.474504,1.4745044 h 0.841309 c 0.965291,0 1.474504,-0.5092129 1.474504,-1.4745044 V 7.8308071 c 0,-0.9652911 -0.509213,-1.4745043 -1.474504,-1.4745043 z"
         fill="#292d32"
         id="path1086"
         style="fill:#ff2a2a;stroke-width:0.442794" /><path
         opacity="0.4"
         d="m -28.514917,6.3563028 h -0.841309 c -0.969719,0 -1.478932,0.5092132 -1.478932,1.4745043 v 0.8413085 c 0,0.9697194 0.509213,1.4789324 1.474504,1.4789324 h 0.841309 c 0.965291,0 1.474504,-0.509213 1.474504,-1.474504 V 7.8352351 c 0.0045,-0.9697191 -0.504785,-1.4789323 -1.470076,-1.4789323 z"
         fill="#292d32"
         id="path1088"
         style="opacity:1;fill:#ff2a2a;stroke-width:0.442794" /></g><g
       aria-label="CATEGORIE"
       id="text3895"
       style="font-size:7.54306px;line-height:1.25;fill:#1d6862;stroke-width:0.353581;fill-opacity:1"
       transform="translate(0,9.888487)"><path
         d="m 22.835966,0.79425606 h 1.082841 q -0.03683,0.91341744 -0.515638,1.38854174 -0.478808,0.4751244 -1.340661,0.4751244 -0.883953,0 -1.37381,-0.5782521 Q 20.198841,1.5014179 20.187792,0.41121005 V -0.5500881 q 0,-1.1233561 0.50459,-1.7126576 0.508272,-0.5929847 1.384858,-0.5929847 0.876586,0 1.333295,0.49354 0.456709,0.4898569 0.515639,1.40327435 h -1.082842 q -0.01842,-0.57456905 -0.180473,-0.78450765 -0.162058,-0.2136219 -0.585619,-0.2136219 -0.416194,0 -0.607717,0.298334 -0.191523,0.2983339 -0.198889,1.04232707 v 0.97603069 q 0,0.75872574 0.165741,1.07915844 0.165741,0.3204327 0.626133,0.3204327 0.401461,0 0.578252,-0.191523 0.17679,-0.191523 0.195206,-0.77345824 z"
         style="font-weight:bold;font-family:'Roboto Condensed';-inkscape-font-specification:'Roboto Condensed,  Bold';fill:#1d6862;fill-opacity:1"
         id="path14016" /><path
         d="m 24.235557,2.5842595 1.675826,-5.3626441 h 0.990764 l 1.686875,5.3626441 H 27.436201 L 27.148917,1.4866854 H 25.67198 L 25.384695,2.5842595 Z M 25.9077,0.58431738 h 1.005496 L 26.408607,-1.3309127 Z"
         style="font-weight:bold;font-family:'Roboto Condensed';-inkscape-font-specification:'Roboto Condensed,  Bold';fill:#1d6862;fill-opacity:1"
         id="path14013" /><path
         d="m 28.412232,-1.8760166 v -0.902368 h 3.716283 v 0.902368 h -1.329612 v 4.4602761 h -1.082841 v -4.4602761 z"
         style="font-weight:bold;font-family:'Roboto Condensed';-inkscape-font-specification:'Roboto Condensed,  Bold';fill:#1d6862;fill-opacity:1"
         id="path14010" /><path
         d="m 32.750965,2.5842595 v -5.3626441 h 3.071734 v 0.902368 h -1.98521 v 1.26699834 h 1.683193 V 0.26388466 H 33.837489 V 1.6855746 h 1.992576 v 0.8986849 z"
         style="font-weight:bold;font-family:'Roboto Condensed';-inkscape-font-specification:'Roboto Condensed,  Bold';fill:#1d6862;fill-opacity:1"
         id="path14007" /><path
         d="M 40.102501,-0.23702166 V 1.9765423 q -0.169425,0.1804736 -0.589302,0.4309267 -0.419877,0.2504532 -1.17492,0.2504532 -0.895002,0 -1.432739,-0.5635196 Q 36.371485,1.5271999 36.371485,0.35964616 V -0.5500881 q 0,-1.1712368 0.511956,-1.7384396 0.511956,-0.5672027 1.388542,-0.5672027 0.909734,0 1.336978,0.4567087 0.427243,0.4530256 0.489856,1.3259285 h -1.049693 q -0.0442,-0.5045895 -0.217305,-0.6924293 -0.169424,-0.1915231 -0.530371,-0.1915231 -0.419878,0 -0.629816,0.3130665 -0.209939,0.3130664 -0.213622,1.05705965 v 0.94656561 q 0,0.76240884 0.232037,1.08284164 0.232038,0.3167495 0.710845,0.3167495 0.287285,0 0.416195,-0.077346 L 39.015976,1.5640312 V 0.58063424 h -0.762409 v -0.8176559 z"
         style="font-weight:bold;font-family:'Roboto Condensed';-inkscape-font-specification:'Roboto Condensed,  Bold';fill:#1d6862;fill-opacity:1"
         id="path14004" /><path
         d="m 44.643806,0.38174497 q 0,1.13440553 -0.530372,1.70529133 -0.530371,0.5708859 -1.395908,0.5708859 -0.861853,0 -1.399591,-0.5708859 -0.537738,-0.5708858 -0.537738,-1.70529133 v -0.89131859 q 0,-1.16018738 0.534055,-1.74948898 0.534055,-0.5929847 1.395908,-0.5929847 0.865537,0 1.399591,0.5929847 0.534055,0.5893016 0.534055,1.74948898 z m -1.082842,-0.89868486 q 0,-0.76609201 -0.217305,-1.09757411 -0.217305,-0.3314821 -0.633499,-0.3314821 -0.412511,0 -0.629816,0.3277989 -0.213622,0.3241159 -0.217305,1.07179223 v 0.92814994 q 0,0.72926063 0.217305,1.05337653 0.220988,0.3204327 0.637182,0.3204327 0.412511,0 0.626133,-0.3167496 0.213622,-0.3167496 0.217305,-1.03127769 z"
         style="font-weight:bold;font-family:'Roboto Condensed';-inkscape-font-specification:'Roboto Condensed,  Bold';fill:#1d6862;fill-opacity:1"
         id="path14001" /><path
         d="M 47.8555,2.5842595 47.048893,0.62483186 H 46.511155 V 2.5842595 h -1.086524 v -5.3626441 h 1.72739 q 0.802923,0 1.252266,0.4161942 0.449342,0.4125111 0.449342,1.2043851 0,0.58193525 -0.206256,0.93919932 -0.206255,0.35726406 -0.570885,0.5524702 L 49.01937,2.5326956 v 0.051564 z m -1.344345,-4.4602761 v 1.59848046 h 0.611401 q 0.324116,0 0.486174,-0.21362181 0.162057,-0.21730494 0.162057,-0.57825215 0,-0.7918739 -0.596667,-0.8066065 z"
         style="font-weight:bold;font-family:'Roboto Condensed';-inkscape-font-specification:'Roboto Condensed,  Bold';fill:#1d6862;fill-opacity:1"
         id="path13998" /><path
         d="M 50.728346,-2.7783846 V 2.5842595 H 49.645504 V -2.7783846 Z"
         style="font-weight:bold;font-family:'Roboto Condensed';-inkscape-font-specification:'Roboto Condensed,  Bold';fill:#1d6862;fill-opacity:1"
         id="path13995" /><path
         d="m 51.63808,2.5842595 v -5.3626441 h 3.071734 v 0.902368 h -1.985209 v 1.26699834 h 1.683192 V 0.26388466 H 52.724605 V 1.6855746 h 1.992576 v 0.8986849 z"
         style="font-weight:bold;font-family:'Roboto Condensed';-inkscape-font-specification:'Roboto Condensed,  Bold';fill:#1d6862;fill-opacity:1"
         id="path13992" /></g></g></svg>
