<?xml version="1.0" encoding="UTF-8" standalone="no"?>
<!-- Created with Inkscape (http://www.inkscape.org/) -->

<svg
   width="360"
   height="74"
   viewBox="0 0 95.249995 19.579166"
   version="1.1"
   id="svg5"
   inkscape:version="1.2.2 (b0a8486541, 2022-12-01)"
   sodipodi:docname="delivery_card_index_logo.svg"
   xml:space="preserve"
   inkscape:export-filename="../../../../UtilityLari/PngOpt/delivery_card_index_logo.png"
   inkscape:export-xdpi="96"
   inkscape:export-ydpi="96"
   xmlns:inkscape="http://www.inkscape.org/namespaces/inkscape"
   xmlns:sodipodi="http://sodipodi.sourceforge.net/DTD/sodipodi-0.dtd"
   xmlns="http://www.w3.org/2000/svg"
   xmlns:svg="http://www.w3.org/2000/svg"><sodipodi:namedview
     id="namedview7"
     pagecolor="#505050"
     bordercolor="#eeeeee"
     borderopacity="1"
     inkscape:pageshadow="0"
     inkscape:pageopacity="0"
     inkscape:pagecheckerboard="0"
     inkscape:document-units="px"
     showgrid="false"
     inkscape:showpageshadow="false"
     inkscape:zoom="3.96"
     inkscape:cx="165.15152"
     inkscape:cy="98.106061"
     inkscape:window-width="2528"
     inkscape:window-height="1404"
     inkscape:window-x="32"
     inkscape:window-y="0"
     inkscape:window-maximized="1"
     inkscape:current-layer="layer1"
     inkscape:snap-global="true"
     inkscape:snap-bbox="false"
     units="px"
     inkscape:snap-nodes="true"
     inkscape:deskcolor="#505050" /><defs
     id="defs2" /><g
     inkscape:label="Livello 1"
     inkscape:groupmode="layer"
     id="layer1"><circle
       style="fill:#1d6862;fill-opacity:1;stroke-width:0.0330729"
       cx="9.5250006"
       cy="9.7895823"
       r="8.4666662"
       id="circle1004" /><path
       style="fill:#1a5b56;fill-opacity:1;stroke-width:0.0330729"
       d="M 17.991665,9.7895831 14.65492,6.0090716 C 14.672726,6.0808296 4.1993165,13.8689 4.1993165,13.8689 l 5.3256828,4.387349 c 4.6759827,0 8.4666657,-3.790685 8.4666657,-8.4666659 z"
       id="path1006"
       sodipodi:nodetypes="ccccc" /><g
       id="path34461"
       style="fill:#1d6862;fill-opacity:1"><path
         style="color:#000000;fill:#1d6862;fill-opacity:1;stroke-width:0.926042;-inkscape-stroke:none"
         d="M 20.184966,14.143537 H 76.053449"
         id="path42950" /><path
         style="color:#000000;fill:#1d6862;fill-opacity:1;-inkscape-stroke:none"
         d="m 20.185547,13.679688 v 0.927734 h 71.276791 v -0.927734 z"
         id="path42952"
         sodipodi:nodetypes="ccccc" /></g><path
       style="fill:#ecedef;stroke-width:0.0209222"
       d="m 4.1689144,6.8282266 v 6.9867924 c 0,0.09264 0.07509,0.167733 0.1677332,0.167733 H 14.713355 c 0.09262,0 0.167733,-0.07507 0.167733,-0.167733 V 6.8282266 Z"
       id="path14653" /><path
       style="fill:#d9dcdf;stroke-width:0.0209222"
       d="M 4.5379186,13.815019 V 6.8282266 H 4.1689144 v 6.9867924 c 0,0.09264 0.07509,0.167733 0.1677332,0.167733 h 0.3690042 c -0.092643,0 -0.1677332,-0.07509 -0.1677332,-0.167733 z"
       id="path14655" /><path
       style="fill:#e6e6e6;stroke-width:0.0209222"
       d="M 13.997712,5.5964128 H 5.0522697 c -0.4878634,0 -0.8833553,0.3954918 -0.8833553,0.8833551 v 0.883355 H 14.881067 v -0.883355 c 0,-0.4878633 -0.395492,-0.8833551 -0.883355,-0.8833551 z"
       id="path14657" /><path
       style="fill:#d9dcdf;fill-opacity:1;stroke-width:0.0209222"
       d="M 5.4212739,5.5964128 H 5.0522697 c -0.4878634,0 -0.8833553,0.3954918 -0.8833553,0.8833551 v 0.883355 h 0.3690042 v -0.883355 c 0,-0.4878633 0.3954919,-0.8833551 0.8833553,-0.8833551 z"
       id="path14659" /><g
       id="g14673"
       transform="matrix(0.02092217,0,0,0.02092217,4.1689144,3.0680892)"
       style="fill:#1d6862;fill-opacity:1"><path
         style="fill:#1d6862;fill-opacity:1"
         d="m 127.733,317.996 c 34.185,0 61.996,-27.812 61.996,-61.996 0,-34.184 -27.81,-61.996 -61.996,-61.996 -34.186,0 -61.996,27.812 -61.996,61.996 0,34.184 27.81,61.996 61.996,61.996 z"
         id="path14661" /><path
         style="fill:#1d6862;fill-opacity:1"
         d="M 170.489,316.392 H 84.977 c -23.28,0 -42.221,18.941 -42.221,42.221 v 94.063 c 0,4.428 3.589,8.017 8.017,8.017 h 153.921 c 4.427,0 8.017,-3.588 8.017,-8.017 v -94.063 c -0.001,-23.28 -18.942,-42.221 -42.222,-42.221 z"
         id="path14663" /><path
         style="fill:#1d6862;fill-opacity:1"
         d="m 461.228,306.772 h -85.511 c -4.427,0 -8.017,-3.588 -8.017,-8.017 0,-4.429 3.589,-8.017 8.017,-8.017 h 85.511 c 4.427,0 8.017,3.588 8.017,8.017 0,4.429 -3.59,8.017 -8.017,8.017 z"
         id="path14665" /><path
         style="fill:#1d6862;fill-opacity:1"
         d="M 461.228,375.182 H 256 c -4.427,0 -8.017,-3.588 -8.017,-8.017 0,-4.428 3.589,-8.017 8.017,-8.017 h 205.228 c 4.427,0 8.017,3.588 8.017,8.017 -10e-4,4.428 -3.59,8.017 -8.017,8.017 z"
         id="path14667" /><path
         style="fill:#1d6862;fill-opacity:1"
         d="M 375.716,443.591 H 256 c -4.427,0 -8.017,-3.588 -8.017,-8.017 0,-4.429 3.589,-8.017 8.017,-8.017 h 119.716 c 4.427,0 8.017,3.588 8.017,8.017 0,4.429 -3.59,8.017 -8.017,8.017 z"
         id="path14669" /><path
         style="fill:#1d6862;fill-opacity:1"
         d="M 341.511,306.772 H 256 c -4.427,0 -8.017,-3.588 -8.017,-8.017 0,-4.429 3.589,-8.017 8.017,-8.017 h 85.511 c 4.427,0 8.017,3.588 8.017,8.017 0,4.429 -3.589,8.017 -8.017,8.017 z"
         id="path14671" /></g><path
       style="fill:#1d6862;fill-opacity:1;stroke-width:0.0209222"
       d="M 13.818806,7.1829784 H 9.5249904 c -0.092623,0 -0.1677327,0.075069 -0.1677327,0.1677331 v 0.715643 c 0,0.092643 0.07509,0.167733 0.1677327,0.167733 h 4.2938156 c 0.09262,0 0.167733,-0.075069 0.167733,-0.167733 v -0.715643 c -2.1e-5,-0.092643 -0.07511,-0.1677331 -0.167733,-0.1677331 z"
       id="path14681" /><g
       aria-label="TIPOLOGIE CONSEGNA"
       id="text35313"
       style="font-size:7.75553px;line-height:1.25;fill:#1d6862;stroke-width:0.36354;fill-opacity:1"
       transform="translate(0,15.346918)"><path
         d="m 20.136188,-7.3845045 v -0.9277856 h 3.820962 v 0.9277856 h -1.367064 v 4.5859115 h -1.113343 v -4.5859115 z"
         style="font-weight:bold;font-family:'Roboto Condensed';-inkscape-font-specification:'Roboto Condensed,  Bold';fill:#1d6862;fill-opacity:1"
         id="path61432" /><path
         d="M 25.759704,-8.3122901 V -2.798593 H 24.646361 V -8.3122901 Z"
         style="font-weight:bold;font-family:'Roboto Condensed';-inkscape-font-specification:'Roboto Condensed,  Bold';fill:#1d6862;fill-opacity:1"
         id="path61429" /><path
         d="m 27.812193,-4.7374755 v 1.9388825 h -1.11713 v -5.5136971 h 1.88208 q 0.833113,0 1.31026,0.5188026 0.480934,0.5150156 0.480934,1.3064735 0,0.7990316 -0.477147,1.2723916 -0.47336,0.47336 -1.302687,0.4771469 z m 0,-2.647029 v 1.7192434 h 0.76495 q 0.348393,0 0.503655,-0.2272128 0.159049,-0.2309996 0.159049,-0.5869663 0,-0.3559667 -0.159049,-0.6286221 -0.155262,-0.2764422 -0.503655,-0.2764422 z"
         style="font-weight:bold;font-family:'Roboto Condensed';-inkscape-font-specification:'Roboto Condensed,  Bold';fill:#1d6862;fill-opacity:1"
         id="path61426" /><path
         d="m 34.98833,-5.0631472 q 0,1.166359 -0.54531,1.7533254 -0.545311,0.5869664 -1.435228,0.5869664 -0.88613,0 -1.439014,-0.5869664 -0.552885,-0.5869664 -0.552885,-1.7533254 v -0.9164249 q 0,-1.1928671 0.549098,-1.7987679 0.549097,-0.6096877 1.435227,-0.6096877 0.889917,0 1.439015,0.6096877 0.549097,0.6059008 0.549097,1.7987679 z m -1.113342,-0.9239987 q 0,-0.787671 -0.223426,-1.1284901 -0.223426,-0.3408192 -0.651344,-0.3408192 -0.42413,0 -0.647556,0.3370323 -0.219639,0.3332454 -0.223426,1.101982 v 0.9542937 q 0,0.7498022 0.223426,1.0830477 0.227213,0.3294585 0.65513,0.3294585 0.424131,0 0.64377,-0.3256717 0.219639,-0.3256716 0.223426,-1.0603263 z"
         style="font-weight:bold;font-family:'Roboto Condensed';-inkscape-font-specification:'Roboto Condensed,  Bold';fill:#1d6862;fill-opacity:1"
         id="path61423" /><path
         d="m 38.854735,-3.7225917 v 0.9239987 h -3.067373 v -5.5136971 h 1.11713 v 4.5896984 z"
         style="font-weight:bold;font-family:'Roboto Condensed';-inkscape-font-specification:'Roboto Condensed,  Bold';fill:#1d6862;fill-opacity:1"
         id="path61420" /><path
         d="m 43.137697,-5.0631472 q 0,1.166359 -0.545311,1.7533254 -0.545311,0.5869664 -1.435228,0.5869664 -0.886129,0 -1.439014,-0.5869664 -0.552884,-0.5869664 -0.552884,-1.7533254 v -0.9164249 q 0,-1.1928671 0.549097,-1.7987679 0.549098,-0.6096877 1.435228,-0.6096877 0.889916,0 1.439014,0.6096877 0.549098,0.6059008 0.549098,1.7987679 z m -1.113343,-0.9239987 q 0,-0.787671 -0.223426,-1.1284901 -0.223426,-0.3408192 -0.651343,-0.3408192 -0.424131,0 -0.647557,0.3370323 -0.219639,0.3332454 -0.223426,1.101982 v 0.9542937 q 0,0.7498022 0.223426,1.0830477 0.227213,0.3294585 0.65513,0.3294585 0.424131,0 0.64377,-0.3256717 0.219639,-0.3256716 0.223426,-1.0603263 z"
         style="font-weight:bold;font-family:'Roboto Condensed';-inkscape-font-specification:'Roboto Condensed,  Bold';fill:#1d6862;fill-opacity:1"
         id="path61417" /><path
         d="m 47.689525,-5.699343 v 2.2759148 q -0.174197,0.1855571 -0.605901,0.4430649 -0.431704,0.2575079 -1.208015,0.2575079 -0.920212,0 -1.473096,-0.5793927 -0.549098,-0.5831795 -0.549098,-1.7836204 v -0.9353593 q 0,-1.2042278 0.526377,-1.7874073 0.526376,-0.5831794 1.427653,-0.5831794 0.93536,0 1.374638,0.4695731 0.439278,0.4657862 0.503655,1.3632767 h -1.079261 q -0.04544,-0.5188025 -0.223426,-0.7119334 -0.174196,-0.1969178 -0.545311,-0.1969178 -0.431704,0 -0.647556,0.3218848 -0.215852,0.3218848 -0.219639,1.0868345 v 0.9732281 q 0,0.7838842 0.238573,1.1133427 0.238574,0.3256717 0.730868,0.3256717 0.295377,0 0.427918,-0.079524 l 0.204491,-0.1211802 V -4.8586557 H 45.788511 V -5.699343 Z"
         style="font-weight:bold;font-family:'Roboto Condensed';-inkscape-font-specification:'Roboto Condensed,  Bold';fill:#1d6862;fill-opacity:1"
         id="path61414" /><path
         d="M 49.639767,-8.3122901 V -2.798593 H 48.526424 V -8.3122901 Z"
         style="font-weight:bold;font-family:'Roboto Condensed';-inkscape-font-specification:'Roboto Condensed,  Bold';fill:#1d6862;fill-opacity:1"
         id="path61411" /><path
         d="m 50.575128,-2.798593 v -5.5136971 h 3.158258 v 0.9277856 h -2.041129 v 1.3026866 h 1.730604 v 0.8974906 h -1.730604 v 1.4617356 h 2.048702 v 0.9239987 z"
         style="font-weight:bold;font-family:'Roboto Condensed';-inkscape-font-specification:'Roboto Condensed,  Bold';fill:#1d6862;fill-opacity:1"
         id="path61408" /><path
         d="M 58.792657,-4.6390166 H 59.906 q -0.03787,0.9391462 -0.530163,1.4276537 -0.492295,0.4885075 -1.378425,0.4885075 -0.908851,0 -1.412506,-0.5945402 -0.503655,-0.5945401 -0.515015,-1.7154565 v -0.9883757 q 0,-1.1549983 0.518802,-1.7608991 0.52259,-0.6096876 1.423867,-0.6096876 0.901277,0 1.37085,0.5074419 0.469574,0.503655 0.530164,1.4428012 h -1.113343 q -0.01893,-0.5907533 -0.185557,-0.8066054 -0.166623,-0.2196391 -0.602114,-0.2196391 -0.427917,0 -0.624835,0.3067373 -0.196918,0.3067373 -0.204492,1.071687 v 1.0035231 q 0,0.7800973 0.17041,1.1095558 0.170409,0.3294586 0.643769,0.3294586 0.41277,0 0.594541,-0.1969178 0.18177,-0.1969177 0.200704,-0.7952447 z"
         style="font-weight:bold;font-family:'Roboto Condensed';-inkscape-font-specification:'Roboto Condensed,  Bold';fill:#1d6862;fill-opacity:1"
         id="path61405" /><path
         d="m 64.472978,-5.0631472 q 0,1.166359 -0.545311,1.7533254 -0.54531,0.5869664 -1.435227,0.5869664 -0.88613,0 -1.439015,-0.5869664 -0.552884,-0.5869664 -0.552884,-1.7533254 v -0.9164249 q 0,-1.1928671 0.549098,-1.7987679 0.549097,-0.6096877 1.435227,-0.6096877 0.889917,0 1.439014,0.6096877 0.549098,0.6059008 0.549098,1.7987679 z m -1.113343,-0.9239987 q 0,-0.787671 -0.223426,-1.1284901 -0.223426,-0.3408192 -0.651343,-0.3408192 -0.42413,0 -0.647556,0.3370323 -0.219639,0.3332454 -0.223426,1.101982 v 0.9542937 q 0,0.7498022 0.223426,1.0830477 0.227212,0.3294585 0.65513,0.3294585 0.42413,0 0.643769,-0.3256717 0.219639,-0.3256716 0.223426,-1.0603263 z"
         style="font-weight:bold;font-family:'Roboto Condensed';-inkscape-font-specification:'Roboto Condensed,  Bold';fill:#1d6862;fill-opacity:1"
         id="path61402" /><path
         d="m 69.130837,-8.3122901 v 5.5136971 h -1.113343 l -1.628358,-3.6164703 v 3.6164703 h -1.11713 v -5.5136971 h 1.11713 l 1.628358,3.6202571 v -3.6202571 z"
         style="font-weight:bold;font-family:'Roboto Condensed';-inkscape-font-specification:'Roboto Condensed,  Bold';fill:#1d6862;fill-opacity:1"
         id="path61399" /><path
         d="m 72.353473,-4.248968 q 0,-0.284016 -0.140115,-0.4657862 -0.136327,-0.1855571 -0.723294,-0.4241306 -0.586966,-0.2385734 -1.026244,-0.6059007 -0.465786,-0.3900487 -0.465786,-1.1019821 0,-0.6967859 0.488507,-1.1171295 0.488508,-0.4241306 1.257244,-0.4241306 0.791458,0 1.261031,0.4771469 0.47336,0.4771469 0.47336,1.2231622 h -1.113342 q 0,-0.3446061 -0.151476,-0.568032 -0.147688,-0.2234259 -0.488507,-0.2234259 -0.314311,0 -0.465786,0.1855571 -0.147689,0.1855571 -0.147689,0.4506387 0,0.2688685 0.223426,0.4506387 0.227213,0.1817702 0.598327,0.3446061 0.772524,0.2764422 1.154999,0.692999 0.382475,0.4165568 0.382475,1.0981951 0,0.7270809 -0.458213,1.1322771 -0.458212,0.4014093 -1.245883,0.4014093 -0.47336,0 -0.912638,-0.1931309 -0.435492,-0.1931309 -0.715721,-0.5945402 -0.280229,-0.4014092 -0.280229,-1.0300313 h 1.11713 q 0,0.4998682 0.196918,0.7043597 0.200704,0.2044915 0.59454,0.2044915 0.321884,0 0.454425,-0.1741965 0.132541,-0.1779833 0.132541,-0.4430649 z"
         style="font-weight:bold;font-family:'Roboto Condensed';-inkscape-font-specification:'Roboto Condensed,  Bold';fill:#1d6862;fill-opacity:1"
         id="path61396" /><path
         d="m 74.209045,-2.798593 v -5.5136971 h 3.158257 v 0.9277856 h -2.041128 v 1.3026866 h 1.730604 v 0.8974906 h -1.730604 v 1.4617356 h 2.048702 v 0.9239987 z"
         style="font-weight:bold;font-family:'Roboto Condensed';-inkscape-font-specification:'Roboto Condensed,  Bold';fill:#1d6862;fill-opacity:1"
         id="path61393" /><path
         d="m 81.767655,-5.699343 v 2.2759148 q -0.174196,0.1855571 -0.6059,0.4430649 -0.431705,0.2575079 -1.208015,0.2575079 -0.920212,0 -1.473096,-0.5793927 -0.549098,-0.5831795 -0.549098,-1.7836204 v -0.9353593 q 0,-1.2042278 0.526376,-1.7874073 0.526377,-0.5831794 1.427654,-0.5831794 0.935359,0 1.374638,0.4695731 0.439278,0.4657862 0.503655,1.3632767 h -1.079261 q -0.04544,-0.5188025 -0.223426,-0.7119334 -0.174197,-0.1969178 -0.545311,-0.1969178 -0.431704,0 -0.647556,0.3218848 -0.215852,0.3218848 -0.219639,1.0868345 v 0.9732281 q 0,0.7838842 0.238573,1.1133427 0.238574,0.3256717 0.730868,0.3256717 0.295377,0 0.427917,-0.079524 l 0.204492,-0.1211802 V -4.8586557 H 79.866642 V -5.699343 Z"
         style="font-weight:bold;font-family:'Roboto Condensed';-inkscape-font-specification:'Roboto Condensed,  Bold';fill:#1d6862;fill-opacity:1"
         id="path61390" /><path
         d="m 86.414158,-8.3122901 v 5.5136971 h -1.113342 l -1.628359,-3.6164703 v 3.6164703 h -1.117129 v -5.5136971 h 1.117129 l 1.628359,3.6202571 v -3.6202571 z"
         style="font-weight:bold;font-family:'Roboto Condensed';-inkscape-font-specification:'Roboto Condensed,  Bold';fill:#1d6862;fill-opacity:1"
         id="path61387" /><path
         d="m 87.012488,-2.798593 1.72303,-5.5136971 h 1.018671 L 91.48858,-2.798593 H 90.303286 L 90.00791,-3.9270832 h -1.518539 l -0.295377,1.1284902 z m 1.719243,-2.0562758 h 1.033818 l -0.518802,-1.9691775 z"
         style="font-weight:bold;font-family:'Roboto Condensed';-inkscape-font-specification:'Roboto Condensed,  Bold';fill:#1d6862;fill-opacity:1"
         id="path61384" /></g></g></svg>
