<?xml version="1.0" encoding="UTF-8" standalone="no"?>
<!-- Created with Inkscape (http://www.inkscape.org/) -->

<svg
   width="16"
   height="16"
   viewBox="0 0 4.2333331 4.2333331"
   version="1.1"
   id="svg5"
   inkscape:version="1.2.2 (b0a8486541, 2022-12-01)"
   sodipodi:docname="favicon.svg"
   inkscape:export-filename="../../../../UtilityUrejeno/Images/favicon.png"
   inkscape:export-xdpi="96"
   inkscape:export-ydpi="96"
   xml:space="preserve"
   xmlns:inkscape="http://www.inkscape.org/namespaces/inkscape"
   xmlns:sodipodi="http://sodipodi.sourceforge.net/DTD/sodipodi-0.dtd"
   xmlns="http://www.w3.org/2000/svg"
   xmlns:svg="http://www.w3.org/2000/svg"><sodipodi:namedview
     id="namedview7"
     pagecolor="#ffffff"
     bordercolor="#000000"
     borderopacity="0.25"
     inkscape:showpageshadow="false"
     inkscape:pageopacity="0.0"
     inkscape:pagecheckerboard="0"
     inkscape:deskcolor="#d1d1d1"
     inkscape:document-units="px"
     showgrid="false"
     inkscape:zoom="4.6914063"
     inkscape:cx="47.746878"
     inkscape:cy="19.077435"
     inkscape:window-width="2528"
     inkscape:window-height="1404"
     inkscape:window-x="32"
     inkscape:window-y="0"
     inkscape:window-maximized="1"
     inkscape:current-layer="layer1" /><defs
     id="defs2"><clipPath
       clipPathUnits="userSpaceOnUse"
       id="clipPath867"><path
         d="M 0,500 H 500 V 0 H 0 Z"
         id="path865" /></clipPath><clipPath
       clipPathUnits="userSpaceOnUse"
       id="clipPath875"><path
         d="M 17.9194,398.33 H 493.137 V 88.8115 H 17.9194 Z"
         id="path873" /></clipPath><linearGradient
       x1="0"
       y1="0"
       x2="1"
       y2="0"
       gradientUnits="userSpaceOnUse"
       gradientTransform="matrix(-1.47e-5,-337.38577,-337.38577,1.47e-5,255.52832,408.33008)"
       spreadMethod="pad"
       id="linearGradient887"><stop
         style="stop-opacity:1;stop-color:#feb89e"
         offset="0"
         id="stop881" /><stop
         style="stop-opacity:1;stop-color:#c0416e"
         offset="0.996898"
         id="stop883" /><stop
         style="stop-opacity:1;stop-color:#c0416e"
         offset="1"
         id="stop885" /></linearGradient><clipPath
       clipPathUnits="userSpaceOnUse"
       id="clipPath911"><path
         d="M 0,500 H 500 V 0 H 0 Z"
         id="path909" /></clipPath><clipPath
       clipPathUnits="userSpaceOnUse"
       id="clipPath1043"><path
         d="m 310.981,327.453 h 10.555 v -9.511 h -10.555 z"
         id="path1041" /></clipPath><clipPath
       clipPathUnits="userSpaceOnUse"
       id="clipPath1095"><path
         d="m 282.58,328.974 h 22.778 V 311.382 H 282.58 Z"
         id="path1093" /></clipPath><clipPath
       clipPathUnits="userSpaceOnUse"
       id="clipPath1279"><path
         d="m 185.277,297.779 h 8.685 v -15.041 h -8.685 z"
         id="path1277" /></clipPath><clipPath
       clipPathUnits="userSpaceOnUse"
       id="clipPath1339"><path
         d="m 188.407,328.125 h 23.068 v -24.747 h -23.068 z"
         id="path1337" /></clipPath><clipPath
       clipPathUnits="userSpaceOnUse"
       id="clipPath1539"><path
         d="M 75.6909,382.215 H 96.6572 V 361.581 H 75.6909 Z"
         id="path1537" /></clipPath><clipPath
       clipPathUnits="userSpaceOnUse"
       id="clipPath1555"><path
         d="M 82.5454,360.024 H 104.37 V 338.622 H 82.5454 Z"
         id="path1553" /></clipPath><clipPath
       clipPathUnits="userSpaceOnUse"
       id="clipPath1727"><path
         d="m 399.336,363.466 h 15.627 v -19.354 h -15.627 z"
         id="path1725" /></clipPath><clipPath
       clipPathUnits="userSpaceOnUse"
       id="clipPath2302"><path
         d="M 4868.62,888.109 H 264.438 c 0,0 -310.6919,1254.851 254.234,1411.581 123.168,34.17 237.777,46.07 342.808,46.07 120.446,0 228.3,-15.64 322.12,-31.28 93.81,-15.64 173.6,-31.28 237.84,-31.28 121.91,0 187.88,56.28 187.88,275.72 0,834.31 101.81,1424.37 426.17,1424.37 68.8,0 147.56,-26.51 237.54,-82.88 397.25,-248.84 678.82,-274.75 911.12,-274.75 30.54,0 60.23,0.45 89.22,0.9 28.98,0.44 57.28,0.89 85.02,0.89 203.97,0 378.21,-24.2 582.79,-250.64 512.9,-567.76 -112.06,-1464.83 160.55,-1464.83 6.34,0 13.11,0.48 20.44,1.46 127.3,17.05 248.35,45.17 356.92,45.17 166.69,0 303.99,-66.24 389.53,-340.5 141.18,-452.9 0,-730.001 0,-730.001 M 2042.58,2831.56 c -70.64,0 -144.09,-5.66 -152.07,-20.9 -46.19,-71.38 0,-422.7 -2.81,-461.9 -2.79,-39.18 -11.67,-181.9 -11.67,-181.9 27.14,-15.66 75.64,-20.66 126.55,-20.66 90.01,0 187.51,15.64 187.51,15.64 0,0 -22.44,144.95 -22.44,188.34 0,43.39 34.58,442.93 9.8,469.9 -6.07,6.6 -69.25,11.48 -134.87,11.48 m 693.5,305.18 c -2.58,0 -5.1,-0.05 -7.54,-0.14 -42.06,-1.56 -117.55,-48.72 -117.55,-48.72 0,0 -84.98,-287.91 -67.87,-416.17 0.94,-6.97 20.92,-20.09 68.05,-20.08 49.59,0 129.24,14.52 248.31,65.97 l 34.42,117.34 c 0,0 -223.66,-82.92 -259.97,-86.75 0,0 -4.7,310.65 8.58,310.65 h 0.01 c 0.61,-0.01 1.21,-0.01 1.81,-0.01 61.76,0 86.13,47.3 86.13,47.3 0,0 46.82,-10.99 67.86,-13.23 1.18,-0.13 2.23,-0.19 3.18,-0.19 15.98,0 0.65,16.89 0.65,16.89 1.88,-0.21 3.72,-0.3 5.52,-0.3 7.99,0 14.96,1.92 19.71,4.54 13.26,1.18 25.94,6.85 37.63,14.9 -0.78,-45.01 2.4,-102.77 16.42,-136.2 17.26,-41.18 53.1,-65.62 92.78,-65.62 8.98,0 18.14,1.25 27.34,3.84 27.04,7.61 45.89,17.28 59.03,28.65 -0.08,-0.23 -0.13,-0.35 -0.13,-0.35 0,0 84.95,30.94 100.51,148.33 1.94,14.71 2.5,28.32 1.86,40.89 52.59,0.73 70.91,31.93 69.86,63.12 -1.06,31.56 -21.95,63.13 -47.2,63.13 -0.85,0 -1.71,-0.04 -2.57,-0.11 -33.75,-2.86 -54.04,-16.72 -64.4,-26.53 -30.18,27.56 -69.9,39.13 -100.09,41.48 -0.02,0 -0.04,0.01 -0.06,0.01 -0.07,0 -0.15,0.01 -0.23,0.01 -3,0.23 -5.93,0.34 -8.8,0.34 v 0 0 0 c -0.01,0 -0.03,0 -0.04,0 -54.47,-0.01 -83.86,-39.25 -84.54,-40.17 -0.01,-0.01 -0.01,-0.01 -0.01,-0.01 v 0 c -0.03,0 -0.06,0 -0.09,0 -1.77,0.18 -3.98,0.29 -6.55,0.29 v 0 0 0 c -0.09,0 -0.18,0 -0.26,0 -21.63,-0.06 -67.36,-7.79 -81.45,-45.43 -0.05,-0.13 -0.09,-0.25 -0.14,-0.38 -0.05,-0.13 -0.1,-0.27 -0.15,-0.41 -0.04,-0.12 -0.09,-0.24 -0.13,-0.36 -0.06,-0.17 -0.11,-0.33 -0.17,-0.49 v 0 c -8.13,-23.75 -10,-47.84 -10,-64.94 0,-5.13 0.17,-9.62 0.39,-13.3 -16.74,5.55 -58.05,12.21 -90.11,12.21 M 1906.32,2854.3 c -0.01,-0.31 -0.32,-27.67 26.88,-27.67 1.53,0 3.15,0.09 4.87,0.27 32.28,3.47 25.6,30.47 25.6,30.47 0,0 15.65,-8.72 27.65,-8.72 6.63,0 12.14,2.66 13.29,10.92 3.24,23.18 -32.26,36.96 -32.26,36.96 0,0 10.96,29.65 -1.77,58.16 2.64,0.26 5.18,0.87 7.57,1.77 21.15,-24.7 50.62,-38.14 79.24,-38.14 37.67,0 73.87,23.28 87.67,74.78 16.68,62.24 14.97,119.52 11.99,150.66 2.4,1.12 4.6,2.35 6.56,3.72 31.55,21.83 34.82,76.87 -4.29,80.37 -5.2,0.47 -9.79,0.67 -13.85,0.67 -26.47,0 -30.09,-8.62 -30.09,-8.62 0,0 13.94,61.35 -31.62,61.35 -0.68,0 -1.36,-0.01 -2.06,-0.04 -48.04,-1.86 -101.71,-45.04 -101.71,-45.04 0,0 -20.73,10.7 -41.49,10.7 -10.57,0 -21.13,-2.76 -29,-11.11 v 0 c -0.02,-0.02 -0.04,-0.04 -0.06,-0.07 h -0.01 c -0.02,-0.02 -0.04,-0.05 -0.06,-0.07 0,0 0,0 -0.01,-0.01 -0.02,-0.02 -0.03,-0.04 -0.05,-0.06 -0.01,0 -0.01,-0.01 -0.01,-0.01 -0.02,-0.02 -0.04,-0.04 -0.06,-0.06 v -0.01 c -0.03,-0.02 -0.05,-0.04 -0.07,-0.07 v 0 c -0.02,-0.02 -0.04,-0.05 -0.06,-0.07 v 0 c -2.44,-2.77 -4.98,-7.35 -7.46,-13.32 0,-0.01 -0.01,-0.02 -0.01,-0.03 -0.01,-0.03 -0.03,-0.07 -0.04,-0.1 -0.01,-0.02 -0.02,-0.05 -0.03,-0.07 -0.01,-0.01 -0.01,-0.03 -0.02,-0.05 -20.27,-49.04 -36.86,-190.06 33.83,-190.06 3.34,0 6.87,0.31 10.61,0.97 1.37,-7.13 2.96,-14.15 4.8,-20.93 -8.59,-5.9 -14.02,-16.21 -13.41,-27.63 0.11,-2.07 0.42,-4.08 0.89,-6.02 -8.07,-0.57 -18.57,-1.6 -28.55,-3.49 -11.74,-2.21 -22.77,-5.61 -28.29,-10.8 0,0 0,0 0,-0.01 -0.05,-0.05 -0.11,-0.1 -0.16,-0.15 -0.01,-0.01 -0.01,-0.01 -0.02,-0.02 -0.01,-0.01 -0.02,-0.02 -0.02,-0.02 -0.01,-0.01 -0.03,-0.02 -0.04,-0.03 0,-0.01 -0.01,-0.01 -0.01,-0.02 -0.02,-0.02 -0.04,-0.03 -0.05,-0.05 -4.15,-4.11 -5.63,-11.43 -5.63,-19.79 -0.01,-20.97 9.28,-48.51 9.28,-48.51 0,0 -29.6,-7.32 -31.81,-26.32 -0.13,-1.14 -0.19,-2.25 -0.2,-3.33 -0.02,-17.27 16.24,-26.17 30.9,-26.17 10.87,0 20.86,4.9 22.65,14.93 v 0 0 c 0,0 0,0 0,-0.01 v 0"
         id="path2300" /></clipPath><linearGradient
       x1="0"
       y1="0"
       x2="1"
       y2="0"
       gradientUnits="userSpaceOnUse"
       gradientTransform="matrix(-2.0727196e-5,-536.42694,-474.10614,2.3451765e-5,236.64257,527.82025)"
       spreadMethod="pad"
       id="linearGradient2310"><stop
         style="stop-opacity:1;stop-color:#fff1ec"
         offset="0"
         id="stop2304" /><stop
         style="stop-opacity:1;stop-color:#f2d9e2"
         offset="0.996898"
         id="stop2306" /><stop
         style="stop-opacity:1;stop-color:#f2d9e2"
         offset="1"
         id="stop2308" /></linearGradient><clipPath
       clipPathUnits="userSpaceOnUse"
       id="clipPath2404"><path
         d="m 2835.8,3202.77 c 0.06,0.16 0.11,0.32 0.17,0.49 -0.06,-0.17 -0.11,-0.33 -0.17,-0.49 m 0.3,0.85 c 0.05,0.14 0.1,0.28 0.15,0.41 -0.05,-0.13 -0.1,-0.27 -0.15,-0.41 m 0.29,0.79 c 14.09,37.64 59.82,45.37 81.45,45.43 -21.63,-0.06 -67.36,-7.8 -81.45,-45.43 m 88.35,45.14 c -0.03,0 -0.06,0 -0.09,0 0.03,0 0.06,0 0.09,0 m 0.01,0.01 c 0.68,0.92 30.07,40.16 84.54,40.17 -54.46,-0.02 -83.86,-39.25 -84.54,-40.17 m -6.65,0.28 v 0 0 0 m 100.32,39.53 c -0.02,0 -0.04,0 -0.06,0.01 0.02,0 0.04,-0.01 0.06,-0.01 m -9.09,0.36 v 0 0 0"
         id="path2402" /></clipPath><linearGradient
       x1="0"
       y1="0"
       x2="1"
       y2="0"
       gradientUnits="userSpaceOnUse"
       gradientTransform="matrix(-8.9744138e-6,-232.26092,-205.27741,1.0154092e-5,238.61704,416.08137)"
       spreadMethod="pad"
       id="linearGradient2412"><stop
         style="stop-opacity:1;stop-color:#ffb6ba"
         offset="0"
         id="stop2406" /><stop
         style="stop-opacity:1;stop-color:#f9a4b3"
         offset="0.996898"
         id="stop2408" /><stop
         style="stop-opacity:1;stop-color:#f9a4b3"
         offset="1"
         id="stop2410" /></linearGradient><clipPath
       clipPathUnits="userSpaceOnUse"
       id="clipPath2508"><path
         d="m 1906.32,2854.3 v 0 0 m 0,0.01 v 0 0 m -25.14,109.24 c 0,0.01 0.01,0.01 0.01,0.02 0,-0.01 -0.01,-0.01 -0.01,-0.02 m 0.05,0.05 c 0,0 0.01,0.01 0.02,0.02 -0.01,-0.01 -0.02,-0.02 -0.02,-0.02 m 0.04,0.04 c 0.05,0.05 0.11,0.1 0.16,0.15 -0.05,-0.05 -0.11,-0.1 -0.16,-0.15 m 0.16,0.16 c 5.52,5.19 16.55,8.59 28.29,10.8 -11.75,-2.21 -22.77,-5.61 -28.29,-10.8"
         id="path2506" /></clipPath><linearGradient
       x1="0"
       y1="0"
       x2="1"
       y2="0"
       gradientUnits="userSpaceOnUse"
       gradientTransform="matrix(-1.475e-4,-3373.86,-3373.86,1.475e-4,2555.28,4083.3)"
       spreadMethod="pad"
       id="linearGradient2516"><stop
         style="stop-opacity:1;stop-color:#b099ae"
         offset="0"
         id="stop2510" /><stop
         style="stop-opacity:1;stop-color:#a683a6"
         offset="0.996898"
         id="stop2512" /><stop
         style="stop-opacity:1;stop-color:#a683a6"
         offset="1"
         id="stop2514" /></linearGradient><clipPath
       clipPathUnits="userSpaceOnUse"
       id="clipPath2550"><path
         d="m 1901.55,3221.76 c 0.01,0.02 0.01,0.04 0.02,0.05 -0.01,-0.02 -0.01,-0.03 -0.02,-0.05 m 0.05,0.12 c 0.01,0.03 0.03,0.07 0.04,0.1 -0.01,-0.03 -0.03,-0.07 -0.04,-0.1 m 0.05,0.13 c 2.48,5.97 5.02,10.55 7.46,13.32 -2.44,-2.77 -4.97,-7.35 -7.46,-13.32 m 7.46,13.32 c 0.02,0.02 0.04,0.05 0.06,0.07 -0.02,-0.02 -0.04,-0.05 -0.06,-0.07 m 0.06,0.07 c 0.02,0.03 0.04,0.05 0.07,0.07 -0.03,-0.02 -0.04,-0.04 -0.07,-0.07 m 0.07,0.08 c 0.02,0.02 0.04,0.04 0.06,0.06 -0.02,-0.02 -0.04,-0.04 -0.06,-0.06 m 0.07,0.07 c 0.02,0.02 0.03,0.04 0.05,0.06 -0.02,-0.02 -0.03,-0.04 -0.05,-0.06 m 0.06,0.07 c 0.02,0.02 0.04,0.05 0.06,0.07 -0.02,-0.02 -0.04,-0.05 -0.06,-0.07 m 0.07,0.07 c 0.02,0.03 0.04,0.05 0.06,0.07 -0.02,-0.02 -0.04,-0.05 -0.06,-0.07"
         id="path2548" /></clipPath></defs><g
     inkscape:label="Livello 1"
     inkscape:groupmode="layer"
     id="layer1"><rect
       style="fill:#1d6862;fill-opacity:1;stroke:#00aad4;stroke-width:0;stroke-linecap:round;stroke-linejoin:round;stroke-dasharray:none"
       id="rect1329"
       width="4.2333331"
       height="4.2333331"
       x="-5.4047007e-09"
       y="-6.8283845e-09" /><g
       id="g861"
       transform="matrix(0.04392916,0,0,-0.03882558,-29.80009,8.3185348)" /><path
       style="fill:#f2f2f2;fill-opacity:1;stroke-width:0.00553899"
       d="M 3.2182118,1.5194539 2.1869671,0.84848296 c -0.042753,-0.0277924 -0.097857,-0.0277924 -0.1406006,0 L 1.0151217,1.5194539 C 0.9785638,1.5432269 0.9565189,1.5838859 0.9565189,1.6274917 v 1.6493305 c 0,0.071192 0.0577165,0.1289094 0.1289089,0.1289094 h 2.0624889 c 0.071192,0 0.1289084,-0.057717 0.1289084,-0.1289094 V 1.6274966 c 0,-0.043625 -0.022055,-0.084265 -0.058613,-0.1080427 z"
       id="path1786-4" /><path
       style="fill:#ffffff;stroke-width:0.00553899"
       d="M 3.2182118,1.5194539 2.1869671,0.84848296 C 2.1655931,0.8345621 2.1411268,0.82760168 2.116661,0.82760168 V 3.4057116 h 1.0312447 c 0.071192,0 0.1289084,-0.057717 0.1289084,-0.1289088 V 1.627477 c 1.1e-5,-0.043625 -0.022045,-0.084265 -0.058602,-0.1080428 z"
       id="path1788-7" /><path
       style="fill:#ffffff;fill-opacity:1;stroke-width:0.00553899"
       d="m 3.4056055,1.9241558 c -0.024105,0 -0.048477,-0.00676 -0.070183,-0.020881 L 2.116672,1.1103059 0.8979114,1.9032843 C 0.83826244,1.9421055 0.7583905,1.9252437 0.71955678,1.8655413 0.68072934,1.8058634 0.69763249,1.7260102 0.75729927,1.687184 L 2.0463602,0.84846309 c 0.042758,-0.0277924 0.097857,-0.0277924 0.1406011,0 L 3.476017,1.687184 c 0.059666,0.038821 0.076571,0.1186794 0.037742,0.1783573 -0.024686,0.037939 -0.066008,0.058609 -0.1081544,0.058609 z"
       id="path1790-7" /><path
       style="fill:#ffffff;fill-opacity:1;stroke-width:0.00553899"
       d="M 3.4057277,3.4057316 H 0.82761634 c -0.0711918,0 -0.12890782,-0.057717 -0.12890782,-0.1289094 0,-0.071192 0.057716,-0.1289089 0.12890782,-0.1289089 H 3.4057277 c 0.071192,0 0.1289088,0.057717 0.1289088,0.1289089 0,0.071192 -0.057717,0.1289094 -0.1289088,0.1289094 z"
       id="path1792-5" /><path
       style="fill:#f2f2f2;fill-opacity:1;stroke-width:0.00553899"
       d="m 3.4056055,1.9241509 c 0.042145,0 0.083462,-0.020636 0.1081707,-0.058604 0.038828,-0.059678 0.021924,-0.1395311 -0.037743,-0.1783573 L 2.1869786,0.84846828 c -0.021374,-0.0139208 -0.04584,-0.020832 -0.070307,-0.020832 V 1.1103356 l 1.2187501,0.7929687 c 0.021709,0.014117 0.046081,0.020881 0.070183,0.020881 z"
       id="path1794-4" /><path
       style="fill:#f2f2f2;fill-opacity:1;stroke-width:0.00553899"
       d="M 3.4057277,3.147918 H 2.116672 v 0.2578136 h 1.2890557 c 0.071192,0 0.1289088,-0.057717 0.1289088,-0.1289094 0,-0.071197 -0.057717,-0.1289042 -0.1289088,-0.1289042 z"
       id="path1796-8" /><path
       style="fill:#1d6862;fill-opacity:1;stroke-width:0.00578381"
       d="m 2.3152292,1.8692473 c -0.070297,0 -0.1399345,0.019656 -0.2005316,0.055114 -0.06061,-0.035439 -0.1302532,-0.055114 -0.2005504,-0.055114 -0.2128171,0 -0.3795256,0.1667011 -0.3795256,0.3795221 0,0.2363735 0.2006883,0.4124368 0.4330784,0.6163121 0.019068,0.016714 0.038387,0.033675 0.057833,0.050867 0.025462,0.022548 0.057312,0.033775 0.08917,0.033775 0.031857,0 0.063715,-0.011274 0.089181,-0.033775 0.2524365,-0.2232566 0.4908709,-0.4341365 0.4908709,-0.6671768 0,-0.2128112 -0.1667027,-0.3795221 -0.3795261,-0.379522 z"
       id="path1798-1" /><path
       style="fill:#1d6862;fill-opacity:1;stroke-width:0.00578381"
       d="m 2.3152292,1.8692473 c -0.070297,0 -0.1399345,0.019656 -0.2005316,0.055114 -1.2e-5,0 -1.2e-5,0 -1.2e-5,0 v 1.0253524 h 1.25e-5 c 0.031857,0 0.063715,-0.011274 0.089182,-0.033822 C 2.4563167,2.6926353 2.69475,2.4817603 2.69475,2.248715 2.69475,2.0359038 2.5280478,1.8691929 2.315225,1.8691929 Z"
       id="path1800-2" /></g></svg>
