<?xml version="1.0" encoding="UTF-8" standalone="no"?>
<!-- Created with Inkscape (http://www.inkscape.org/) -->

<svg
   width="16"
   height="16"
   viewBox="0 0 4.2333331 4.2333331"
   version="1.1"
   id="svg5"
   inkscape:version="1.2.2 (b0a8486541, 2022-12-01)"
   sodipodi:docname="favicon.svg"
   inkscape:export-filename="../../../../UtilityUrejeno/Images/favicon.png"
   inkscape:export-xdpi="96"
   inkscape:export-ydpi="96"
   xmlns:inkscape="http://www.inkscape.org/namespaces/inkscape"
   xmlns:sodipodi="http://sodipodi.sourceforge.net/DTD/sodipodi-0.dtd"
   xmlns="http://www.w3.org/2000/svg"
   xmlns:svg="http://www.w3.org/2000/svg">
  <sodipodi:namedview
     id="namedview7"
     pagecolor="#ffffff"
     bordercolor="#000000"
     borderopacity="0.25"
     inkscape:showpageshadow="false"
     inkscape:pageopacity="0.0"
     inkscape:pagecheckerboard="0"
     inkscape:deskcolor="#d1d1d1"
     inkscape:document-units="px"
     showgrid="false"
     inkscape:zoom="32.29264"
     inkscape:cx="14.058931"
     inkscape:cy="11.380302"
     inkscape:window-width="2527"
     inkscape:window-height="1408"
     inkscape:window-x="33"
     inkscape:window-y="0"
     inkscape:window-maximized="1"
     inkscape:current-layer="layer1" />
  <defs
     id="defs2" />
  <g
     inkscape:label="Livello 1"
     inkscape:groupmode="layer"
     id="layer1">
    <rect
       style="fill:#4662d9;fill-opacity:1;stroke:#00aad4;stroke-width:0;stroke-linecap:round;stroke-linejoin:round;stroke-dasharray:none"
       id="rect1329"
       width="4.2333331"
       height="4.2333331"
       x="-5.4047007e-09"
       y="-6.8283845e-09" />
    <g
       aria-label="F"
       id="text7474"
       style="font-size:2.78737px;font-family:Teko;-inkscape-font-specification:Teko;text-align:center;text-anchor:middle;fill:#ffffff;stroke:#ffccaa;stroke-width:0;stroke-linecap:round;stroke-linejoin:round">
      <g
         id="path7480">
        <path
           style="color:#000000;-inkscape-font-specification:'Futura XBlkIt BT';stroke:none;stroke-linecap:butt;stroke-linejoin:miter;-inkscape-stroke:none"
           d="M 0.84044695,2.4069555 1.2079225,0.41442148 H 2.5294734 L 2.4287579,0.95474662 H 1.838075 L 1.7931613,1.1942862 H 2.3566238 L 2.2586303,1.7182791 H 1.6965288 L 1.5685929,2.4069555 Z"
           id="path7540" />
        <path
           style="color:#000000;-inkscape-font-specification:'Futura XBlkIt BT';fill:#ffffff;stroke:none;stroke-linecap:butt;stroke-linejoin:miter;-inkscape-stroke:none"
           d="M 0.84044695,2.4069555 1.2079225,0.41442148 H 2.5294734 L 2.4287579,0.95474662 H 1.838075 L 1.7931613,1.1942862 H 2.3566238 L 2.2586303,1.7182791 H 1.6965288 L 1.5685929,2.4069555 Z"
           id="path7542" />
      </g>
    </g>
    <g
       aria-label="G"
       id="text7478"
       style="font-size:2.45558px;font-family:Teko;-inkscape-font-specification:Teko;text-align:center;text-anchor:middle;fill:#ffffff;stroke:#ffccaa;stroke-width:0;stroke-linecap:round;stroke-linejoin:round">
      <g
         id="path7483">
        <path
           style="color:#000000;-inkscape-font-specification:'Futura XBlkIt BT';stroke:none;stroke-linecap:butt;stroke-linejoin:miter;-inkscape-stroke:none"
           d="M 3.3132208,3.3850253 Q 3.1309707,3.5109218 2.9451236,3.5732705 2.7604755,3.6356192 2.5662353,3.6356192 2.1717598,3.6356192 1.92836,3.4078066 1.6849602,3.179994 1.6849602,2.8130958 q 0,-0.1966382 0.059951,-0.3668982 0.06115,-0.1714589 0.1810511,-0.3105445 0.1390855,-0.1666629 0.3405198,-0.2541909 0.2026334,-0.087528 0.4424361,-0.087528 0.2793702,0 0.4784064,0.1127073 0.2002353,0.1127073 0.3165396,0.3369228 L 2.9343325,2.4545907 Q 2.8887699,2.391043 2.8288193,2.3610677 2.7700676,2.3310923 2.6921317,2.3310923 q -0.1678619,0 -0.2733751,0.1234984 -0.1055132,0.1222994 -0.1055132,0.3165396 0,0.1618669 0.094722,0.260186 0.095921,0.098319 0.2541909,0.098319 0.021582,0 0.044363,-0.0012 0.022781,-0.0024 0.045562,-0.006 L 2.7844557,2.9509824 H 2.5566431 l 0.07314,-0.3980726 h 0.8357125 z"
           id="path7546" />
        <path
           style="color:#000000;-inkscape-font-specification:'Futura XBlkIt BT';fill:#ffffff;stroke:none;stroke-linecap:butt;stroke-linejoin:miter;-inkscape-stroke:none"
           d="M 3.3132208,3.3850253 C 3.1917209,3.4689562 3.0690215,3.5317047 2.9451236,3.5732705 2.822025,3.6148363 2.6957286,3.6356192 2.5662353,3.6356192 2.3032519,3.6356192 2.0906264,3.5596815 1.92836,3.4078066 1.7660936,3.2559317 1.6849602,3.0576944 1.6849602,2.8130958 c 0,-0.131092 0.019984,-0.2533916 0.059951,-0.3668982 0.040767,-0.1143058 0.1011171,-0.2178209 0.1810511,-0.3105445 0.092724,-0.1111085 0.2062304,-0.195839 0.3405198,-0.2541909 0.1350888,-0.058352 0.2825678,-0.087528 0.4424361,-0.087528 0.1862466,0 0.3457157,0.037569 0.4784064,0.1127073 0.1334901,0.075138 0.2390035,0.1874459 0.3165396,0.3369228 L 2.9343325,2.4545907 c -0.030375,-0.042365 -0.065546,-0.073539 -0.1055132,-0.093523 -0.039168,-0.019984 -0.08473,-0.029975 -0.1366876,-0.029975 -0.1119078,0 -0.203033,0.041166 -0.2733751,0.1234984 -0.070342,0.081533 -0.1055132,0.1870463 -0.1055132,0.3165396 0,0.1079112 0.031574,0.19464 0.094722,0.260186 0.063947,0.065546 0.1486777,0.098319 0.2541909,0.098319 0.014388,0 0.029176,-4e-4 0.044363,-0.0012 0.015187,-0.0016 0.030375,-0.0036 0.045562,-0.006 L 2.7844557,2.9509824 H 2.5566431 l 0.07314,-0.3980726 h 0.8357125 z"
           id="path7548" />
      </g>
    </g>
  </g>
</svg>
