<?xml version="1.0" encoding="UTF-8" standalone="no"?>
<!-- Created with Inkscape (http://www.inkscape.org/) -->

<svg
   width="512"
   height="96"
   viewBox="0 0 135.46666 25.399999"
   version="1.1"
   id="svg5"
   inkscape:version="1.2.2 (b0a8486541, 2022-12-01)"
   sodipodi:docname="landlord_index_logo.svg"
   xml:space="preserve"
   xmlns:inkscape="http://www.inkscape.org/namespaces/inkscape"
   xmlns:sodipodi="http://sodipodi.sourceforge.net/DTD/sodipodi-0.dtd"
   xmlns="http://www.w3.org/2000/svg"
   xmlns:svg="http://www.w3.org/2000/svg"><sodipodi:namedview
     id="namedview7"
     pagecolor="#505050"
     bordercolor="#eeeeee"
     borderopacity="1"
     inkscape:pageshadow="0"
     inkscape:pageopacity="0"
     inkscape:pagecheckerboard="0"
     inkscape:document-units="px"
     showgrid="false"
     inkscape:showpageshadow="false"
     inkscape:zoom="0.97558594"
     inkscape:cx="130.17818"
     inkscape:cy="37.413413"
     inkscape:window-width="2528"
     inkscape:window-height="1404"
     inkscape:window-x="32"
     inkscape:window-y="0"
     inkscape:window-maximized="1"
     inkscape:current-layer="layer1"
     inkscape:snap-global="true"
     inkscape:snap-bbox="true"
     units="px"
     inkscape:snap-nodes="true"
     inkscape:deskcolor="#505050" /><defs
     id="defs2" /><g
     inkscape:label="Livello 1"
     inkscape:groupmode="layer"
     id="layer1"><path
       id="path35534"
       style="fill:#1d6862;stroke-width:2.92118;fill-opacity:1"
       d="m 24.267719,18.049601 h 52.172852 v 1.5875 H 24.267719 Z"
       sodipodi:nodetypes="ccccc" /><circle
       style="fill:#1d6862;fill-opacity:1;stroke-width:0.037978"
       cx="10.38133"
       cy="10.362931"
       r="9.7223749"
       id="circle1004" /><path
       style="fill:#1a5b56;fill-opacity:1;stroke-width:0.037978"
       d="M 20.103703,10.362933 13.966428,4.2573897 C 10.466123,6.058383 10.861591,10.561543 5.5567782,18.826441 c 1.9107984,-0.33113 0.6959131,1.488796 4.8245508,1.258868 5.369487,0 9.722374,-4.35289 9.722374,-9.722376 z"
       id="path1006"
       sodipodi:nodetypes="ccccc" /><path
       fill="#e6b796"
       d="m 9.6177891,10.703021 h 2.5854459 v 1.585415 H 9.6177891 Z"
       id="path1279"
       style="fill:#ffaaaa;stroke-width:0.243909" /><path
       d="m 16.331195,18.034316 -1.274212,-5.575143 c -0.04878,-0.195128 -0.292692,-0.780512 -0.853685,-0.829294 -2.073235,-0.146346 -2.000063,-0.09756 -2.000063,-0.09756 0,0.390256 -0.585383,0.73173 -1.292722,0.73173 -0.707339,0 -1.2927239,-0.317083 -1.2927239,-0.73173 0,0 0.073173,-0.04879 -2.000063,0.09756 -0.5366005,0.04878 -0.8049026,0.585384 -0.8536853,0.829294 l -1.2072626,6.367268 c 0.4956044,0.294766 0.9830644,0.514663 1.4634611,0.669626 l 0.7194426,-5.085613 0.2439098,5.442919 c 1.925812,0.707881 6.3921993,0.155326 8.3476033,-1.819057 z"
       fill="#3e4347"
       id="path2250"
       style="stroke-width:0.243909"
       sodipodi:nodetypes="ccccscccccccc" /><path
       d="m 10.910513,17.581285 c 0,0 2.024454,-3.536698 1.804934,-4.731856 -0.04878,-0.243909 -0.365865,-0.682948 -0.585384,-0.97564 -0.170737,0.365864 -0.658557,0.609775 -1.21955,0.609775 -0.560995,0 -1.0488144,-0.268301 -1.2195506,-0.609775 -0.2439103,0.292692 -0.560993,0.70734 -0.5853851,0.951249 -0.2195174,1.243942 1.8049357,4.756247 1.8049357,4.756247"
       fill="#ffffff"
       id="path1283"
       style="stroke-width:0.243909" /><path
       d="m 12.203235,11.264014 c 0,0 1.000032,0.853685 1.243942,1.682979 l -0.51221,0.536602 -0.804904,-1.585415 0.07317,-0.634166"
       id="path1287"
       style="fill:#646464;stroke-width:0.243909" /><path
       d="M 10.910513,17.581285 8.2275015,14.239717 9.2275332,12.727475 Z"
       id="path1289"
       style="fill:#646464;stroke-width:0.243909" /><path
       d="m 9.6177891,11.264014 c 0,0 -1.0000316,0.853685 -1.2439413,1.682979 l 0.5122121,0.536602 0.7805119,-1.609806 -0.048784,-0.609775"
       id="path1291"
       style="fill:#646464;stroke-width:0.243909" /><path
       d="m 12.471537,12.995775 c 0.121955,0.2683 -1.170767,-0.24391 -1.170767,-0.24391 v -0.585384 c 0,0 1.243941,-0.682948 1.170767,-0.414647 -0.09756,0.341474 -0.09756,1.024422 0,1.243941"
       fill="#3e4347"
       id="path1295"
       style="stroke-width:0.243909" /><path
       fill="#646464"
       d="M 11.934935,12.41039 11.398333,12.386 11.764199,12.093309 11.30077,12.312827 v 0.292693 l 0.512209,0.170736 -0.390256,-0.243909 z"
       id="path1297"
       style="stroke-width:0.243909" /><path
       d="m 9.3494891,12.995775 c -0.1219559,0.2683 1.1707679,-0.24391 1.1707679,-0.24391 v -0.585384 c 0,0 -1.2439411,-0.682948 -1.1707679,-0.414647 0.097563,0.341474 0.097563,1.024422 0,1.243941"
       fill="#3e4347"
       id="path1299"
       style="stroke-width:0.243909" /><path
       fill="#646464"
       d="m 9.8860915,12.41039 0.5366005,-0.02439 -0.365864,-0.292691 0.463429,0.219518 v 0.292693 l -0.512212,0.170736 0.390256,-0.243909 z"
       id="path1301"
       style="stroke-width:0.243909" /><path
       d="m 11.30077,12.849429 c -0.146347,0.121956 -0.634167,0.121956 -0.756123,0 -0.146346,-0.121954 -0.146346,-0.609776 0,-0.73173 0.146347,-0.121955 0.634167,-0.121955 0.756123,0 0.121953,0.09756 0.121953,0.585384 0,0.73173"
       id="path1303"
       style="fill:#3e4347;stroke-width:0.243909" /><path
       d="m 7.1055161,7.1663253 0.390256,0.7073387 h 6.8294809 l 0.292692,-0.7561206 c 0,-2.7317932 -0.634166,-3.902561 -3.683042,-3.9269523 C 7.8860282,3.1662029 7.1055161,4.3857502 7.1055161,7.1663253"
       fill="#594640"
       id="path1313"
       style="fill:#4d4d4d;stroke-width:0.243909" /><path
       d="m 14.325253,7.1175434 c -0.02439,0.1463457 -0.04879,0.3170827 -0.09756,0.390256 -0.07317,0.1463456 -0.24391,0.2439094 -0.24391,0.2439094 0,0 0.04879,-0.3170827 0.02439,-0.73173 -0.170736,-2.5366648 -0.317082,-1.3171143 -3.097656,-1.3171143 -2.7805746,0 -2.9269209,-1.2195505 -3.0976576,1.3171143 -0.02439,0.4390379 0.024391,0.73173 0.024391,0.73173 0,0 -0.1707367,-0.097564 -0.2439099,-0.2439094 -0.048783,-0.073173 -0.073173,-0.2439103 -0.097563,-0.390256 -0.2683021,-0.073172 -0.6097755,0 -0.6097755,0.7561206 0,0.4634291 0.1707368,0.8536851 0.7561217,0.902467 0.1951272,1.585416 2.317144,2.634229 3.2683943,2.634229 0.951249,0 3.073267,-1.048813 3.268395,-2.634229 0.585384,-0.048784 0.756121,-0.4390379 0.756121,-0.902467 0,-0.7561206 -0.341474,-0.8049033 -0.609776,-0.7561206"
       fill="#ffe1bd"
       id="path1315"
       style="fill:#ffd5d5;stroke-width:0.243909" /><circle
       cx="9.4714422"
       cy="7.8248811"
       r="0.58538413"
       id="circle1317"
       style="fill:#666666;stroke-width:0.243909" /><circle
       cx="12.349582"
       cy="7.8248811"
       r="0.58538413"
       id="circle1319"
       style="fill:#666666;stroke-width:0.243909" /><path
       d="m 11.886152,9.6298169 c 0,0.4146461 -0.487819,0.6341651 -0.975639,0.6341651 -0.487821,0 -0.9756412,-0.219519 -0.9756412,-0.6341651 0,0 0,-0.097565 0.097564,-0.097565 h 1.756153 c 0.09756,0 0.09756,0.097565 0.09756,0.097565"
       id="path1321"
       style="fill:#666666;stroke-width:0.243909" /><path
       d="m 8.6212793,21.443426 4.5097597,-5.616703 -1.68091,-2.541864 z"
       id="path1285"
       style="fill:#646464;stroke-width:0.409977" /><path
       d="m 8.6212793,16.441691 -0.4919742,0.450976 0.4919742,0.491974 0.4919728,-0.491974 z"
       id="path1307"
       style="fill:#3e4347;stroke-width:0.409977" /><path
       d="m 8.6212793,18.532582 -0.4919742,0.450974 0.4919742,0.450975 0.4919728,-0.450975 z"
       id="path1309"
       style="fill:#3e4347;stroke-width:0.409977" /><path
       fill="#34495e"
       d="m 12.955533,21.327127 c 0,0 -4.9348936,0.0039 -4.9295778,0.0053 0.00215,0.109498 0,0.50911 0,0.50911 l 4.9294508,2.91795 4.929577,-2.91795 c 0,0 -0.0044,-0.404806 -10e-4,-0.50468 -0.01168,-0.02456 -4.928438,-0.0097 -4.928438,-0.0097 z"
       id="path1229"
       style="stroke-width:0.126581;fill:#1a5b56;fill-opacity:1" /><path
       fill="#ecf0f1"
       d="m 12.955533,15.381609 c 0,0 -4.9348936,0.0039 -4.9295778,0.0053 0.00215,0.109485 0,5.948808 0,5.948808 l 4.9295778,2.917824 4.929577,-2.917824 c 0,0 -5.07e-4,-5.844379 0.0028,-5.944252 -0.01128,-0.02481 -4.932361,-0.0098 -4.932361,-0.0098 z"
       id="path1231"
       style="stroke-width:0.126581" /><path
       fill="#2c3e50"
       d="m 8.0259552,21.332317 c 0.00215,0.109498 0,0.50911 0,0.50911 l 4.9294508,2.917949 v -3.432249 c 1.27e-4,0 -4.9348942,0.004 -4.9294508,0.0053 z"
       id="path1233"
       style="stroke-width:0.126581;fill:#1a5b56;fill-opacity:1" /><path
       fill="#bdc3c7"
       d="m 8.0259552,15.386799 c 0.00215,0.109485 0,5.948809 0,5.948809 l 4.9295778,2.917823 v -8.871822 c 0,0 -4.9350212,0.0039 -4.9295778,0.0053 z"
       id="path1235"
       style="stroke-width:0.126581" /><path
       fill="#bdc3c7"
       d="m 12.955533,15.133004 c 0,0 -5.1876768,0.0039 -5.182361,0.0053 0.00229,0.109499 0,0.50911 0,0.50911 l 5.182234,3.044403 5.182233,-3.044403 c 0,0 -0.0042,-0.404807 -0.001,-0.504679 -0.01141,-0.02468 -5.181094,-0.0097 -5.181094,-0.0097 z"
       id="path1237"
       style="stroke-width:0.126581" /><path
       fill="#95a5a6"
       d="m 13.717805,19.054615 0.886574,-0.506071 v 1.644542 l -0.886574,0.505819 z m 1.266698,-0.759107 0.886701,-0.506071 v 1.644669 l -0.886701,0.505817 z m -7.210951,-2.648078 5.167803,3.035922 h 0.01404 v -3.54212 H 7.7735466 v 0.02747 c 0.00101,0.09595 3.8e-4,0.288098 0,0.397591 z m 8.477648,1.889097 0.886954,-0.505945 v 1.644416 L 16.2512,19.180943 Z m -2.533395,3.669969 0.886574,-0.506072 v 1.644542 l -0.886574,0.506072 z M 16.2512,19.68828 17.138154,19.182335 v 1.644543 L 16.2512,21.332823 Z"
       id="path1239"
       style="stroke-width:0.126581" /><path
       fill="#2c3e50"
       d="m 14.985389,21.333836 0.886701,-0.505945 v 2.205171 l -0.886701,0.524805 z"
       id="path1241"
       style="stroke-width:0.126581;fill:#1a5b56;fill-opacity:1" /><path
       fill="#c0392c"
       d="m 14.985389,20.447767 0.886701,-0.505945 v 0.505313 l -0.886701,0.505945 z"
       id="path1243"
       style="stroke-width:0.126581" /><path
       fill="#ecf0f1"
       d="m 12.955533,12.096827 -5.1862844,3.044405 5.1862844,3.044403 5.194131,-3.044403 z"
       id="path1245"
       style="stroke-width:0.126581" /><path
       fill="#d48a6d"
       d="m 12.955533,12.606823 -4.4279362,2.534409 4.4279362,2.534408 4.427936,-2.534408 z"
       id="path1247"
       style="stroke-width:0.126581" /><path
       fill="#7f8c8d"
       d="m 12.197185,19.058538 -0.884676,-0.506071 v 1.644543 l 0.884676,0.505819 z m -1.263914,-0.759107 -0.884676,-0.50607 v 1.644795 l 0.884676,0.505819 z M 9.6693582,17.540451 8.7846834,17.034379 v 1.644416 l 0.8846748,0.506073 z m 2.5278268,3.668576 -0.884676,-0.505818 v 1.644289 l 0.884676,0.506071 z m -1.263914,-0.758981 -0.884676,-0.505818 v 1.644289 l 0.884676,0.506072 z M 9.6693582,19.691065 8.7846834,19.184994 v 1.644543 l 0.8846748,0.506071 z"
       id="path1249-3"
       style="stroke-width:0.126581" /><path
       fill="#bdc3c7"
       d="M 17.138154,17.742096 16.2512,18.295508 v 0.253036 l 0.886954,-0.553413 z m 0,2.151878 -0.886954,0.553413 v 0.253037 l 0.886954,-0.55354 z m -1.26695,-1.392898 -0.886701,0.553539 v 0.252909 l 0.886701,-0.55354 z m -1.266825,0.75898 -0.886574,0.55354 v 0.252909 l 0.886574,-0.553286 z m 0,2.15188 -0.886574,0.55354 v 0.25291 l 0.886574,-0.553287 z"
       id="path1251-6"
       style="stroke-width:0.126581" /><path
       fill="#95a5a6"
       d="m 11.312509,19.264106 v 0.253164 l 0.884676,0.553286 v -0.25291 z m 0,2.150614 v 0.25291 l 0.884676,0.55354 v -0.253163 z m -1.263914,-0.75898 v 0.25291 l 0.884676,0.55354 v -0.253163 z m 0,-2.15074 v 0.252909 l 0.884676,0.553667 v -0.253038 z m -1.2642915,1.391507 v 0.25291 l 0.8850547,0.553792 v -0.253163 z m 0,-2.150742 v 0.253037 l 0.8850547,0.553665 v -0.253036 z"
       id="path1253-7"
       style="stroke-width:0.126581" /><path
       fill="#aa6f57"
       d="m 12.955533,12.859985 4.206798,2.407828 0.221138,-0.126578 -4.427936,-2.534409 -4.4279362,2.534409 0.2211368,0.126578 z"
       id="path1255"
       style="stroke-width:0.126581" /><g
       id="g15878"
       transform="translate(-4.4231849,2.7998784)"
       style="fill:#1d6862;fill-opacity:1"><path
         d="m 33.867361,12.986467 v 1.55432 H 28.707527 V 5.265826 h 1.879199 v 7.720641 z"
         style="font-weight:bold;font-size:13.0461px;line-height:1.25;font-family:'Roboto Condensed';-inkscape-font-specification:'Roboto Condensed,  Bold';fill:#1d6862;stroke-width:0.978457;fill-opacity:1"
         id="path15631" /><path
         d="m 41.072019,10.731428 q 0,1.962011 -0.917304,2.949387 -0.917304,0.987375 -2.414293,0.987375 -1.490619,0 -2.420663,-0.987375 -0.930044,-0.987376 -0.930044,-2.949387 v -1.54158 q 0,-2.006603 0.923674,-3.025829 0.923674,-1.025597 2.414293,-1.025597 1.496989,0 2.420663,1.025597 0.923674,1.019226 0.923674,3.025829 z M 39.19919,9.177107 q 0,-1.324994 -0.37584,-1.898309 -0.37584,-0.573315 -1.095668,-0.573315 -0.713459,0 -1.089299,0.566945 -0.369469,0.560574 -0.375839,1.853718 v 1.605282 q 0,1.261293 0.375839,1.821867 0.38221,0.554205 1.102039,0.554205 0.713459,0 1.082928,-0.547835 0.36947,-0.547834 0.37584,-1.783646 z"
         style="font-weight:bold;font-size:13.0461px;line-height:1.25;font-family:'Roboto Condensed';-inkscape-font-specification:'Roboto Condensed,  Bold';fill:#1d6862;stroke-width:0.978457;fill-opacity:1"
         id="path15628" /><path
         d="m 46.830649,11.444886 h 1.872829 q -0.0637,1.579802 -0.891824,2.401553 -0.828121,0.821751 -2.31874,0.821751 -1.52884,0 -2.376072,-1.000116 Q 42.26961,12.667958 42.2505,10.782389 V 9.119776 q 0,-1.942901 0.872712,-2.962127 0.879083,-1.025597 2.395183,-1.025597 1.516099,0 2.306,0.853602 0.7899,0.847232 0.891823,2.427033 h -1.872829 q -0.03185,-0.993745 -0.312138,-1.356845 -0.280287,-0.36947 -1.012856,-0.36947 -0.719829,0 -1.051078,0.515984 -0.331248,0.515983 -0.343989,1.802757 v 1.688094 q 0,1.312254 0.286658,1.866458 0.286657,0.554205 1.082928,0.554205 0.694348,0 1.000116,-0.331249 0.305768,-0.331248 0.337619,-1.337735 z"
         style="font-weight:bold;font-size:13.0461px;line-height:1.25;font-family:'Roboto Condensed';-inkscape-font-specification:'Roboto Condensed,  Bold';fill:#1d6862;stroke-width:0.978457;fill-opacity:1"
         id="path15625" /><path
         d="m 49.251312,14.540787 2.898425,-9.274961 h 1.713575 l 2.917536,9.274961 h -1.993862 l -0.496873,-1.898309 h -2.554437 l -0.496873,1.898309 z m 2.892055,-3.459 h 1.739055 L 53.009709,7.769301 Z"
         style="font-weight:bold;font-size:13.0461px;line-height:1.25;font-family:'Roboto Condensed';-inkscape-font-specification:'Roboto Condensed,  Bold';fill:#1d6862;stroke-width:0.978457;fill-opacity:1"
         id="path15622" /><path
         d="m 56.47508,6.826516 v -1.56069 h 6.427497 v 1.56069 h -2.29963 v 7.714271 H 58.730119 V 6.826516 Z"
         style="font-weight:bold;font-size:13.0461px;line-height:1.25;font-family:'Roboto Condensed';-inkscape-font-specification:'Roboto Condensed,  Bold';fill:#1d6862;stroke-width:0.978457;fill-opacity:1"
         id="path15619" /><path
         d="m 70.330189,10.731428 q 0,1.962011 -0.917304,2.949387 -0.917303,0.987375 -2.414292,0.987375 -1.490619,0 -2.420663,-0.987375 -0.930045,-0.987376 -0.930045,-2.949387 v -1.54158 q 0,-2.006603 0.923674,-3.025829 0.923674,-1.025597 2.414293,-1.025597 1.496989,0 2.420663,1.025597 0.923674,1.019226 0.923674,3.025829 z M 68.457361,9.177107 q 0,-1.324994 -0.37584,-1.898309 -0.37584,-0.573315 -1.095669,-0.573315 -0.713458,0 -1.089298,0.566945 -0.36947,0.560574 -0.37584,1.853718 v 1.605282 q 0,1.261293 0.37584,1.821867 0.38221,0.554205 1.102039,0.554205 0.713458,0 1.082928,-0.547835 0.369469,-0.547834 0.37584,-1.783646 z"
         style="font-weight:bold;font-size:13.0461px;line-height:1.25;font-family:'Roboto Condensed';-inkscape-font-specification:'Roboto Condensed,  Bold';fill:#1d6862;stroke-width:0.978457;fill-opacity:1"
         id="path15616" /><path
         d="M 75.884977,14.540787 74.48991,11.151859 h -0.930044 v 3.388928 H 71.680667 V 5.265826 h 2.987608 q 1.388696,0 2.165856,0.719828 0.77716,0.713459 0.77716,2.083044 0,1.006487 -0.356729,1.624393 -0.356729,0.617906 -0.987376,0.955525 l 1.630763,3.802989 v 0.08918 z M 73.559866,6.826516 v 2.764652 h 1.057448 q 0.560574,0 0.840861,-0.369469 0.280288,-0.37584 0.280288,-1.000117 0,-1.369585 -1.031967,-1.395066 z"
         style="font-weight:bold;font-size:13.0461px;line-height:1.25;font-family:'Roboto Condensed';-inkscape-font-specification:'Roboto Condensed,  Bold';fill:#1d6862;stroke-width:0.978457;fill-opacity:1"
         id="path15613" /><path
         d="m 80.853704,5.265826 v 9.274961 H 78.980875 V 5.265826 Z"
         style="font-weight:bold;font-size:13.0461px;line-height:1.25;font-family:'Roboto Condensed';-inkscape-font-specification:'Roboto Condensed,  Bold';fill:#1d6862;stroke-width:0.978457;fill-opacity:1"
         id="path15610" /></g></g></svg>
