<?xml version="1.0" encoding="UTF-8" standalone="no"?>
<!-- Created with Inkscape (http://www.inkscape.org/) -->

<svg
   width="135"
   height="32"
   viewBox="0 0 35.718751 8.4666665"
   version="1.1"
   id="svg8"
   inkscape:version="1.2.2 (b0a8486541, 2022-12-01)"
   sodipodi:docname="navbar_logo.svg"
   xml:space="preserve"
   xmlns:inkscape="http://www.inkscape.org/namespaces/inkscape"
   xmlns:sodipodi="http://sodipodi.sourceforge.net/DTD/sodipodi-0.dtd"
   xmlns="http://www.w3.org/2000/svg"
   xmlns:svg="http://www.w3.org/2000/svg"
   xmlns:rdf="http://www.w3.org/1999/02/22-rdf-syntax-ns#"
   xmlns:cc="http://creativecommons.org/ns#"
   xmlns:dc="http://purl.org/dc/elements/1.1/"><defs
     id="defs2"><clipPath
       clipPathUnits="userSpaceOnUse"
       id="clipPath867"><path
         d="M 0,500 H 500 V 0 H 0 Z"
         id="path865" /></clipPath><clipPath
       clipPathUnits="userSpaceOnUse"
       id="clipPath875"><path
         d="M 17.9194,398.33 H 493.137 V 88.8115 H 17.9194 Z"
         id="path873" /></clipPath><linearGradient
       x1="0"
       y1="0"
       x2="1"
       y2="0"
       gradientUnits="userSpaceOnUse"
       gradientTransform="matrix(-1.47e-5,-337.38577,-337.38577,1.47e-5,255.52832,408.33008)"
       spreadMethod="pad"
       id="linearGradient887"><stop
         style="stop-opacity:1;stop-color:#feb89e"
         offset="0"
         id="stop881" /><stop
         style="stop-opacity:1;stop-color:#c0416e"
         offset="0.996898"
         id="stop883" /><stop
         style="stop-opacity:1;stop-color:#c0416e"
         offset="1"
         id="stop885" /></linearGradient><clipPath
       clipPathUnits="userSpaceOnUse"
       id="clipPath911"><path
         d="M 0,500 H 500 V 0 H 0 Z"
         id="path909" /></clipPath><clipPath
       clipPathUnits="userSpaceOnUse"
       id="clipPath1043"><path
         d="m 310.981,327.453 h 10.555 v -9.511 h -10.555 z"
         id="path1041" /></clipPath><clipPath
       clipPathUnits="userSpaceOnUse"
       id="clipPath1095"><path
         d="m 282.58,328.974 h 22.778 V 311.382 H 282.58 Z"
         id="path1093" /></clipPath><clipPath
       clipPathUnits="userSpaceOnUse"
       id="clipPath1279"><path
         d="m 185.277,297.779 h 8.685 v -15.041 h -8.685 z"
         id="path1277" /></clipPath><clipPath
       clipPathUnits="userSpaceOnUse"
       id="clipPath1339"><path
         d="m 188.407,328.125 h 23.068 v -24.747 h -23.068 z"
         id="path1337" /></clipPath><clipPath
       clipPathUnits="userSpaceOnUse"
       id="clipPath1539"><path
         d="M 75.6909,382.215 H 96.6572 V 361.581 H 75.6909 Z"
         id="path1537" /></clipPath><clipPath
       clipPathUnits="userSpaceOnUse"
       id="clipPath1555"><path
         d="M 82.5454,360.024 H 104.37 V 338.622 H 82.5454 Z"
         id="path1553" /></clipPath><clipPath
       clipPathUnits="userSpaceOnUse"
       id="clipPath1727"><path
         d="m 399.336,363.466 h 15.627 v -19.354 h -15.627 z"
         id="path1725" /></clipPath><clipPath
       clipPathUnits="userSpaceOnUse"
       id="clipPath2302"><path
         d="M 4868.62,888.109 H 264.438 c 0,0 -310.6919,1254.851 254.234,1411.581 123.168,34.17 237.777,46.07 342.808,46.07 120.446,0 228.3,-15.64 322.12,-31.28 93.81,-15.64 173.6,-31.28 237.84,-31.28 121.91,0 187.88,56.28 187.88,275.72 0,834.31 101.81,1424.37 426.17,1424.37 68.8,0 147.56,-26.51 237.54,-82.88 397.25,-248.84 678.82,-274.75 911.12,-274.75 30.54,0 60.23,0.45 89.22,0.9 28.98,0.44 57.28,0.89 85.02,0.89 203.97,0 378.21,-24.2 582.79,-250.64 512.9,-567.76 -112.06,-1464.83 160.55,-1464.83 6.34,0 13.11,0.48 20.44,1.46 127.3,17.05 248.35,45.17 356.92,45.17 166.69,0 303.99,-66.24 389.53,-340.5 141.18,-452.9 0,-730.001 0,-730.001 M 2042.58,2831.56 c -70.64,0 -144.09,-5.66 -152.07,-20.9 -46.19,-71.38 0,-422.7 -2.81,-461.9 -2.79,-39.18 -11.67,-181.9 -11.67,-181.9 27.14,-15.66 75.64,-20.66 126.55,-20.66 90.01,0 187.51,15.64 187.51,15.64 0,0 -22.44,144.95 -22.44,188.34 0,43.39 34.58,442.93 9.8,469.9 -6.07,6.6 -69.25,11.48 -134.87,11.48 m 693.5,305.18 c -2.58,0 -5.1,-0.05 -7.54,-0.14 -42.06,-1.56 -117.55,-48.72 -117.55,-48.72 0,0 -84.98,-287.91 -67.87,-416.17 0.94,-6.97 20.92,-20.09 68.05,-20.08 49.59,0 129.24,14.52 248.31,65.97 l 34.42,117.34 c 0,0 -223.66,-82.92 -259.97,-86.75 0,0 -4.7,310.65 8.58,310.65 h 0.01 c 0.61,-0.01 1.21,-0.01 1.81,-0.01 61.76,0 86.13,47.3 86.13,47.3 0,0 46.82,-10.99 67.86,-13.23 1.18,-0.13 2.23,-0.19 3.18,-0.19 15.98,0 0.65,16.89 0.65,16.89 1.88,-0.21 3.72,-0.3 5.52,-0.3 7.99,0 14.96,1.92 19.71,4.54 13.26,1.18 25.94,6.85 37.63,14.9 -0.78,-45.01 2.4,-102.77 16.42,-136.2 17.26,-41.18 53.1,-65.62 92.78,-65.62 8.98,0 18.14,1.25 27.34,3.84 27.04,7.61 45.89,17.28 59.03,28.65 -0.08,-0.23 -0.13,-0.35 -0.13,-0.35 0,0 84.95,30.94 100.51,148.33 1.94,14.71 2.5,28.32 1.86,40.89 52.59,0.73 70.91,31.93 69.86,63.12 -1.06,31.56 -21.95,63.13 -47.2,63.13 -0.85,0 -1.71,-0.04 -2.57,-0.11 -33.75,-2.86 -54.04,-16.72 -64.4,-26.53 -30.18,27.56 -69.9,39.13 -100.09,41.48 -0.02,0 -0.04,0.01 -0.06,0.01 -0.07,0 -0.15,0.01 -0.23,0.01 -3,0.23 -5.93,0.34 -8.8,0.34 v 0 0 0 c -0.01,0 -0.03,0 -0.04,0 -54.47,-0.01 -83.86,-39.25 -84.54,-40.17 -0.01,-0.01 -0.01,-0.01 -0.01,-0.01 v 0 c -0.03,0 -0.06,0 -0.09,0 -1.77,0.18 -3.98,0.29 -6.55,0.29 v 0 0 0 c -0.09,0 -0.18,0 -0.26,0 -21.63,-0.06 -67.36,-7.79 -81.45,-45.43 -0.05,-0.13 -0.09,-0.25 -0.14,-0.38 -0.05,-0.13 -0.1,-0.27 -0.15,-0.41 -0.04,-0.12 -0.09,-0.24 -0.13,-0.36 -0.06,-0.17 -0.11,-0.33 -0.17,-0.49 v 0 c -8.13,-23.75 -10,-47.84 -10,-64.94 0,-5.13 0.17,-9.62 0.39,-13.3 -16.74,5.55 -58.05,12.21 -90.11,12.21 M 1906.32,2854.3 c -0.01,-0.31 -0.32,-27.67 26.88,-27.67 1.53,0 3.15,0.09 4.87,0.27 32.28,3.47 25.6,30.47 25.6,30.47 0,0 15.65,-8.72 27.65,-8.72 6.63,0 12.14,2.66 13.29,10.92 3.24,23.18 -32.26,36.96 -32.26,36.96 0,0 10.96,29.65 -1.77,58.16 2.64,0.26 5.18,0.87 7.57,1.77 21.15,-24.7 50.62,-38.14 79.24,-38.14 37.67,0 73.87,23.28 87.67,74.78 16.68,62.24 14.97,119.52 11.99,150.66 2.4,1.12 4.6,2.35 6.56,3.72 31.55,21.83 34.82,76.87 -4.29,80.37 -5.2,0.47 -9.79,0.67 -13.85,0.67 -26.47,0 -30.09,-8.62 -30.09,-8.62 0,0 13.94,61.35 -31.62,61.35 -0.68,0 -1.36,-0.01 -2.06,-0.04 -48.04,-1.86 -101.71,-45.04 -101.71,-45.04 0,0 -20.73,10.7 -41.49,10.7 -10.57,0 -21.13,-2.76 -29,-11.11 v 0 c -0.02,-0.02 -0.04,-0.04 -0.06,-0.07 h -0.01 c -0.02,-0.02 -0.04,-0.05 -0.06,-0.07 0,0 0,0 -0.01,-0.01 -0.02,-0.02 -0.03,-0.04 -0.05,-0.06 -0.01,0 -0.01,-0.01 -0.01,-0.01 -0.02,-0.02 -0.04,-0.04 -0.06,-0.06 v -0.01 c -0.03,-0.02 -0.05,-0.04 -0.07,-0.07 v 0 c -0.02,-0.02 -0.04,-0.05 -0.06,-0.07 v 0 c -2.44,-2.77 -4.98,-7.35 -7.46,-13.32 0,-0.01 -0.01,-0.02 -0.01,-0.03 -0.01,-0.03 -0.03,-0.07 -0.04,-0.1 -0.01,-0.02 -0.02,-0.05 -0.03,-0.07 -0.01,-0.01 -0.01,-0.03 -0.02,-0.05 -20.27,-49.04 -36.86,-190.06 33.83,-190.06 3.34,0 6.87,0.31 10.61,0.97 1.37,-7.13 2.96,-14.15 4.8,-20.93 -8.59,-5.9 -14.02,-16.21 -13.41,-27.63 0.11,-2.07 0.42,-4.08 0.89,-6.02 -8.07,-0.57 -18.57,-1.6 -28.55,-3.49 -11.74,-2.21 -22.77,-5.61 -28.29,-10.8 0,0 0,0 0,-0.01 -0.05,-0.05 -0.11,-0.1 -0.16,-0.15 -0.01,-0.01 -0.01,-0.01 -0.02,-0.02 -0.01,-0.01 -0.02,-0.02 -0.02,-0.02 -0.01,-0.01 -0.03,-0.02 -0.04,-0.03 0,-0.01 -0.01,-0.01 -0.01,-0.02 -0.02,-0.02 -0.04,-0.03 -0.05,-0.05 -4.15,-4.11 -5.63,-11.43 -5.63,-19.79 -0.01,-20.97 9.28,-48.51 9.28,-48.51 0,0 -29.6,-7.32 -31.81,-26.32 -0.13,-1.14 -0.19,-2.25 -0.2,-3.33 -0.02,-17.27 16.24,-26.17 30.9,-26.17 10.87,0 20.86,4.9 22.65,14.93 v 0 0 c 0,0 0,0 0,-0.01 v 0"
         id="path2300" /></clipPath><linearGradient
       x1="0"
       y1="0"
       x2="1"
       y2="0"
       gradientUnits="userSpaceOnUse"
       gradientTransform="matrix(-2.0727196e-5,-536.42694,-474.10614,2.3451765e-5,236.64257,527.82025)"
       spreadMethod="pad"
       id="linearGradient2310"><stop
         style="stop-opacity:1;stop-color:#fff1ec"
         offset="0"
         id="stop2304" /><stop
         style="stop-opacity:1;stop-color:#f2d9e2"
         offset="0.996898"
         id="stop2306" /><stop
         style="stop-opacity:1;stop-color:#f2d9e2"
         offset="1"
         id="stop2308" /></linearGradient><clipPath
       clipPathUnits="userSpaceOnUse"
       id="clipPath2404"><path
         d="m 2835.8,3202.77 c 0.06,0.16 0.11,0.32 0.17,0.49 -0.06,-0.17 -0.11,-0.33 -0.17,-0.49 m 0.3,0.85 c 0.05,0.14 0.1,0.28 0.15,0.41 -0.05,-0.13 -0.1,-0.27 -0.15,-0.41 m 0.29,0.79 c 14.09,37.64 59.82,45.37 81.45,45.43 -21.63,-0.06 -67.36,-7.8 -81.45,-45.43 m 88.35,45.14 c -0.03,0 -0.06,0 -0.09,0 0.03,0 0.06,0 0.09,0 m 0.01,0.01 c 0.68,0.92 30.07,40.16 84.54,40.17 -54.46,-0.02 -83.86,-39.25 -84.54,-40.17 m -6.65,0.28 v 0 0 0 m 100.32,39.53 c -0.02,0 -0.04,0 -0.06,0.01 0.02,0 0.04,-0.01 0.06,-0.01 m -9.09,0.36 v 0 0 0"
         id="path2402" /></clipPath><linearGradient
       x1="0"
       y1="0"
       x2="1"
       y2="0"
       gradientUnits="userSpaceOnUse"
       gradientTransform="matrix(-8.9744138e-6,-232.26092,-205.27741,1.0154092e-5,238.61704,416.08137)"
       spreadMethod="pad"
       id="linearGradient2412"><stop
         style="stop-opacity:1;stop-color:#ffb6ba"
         offset="0"
         id="stop2406" /><stop
         style="stop-opacity:1;stop-color:#f9a4b3"
         offset="0.996898"
         id="stop2408" /><stop
         style="stop-opacity:1;stop-color:#f9a4b3"
         offset="1"
         id="stop2410" /></linearGradient><clipPath
       clipPathUnits="userSpaceOnUse"
       id="clipPath2508"><path
         d="m 1906.32,2854.3 v 0 0 m 0,0.01 v 0 0 m -25.14,109.24 c 0,0.01 0.01,0.01 0.01,0.02 0,-0.01 -0.01,-0.01 -0.01,-0.02 m 0.05,0.05 c 0,0 0.01,0.01 0.02,0.02 -0.01,-0.01 -0.02,-0.02 -0.02,-0.02 m 0.04,0.04 c 0.05,0.05 0.11,0.1 0.16,0.15 -0.05,-0.05 -0.11,-0.1 -0.16,-0.15 m 0.16,0.16 c 5.52,5.19 16.55,8.59 28.29,10.8 -11.75,-2.21 -22.77,-5.61 -28.29,-10.8"
         id="path2506" /></clipPath><linearGradient
       x1="0"
       y1="0"
       x2="1"
       y2="0"
       gradientUnits="userSpaceOnUse"
       gradientTransform="matrix(-1.475e-4,-3373.86,-3373.86,1.475e-4,2555.28,4083.3)"
       spreadMethod="pad"
       id="linearGradient2516"><stop
         style="stop-opacity:1;stop-color:#b099ae"
         offset="0"
         id="stop2510" /><stop
         style="stop-opacity:1;stop-color:#a683a6"
         offset="0.996898"
         id="stop2512" /><stop
         style="stop-opacity:1;stop-color:#a683a6"
         offset="1"
         id="stop2514" /></linearGradient><clipPath
       clipPathUnits="userSpaceOnUse"
       id="clipPath2550"><path
         d="m 1901.55,3221.76 c 0.01,0.02 0.01,0.04 0.02,0.05 -0.01,-0.02 -0.01,-0.03 -0.02,-0.05 m 0.05,0.12 c 0.01,0.03 0.03,0.07 0.04,0.1 -0.01,-0.03 -0.03,-0.07 -0.04,-0.1 m 0.05,0.13 c 2.48,5.97 5.02,10.55 7.46,13.32 -2.44,-2.77 -4.97,-7.35 -7.46,-13.32 m 7.46,13.32 c 0.02,0.02 0.04,0.05 0.06,0.07 -0.02,-0.02 -0.04,-0.05 -0.06,-0.07 m 0.06,0.07 c 0.02,0.03 0.04,0.05 0.07,0.07 -0.03,-0.02 -0.04,-0.04 -0.07,-0.07 m 0.07,0.08 c 0.02,0.02 0.04,0.04 0.06,0.06 -0.02,-0.02 -0.04,-0.04 -0.06,-0.06 m 0.07,0.07 c 0.02,0.02 0.03,0.04 0.05,0.06 -0.02,-0.02 -0.03,-0.04 -0.05,-0.06 m 0.06,0.07 c 0.02,0.02 0.04,0.05 0.06,0.07 -0.02,-0.02 -0.04,-0.05 -0.06,-0.07 m 0.07,0.07 c 0.02,0.03 0.04,0.05 0.06,0.07 -0.02,-0.02 -0.04,-0.05 -0.06,-0.07"
         id="path2548" /></clipPath></defs><sodipodi:namedview
     id="base"
     pagecolor="#ffffff"
     bordercolor="#666666"
     borderopacity="1.0"
     inkscape:pageopacity="0.0"
     inkscape:pageshadow="2"
     inkscape:zoom="9.288889"
     inkscape:cx="40.370813"
     inkscape:cy="22.446172"
     inkscape:document-units="px"
     inkscape:current-layer="g920"
     showgrid="false"
     units="px"
     inkscape:showpageshadow="false"
     inkscape:window-width="2528"
     inkscape:window-height="1404"
     inkscape:window-x="32"
     inkscape:window-y="0"
     inkscape:window-maximized="1"
     inkscape:pagecheckerboard="0"
     inkscape:deskcolor="#d1d1d1" /><metadata
     id="metadata5"><rdf:RDF><cc:Work
         rdf:about=""><dc:format>image/svg+xml</dc:format><dc:type
           rdf:resource="http://purl.org/dc/dcmitype/StillImage" /><dc:title /></cc:Work></rdf:RDF></metadata><g
     inkscape:label="Livello 1"
     inkscape:groupmode="layer"
     id="layer1"
     transform="translate(0,-288.53334)"><g
       id="g847"
       transform="matrix(0.87627199,0,0,0.87627199,6.3981485,36.329092)"><g
         id="g920"
         transform="matrix(1.0672545,0,0,1.0672545,-0.19789691,-19.681758)"><g
           id="g861"
           transform="matrix(0.04697275,0,0,-0.04151557,-8.9973261,303.56129)" /><path
           style="fill:#f2f2f2;fill-opacity:1;stroke-width:0.0113002"
           d="m 3.650844,290.32171 -2.1038611,-1.36886 c -0.087225,-0.0567 -0.1996398,-0.0567 -0.2868428,0 l -2.10386063,1.36886 c -0.074581,0.0485 -0.11955645,0.13145 -0.11955645,0.22041 v 3.36483 c 0,0.14524 0.117748,0.26299 0.26298868,0.26299 h 4.2077222 c 0.1452397,0 0.2629877,-0.11775 0.2629877,-0.26299 v -3.36482 c 0,-0.089 -0.044997,-0.17191 -0.1195776,-0.22042 z"
           id="path1786-4" /><path
           style="fill:#ffffff;stroke-width:0.0113002"
           d="m 3.650844,290.32171 -2.1038611,-1.36886 c -0.043607,-0.0284 -0.09352,-0.0426 -0.1434327,-0.0426 v 5.25965 h 2.1038607 c 0.1452411,0 0.2629882,-0.11775 0.2629882,-0.26299 v -3.36482 c 2.25e-5,-0.089 -0.044974,-0.17191 -0.1195551,-0.22042 z"
           id="path1788-7" /><path
           style="fill:#ffffff;fill-opacity:1;stroke-width:0.0113002"
           d="m 4.0331496,291.14735 c -0.049178,0 -0.098898,-0.0138 -0.1431833,-0.0426 l -2.486394,-1.61775 -2.4864156,1.61777 c -0.1216914,0.0792 -0.2846394,0.0448 -0.3638645,-0.077 -0.079214,-0.12175 -0.044726,-0.28466 0.077,-0.36387 l 2.629837,-1.71109 c 0.087226,-0.0567 0.1996398,-0.0567 0.2868429,0 l 2.6298258,1.71109 c 0.1217251,0.0792 0.1562135,0.24212 0.077,0.36387 -0.050366,0.0774 -0.1346643,0.11957 -0.2206475,0.11957 z"
           id="path1790-7" /><path
           style="fill:#ffffff;fill-opacity:1;stroke-width:0.0113002"
           d="m 4.0333981,294.16994 h -5.2596516 c -0.1452402,0 -0.2629877,-0.11775 -0.2629877,-0.26299 0,-0.14524 0.1177475,-0.26299 0.2629877,-0.26299 h 5.2596516 c 0.1452412,0 0.2629892,0.11775 0.2629892,0.26299 0,0.14524 -0.117748,0.26299 -0.2629892,0.26299 z"
           id="path1792-5" /><path
           style="fill:#f2f2f2;fill-opacity:1;stroke-width:0.0113002"
           d="m 4.0331496,291.14734 c 0.085983,0 0.1702715,-0.0421 0.2206808,-0.11956 0.079215,-0.12175 0.044727,-0.28466 -0.076999,-0.36387 l -2.6298258,-1.71109 c -0.043607,-0.0284 -0.09352,-0.0425 -0.1434332,-0.0425 v 0.57674 l 2.486394,1.61775 c 0.044285,0.0288 0.094006,0.0426 0.1431833,0.0426 z"
           id="path1794-4" /><path
           style="fill:#f2f2f2;fill-opacity:1;stroke-width:0.0113002"
           d="M 4.0333981,293.64397 H 1.4035723 v 0.52597 h 2.6298258 c 0.1452412,0 0.2629892,-0.11775 0.2629892,-0.26299 0,-0.14525 -0.117748,-0.26298 -0.2629892,-0.26298 z"
           id="path1796-8" /><path
           d="m -2.4495145,293.29574 v 0.8742 h -3.3848212 v -5.25966 h 1.0873332 v 4.38546 z"
           style="font-weight:bold;font-size:206.162px;line-height:1.25;font-family:Roboto;-inkscape-font-specification:'Roboto Bold';fill:#ffffff;fill-opacity:1;stroke-width:0.346793"
           id="path76522" /><path
           d="M 8.3907238,294.16994 7.4081506,292.24092 H 6.5447863 v 1.92902 H 5.4574536 v -5.25966 h 1.9579219 q 0.9067126,0 1.4232865,0.4082 0.5201861,0.40459 0.5201861,1.18126 0,0.57076 -0.2528684,0.92116 -0.2528684,0.3504 -0.6863564,0.54547 l 1.1379064,2.15299 v 0.0506 z m -1.8459375,-4.38185 v 1.57862 h 0.8705892 q 0.4262631,0 0.639395,-0.21313 0.2167444,-0.21674 0.2167444,-0.57076 0,-0.36485 -0.2095196,-0.57798 -0.2095191,-0.21675 -0.6466198,-0.21675 z"
           style="font-weight:bold;font-size:206.162px;line-height:1.25;font-family:Roboto;-inkscape-font-specification:'Roboto Bold';fill:#ffffff;fill-opacity:1;stroke-width:0.346793"
           id="path76516" /><path
           d="m 11.572596,288.91028 v 5.25966 h -1.08372 v -5.25966 z"
           style="font-weight:bold;font-size:206.162px;line-height:1.25;font-family:Roboto;-inkscape-font-specification:'Roboto Bold';fill:#ffffff;fill-opacity:1;stroke-width:0.346793"
           id="path76513" /><path
           id="path96124"
           style="fill:#ffffff;stroke-width:0.603441;fill-opacity:1"
           d="M -5.8343349,294.33086 H 11.617003 v 0.88211 H 3.2003213 l 1.2067131,1.16894 H 2.484242 L 0.32980861,295.21297 H -5.8343349 Z"
           sodipodi:nodetypes="ccccccccc" /><path
           style="fill:#1d6862;fill-opacity:1;stroke-width:0.0117997"
           d="m 1.8086522,291.03533 c -0.1434139,0 -0.2854826,0.0401 -0.4091083,0.11244 -0.1236501,-0.0723 -0.2657319,-0.11244 -0.40914576,-0.11244 -0.43417242,0 -0.77427721,0.34009 -0.77427721,0.77427 0,0.48223 0.40942764,0.84142 0.88353117,1.25735 0.038903,0.0341 0.078315,0.0687 0.1179856,0.10377 0.051944,0.046 0.1169241,0.0689 0.181918,0.0689 0.064993,0 0.1299858,-0.023 0.18194,-0.0689 0.5150008,-0.45547 1.0014351,-0.88569 1.0014351,-1.36112 0,-0.43416 -0.340094,-0.77427 -0.7742786,-0.77427 z"
           id="path1798-1" /><path
           style="fill:#1a5b56;fill-opacity:1;stroke-width:0.0117997"
           d="m 1.8086522,291.03533 c -0.1434139,0 -0.2854826,0.0401 -0.4091083,0.11244 -2.39e-5,0 -2.39e-5,0 -2.39e-5,0 v 2.09184 h 2.53e-5 c 0.064994,0 0.1299859,-0.023 0.1819415,-0.069 0.5150008,-0.45547 1.0014336,-0.88568 1.0014336,-1.36112 0,-0.43416 -0.340093,-0.77427 -0.7742767,-0.77427 z"
           id="path1800-2" /></g></g></g></svg>
