<?xml version="1.0" encoding="UTF-8" standalone="no"?>
<!-- Created with Inkscape (http://www.inkscape.org/) -->

<svg
   width="300"
   height="74"
   viewBox="0 0 79.374996 19.579166"
   version="1.1"
   id="svg5"
   inkscape:version="1.1.2 (0a00cf5339, 2022-02-04)"
   sodipodi:docname="subscriber_index_logo.svg"
   xmlns:inkscape="http://www.inkscape.org/namespaces/inkscape"
   xmlns:sodipodi="http://sodipodi.sourceforge.net/DTD/sodipodi-0.dtd"
   xmlns="http://www.w3.org/2000/svg"
   xmlns:svg="http://www.w3.org/2000/svg">
  <sodipodi:namedview
     id="namedview7"
     pagecolor="#505050"
     bordercolor="#eeeeee"
     borderopacity="1"
     inkscape:pageshadow="0"
     inkscape:pageopacity="0"
     inkscape:pagecheckerboard="0"
     inkscape:document-units="px"
     showgrid="false"
     inkscape:showpageshadow="false"
     inkscape:zoom="4"
     inkscape:cx="-92"
     inkscape:cy="16"
     inkscape:window-width="3034"
     inkscape:window-height="1696"
     inkscape:window-x="38"
     inkscape:window-y="0"
     inkscape:window-maximized="1"
     inkscape:current-layer="layer1"
     inkscape:snap-global="false"
     inkscape:snap-bbox="false"
     units="px"
     inkscape:snap-nodes="true" />
  <defs
     id="defs2">
	
	

	
	

	
	
</defs>
  <g
     inkscape:label="Livello 1"
     inkscape:groupmode="layer"
     id="layer1">
    <circle
       style="fill:#0064a3;fill-opacity:1;stroke-width:0.0330729"
       cx="9.5250006"
       cy="9.7895823"
       r="8.4666662"
       id="circle1004" />
    <path
       style="fill:#00548c;fill-opacity:1;stroke-width:0.0330729"
       d="M 17.991665,9.7895831 8.8330782,5.2767989 8.3939388,10.792525 l -2.6319104,3.700754 3.7629709,3.76297 c 4.6759827,0 8.4666657,-3.790685 8.4666657,-8.4666659 z"
       id="path1006"
       sodipodi:nodetypes="cccccc" />
    <g
       id="path34461"
       style="fill:#0064a3;fill-opacity:1">
      <path
         style="color:#000000;fill:#0064a3;stroke-width:0.926042;-inkscape-stroke:none;fill-opacity:1"
         d="M 20.184966,14.143537 H 76.053449"
         id="path42950" />
      <path
         style="color:#000000;fill:#0064a3;fill-opacity:1;-inkscape-stroke:none"
         d="m 20.185547,13.679688 v 0.927734 l 43.228205,0 v -0.927734 z"
         id="path42952"
         sodipodi:nodetypes="ccccc" />
    </g>
    <path
       d="m 24.059442,10.280638 q 0,1.166377 -0.545319,1.753352 -0.545319,0.586976 -1.43525,0.586976 -0.886143,0 -1.439036,-0.586976 -0.552893,-0.586975 -0.552893,-1.753352 V 9.3641987 q 0,-1.1928856 0.549106,-1.7987958 0.549106,-0.6096971 1.435249,-0.6096971 0.889931,0 1.439037,0.6096971 0.549106,0.6059102 0.549106,1.7987958 z m -1.11336,-0.9240132 q 0,-0.7876832 -0.223429,-1.1285076 -0.22343,-0.3408245 -0.651354,-0.3408245 -0.424137,0 -0.647566,0.3370375 -0.219642,0.3332506 -0.223429,1.1019991 v 0.9543087 q 0,0.749814 0.223429,1.083064 0.227216,0.329464 0.65514,0.329464 0.424137,0 0.64378,-0.325677 0.219642,-0.325677 0.223429,-1.060343 z"
       style="font-weight:bold;font-size:7.75565px;line-height:1.25;font-family:'Roboto Condensed';-inkscape-font-specification:'Roboto Condensed,  Bold';fill:#0064a3;stroke-width:0.193892"
       id="path85948" />
    <path
       d="m 27.482835,10.704775 h 1.113359 q -0.03787,0.939161 -0.530171,1.427676 -0.492302,0.488515 -1.378446,0.488515 -0.908865,0 -1.412528,-0.59455 -0.503662,-0.594549 -0.515023,-1.715483 V 9.3225424 q 0,-1.1550163 0.51881,-1.7609264 0.522598,-0.6096971 1.423889,-0.6096971 0.901292,0 1.370872,0.5074497 0.46958,0.5036629 0.530171,1.4428236 h -1.11336 q -0.01893,-0.5907624 -0.18556,-0.8066179 -0.166625,-0.2196424 -0.602123,-0.2196424 -0.427924,0 -0.624845,0.306742 -0.19692,0.306742 -0.204494,1.0717036 v 1.0035385 q 0,0.78011 0.170412,1.109573 0.170412,0.329464 0.643779,0.329464 0.412777,0 0.59455,-0.196921 0.181773,-0.196921 0.200708,-0.795257 z"
       style="font-weight:bold;font-size:7.75565px;line-height:1.25;font-family:'Roboto Condensed';-inkscape-font-specification:'Roboto Condensed,  Bold';fill:#0064a3;stroke-width:0.193892"
       id="path85945" />
    <path
       d="m 31.905978,10.704775 h 1.11336 q -0.03787,0.939161 -0.530171,1.427676 -0.492302,0.488515 -1.378446,0.488515 -0.908865,0 -1.412528,-0.59455 Q 29.19453,11.431867 29.18317,10.310933 V 9.3225424 q 0,-1.1550163 0.51881,-1.7609264 0.522598,-0.6096971 1.423889,-0.6096971 0.901291,0 1.370872,0.5074497 0.46958,0.5036629 0.530171,1.4428236 h -1.11336 q -0.01893,-0.5907624 -0.18556,-0.8066179 -0.166625,-0.2196424 -0.602123,-0.2196424 -0.427924,0 -0.624845,0.306742 -0.196921,0.306742 -0.204494,1.0717036 v 1.0035385 q 0,0.78011 0.170412,1.109573 0.170412,0.329464 0.643779,0.329464 0.412777,0 0.59455,-0.196921 0.181773,-0.196921 0.200707,-0.795257 z"
       style="font-weight:bold;font-size:7.75565px;line-height:1.25;font-family:'Roboto Condensed';-inkscape-font-specification:'Roboto Condensed,  Bold';fill:#0064a3;stroke-width:0.193892"
       id="path85942" />
    <path
       d="m 36.177646,7.0314446 h 1.117147 v 3.7831514 q 0,0.958096 -0.511237,1.382233 -0.511236,0.424137 -1.302707,0.424137 -0.802831,0 -1.31028,-0.424137 -0.50745,-0.424137 -0.50745,-1.382233 V 7.0314446 h 1.117147 v 3.7831514 q 0,0.541532 0.177986,0.711945 0.181773,0.170412 0.522597,0.170412 0.344612,0 0.518811,-0.170412 0.177986,-0.170413 0.177986,-0.711945 z"
       style="font-weight:bold;font-size:7.75565px;line-height:1.25;font-family:'Roboto Condensed';-inkscape-font-specification:'Roboto Condensed,  Bold';fill:#0064a3;stroke-width:0.193892"
       id="path85939" />
    <path
       d="m 39.25264,10.606315 v 1.938912 H 38.135493 V 7.0314446 h 1.882108 q 0.833127,0 1.310281,0.5188106 0.480941,0.5150236 0.480941,1.3064938 0,0.799044 -0.477154,1.272411 -0.473367,0.473368 -1.302707,0.477155 z m 0,-2.6470705 v 1.7192701 h 0.764961 q 0.348399,0 0.503663,-0.2272163 0.159051,-0.2310033 0.159051,-0.5869755 0,-0.3559722 -0.159051,-0.6286318 Q 40.366,7.9592445 40.017601,7.9592445 Z"
       style="font-weight:bold;font-size:7.75565px;line-height:1.25;font-family:'Roboto Condensed';-inkscape-font-specification:'Roboto Condensed,  Bold';fill:#0064a3;stroke-width:0.193892"
       id="path85936" />
    <path
       d="M 41.513443,12.545227 43.2365,7.0314446 h 1.018686 l 1.734418,5.5137824 h -1.185312 l -0.295381,-1.128508 h -1.518562 l -0.295382,1.128508 z m 1.71927,-2.056308 h 1.033834 L 43.747736,8.5197114 Z"
       style="font-weight:bold;font-size:7.75565px;line-height:1.25;font-family:'Roboto Condensed';-inkscape-font-specification:'Roboto Condensed,  Bold';fill:#0064a3;stroke-width:0.193892"
       id="path85933" />
    <path
       d="M 46.338002,7.9592445 V 7.0314446 h 3.559722 V 7.682798 l -2.234294,3.938416 h 2.272163 v 0.924013 h -3.57487 v -0.670288 l 2.249442,-3.9156945 z"
       style="font-weight:bold;font-size:7.75565px;line-height:1.25;font-family:'Roboto Condensed';-inkscape-font-specification:'Roboto Condensed,  Bold';fill:#0064a3;stroke-width:0.193892"
       id="path85930" />
    <path
       d="M 51.783619,7.0314446 V 12.545227 H 50.67026 V 7.0314446 Z"
       style="font-weight:bold;font-size:7.75565px;line-height:1.25;font-family:'Roboto Condensed';-inkscape-font-specification:'Roboto Condensed,  Bold';fill:#0064a3;stroke-width:0.193892"
       id="path85927" />
    <path
       d="m 56.600607,10.280638 q 0,1.166377 -0.54532,1.753352 -0.545319,0.586976 -1.435249,0.586976 -0.886144,0 -1.439037,-0.586976 -0.552893,-0.586975 -0.552893,-1.753352 V 9.3641987 q 0,-1.1928856 0.549106,-1.7987958 0.549106,-0.6096971 1.43525,-0.6096971 0.88993,0 1.439036,0.6096971 0.549107,0.6059102 0.549107,1.7987958 z m -1.11336,-0.9240132 q 0,-0.7876832 -0.22343,-1.1285076 -0.223429,-0.3408245 -0.651353,-0.3408245 -0.424137,0 -0.647567,0.3370375 -0.219642,0.3332506 -0.223429,1.1019991 v 0.9543087 q 0,0.749814 0.223429,1.083064 0.227217,0.329464 0.655141,0.329464 0.424137,0 0.643779,-0.325677 0.219643,-0.325677 0.22343,-1.060343 z"
       style="font-weight:bold;font-size:7.75565px;line-height:1.25;font-family:'Roboto Condensed';-inkscape-font-specification:'Roboto Condensed,  Bold';fill:#0064a3;stroke-width:0.193892"
       id="path85924" />
    <path
       d="m 61.258538,7.0314446 v 5.5137824 h -1.11336 L 58.516794,8.9287008 V 12.545227 H 57.399647 V 7.0314446 h 1.117147 l 1.628384,3.6203134 V 7.0314446 Z"
       style="font-weight:bold;font-size:7.75565px;line-height:1.25;font-family:'Roboto Condensed';-inkscape-font-specification:'Roboto Condensed,  Bold';fill:#0064a3;stroke-width:0.193892"
       id="path85921" />
    <path
       d="m 63.311059,7.0314446 v 5.5137824 h -1.11336 V 7.0314446 Z"
       style="font-weight:bold;font-size:7.75565px;line-height:1.25;font-family:'Roboto Condensed';-inkscape-font-specification:'Roboto Condensed,  Bold';fill:#0064a3;stroke-width:0.193892"
       id="path85918" />
    <g
       id="g98431"
       transform="matrix(0.27114709,0,0,0.27114709,24.15537,9.0001985)">
      <polygon
         style="fill:#f9b54c"
         points="152.8,324.4 150.4,342.8 186.8,379.2 223.2,342.8 220.8,324.4 213.2,298 186.8,302.8 160.4,298 "
         id="polygon98343"
         transform="matrix(0.14746002,0,0,0.14746002,-87.753492,-39.708272)" />
      <path
         style="fill:#e6e9ee;stroke-width:0.14746"
         d="m -45.34399,14.498031 c -1.946473,-0.707808 -3.480057,-1.356632 -4.777705,-2.005456 -0.825776,-0.412888 -1.533584,-0.825776 -2.123424,-1.238664 -2.890217,-1.8285043 -2.890217,-3.1851365 -2.890217,-3.1851365 -1.061712,5.6624645 -4.482784,6.0163685 -5.01364,6.0163685 -0.530856,0 -3.951929,-0.353904 -5.013641,-6.0163685 0,0 -0.05898,1.2976482 -2.890216,3.1851365 -0.58984,0.412888 -1.297649,0.766792 -2.123425,1.17968 -1.238664,0.648824 -2.831232,1.297648 -4.71872,2.005456 0,0 -2.236029,2.05616 -3.356725,8.131512 9.482482,11.136873 17.065981,10.316374 28.213958,10.316374 0.707808,0 1.784347,0.575584 2.433171,0.516604 -0.05898,-0.88476 -0.223158,-2.807296 -0.223158,-3.515104 0,0.707808 0.223158,2.630344 0.282146,3.515104 2.359361,-0.117968 4.488896,-1.270485 6.677967,-2.099488 -0.05898,-1.120696 -0.117968,-1.828504 -0.117968,-1.828504 0.235936,-13.743274 -4.358399,-14.97751 -4.358399,-14.97751 z"
         id="path98345"
         sodipodi:nodetypes="ssccscccccsccccccs" />
      <path
         style="fill:#324a5e;stroke-width:0.14746"
         d="m -50.121695,12.551559 c -0.825776,-0.412888 -1.533584,-0.825776 -2.123424,-1.238664 l -0.825776,11.855786 h -14.215146 l -0.88476,-11.855786 c -0.58984,0.412888 -1.297649,0.766792 -2.123425,1.17968 0.707808,5.013641 -0.766792,12.032738 -0.766792,12.032738 l -0.512175,4.306904 c 8.364277,5.601809 17.068182,6.269247 24.330075,4.639462 l -2.229753,-8.946362 c 0.117968,0.05898 -1.356632,-6.960113 -0.648824,-11.973754 z"
         id="path98347"
         sodipodi:nodetypes="scccccccccss" />
      <path
         style="fill:#ffd05b;stroke-width:0.14746"
         d="m -53.896671,3.8809099 v 0 c -1.297649,3.0081844 -3.598025,5.6624648 -6.311289,5.6624648 -2.713265,0 -5.013641,-2.6542804 -6.311289,-5.6624648 v 0 c 0,0 -0.648824,-2.3003763 -0.353904,-3.65700848 h 13.271402 c 0.29492,1.35663218 -0.29492,3.65700848 -0.29492,3.65700848 z"
         id="path98349" />
      <path
         style="fill:#324a5e;stroke-width:0.14746"
         d="m -53.896671,3.8809099 c 0,0 0.648824,-2.2413923 0.353904,-3.65700848 h 1.238664 c 0,0 -0.353904,2.41834428 -1.592568,3.65700848 z"
         id="path98351" />
      <path
         style="fill:#324a5e;stroke-width:0.14746"
         d="m -66.519249,3.8809099 c -1.238664,-1.2386642 -1.592568,-3.65700848 -1.592568,-3.65700848 h 1.297648 c -0.29492,1.35663218 0.29492,3.65700848 0.29492,3.65700848 z"
         id="path98353" />
      <path
         style="fill:#e6e9ee;stroke-width:0.14746"
         d="m -64.926681,-11.985788 1.533584,9.6143931 h -5.190592 c -0.176952,-0.7078081 -0.29492,-1.4746002 -0.29492,-2.2413923 0,-3.1261525 1.592568,-5.8394168 3.951928,-7.3730008 z"
         id="path98357" />
      <path
         style="fill:#e6e9ee;stroke-width:0.14746"
         d="m -51.537311,-4.6717712 c 0,0.7667921 -0.117968,1.5335842 -0.29492,2.2413923 h -5.131609 l 1.533584,-9.6143931 c 2.300377,1.592568 3.892945,4.3058323 3.892945,7.3730008 z"
         id="path98359" />
      <path
         style="fill:#ffffff;stroke-width:0.14746"
         d="m -51.655279,-2.4303789 h -5.367545 l 1.533584,-9.6143931 c 0.176952,-1.002728 -0.58984,-1.887489 -1.651552,-1.887489 h -6.134337 c -1.002728,0 -1.76952,0.884761 -1.651552,1.887489 l 1.533584,9.6143931 h -5.367544 c -0.707809,0 -1.356633,0.58984 -1.356633,1.3566321 0,0.70780814 0.58984,1.35663222 1.356633,1.35663222 h 17.164346 c 0.707808,0 1.356632,-0.58984008 1.356632,-1.35663222 -0.05898,-0.7667921 -0.648824,-1.3566321 -1.415616,-1.3566321 z"
         id="path98363" />
    </g>
  </g>
</svg>
