<?xml version="1.0" encoding="UTF-8" standalone="no"?>
<svg
   sodipodi:docname="pdf_logo.svg"
   inkscape:version="1.1.2 (0a00cf5339, 2022-02-04)"
   id="svg8"
   version="1.1"
   viewBox="0 0 50 18"
   height="18mm"
   width="50mm"
   xml:space="preserve"
   xmlns:inkscape="http://www.inkscape.org/namespaces/inkscape"
   xmlns:sodipodi="http://sodipodi.sourceforge.net/DTD/sodipodi-0.dtd"
   xmlns="http://www.w3.org/2000/svg"
   xmlns:svg="http://www.w3.org/2000/svg"
   xmlns:rdf="http://www.w3.org/1999/02/22-rdf-syntax-ns#"
   xmlns:cc="http://creativecommons.org/ns#"
   xmlns:dc="http://purl.org/dc/elements/1.1/"><defs
     id="defs2"><clipPath
       clipPathUnits="userSpaceOnUse"
       id="clipPath867"><path
         d="M 0,500 H 500 V 0 H 0 Z"
         id="path865" /></clipPath><clipPath
       clipPathUnits="userSpaceOnUse"
       id="clipPath875"><path
         d="M 17.9194,398.33 H 493.137 V 88.8115 H 17.9194 Z"
         id="path873" /></clipPath><linearGradient
       x1="0"
       y1="0"
       x2="1"
       y2="0"
       gradientUnits="userSpaceOnUse"
       gradientTransform="matrix(-1.47e-5,-337.38577,-337.38577,1.47e-5,255.52832,408.33008)"
       spreadMethod="pad"
       id="linearGradient887"><stop
         style="stop-opacity:1;stop-color:#feb89e"
         offset="0"
         id="stop881" /><stop
         style="stop-opacity:1;stop-color:#c0416e"
         offset="0.996898"
         id="stop883" /><stop
         style="stop-opacity:1;stop-color:#c0416e"
         offset="1"
         id="stop885" /></linearGradient><clipPath
       clipPathUnits="userSpaceOnUse"
       id="clipPath911"><path
         d="M 0,500 H 500 V 0 H 0 Z"
         id="path909" /></clipPath><clipPath
       clipPathUnits="userSpaceOnUse"
       id="clipPath1043"><path
         d="m 310.981,327.453 h 10.555 v -9.511 h -10.555 z"
         id="path1041" /></clipPath><clipPath
       clipPathUnits="userSpaceOnUse"
       id="clipPath1095"><path
         d="m 282.58,328.974 h 22.778 V 311.382 H 282.58 Z"
         id="path1093" /></clipPath><clipPath
       clipPathUnits="userSpaceOnUse"
       id="clipPath1279"><path
         d="m 185.277,297.779 h 8.685 v -15.041 h -8.685 z"
         id="path1277" /></clipPath><clipPath
       clipPathUnits="userSpaceOnUse"
       id="clipPath1339"><path
         d="m 188.407,328.125 h 23.068 v -24.747 h -23.068 z"
         id="path1337" /></clipPath><clipPath
       clipPathUnits="userSpaceOnUse"
       id="clipPath1539"><path
         d="M 75.6909,382.215 H 96.6572 V 361.581 H 75.6909 Z"
         id="path1537" /></clipPath><clipPath
       clipPathUnits="userSpaceOnUse"
       id="clipPath1555"><path
         d="M 82.5454,360.024 H 104.37 V 338.622 H 82.5454 Z"
         id="path1553" /></clipPath><clipPath
       clipPathUnits="userSpaceOnUse"
       id="clipPath1727"><path
         d="m 399.336,363.466 h 15.627 v -19.354 h -15.627 z"
         id="path1725" /></clipPath><clipPath
       clipPathUnits="userSpaceOnUse"
       id="clipPath2302"><path
         d="M 4868.62,888.109 H 264.438 c 0,0 -310.6919,1254.851 254.234,1411.581 123.168,34.17 237.777,46.07 342.808,46.07 120.446,0 228.3,-15.64 322.12,-31.28 93.81,-15.64 173.6,-31.28 237.84,-31.28 121.91,0 187.88,56.28 187.88,275.72 0,834.31 101.81,1424.37 426.17,1424.37 68.8,0 147.56,-26.51 237.54,-82.88 397.25,-248.84 678.82,-274.75 911.12,-274.75 30.54,0 60.23,0.45 89.22,0.9 28.98,0.44 57.28,0.89 85.02,0.89 203.97,0 378.21,-24.2 582.79,-250.64 512.9,-567.76 -112.06,-1464.83 160.55,-1464.83 6.34,0 13.11,0.48 20.44,1.46 127.3,17.05 248.35,45.17 356.92,45.17 166.69,0 303.99,-66.24 389.53,-340.5 141.18,-452.9 0,-730.001 0,-730.001 M 2042.58,2831.56 c -70.64,0 -144.09,-5.66 -152.07,-20.9 -46.19,-71.38 0,-422.7 -2.81,-461.9 -2.79,-39.18 -11.67,-181.9 -11.67,-181.9 27.14,-15.66 75.64,-20.66 126.55,-20.66 90.01,0 187.51,15.64 187.51,15.64 0,0 -22.44,144.95 -22.44,188.34 0,43.39 34.58,442.93 9.8,469.9 -6.07,6.6 -69.25,11.48 -134.87,11.48 m 693.5,305.18 c -2.58,0 -5.1,-0.05 -7.54,-0.14 -42.06,-1.56 -117.55,-48.72 -117.55,-48.72 0,0 -84.98,-287.91 -67.87,-416.17 0.94,-6.97 20.92,-20.09 68.05,-20.08 49.59,0 129.24,14.52 248.31,65.97 l 34.42,117.34 c 0,0 -223.66,-82.92 -259.97,-86.75 0,0 -4.7,310.65 8.58,310.65 h 0.01 c 0.61,-0.01 1.21,-0.01 1.81,-0.01 61.76,0 86.13,47.3 86.13,47.3 0,0 46.82,-10.99 67.86,-13.23 1.18,-0.13 2.23,-0.19 3.18,-0.19 15.98,0 0.65,16.89 0.65,16.89 1.88,-0.21 3.72,-0.3 5.52,-0.3 7.99,0 14.96,1.92 19.71,4.54 13.26,1.18 25.94,6.85 37.63,14.9 -0.78,-45.01 2.4,-102.77 16.42,-136.2 17.26,-41.18 53.1,-65.62 92.78,-65.62 8.98,0 18.14,1.25 27.34,3.84 27.04,7.61 45.89,17.28 59.03,28.65 -0.08,-0.23 -0.13,-0.35 -0.13,-0.35 0,0 84.95,30.94 100.51,148.33 1.94,14.71 2.5,28.32 1.86,40.89 52.59,0.73 70.91,31.93 69.86,63.12 -1.06,31.56 -21.95,63.13 -47.2,63.13 -0.85,0 -1.71,-0.04 -2.57,-0.11 -33.75,-2.86 -54.04,-16.72 -64.4,-26.53 -30.18,27.56 -69.9,39.13 -100.09,41.48 -0.02,0 -0.04,0.01 -0.06,0.01 -0.07,0 -0.15,0.01 -0.23,0.01 -3,0.23 -5.93,0.34 -8.8,0.34 v 0 0 0 c -0.01,0 -0.03,0 -0.04,0 -54.47,-0.01 -83.86,-39.25 -84.54,-40.17 -0.01,-0.01 -0.01,-0.01 -0.01,-0.01 v 0 c -0.03,0 -0.06,0 -0.09,0 -1.77,0.18 -3.98,0.29 -6.55,0.29 v 0 0 0 c -0.09,0 -0.18,0 -0.26,0 -21.63,-0.06 -67.36,-7.79 -81.45,-45.43 -0.05,-0.13 -0.09,-0.25 -0.14,-0.38 -0.05,-0.13 -0.1,-0.27 -0.15,-0.41 -0.04,-0.12 -0.09,-0.24 -0.13,-0.36 -0.06,-0.17 -0.11,-0.33 -0.17,-0.49 v 0 c -8.13,-23.75 -10,-47.84 -10,-64.94 0,-5.13 0.17,-9.62 0.39,-13.3 -16.74,5.55 -58.05,12.21 -90.11,12.21 M 1906.32,2854.3 c -0.01,-0.31 -0.32,-27.67 26.88,-27.67 1.53,0 3.15,0.09 4.87,0.27 32.28,3.47 25.6,30.47 25.6,30.47 0,0 15.65,-8.72 27.65,-8.72 6.63,0 12.14,2.66 13.29,10.92 3.24,23.18 -32.26,36.96 -32.26,36.96 0,0 10.96,29.65 -1.77,58.16 2.64,0.26 5.18,0.87 7.57,1.77 21.15,-24.7 50.62,-38.14 79.24,-38.14 37.67,0 73.87,23.28 87.67,74.78 16.68,62.24 14.97,119.52 11.99,150.66 2.4,1.12 4.6,2.35 6.56,3.72 31.55,21.83 34.82,76.87 -4.29,80.37 -5.2,0.47 -9.79,0.67 -13.85,0.67 -26.47,0 -30.09,-8.62 -30.09,-8.62 0,0 13.94,61.35 -31.62,61.35 -0.68,0 -1.36,-0.01 -2.06,-0.04 -48.04,-1.86 -101.71,-45.04 -101.71,-45.04 0,0 -20.73,10.7 -41.49,10.7 -10.57,0 -21.13,-2.76 -29,-11.11 v 0 c -0.02,-0.02 -0.04,-0.04 -0.06,-0.07 h -0.01 c -0.02,-0.02 -0.04,-0.05 -0.06,-0.07 0,0 0,0 -0.01,-0.01 -0.02,-0.02 -0.03,-0.04 -0.05,-0.06 -0.01,0 -0.01,-0.01 -0.01,-0.01 -0.02,-0.02 -0.04,-0.04 -0.06,-0.06 v -0.01 c -0.03,-0.02 -0.05,-0.04 -0.07,-0.07 v 0 c -0.02,-0.02 -0.04,-0.05 -0.06,-0.07 v 0 c -2.44,-2.77 -4.98,-7.35 -7.46,-13.32 0,-0.01 -0.01,-0.02 -0.01,-0.03 -0.01,-0.03 -0.03,-0.07 -0.04,-0.1 -0.01,-0.02 -0.02,-0.05 -0.03,-0.07 -0.01,-0.01 -0.01,-0.03 -0.02,-0.05 -20.27,-49.04 -36.86,-190.06 33.83,-190.06 3.34,0 6.87,0.31 10.61,0.97 1.37,-7.13 2.96,-14.15 4.8,-20.93 -8.59,-5.9 -14.02,-16.21 -13.41,-27.63 0.11,-2.07 0.42,-4.08 0.89,-6.02 -8.07,-0.57 -18.57,-1.6 -28.55,-3.49 -11.74,-2.21 -22.77,-5.61 -28.29,-10.8 0,0 0,0 0,-0.01 -0.05,-0.05 -0.11,-0.1 -0.16,-0.15 -0.01,-0.01 -0.01,-0.01 -0.02,-0.02 -0.01,-0.01 -0.02,-0.02 -0.02,-0.02 -0.01,-0.01 -0.03,-0.02 -0.04,-0.03 0,-0.01 -0.01,-0.01 -0.01,-0.02 -0.02,-0.02 -0.04,-0.03 -0.05,-0.05 -4.15,-4.11 -5.63,-11.43 -5.63,-19.79 -0.01,-20.97 9.28,-48.51 9.28,-48.51 0,0 -29.6,-7.32 -31.81,-26.32 -0.13,-1.14 -0.19,-2.25 -0.2,-3.33 -0.02,-17.27 16.24,-26.17 30.9,-26.17 10.87,0 20.86,4.9 22.65,14.93 v 0 0 c 0,0 0,0 0,-0.01 v 0"
         id="path2300" /></clipPath><linearGradient
       x1="0"
       y1="0"
       x2="1"
       y2="0"
       gradientUnits="userSpaceOnUse"
       gradientTransform="matrix(-2.0727196e-5,-536.42694,-474.10614,2.3451765e-5,236.64257,527.82025)"
       spreadMethod="pad"
       id="linearGradient2310"><stop
         style="stop-opacity:1;stop-color:#fff1ec"
         offset="0"
         id="stop2304" /><stop
         style="stop-opacity:1;stop-color:#f2d9e2"
         offset="0.996898"
         id="stop2306" /><stop
         style="stop-opacity:1;stop-color:#f2d9e2"
         offset="1"
         id="stop2308" /></linearGradient><clipPath
       clipPathUnits="userSpaceOnUse"
       id="clipPath2404"><path
         d="m 2835.8,3202.77 c 0.06,0.16 0.11,0.32 0.17,0.49 -0.06,-0.17 -0.11,-0.33 -0.17,-0.49 m 0.3,0.85 c 0.05,0.14 0.1,0.28 0.15,0.41 -0.05,-0.13 -0.1,-0.27 -0.15,-0.41 m 0.29,0.79 c 14.09,37.64 59.82,45.37 81.45,45.43 -21.63,-0.06 -67.36,-7.8 -81.45,-45.43 m 88.35,45.14 c -0.03,0 -0.06,0 -0.09,0 0.03,0 0.06,0 0.09,0 m 0.01,0.01 c 0.68,0.92 30.07,40.16 84.54,40.17 -54.46,-0.02 -83.86,-39.25 -84.54,-40.17 m -6.65,0.28 v 0 0 0 m 100.32,39.53 c -0.02,0 -0.04,0 -0.06,0.01 0.02,0 0.04,-0.01 0.06,-0.01 m -9.09,0.36 v 0 0 0"
         id="path2402" /></clipPath><linearGradient
       x1="0"
       y1="0"
       x2="1"
       y2="0"
       gradientUnits="userSpaceOnUse"
       gradientTransform="matrix(-8.9744138e-6,-232.26092,-205.27741,1.0154092e-5,238.61704,416.08137)"
       spreadMethod="pad"
       id="linearGradient2412"><stop
         style="stop-opacity:1;stop-color:#ffb6ba"
         offset="0"
         id="stop2406" /><stop
         style="stop-opacity:1;stop-color:#f9a4b3"
         offset="0.996898"
         id="stop2408" /><stop
         style="stop-opacity:1;stop-color:#f9a4b3"
         offset="1"
         id="stop2410" /></linearGradient><clipPath
       clipPathUnits="userSpaceOnUse"
       id="clipPath2508"><path
         d="m 1906.32,2854.3 v 0 0 m 0,0.01 v 0 0 m -25.14,109.24 c 0,0.01 0.01,0.01 0.01,0.02 0,-0.01 -0.01,-0.01 -0.01,-0.02 m 0.05,0.05 c 0,0 0.01,0.01 0.02,0.02 -0.01,-0.01 -0.02,-0.02 -0.02,-0.02 m 0.04,0.04 c 0.05,0.05 0.11,0.1 0.16,0.15 -0.05,-0.05 -0.11,-0.1 -0.16,-0.15 m 0.16,0.16 c 5.52,5.19 16.55,8.59 28.29,10.8 -11.75,-2.21 -22.77,-5.61 -28.29,-10.8"
         id="path2506" /></clipPath><linearGradient
       x1="0"
       y1="0"
       x2="1"
       y2="0"
       gradientUnits="userSpaceOnUse"
       gradientTransform="matrix(-1.475e-4,-3373.86,-3373.86,1.475e-4,2555.28,4083.3)"
       spreadMethod="pad"
       id="linearGradient2516"><stop
         style="stop-opacity:1;stop-color:#b099ae"
         offset="0"
         id="stop2510" /><stop
         style="stop-opacity:1;stop-color:#a683a6"
         offset="0.996898"
         id="stop2512" /><stop
         style="stop-opacity:1;stop-color:#a683a6"
         offset="1"
         id="stop2514" /></linearGradient><clipPath
       clipPathUnits="userSpaceOnUse"
       id="clipPath2550"><path
         d="m 1901.55,3221.76 c 0.01,0.02 0.01,0.04 0.02,0.05 -0.01,-0.02 -0.01,-0.03 -0.02,-0.05 m 0.05,0.12 c 0.01,0.03 0.03,0.07 0.04,0.1 -0.01,-0.03 -0.03,-0.07 -0.04,-0.1 m 0.05,0.13 c 2.48,5.97 5.02,10.55 7.46,13.32 -2.44,-2.77 -4.97,-7.35 -7.46,-13.32 m 7.46,13.32 c 0.02,0.02 0.04,0.05 0.06,0.07 -0.02,-0.02 -0.04,-0.05 -0.06,-0.07 m 0.06,0.07 c 0.02,0.03 0.04,0.05 0.07,0.07 -0.03,-0.02 -0.04,-0.04 -0.07,-0.07 m 0.07,0.08 c 0.02,0.02 0.04,0.04 0.06,0.06 -0.02,-0.02 -0.04,-0.04 -0.06,-0.06 m 0.07,0.07 c 0.02,0.02 0.03,0.04 0.05,0.06 -0.02,-0.02 -0.03,-0.04 -0.05,-0.06 m 0.06,0.07 c 0.02,0.02 0.04,0.05 0.06,0.07 -0.02,-0.02 -0.04,-0.05 -0.06,-0.07 m 0.07,0.07 c 0.02,0.03 0.04,0.05 0.06,0.07 -0.02,-0.02 -0.04,-0.05 -0.06,-0.07"
         id="path2548" /></clipPath></defs><sodipodi:namedview
     inkscape:window-maximized="1"
     inkscape:window-y="0"
     inkscape:window-x="38"
     inkscape:window-height="1696"
     inkscape:window-width="3034"
     inkscape:showpageshadow="false"
     units="mm"
     showgrid="false"
     inkscape:document-rotation="0"
     inkscape:current-layer="g859"
     inkscape:document-units="mm"
     inkscape:cy="182.87416"
     inkscape:cx="316.19861"
     inkscape:zoom="1.9576304"
     inkscape:pageshadow="2"
     inkscape:pageopacity="0.0"
     borderopacity="1.0"
     bordercolor="#666666"
     pagecolor="#ffffff"
     id="base"
     inkscape:pagecheckerboard="0"
     inkscape:deskcolor="#d1d1d1"
     width="50mm" /><metadata
     id="metadata5"><rdf:RDF><cc:Work
         rdf:about=""><dc:format>image/svg+xml</dc:format><dc:type
           rdf:resource="http://purl.org/dc/dcmitype/StillImage" /></cc:Work></rdf:RDF></metadata><g
     id="layer1"
     inkscape:groupmode="layer"
     inkscape:label="Livello 1"><g
       id="g859"
       inkscape:label="3809366"
       transform="matrix(0.25104564,0,0,-0.22187976,4.1944455,100.19542)"><g
         id="g861" /><g
         id="g1161"
         transform="matrix(0.37563746,0,0,0.37563746,-12.197111,312.25088)"><path
           style="fill:#bdbdbd;fill-opacity:1;stroke-width:0.255892"
           d="m 269.26612,318.90643 -44.78897,32.97207 c -1.85694,1.36667 -4.25012,1.36667 -6.10658,0 l -44.78896,-32.97207 c -1.58775,-1.16907 -2.54523,-3.1664 -2.54523,-5.30907 v -81.04992 c 0,-3.49846 2.50673,-6.33468 5.59875,-6.33468 h 89.57794 c 3.092,0 5.59873,2.83622 5.59873,6.33468 v 81.04964 c 0,2.14295 -0.95793,4.14083 -2.54568,5.30935 z"
           id="path1786" /><path
           style="fill:#cccccc;stroke-width:0.255892"
           d="m 269.26612,318.90643 -44.78897,32.97207 c -0.92835,0.68319 -1.99095,1.02534 -3.05353,1.02534 V 226.21276 h 44.78896 c 3.09203,0 5.59874,2.83622 5.59874,6.33468 v 81.04964 c 4.8e-4,2.14295 -0.95745,4.14083 -2.5452,5.30935 z"
           id="path1788" /><path
           style="fill:#00497a;fill-opacity:1;stroke-width:0.255892"
           d="m 277.405,299.01883 c -1.04694,0 -2.10544,0.3318 -3.04822,1.02616 l -52.93269,38.96734 -52.93315,-38.96789 c -2.59068,-1.90806 -6.05967,-1.07814 -7.74629,1.8547 -1.68638,2.93259 -0.95216,6.85648 1.63924,8.76454 l 55.98644,41.21563 c 1.85695,1.36614 4.25012,1.36614 6.10658,0 l 55.9862,-41.21563 c 2.5914,-1.90806 3.32562,-5.83195 1.63924,-8.76454 -1.07223,-1.86505 -2.86686,-2.88031 -4.69735,-2.88031 z"
           id="path1790" /><path
           style="fill:#00497a;fill-opacity:1;stroke-width:0.255892"
           d="m 277.41029,226.21276 h -111.9724 c -3.09201,0 -5.59873,2.83622 -5.59873,6.33468 0,3.49847 2.50672,6.3347 5.59873,6.3347 h 111.9724 c 3.09203,0 5.59876,-2.83623 5.59876,-6.3347 0,-3.49846 -2.50673,-6.33468 -5.59876,-6.33468 z"
           id="path1792" /><path
           style="fill:#0064a3;fill-opacity:1;stroke-width:0.255892"
           d="m 277.405,299.0191 c 1.83049,0 3.6249,1.01471 4.69806,2.88004 1.6864,2.93259 0.95218,6.85648 -1.63923,8.76454 l -55.9862,41.21563 c -0.92835,0.68321 -1.99094,1.0248 -3.05354,1.0248 v -13.89206 l 52.93269,-38.96734 c 0.94278,-0.69408 2.00128,-1.02561 3.04822,-1.02561 z"
           id="path1794" /><path
           style="fill:#0064a3;fill-opacity:1;stroke-width:0.255892"
           d="m 277.41029,238.88187 h -55.9862 v -12.66911 h 55.9862 c 3.09203,0 5.59876,2.83622 5.59876,6.33468 0,3.49875 -2.50673,6.33443 -5.59876,6.33443 z"
           id="path1796" /><path
           d="M 139.39596,247.26995 V 226.21276 H 67.336709 V 352.90399 H 90.484878 V 247.26995 Z"
           style="font-weight:bold;font-size:206.162px;line-height:1.25;font-family:Roboto;-inkscape-font-specification:'Roboto Bold';fill:#0064a3;fill-opacity:1;stroke-width:7.85311"
           id="path76522" /><path
           d="m 370.17313,226.21276 -20.91794,46.46505 H 330.87508 V 226.21276 H 307.72692 V 352.90399 H 349.409 q 19.30295,0 30.30026,-9.8325 11.07421,-9.74548 11.07421,-28.45331 0,-13.74809 -5.3833,-22.18837 -5.3833,-8.44028 -14.6118,-13.139 l 24.22482,-51.85986 v -1.21819 z M 330.87508,331.75978 V 293.73501 H 349.409 q 9.07469,0 13.61204,5.13377 4.61426,5.2208 4.61426,13.74809 0,8.78834 -4.46045,13.92211 -4.46044,5.2208 -13.76585,5.2208 z"
           style="font-weight:bold;font-size:206.162px;line-height:1.25;font-family:Roboto;-inkscape-font-specification:'Roboto Bold';fill:#0064a3;fill-opacity:1;stroke-width:7.85311"
           id="path76516" /><path
           d="M 437.91182,352.90399 V 226.21276 h -23.07126 v 126.69123 z"
           style="font-weight:bold;font-size:206.162px;line-height:1.25;font-family:Roboto;-inkscape-font-specification:'Roboto Bold';fill:#0064a3;fill-opacity:1;stroke-width:7.85311"
           id="path76513" /><path
           id="path96124"
           style="fill:#0064a3;stroke-width:13.6649"
           d="M 67.336726,222.33669 H 438.8572 V 201.08892 H 259.67497 l 25.68964,-28.1567 H 244.4304 l -45.8656,28.1567 H 67.336726 Z"
           sodipodi:nodetypes="ccccccccc" /><path
           style="fill:#cccccc;fill-opacity:1;stroke-width:0.267204"
           d="m 230.04781,301.71724 c -3.05313,0 -6.07762,-0.96617 -8.70948,-2.70852 -2.63238,1.74235 -5.65715,2.70852 -8.71028,2.70852 -9.24307,0 -16.48354,-8.19184 -16.48354,-18.65019 0,-11.61557 8.71628,-20.26747 18.80944,-30.28614 0.8282,-0.82233 1.66724,-1.65552 2.51179,-2.49958 1.10583,-1.10731 2.48919,-1.66096 3.87284,-1.66096 1.38363,0 2.76726,0.55365 3.87331,1.66096 10.96382,10.97101 21.31949,21.3338 21.31949,32.78572 0,10.45776 -7.24024,18.65019 -16.48357,18.65019 z"
           id="path1798" /><path
           style="fill:#bdbdbd;fill-opacity:1;stroke-width:0.267204"
           d="m 230.04781,301.71724 c -3.05313,0 -6.07762,-0.96617 -8.70948,-2.70852 -5.1e-4,0 -5.1e-4,0 -5.1e-4,0 v -50.38673 h 5.4e-4 c 1.38365,0 2.76726,0.55368 3.87334,1.66097 10.96382,10.971 21.31946,21.3338 21.31946,32.78572 0,10.45778 -7.24022,18.65021 -16.48353,18.65021 z"
           id="path1800" /></g></g></g></svg>
