<?xml version="1.0" encoding="UTF-8" standalone="no"?>
<svg
   sodipodi:docname="pdf_logo.svg"
   inkscape:version="1.2.2 (b0a8486541, 2022-12-01)"
   id="svg8"
   version="1.1"
   viewBox="0 0 50 18"
   height="18mm"
   width="50mm"
   xml:space="preserve"
   xmlns:inkscape="http://www.inkscape.org/namespaces/inkscape"
   xmlns:sodipodi="http://sodipodi.sourceforge.net/DTD/sodipodi-0.dtd"
   xmlns="http://www.w3.org/2000/svg"
   xmlns:svg="http://www.w3.org/2000/svg"
   xmlns:rdf="http://www.w3.org/1999/02/22-rdf-syntax-ns#"
   xmlns:cc="http://creativecommons.org/ns#"
   xmlns:dc="http://purl.org/dc/elements/1.1/"><defs
     id="defs2"><clipPath
       clipPathUnits="userSpaceOnUse"
       id="clipPath867"><path
         d="M 0,500 H 500 V 0 H 0 Z"
         id="path865" /></clipPath><clipPath
       clipPathUnits="userSpaceOnUse"
       id="clipPath875"><path
         d="M 17.9194,398.33 H 493.137 V 88.8115 H 17.9194 Z"
         id="path873" /></clipPath><linearGradient
       x1="0"
       y1="0"
       x2="1"
       y2="0"
       gradientUnits="userSpaceOnUse"
       gradientTransform="matrix(-1.47e-5,-337.38577,-337.38577,1.47e-5,255.52832,408.33008)"
       spreadMethod="pad"
       id="linearGradient887"><stop
         style="stop-opacity:1;stop-color:#feb89e"
         offset="0"
         id="stop881" /><stop
         style="stop-opacity:1;stop-color:#c0416e"
         offset="0.996898"
         id="stop883" /><stop
         style="stop-opacity:1;stop-color:#c0416e"
         offset="1"
         id="stop885" /></linearGradient><clipPath
       clipPathUnits="userSpaceOnUse"
       id="clipPath911"><path
         d="M 0,500 H 500 V 0 H 0 Z"
         id="path909" /></clipPath><clipPath
       clipPathUnits="userSpaceOnUse"
       id="clipPath1043"><path
         d="m 310.981,327.453 h 10.555 v -9.511 h -10.555 z"
         id="path1041" /></clipPath><clipPath
       clipPathUnits="userSpaceOnUse"
       id="clipPath1095"><path
         d="m 282.58,328.974 h 22.778 V 311.382 H 282.58 Z"
         id="path1093" /></clipPath><clipPath
       clipPathUnits="userSpaceOnUse"
       id="clipPath1279"><path
         d="m 185.277,297.779 h 8.685 v -15.041 h -8.685 z"
         id="path1277" /></clipPath><clipPath
       clipPathUnits="userSpaceOnUse"
       id="clipPath1339"><path
         d="m 188.407,328.125 h 23.068 v -24.747 h -23.068 z"
         id="path1337" /></clipPath><clipPath
       clipPathUnits="userSpaceOnUse"
       id="clipPath1539"><path
         d="M 75.6909,382.215 H 96.6572 V 361.581 H 75.6909 Z"
         id="path1537" /></clipPath><clipPath
       clipPathUnits="userSpaceOnUse"
       id="clipPath1555"><path
         d="M 82.5454,360.024 H 104.37 V 338.622 H 82.5454 Z"
         id="path1553" /></clipPath><clipPath
       clipPathUnits="userSpaceOnUse"
       id="clipPath1727"><path
         d="m 399.336,363.466 h 15.627 v -19.354 h -15.627 z"
         id="path1725" /></clipPath><clipPath
       clipPathUnits="userSpaceOnUse"
       id="clipPath2302"><path
         d="M 4868.62,888.109 H 264.438 c 0,0 -310.6919,1254.851 254.234,1411.581 123.168,34.17 237.777,46.07 342.808,46.07 120.446,0 228.3,-15.64 322.12,-31.28 93.81,-15.64 173.6,-31.28 237.84,-31.28 121.91,0 187.88,56.28 187.88,275.72 0,834.31 101.81,1424.37 426.17,1424.37 68.8,0 147.56,-26.51 237.54,-82.88 397.25,-248.84 678.82,-274.75 911.12,-274.75 30.54,0 60.23,0.45 89.22,0.9 28.98,0.44 57.28,0.89 85.02,0.89 203.97,0 378.21,-24.2 582.79,-250.64 512.9,-567.76 -112.06,-1464.83 160.55,-1464.83 6.34,0 13.11,0.48 20.44,1.46 127.3,17.05 248.35,45.17 356.92,45.17 166.69,0 303.99,-66.24 389.53,-340.5 141.18,-452.9 0,-730.001 0,-730.001 M 2042.58,2831.56 c -70.64,0 -144.09,-5.66 -152.07,-20.9 -46.19,-71.38 0,-422.7 -2.81,-461.9 -2.79,-39.18 -11.67,-181.9 -11.67,-181.9 27.14,-15.66 75.64,-20.66 126.55,-20.66 90.01,0 187.51,15.64 187.51,15.64 0,0 -22.44,144.95 -22.44,188.34 0,43.39 34.58,442.93 9.8,469.9 -6.07,6.6 -69.25,11.48 -134.87,11.48 m 693.5,305.18 c -2.58,0 -5.1,-0.05 -7.54,-0.14 -42.06,-1.56 -117.55,-48.72 -117.55,-48.72 0,0 -84.98,-287.91 -67.87,-416.17 0.94,-6.97 20.92,-20.09 68.05,-20.08 49.59,0 129.24,14.52 248.31,65.97 l 34.42,117.34 c 0,0 -223.66,-82.92 -259.97,-86.75 0,0 -4.7,310.65 8.58,310.65 h 0.01 c 0.61,-0.01 1.21,-0.01 1.81,-0.01 61.76,0 86.13,47.3 86.13,47.3 0,0 46.82,-10.99 67.86,-13.23 1.18,-0.13 2.23,-0.19 3.18,-0.19 15.98,0 0.65,16.89 0.65,16.89 1.88,-0.21 3.72,-0.3 5.52,-0.3 7.99,0 14.96,1.92 19.71,4.54 13.26,1.18 25.94,6.85 37.63,14.9 -0.78,-45.01 2.4,-102.77 16.42,-136.2 17.26,-41.18 53.1,-65.62 92.78,-65.62 8.98,0 18.14,1.25 27.34,3.84 27.04,7.61 45.89,17.28 59.03,28.65 -0.08,-0.23 -0.13,-0.35 -0.13,-0.35 0,0 84.95,30.94 100.51,148.33 1.94,14.71 2.5,28.32 1.86,40.89 52.59,0.73 70.91,31.93 69.86,63.12 -1.06,31.56 -21.95,63.13 -47.2,63.13 -0.85,0 -1.71,-0.04 -2.57,-0.11 -33.75,-2.86 -54.04,-16.72 -64.4,-26.53 -30.18,27.56 -69.9,39.13 -100.09,41.48 -0.02,0 -0.04,0.01 -0.06,0.01 -0.07,0 -0.15,0.01 -0.23,0.01 -3,0.23 -5.93,0.34 -8.8,0.34 v 0 0 0 c -0.01,0 -0.03,0 -0.04,0 -54.47,-0.01 -83.86,-39.25 -84.54,-40.17 -0.01,-0.01 -0.01,-0.01 -0.01,-0.01 v 0 c -0.03,0 -0.06,0 -0.09,0 -1.77,0.18 -3.98,0.29 -6.55,0.29 v 0 0 0 c -0.09,0 -0.18,0 -0.26,0 -21.63,-0.06 -67.36,-7.79 -81.45,-45.43 -0.05,-0.13 -0.09,-0.25 -0.14,-0.38 -0.05,-0.13 -0.1,-0.27 -0.15,-0.41 -0.04,-0.12 -0.09,-0.24 -0.13,-0.36 -0.06,-0.17 -0.11,-0.33 -0.17,-0.49 v 0 c -8.13,-23.75 -10,-47.84 -10,-64.94 0,-5.13 0.17,-9.62 0.39,-13.3 -16.74,5.55 -58.05,12.21 -90.11,12.21 M 1906.32,2854.3 c -0.01,-0.31 -0.32,-27.67 26.88,-27.67 1.53,0 3.15,0.09 4.87,0.27 32.28,3.47 25.6,30.47 25.6,30.47 0,0 15.65,-8.72 27.65,-8.72 6.63,0 12.14,2.66 13.29,10.92 3.24,23.18 -32.26,36.96 -32.26,36.96 0,0 10.96,29.65 -1.77,58.16 2.64,0.26 5.18,0.87 7.57,1.77 21.15,-24.7 50.62,-38.14 79.24,-38.14 37.67,0 73.87,23.28 87.67,74.78 16.68,62.24 14.97,119.52 11.99,150.66 2.4,1.12 4.6,2.35 6.56,3.72 31.55,21.83 34.82,76.87 -4.29,80.37 -5.2,0.47 -9.79,0.67 -13.85,0.67 -26.47,0 -30.09,-8.62 -30.09,-8.62 0,0 13.94,61.35 -31.62,61.35 -0.68,0 -1.36,-0.01 -2.06,-0.04 -48.04,-1.86 -101.71,-45.04 -101.71,-45.04 0,0 -20.73,10.7 -41.49,10.7 -10.57,0 -21.13,-2.76 -29,-11.11 v 0 c -0.02,-0.02 -0.04,-0.04 -0.06,-0.07 h -0.01 c -0.02,-0.02 -0.04,-0.05 -0.06,-0.07 0,0 0,0 -0.01,-0.01 -0.02,-0.02 -0.03,-0.04 -0.05,-0.06 -0.01,0 -0.01,-0.01 -0.01,-0.01 -0.02,-0.02 -0.04,-0.04 -0.06,-0.06 v -0.01 c -0.03,-0.02 -0.05,-0.04 -0.07,-0.07 v 0 c -0.02,-0.02 -0.04,-0.05 -0.06,-0.07 v 0 c -2.44,-2.77 -4.98,-7.35 -7.46,-13.32 0,-0.01 -0.01,-0.02 -0.01,-0.03 -0.01,-0.03 -0.03,-0.07 -0.04,-0.1 -0.01,-0.02 -0.02,-0.05 -0.03,-0.07 -0.01,-0.01 -0.01,-0.03 -0.02,-0.05 -20.27,-49.04 -36.86,-190.06 33.83,-190.06 3.34,0 6.87,0.31 10.61,0.97 1.37,-7.13 2.96,-14.15 4.8,-20.93 -8.59,-5.9 -14.02,-16.21 -13.41,-27.63 0.11,-2.07 0.42,-4.08 0.89,-6.02 -8.07,-0.57 -18.57,-1.6 -28.55,-3.49 -11.74,-2.21 -22.77,-5.61 -28.29,-10.8 0,0 0,0 0,-0.01 -0.05,-0.05 -0.11,-0.1 -0.16,-0.15 -0.01,-0.01 -0.01,-0.01 -0.02,-0.02 -0.01,-0.01 -0.02,-0.02 -0.02,-0.02 -0.01,-0.01 -0.03,-0.02 -0.04,-0.03 0,-0.01 -0.01,-0.01 -0.01,-0.02 -0.02,-0.02 -0.04,-0.03 -0.05,-0.05 -4.15,-4.11 -5.63,-11.43 -5.63,-19.79 -0.01,-20.97 9.28,-48.51 9.28,-48.51 0,0 -29.6,-7.32 -31.81,-26.32 -0.13,-1.14 -0.19,-2.25 -0.2,-3.33 -0.02,-17.27 16.24,-26.17 30.9,-26.17 10.87,0 20.86,4.9 22.65,14.93 v 0 0 c 0,0 0,0 0,-0.01 v 0"
         id="path2300" /></clipPath><linearGradient
       x1="0"
       y1="0"
       x2="1"
       y2="0"
       gradientUnits="userSpaceOnUse"
       gradientTransform="matrix(-2.0727196e-5,-536.42694,-474.10614,2.3451765e-5,236.64257,527.82025)"
       spreadMethod="pad"
       id="linearGradient2310"><stop
         style="stop-opacity:1;stop-color:#fff1ec"
         offset="0"
         id="stop2304" /><stop
         style="stop-opacity:1;stop-color:#f2d9e2"
         offset="0.996898"
         id="stop2306" /><stop
         style="stop-opacity:1;stop-color:#f2d9e2"
         offset="1"
         id="stop2308" /></linearGradient><clipPath
       clipPathUnits="userSpaceOnUse"
       id="clipPath2404"><path
         d="m 2835.8,3202.77 c 0.06,0.16 0.11,0.32 0.17,0.49 -0.06,-0.17 -0.11,-0.33 -0.17,-0.49 m 0.3,0.85 c 0.05,0.14 0.1,0.28 0.15,0.41 -0.05,-0.13 -0.1,-0.27 -0.15,-0.41 m 0.29,0.79 c 14.09,37.64 59.82,45.37 81.45,45.43 -21.63,-0.06 -67.36,-7.8 -81.45,-45.43 m 88.35,45.14 c -0.03,0 -0.06,0 -0.09,0 0.03,0 0.06,0 0.09,0 m 0.01,0.01 c 0.68,0.92 30.07,40.16 84.54,40.17 -54.46,-0.02 -83.86,-39.25 -84.54,-40.17 m -6.65,0.28 v 0 0 0 m 100.32,39.53 c -0.02,0 -0.04,0 -0.06,0.01 0.02,0 0.04,-0.01 0.06,-0.01 m -9.09,0.36 v 0 0 0"
         id="path2402" /></clipPath><linearGradient
       x1="0"
       y1="0"
       x2="1"
       y2="0"
       gradientUnits="userSpaceOnUse"
       gradientTransform="matrix(-8.9744138e-6,-232.26092,-205.27741,1.0154092e-5,238.61704,416.08137)"
       spreadMethod="pad"
       id="linearGradient2412"><stop
         style="stop-opacity:1;stop-color:#ffb6ba"
         offset="0"
         id="stop2406" /><stop
         style="stop-opacity:1;stop-color:#f9a4b3"
         offset="0.996898"
         id="stop2408" /><stop
         style="stop-opacity:1;stop-color:#f9a4b3"
         offset="1"
         id="stop2410" /></linearGradient><clipPath
       clipPathUnits="userSpaceOnUse"
       id="clipPath2508"><path
         d="m 1906.32,2854.3 v 0 0 m 0,0.01 v 0 0 m -25.14,109.24 c 0,0.01 0.01,0.01 0.01,0.02 0,-0.01 -0.01,-0.01 -0.01,-0.02 m 0.05,0.05 c 0,0 0.01,0.01 0.02,0.02 -0.01,-0.01 -0.02,-0.02 -0.02,-0.02 m 0.04,0.04 c 0.05,0.05 0.11,0.1 0.16,0.15 -0.05,-0.05 -0.11,-0.1 -0.16,-0.15 m 0.16,0.16 c 5.52,5.19 16.55,8.59 28.29,10.8 -11.75,-2.21 -22.77,-5.61 -28.29,-10.8"
         id="path2506" /></clipPath><linearGradient
       x1="0"
       y1="0"
       x2="1"
       y2="0"
       gradientUnits="userSpaceOnUse"
       gradientTransform="matrix(-1.475e-4,-3373.86,-3373.86,1.475e-4,2555.28,4083.3)"
       spreadMethod="pad"
       id="linearGradient2516"><stop
         style="stop-opacity:1;stop-color:#b099ae"
         offset="0"
         id="stop2510" /><stop
         style="stop-opacity:1;stop-color:#a683a6"
         offset="0.996898"
         id="stop2512" /><stop
         style="stop-opacity:1;stop-color:#a683a6"
         offset="1"
         id="stop2514" /></linearGradient><clipPath
       clipPathUnits="userSpaceOnUse"
       id="clipPath2550"><path
         d="m 1901.55,3221.76 c 0.01,0.02 0.01,0.04 0.02,0.05 -0.01,-0.02 -0.01,-0.03 -0.02,-0.05 m 0.05,0.12 c 0.01,0.03 0.03,0.07 0.04,0.1 -0.01,-0.03 -0.03,-0.07 -0.04,-0.1 m 0.05,0.13 c 2.48,5.97 5.02,10.55 7.46,13.32 -2.44,-2.77 -4.97,-7.35 -7.46,-13.32 m 7.46,13.32 c 0.02,0.02 0.04,0.05 0.06,0.07 -0.02,-0.02 -0.04,-0.05 -0.06,-0.07 m 0.06,0.07 c 0.02,0.03 0.04,0.05 0.07,0.07 -0.03,-0.02 -0.04,-0.04 -0.07,-0.07 m 0.07,0.08 c 0.02,0.02 0.04,0.04 0.06,0.06 -0.02,-0.02 -0.04,-0.04 -0.06,-0.06 m 0.07,0.07 c 0.02,0.02 0.03,0.04 0.05,0.06 -0.02,-0.02 -0.03,-0.04 -0.05,-0.06 m 0.06,0.07 c 0.02,0.02 0.04,0.05 0.06,0.07 -0.02,-0.02 -0.04,-0.05 -0.06,-0.07 m 0.07,0.07 c 0.02,0.03 0.04,0.05 0.06,0.07 -0.02,-0.02 -0.04,-0.05 -0.06,-0.07"
         id="path2548" /></clipPath></defs><sodipodi:namedview
     inkscape:window-maximized="1"
     inkscape:window-y="0"
     inkscape:window-x="32"
     inkscape:window-height="1404"
     inkscape:window-width="2528"
     inkscape:showpageshadow="false"
     units="mm"
     showgrid="false"
     inkscape:document-rotation="0"
     inkscape:current-layer="g859"
     inkscape:document-units="mm"
     inkscape:cy="80.582116"
     inkscape:cx="114.67946"
     inkscape:zoom="3.9152608"
     inkscape:pageshadow="2"
     inkscape:pageopacity="0.0"
     borderopacity="1.0"
     bordercolor="#666666"
     pagecolor="#ffffff"
     id="base"
     inkscape:pagecheckerboard="0"
     inkscape:deskcolor="#d1d1d1"
     width="50mm" /><metadata
     id="metadata5"><rdf:RDF><cc:Work
         rdf:about=""><dc:format>image/svg+xml</dc:format><dc:type
           rdf:resource="http://purl.org/dc/dcmitype/StillImage" /></cc:Work></rdf:RDF></metadata><g
     id="layer1"
     inkscape:groupmode="layer"
     inkscape:label="Livello 1"><g
       id="g859"
       inkscape:label="3809366"
       transform="matrix(0.25104564,0,0,-0.22187976,4.1944455,100.19542)"><g
         id="g861" /><path
         style="fill:#bdbdbd;fill-opacity:1;stroke-width:0.0961226"
         d="m 88.94933,432.04408 -16.824415,12.38555 c -0.697536,0.51337 -1.596504,0.51337 -2.29386,0 L 53.006644,432.04408 c -0.596418,-0.43915 -0.956084,-1.18942 -0.956084,-1.99428 v -30.44539 c 0,-1.31415 0.941622,-2.37954 2.103101,-2.37954 H 87.80249 c 1.161471,0 2.103093,1.06539 2.103093,2.37954 v 30.44528 c 0,0.80497 -0.359834,1.55545 -0.956253,1.99439 z"
         id="path1786" /><path
         style="fill:#cccccc;stroke-width:0.0961226"
         d="m 88.94933,432.04408 -16.824415,12.38555 c -0.348723,0.25663 -0.747875,0.38515 -1.14702,0.38515 v -47.58991 h 16.824411 c 1.161483,0 2.103097,1.06539 2.103097,2.37954 v 30.44528 c 1.8e-4,0.80497 -0.359654,1.55545 -0.956073,1.99439 z"
         id="path1788" /><path
         style="fill:#1a5b56;fill-opacity:1;stroke-width:0.0961226"
         d="m 92.006599,424.57355 c -0.39327,0 -0.790883,0.12464 -1.145026,0.38547 l -19.883501,14.63759 -19.883674,-14.6378 c -0.973157,-0.71674 -2.276239,-0.40499 -2.909797,0.6967 -0.633467,1.10159 -0.357667,2.57555 0.61576,3.29229 l 21.030604,15.48213 c 0.69754,0.51317 1.596504,0.51317 2.29386,0 L 93.155339,428.9478 c 0.973427,-0.71674 1.249228,-2.1907 0.61576,-3.29229 -0.40277,-0.70059 -1.0769,-1.08196 -1.7645,-1.08196 z"
         id="path1790" /><path
         style="fill:#1a5b56;fill-opacity:1;stroke-width:0.0961226"
         d="M 92.008586,397.22487 H 49.947558 c -1.161475,0 -2.103093,1.06539 -2.103093,2.37954 0,1.31416 0.941618,2.37955 2.103093,2.37955 h 42.061028 c 1.161482,0 2.103104,-1.06539 2.103104,-2.37955 0,-1.31415 -0.941622,-2.37954 -2.103104,-2.37954 z"
         id="path1792" /><path
         style="fill:#1d6862;fill-opacity:1;stroke-width:0.0961226"
         d="m 92.006599,424.57366 c 0.6876,0 1.361648,0.38116 1.764767,1.08185 0.633475,1.10159 0.357674,2.57555 -0.615756,3.29229 l -21.030514,15.48213 c -0.348723,0.25664 -0.747872,0.38495 -1.147024,0.38495 v -5.21837 l 19.883501,-14.6376 c 0.354143,-0.26072 0.751756,-0.38525 1.145026,-0.38525 z"
         id="path1794" /><path
         style="fill:#1d6862;fill-opacity:1;stroke-width:0.0961226"
         d="M 92.008586,401.98386 H 70.978072 v -4.75899 h 21.030514 c 1.161482,0 2.103104,1.06539 2.103104,2.37954 0,1.31426 -0.941622,2.37945 -2.103104,2.37945 z"
         id="path1796" /><path
         d="m 40.165233,405.13474 v -7.90987 H 13.097079 v 47.58997 h 8.69532 v -39.6801 z"
         style="font-weight:bold;font-size:206.162px;line-height:1.25;font-family:Roboto;-inkscape-font-specification:'Roboto Bold';fill:#1d6862;fill-opacity:1;stroke-width:2.94992"
         id="path76522" /><path
         d="m 126.85378,397.22487 -7.85756,17.45401 h -6.90426 v -17.45401 h -8.69531 v 47.58997 H 119.054 q 7.25091,0 11.38191,-3.69346 4.15989,-3.66076 4.15989,-10.68813 0,-5.16429 -2.02217,-8.33478 -2.02217,-3.17048 -5.48874,-4.9355 l 9.09975,-19.48051 v -0.45759 z m -14.76182,39.64741 v -14.28353 h 6.96204 q 3.40879,0 5.11319,1.92844 1.73329,1.96113 1.73329,5.1643 0,3.30123 -1.67551,5.22966 -1.67551,1.96113 -5.17097,1.96113 z"
         style="font-weight:bold;font-size:206.162px;line-height:1.25;font-family:Roboto;-inkscape-font-specification:'Roboto Bold';fill:#1d6862;fill-opacity:1;stroke-width:2.94992"
         id="path76516" /><path
         d="m 152.29897,444.81484 v -47.58997 h -8.66643 v 47.58997 z"
         style="font-weight:bold;font-size:206.162px;line-height:1.25;font-family:Roboto;-inkscape-font-specification:'Roboto Bold';fill:#1d6862;fill-opacity:1;stroke-width:2.94992"
         id="path76513" /><path
         id="path96124"
         style="fill:#1d6862;stroke-width:5.13305;fill-opacity:1"
         d="M 13.097086,395.76887 H 152.65409 v -7.98146 H 85.346535 L 94.996526,377.2107 H 79.620104 l -17.228838,10.57671 h -49.29418 z"
         sodipodi:nodetypes="ccccccccc" /><path
         style="fill:#cccccc;fill-opacity:1;stroke-width:0.100372"
         d="m 74.217464,425.58718 c -1.14687,0 -2.282982,-0.36293 -3.271607,-1.01742 -0.98882,0.65449 -2.125037,1.01742 -3.271907,1.01742 -3.472044,0 -6.191835,-3.07716 -6.191835,-7.00571 0,-4.36325 3.274161,-7.61322 7.06553,-11.37661 0.311103,-0.3089 0.626278,-0.62188 0.943522,-0.93894 0.415391,-0.41594 0.935033,-0.62392 1.454784,-0.62392 0.519743,0 1.039487,0.20798 1.45496,0.62392 4.118422,4.12113 8.008399,8.01378 8.008399,12.31555 0,3.92832 -2.719705,7.00571 -6.191846,7.00571 z"
         id="path1798" /><path
         style="fill:#bdbdbd;fill-opacity:1;stroke-width:0.100372"
         d="m 74.217464,425.58718 c -1.14687,0 -2.282982,-0.36293 -3.271607,-1.01742 -1.91e-4,0 -1.91e-4,0 -1.91e-4,0 v -18.92715 h 2.02e-4 c 0.519751,0 1.039487,0.20799 1.454972,0.62393 4.118421,4.12111 8.008388,8.01377 8.008388,12.31554 0,3.92833 -2.719698,7.00572 -6.191832,7.00572 z"
         id="path1800" /></g></g></svg>
