<?xml version="1.0" encoding="UTF-8" standalone="no"?>
<!-- Created with Inkscape (http://www.inkscape.org/) -->

<svg
   width="300"
   height="74"
   viewBox="0 0 79.374998 19.579166"
   version="1.1"
   id="svg5"
   inkscape:version="1.1.2 (0a00cf5339, 2022-02-04)"
   sodipodi:docname="public_sector_index_logo.svg"
   xmlns:inkscape="http://www.inkscape.org/namespaces/inkscape"
   xmlns:sodipodi="http://sodipodi.sourceforge.net/DTD/sodipodi-0.dtd"
   xmlns="http://www.w3.org/2000/svg"
   xmlns:svg="http://www.w3.org/2000/svg">
  <sodipodi:namedview
     id="namedview7"
     pagecolor="#505050"
     bordercolor="#eeeeee"
     borderopacity="1"
     inkscape:pageshadow="0"
     inkscape:pageopacity="0"
     inkscape:pagecheckerboard="0"
     inkscape:document-units="px"
     showgrid="false"
     inkscape:showpageshadow="false"
     inkscape:zoom="2.5267282"
     inkscape:cx="1.5830749"
     inkscape:cy="118.33485"
     inkscape:window-width="3034"
     inkscape:window-height="1696"
     inkscape:window-x="38"
     inkscape:window-y="0"
     inkscape:window-maximized="1"
     inkscape:current-layer="layer1"
     inkscape:snap-global="true"
     inkscape:snap-bbox="false"
     units="px"
     inkscape:snap-nodes="true" />
  <defs
     id="defs2" />
  <g
     inkscape:label="Livello 1"
     inkscape:groupmode="layer"
     id="layer1">
    <g
       aria-label="SETTORI PUBLICI"
       id="text182589"
       style="font-size:7.54306px;line-height:1.25;fill:#0064a3;stroke-width:0.353581">
      <path
         d="m 22.829422,11.062106 q 0,-0.276235 -0.136276,-0.453025 Q 22.560553,10.428607 21.989667,10.19657 21.418782,9.9645321 20.991538,9.6072681 20.538512,9.2279052 20.538512,8.5354759 q 0,-0.6776968 0.475125,-1.0865248 0.475124,-0.412511 1.2228,-0.412511 0.769776,0 1.226484,0.4640749 0.460392,0.464075 0.460392,1.1896525 h -1.082841 q 0,-0.3351652 -0.147326,-0.5524702 -0.143642,-0.2173049 -0.475124,-0.2173049 -0.3057,0 -0.453026,0.1804736 -0.143642,0.1804736 -0.143642,0.438293 0,0.2615026 0.217305,0.438293 0.220988,0.1767905 0.581935,0.3351653 0.75136,0.2688688 1.123356,0.6740136 0.371997,0.4051451 0.371997,1.0681091 0,0.707162 -0.445659,1.101257 -0.44566,0.390413 -1.211752,0.390413 -0.460392,0 -0.887635,-0.18784 -0.423561,-0.18784 -0.696113,-0.578252 -0.272552,-0.390413 -0.272552,-1.001813 h 1.086525 q 0,0.486174 0.191523,0.685063 0.195206,0.198889 0.578252,0.198889 0.313067,0 0.441976,-0.169424 0.12891,-0.173107 0.12891,-0.430927 z"
         style="font-weight:bold;font-family:'Roboto Condensed';-inkscape-font-specification:'Roboto Condensed,  Bold'"
         id="path195957" />
      <path
         d="M 24.634158,12.472747 V 7.1101028 h 3.071734 v 0.902368 h -1.985209 v 1.2669983 h 1.683192 v 0.8729029 h -1.683192 v 1.42169 h 1.992576 v 0.898685 z"
         style="font-weight:bold;font-family:'Roboto Condensed';-inkscape-font-specification:'Roboto Condensed,  Bold'"
         id="path195954" />
      <path
         d="m 28.169967,8.0124708 v -0.902368 h 3.716283 v 0.902368 H 30.556638 V 12.472747 H 29.473797 V 8.0124708 Z"
         style="font-weight:bold;font-family:'Roboto Condensed';-inkscape-font-specification:'Roboto Condensed,  Bold'"
         id="path195951" />
      <path
         d="m 32.328226,8.0124708 v -0.902368 h 3.716283 v 0.902368 H 34.714898 V 12.472747 H 33.632056 V 8.0124708 Z"
         style="font-weight:bold;font-family:'Roboto Condensed';-inkscape-font-specification:'Roboto Condensed,  Bold'"
         id="path195948" />
      <path
         d="m 40.339044,10.270232 q 0,1.134406 -0.530372,1.705292 -0.530371,0.570886 -1.395908,0.570886 -0.861853,0 -1.399591,-0.570886 -0.537737,-0.570886 -0.537737,-1.705292 V 9.3789137 q 0,-1.1601874 0.534054,-1.749489 0.534055,-0.5929846 1.395908,-0.5929846 0.865537,0 1.399591,0.5929846 0.534055,0.5893016 0.534055,1.749489 z M 39.256202,9.3715474 q 0,-0.766092 -0.217305,-1.0975741 -0.217305,-0.3314821 -0.633499,-0.3314821 -0.412511,0 -0.629816,0.327799 -0.213622,0.3241158 -0.217305,1.0717922 v 0.9281496 q 0,0.729261 0.217305,1.053377 0.220988,0.320433 0.637182,0.320433 0.412512,0 0.626133,-0.31675 0.213622,-0.31675 0.217305,-1.031278 z"
         style="font-weight:bold;font-family:'Roboto Condensed';-inkscape-font-specification:'Roboto Condensed,  Bold'"
         id="path195945" />
      <path
         d="m 43.550738,12.472747 -0.806607,-1.959428 h -0.537738 v 1.959428 H 41.119869 V 7.1101028 h 1.72739 q 0.802923,0 1.252266,0.4161942 0.449342,0.4125111 0.449342,1.204385 0,0.5819353 -0.206255,0.9391994 -0.206256,0.3572636 -0.570886,0.5524706 l 0.942882,2.198831 v 0.05156 z M 42.206393,8.0124708 v 1.5984804 h 0.611401 q 0.324116,0 0.486174,-0.2136218 0.162058,-0.217305 0.162058,-0.5782522 0,-0.7918739 -0.596668,-0.8066064 z"
         style="font-weight:bold;font-family:'Roboto Condensed';-inkscape-font-specification:'Roboto Condensed,  Bold'"
         id="path195942" />
      <path
         d="M 46.423582,7.1101028 V 12.472747 H 45.34074 V 7.1101028 Z"
         style="font-weight:bold;font-family:'Roboto Condensed';-inkscape-font-specification:'Roboto Condensed,  Bold'"
         id="path195939" />
      <path
         d="m 50.158281,10.586982 v 1.885765 H 49.071756 V 7.1101028 h 1.830518 q 0.810289,0 1.274364,0.5045894 0.467758,0.5009063 0.467758,1.2706815 0,0.7771414 -0.464074,1.2375333 -0.460392,0.460392 -1.266999,0.464075 z m 0,-2.5745112 v 1.6721431 h 0.743993 q 0.338848,0 0.489857,-0.2209881 0.154691,-0.2246712 0.154691,-0.5708859 0,-0.3462146 -0.154691,-0.6114003 -0.151009,-0.2688688 -0.489857,-0.2688688 z"
         style="font-weight:bold;font-family:'Roboto Condensed';-inkscape-font-specification:'Roboto Condensed,  Bold'"
         id="path195936" />
      <path
         d="m 55.767696,7.1101028 h 1.086525 v 3.6794512 q 0,0.931833 -0.497223,1.344344 -0.497223,0.412512 -1.266998,0.412512 -0.780825,0 -1.274365,-0.412512 -0.49354,-0.412511 -0.49354,-1.344344 V 7.1101028 h 1.086525 v 3.6794512 q 0,0.526689 0.173107,0.69243 0.17679,0.165741 0.508273,0.165741 0.335165,0 0.504589,-0.165741 0.173107,-0.165741 0.173107,-0.69243 z"
         style="font-weight:bold;font-family:'Roboto Condensed';-inkscape-font-specification:'Roboto Condensed,  Bold'"
         id="path195933" />
      <path
         d="m 61.122972,10.892682 q 0,0.784508 -0.416195,1.182286 -0.412511,0.394096 -1.244899,0.397779 H 57.671874 V 7.1101028 h 1.657411 q 0.802923,0 1.255949,0.3609472 0.456709,0.357264 0.456709,1.1086235 0,0.3646303 -0.162058,0.6703305 -0.158375,0.3057002 -0.511956,0.4603918 0.412511,0.1178603 0.581935,0.4567092 0.173108,0.338848 0.173108,0.725577 z M 58.758399,8.0124708 v 1.340661 h 0.559837 q 0.637182,0 0.637182,-0.6592811 0,-0.6666474 -0.600351,-0.6813799 z m 1.281731,2.8691622 q 0,-0.721895 -0.511956,-0.743994 h -0.769775 v 1.436423 h 0.688746 q 0.31675,0 0.453026,-0.195206 0.139959,-0.198889 0.139959,-0.497223 z"
         style="font-weight:bold;font-family:'Roboto Condensed';-inkscape-font-specification:'Roboto Condensed,  Bold'"
         id="path195930" />
      <path
         d="m 64.890821,11.574062 v 0.898685 H 61.907482 V 7.1101028 h 1.086524 v 4.4639592 z"
         style="font-weight:bold;font-family:'Roboto Condensed';-inkscape-font-specification:'Roboto Condensed,  Bold'"
         id="path195927" />
      <path
         d="M 66.647674,7.1101028 V 12.472747 H 65.564833 V 7.1101028 Z"
         style="font-weight:bold;font-family:'Roboto Condensed';-inkscape-font-specification:'Roboto Condensed,  Bold'"
         id="path195924" />
      <path
         d="m 70.109823,10.682743 h 1.082842 q -0.03683,0.913418 -0.515639,1.388542 -0.478808,0.475125 -1.340661,0.475125 -0.883953,0 -1.37381,-0.578253 -0.489856,-0.578252 -0.500906,-1.66846 V 9.3383992 q 0,-1.123356 0.50459,-1.7126576 0.508272,-0.5929847 1.384858,-0.5929847 0.876586,0 1.333295,0.4935401 0.456709,0.4898569 0.515639,1.4032743 h -1.082842 q -0.01841,-0.574569 -0.180473,-0.7845077 -0.162058,-0.2136218 -0.585619,-0.2136218 -0.416194,0 -0.607717,0.2983339 -0.191523,0.2983339 -0.198889,1.0423271 v 0.9760312 q 0,0.758725 0.165741,1.079158 0.165741,0.320433 0.626133,0.320433 0.401461,0 0.578252,-0.191523 0.17679,-0.191523 0.195206,-0.773459 z"
         style="font-weight:bold;font-family:'Roboto Condensed';-inkscape-font-specification:'Roboto Condensed,  Bold'"
         id="path195921" />
      <path
         d="M 72.990032,7.1101028 V 12.472747 H 71.90719 V 7.1101028 Z"
         style="font-weight:bold;font-family:'Roboto Condensed';-inkscape-font-specification:'Roboto Condensed,  Bold'"
         id="path195918" />
    </g>
    <g
       id="path34461"
       style="fill:#0064a3;fill-opacity:1">
      <path
         style="color:#000000;fill:#0064a3;fill-opacity:1;stroke-width:0.926042;-inkscape-stroke:none"
         d="M 20.184966,14.143537 H 76.053449"
         id="path42950" />
      <path
         style="color:#000000;fill:#0064a3;fill-opacity:1;-inkscape-stroke:none"
         d="m 20.185547,13.679688 v 0.927734 h 53.019449 v -0.927734 z"
         id="path42952"
         sodipodi:nodetypes="ccccc" />
    </g>
    <circle
       style="fill:#0064a3;fill-opacity:1;stroke-width:0.0330729"
       cx="9.6858282"
       cy="10.097071"
       r="8.4666662"
       id="circle100235" />
    <path
       style="fill:#00548c;fill-opacity:1;stroke-width:0.0330729"
       d="m 18.122889,10.087162 -5.602173,-3.536435 -2.8264594,4.676723 -2.8433168,2.415964 2.805283,4.910413 c 4.6759812,0 8.4666662,-3.790684 8.4666662,-8.466665 z"
       id="path100237"
       sodipodi:nodetypes="cccccc" />
    <g
       id="g196905"
       transform="matrix(0.02024631,0,0,0.02024631,4.5027728,4.9140153)">
      <g
         id="g196427">
	<polygon
   style="fill:#bfab92"
   points="396.02,431.395 326.01,471.698 185.99,390.857 185.99,40.303 255.999,0 396.02,80.84 "
   id="polygon196423" />

	<polygon
   style="fill:#bfab92"
   points="326.01,471.698 255.999,512 115.98,431.16 115.98,107.68 185.99,67.377 326.01,148.218 "
   id="polygon196425" />

</g>
      <polygon
         style="fill:#ede6de"
         points="185.99,67.377 115.98,107.68 255.999,188.52 326.01,148.218 "
         id="polygon196429" />
      <polygon
         style="fill:#d9ccbc"
         points="255.999,188.52 115.98,107.68 115.98,431.16 255.999,512 "
         id="polygon196431" />
      <polygon
         style="fill:#a78967"
         points="185.99,80.85 302.673,148.218 255.999,175.164 139.316,107.797 "
         id="polygon196433" />
      <path
         style="fill:#d9ccbc"
         d="m 203.492,118.09 v -7.382 0 c 0.003,-2.442 -1.599,-4.884 -4.809,-6.737 -6.418,-3.705 -16.919,-3.705 -23.337,0 -3.21,1.854 -4.816,4.296 -4.817,6.737 v 0 7.382 0 c -0.004,2.442 1.597,4.883 4.803,6.734 6.41,3.701 16.912,3.701 23.337,0 3.215,-1.851 4.822,-4.292 4.823,-6.734 z"
         id="path196435" />
      <path
         style="fill:#ffffff"
         d="m 175.346,103.971 c -6.418,3.705 -6.424,9.765 -0.014,13.466 6.41,3.701 16.912,3.701 23.337,0 6.425,-3.701 6.431,-9.76 0.014,-13.466 -6.417,-3.706 -16.919,-3.705 -23.337,0 z"
         id="path196437" />
      <path
         style="fill:#d9ccbc"
         d="m 237.349,137.76 v -7.382 0 c 0.003,-2.442 -1.599,-4.884 -4.809,-6.737 -6.418,-3.705 -16.919,-3.705 -23.337,0 -3.21,1.853 -4.816,4.296 -4.817,6.737 v 0 7.382 0 c -0.004,2.442 1.597,4.883 4.803,6.734 6.41,3.701 16.912,3.701 23.337,0 3.215,-1.851 4.822,-4.292 4.823,-6.734 z"
         id="path196439" />
      <path
         style="fill:#ffffff"
         d="m 209.203,123.642 c -6.418,3.705 -6.424,9.765 -0.014,13.466 6.41,3.701 16.912,3.701 23.337,0 6.425,-3.701 6.431,-9.76 0.014,-13.466 -6.418,-3.706 -16.919,-3.706 -23.337,0 z"
         id="path196441" />
      <path
         style="fill:#d9ccbc"
         d="m 271.206,157.431 v -7.382 0 c 0.003,-2.442 -1.599,-4.884 -4.809,-6.737 -6.418,-3.705 -16.919,-3.705 -23.337,0 -3.21,1.854 -4.816,4.296 -4.817,6.737 v 0 7.382 0 c -0.004,2.442 1.597,4.883 4.803,6.734 6.411,3.701 16.912,3.701 23.337,0 3.215,-1.851 4.822,-4.292 4.823,-6.734 z"
         id="path196443" />
      <path
         style="fill:#ffffff"
         d="m 243.06,143.311 c -6.418,3.705 -6.424,9.765 -0.014,13.466 6.411,3.701 16.912,3.701 23.337,0 6.425,-3.701 6.431,-9.76 0.014,-13.466 -6.417,-3.704 -16.919,-3.704 -23.337,0 z"
         id="path196445" />
      <polygon
         style="fill:#bfab92"
         points="139.316,107.797 150.746,114.396 185.99,94.324 185.99,80.85 "
         id="polygon196447" />
      <polygon
         style="fill:#d9ccbc"
         points="185.99,80.85 185.99,94.324 291.003,154.953 302.673,148.218 "
         id="polygon196449" />
      <polygon
         style="fill:#ede6de"
         points="255.999,0 185.99,40.303 326.01,121.143 396.02,80.84 "
         id="polygon196451" />
      <polygon
         style="fill:#d9ccbc"
         points="326.01,121.143 185.99,40.303 185.99,67.367 326.01,148.207 "
         id="polygon196453" />
      <polygon
         style="fill:#a78967"
         points="255.999,13.473 372.683,80.84 326.01,107.787 209.327,40.42 "
         id="polygon196455" />
      <polygon
         style="fill:#bfab92"
         points="209.327,40.42 220.756,47.02 255.999,26.947 255.999,13.473 "
         id="polygon196457" />
      <polygon
         style="fill:#d9ccbc"
         points="255.999,13.473 255.999,26.947 361.014,87.577 372.683,80.84 "
         id="polygon196459" />
      <polygon
         style="fill:#5e4c36"
         points="220.995,168.369 244.331,181.783 244.405,505.469 220.995,491.908 "
         id="polygon196461" />
      <g
         id="g196573">
	<polygon
   style="fill:#59a4ff"
   points="191.822,300.962 191.823,300.963 191.823,325.314 180.156,318.577 180.156,294.211 191.823,300.948 191.823,300.96 "
   id="polygon196463" />

	<polygon
   style="fill:#59a4ff"
   points="191.823,274.054 191.823,274.041 180.156,267.305 180.156,291.671 191.823,298.408 191.823,274.056 191.822,274.056 "
   id="polygon196465" />

	<polygon
   style="fill:#59a4ff"
   points="191.823,247.148 191.823,247.135 180.156,240.398 180.156,264.764 191.823,271.5 191.823,247.15 191.822,247.15 "
   id="polygon196467" />

	<polygon
   style="fill:#59a4ff"
   points="174.321,371.836 174.32,371.835 174.321,371.833 174.321,371.821 162.653,365.083 162.653,389.49 174.321,396.226 "
   id="polygon196469" />

	<polygon
   style="fill:#59a4ff"
   points="191.823,354.774 191.823,354.761 180.156,348.025 180.156,372.664 191.823,379.4 191.823,354.777 191.822,354.776 "
   id="polygon196471" />

	<polygon
   style="fill:#59a4ff"
   points="191.823,327.868 191.823,327.854 180.156,321.118 180.156,345.484 191.823,352.221 191.823,327.87 191.822,327.87 "
   id="polygon196473" />

	<polygon
   style="fill:#59a4ff"
   points="180.156,210.951 191.823,217.687 191.823,193.337 191.822,193.336 191.823,193.334 191.823,193.321 180.156,186.585 "
   id="polygon196475" />

	<polygon
   style="fill:#59a4ff"
   points="145.151,190.709 156.819,197.446 156.819,173.095 156.818,173.095 156.819,173.093 156.819,173.079 145.151,166.343 "
   id="polygon196477" />

	<polygon
   style="fill:#59a4ff"
   points="127.648,180.589 139.316,187.326 139.316,162.975 139.315,162.974 139.316,162.972 139.316,162.959 127.648,156.222 "
   id="polygon196479" />

	<polygon
   style="fill:#59a4ff"
   points="191.823,220.241 191.823,220.228 180.156,213.491 180.156,237.857 191.823,244.594 191.823,220.243 191.822,220.243 "
   id="polygon196481" />

	<polygon
   style="fill:#59a4ff"
   points="139.316,214.232 139.316,189.881 139.315,189.88 139.316,189.879 139.316,189.866 127.648,183.129 127.648,207.495 "
   id="polygon196483" />

	<polygon
   style="fill:#59a4ff"
   points="162.653,200.83 174.321,207.566 174.321,183.216 174.32,183.215 174.321,183.213 174.321,183.2 162.653,176.464 "
   id="polygon196485" />

	<polygon
   style="fill:#59a4ff"
   points="156.819,361.715 156.818,361.714 156.819,361.713 156.819,361.7 145.151,354.962 145.151,379.369 156.819,386.105 "
   id="polygon196487" />

	<polygon
   style="fill:#59a4ff"
   points="174.321,344.653 174.321,344.64 162.653,337.903 162.653,362.543 174.321,369.279 174.321,344.656 174.32,344.655 "
   id="polygon196489" />

	<polygon
   style="fill:#59a4ff"
   points="174.321,237.027 174.321,237.014 162.653,230.278 162.653,254.643 174.321,261.38 174.321,237.03 174.32,237.029 "
   id="polygon196491" />

	<polygon
   style="fill:#59a4ff"
   points="174.321,290.84 174.321,290.827 162.653,284.09 162.653,308.456 174.321,315.193 174.321,290.843 174.32,290.842 "
   id="polygon196493" />

	<polygon
   style="fill:#59a4ff"
   points="156.819,359.158 156.819,334.535 156.818,334.534 156.819,334.533 156.819,334.52 145.151,327.783 145.151,352.422 "
   id="polygon196495" />

	<polygon
   style="fill:#59a4ff"
   points="174.321,317.747 174.321,317.734 162.653,310.997 162.653,335.363 174.321,342.1 174.321,317.75 174.32,317.749 "
   id="polygon196497" />

	<polygon
   style="fill:#59a4ff"
   points="191.823,381.954 191.823,381.94 180.156,375.204 180.156,399.611 191.823,406.347 191.823,381.956 191.822,381.956 "
   id="polygon196499" />

	<polygon
   style="fill:#59a4ff"
   points="139.316,241.138 139.316,216.788 139.315,216.788 139.316,216.786 139.316,216.772 127.648,210.036 127.648,234.402 "
   id="polygon196501" />

	<polygon
   style="fill:#59a4ff"
   points="174.321,263.933 174.321,263.92 162.653,257.184 162.653,281.55 174.321,288.287 174.321,263.936 174.32,263.936 "
   id="polygon196503" />

	<polygon
   style="fill:#59a4ff"
   points="156.819,305.072 156.819,280.721 156.818,280.721 156.819,280.719 156.819,280.707 145.151,273.969 145.151,298.335 "
   id="polygon196505" />

	<polygon
   style="fill:#59a4ff"
   points="162.653,227.736 174.321,234.473 174.321,210.122 174.32,210.122 174.321,210.12 174.321,210.107 162.653,203.37 "
   id="polygon196507" />

	<polygon
   style="fill:#59a4ff"
   points="156.819,278.166 156.819,253.815 156.818,253.815 156.819,253.813 156.819,253.799 145.151,247.063 145.151,271.429 "
   id="polygon196509" />

	<polygon
   style="fill:#59a4ff"
   points="156.819,331.979 156.819,307.629 156.818,307.628 156.819,307.627 156.819,307.613 145.151,300.876 145.151,325.243 "
   id="polygon196511" />

	<polygon
   style="fill:#59a4ff"
   points="156.819,251.259 156.819,226.909 156.818,226.908 156.819,226.907 156.819,226.893 145.151,220.157 145.151,244.523 "
   id="polygon196513" />

	<polygon
   style="fill:#59a4ff"
   points="145.151,217.615 156.819,224.353 156.819,200.002 156.818,200.001 156.819,200 156.819,199.986 145.151,193.249 "
   id="polygon196515" />

	<polygon
   style="fill:#59a4ff"
   points="127.648,153.682 139.316,160.418 139.316,134.681 127.648,128.007 "
   id="polygon196517" />

	<polygon
   style="fill:#59a4ff"
   points="209.327,203.441 197.658,196.705 197.658,221.071 209.327,227.808 "
   id="polygon196519" />

	<polygon
   style="fill:#59a4ff"
   points="209.327,284.161 197.658,277.425 197.658,301.791 209.327,308.527 "
   id="polygon196521" />

	<polygon
   style="fill:#59a4ff"
   points="180.156,184.044 191.823,190.781 191.823,165.044 180.156,158.369 "
   id="polygon196523" />

	<polygon
   style="fill:#59a4ff"
   points="209.327,257.255 197.658,250.518 197.658,274.885 209.327,281.621 "
   id="polygon196525" />

	<polygon
   style="fill:#59a4ff"
   points="209.327,230.349 197.658,223.612 197.658,247.978 209.327,254.715 "
   id="polygon196527" />

	<polygon
   style="fill:#59a4ff"
   points="162.653,173.923 174.321,180.66 174.321,154.923 162.653,148.248 "
   id="polygon196529" />

	<polygon
   style="fill:#59a4ff"
   points="197.658,194.165 209.327,200.901 209.327,175.164 197.658,168.49 "
   id="polygon196531" />

	<polygon
   style="fill:#59a4ff"
   points="145.151,163.803 156.819,170.539 156.819,144.802 145.151,138.128 "
   id="polygon196533" />

	<polygon
   style="fill:#59a4ff"
   points="209.327,445.955 197.658,439.219 197.658,464.719 209.327,471.456 "
   id="polygon196535" />

	<polygon
   style="fill:#59a4ff"
   points="174.32,425.728 174.321,425.726 174.321,425.714 162.653,418.977 162.653,444.477 174.321,451.214 174.321,425.729 "
   id="polygon196537" />

	<polygon
   style="fill:#59a4ff"
   points="191.822,435.849 191.823,435.848 191.823,435.835 180.156,429.098 180.156,454.598 191.823,461.335 191.823,435.85 "
   id="polygon196539" />

	<polygon
   style="fill:#59a4ff"
   points="139.315,405.487 139.316,405.485 139.316,405.473 127.648,398.736 127.648,424.236 139.316,430.973 139.316,405.489 "
   id="polygon196541" />

	<polygon
   style="fill:#59a4ff"
   points="156.818,415.608 156.819,415.606 156.819,415.593 145.151,408.856 145.151,434.356 156.819,441.094 156.819,415.608 "
   id="polygon196543" />

	<polygon
   style="fill:#59a4ff"
   points="139.316,349.038 139.316,324.414 139.315,324.414 139.316,324.412 139.316,324.399 127.648,317.662 127.648,342.302 "
   id="polygon196545" />

	<polygon
   style="fill:#59a4ff"
   points="139.316,268.045 139.316,243.694 139.315,243.694 139.316,243.692 139.316,243.68 127.648,236.943 127.648,261.308 "
   id="polygon196547" />

	<polygon
   style="fill:#59a4ff"
   points="139.316,375.985 139.316,351.594 139.315,351.593 139.316,351.591 139.316,351.579 127.648,344.842 127.648,369.248 "
   id="polygon196549" />

	<polygon
   style="fill:#59a4ff"
   points="139.316,378.541 139.315,378.54 139.316,378.539 139.316,378.526 127.648,371.789 127.648,396.195 139.316,402.932 "
   id="polygon196551" />

	<polygon
   style="fill:#59a4ff"
   points="139.316,294.952 139.316,270.6 139.315,270.6 139.316,270.598 139.316,270.586 127.648,263.849 127.648,288.216 "
   id="polygon196553" />

	<polygon
   style="fill:#59a4ff"
   points="139.316,321.858 139.316,297.508 139.315,297.507 139.316,297.505 139.316,297.492 127.648,290.756 127.648,315.122 "
   id="polygon196555" />

	<polygon
   style="fill:#59a4ff"
   points="156.819,388.661 156.818,388.661 156.819,388.659 156.819,388.647 145.151,381.91 145.151,406.316 156.819,413.053 "
   id="polygon196557" />

	<polygon
   style="fill:#59a4ff"
   points="209.327,392.061 197.658,385.325 197.658,409.731 209.327,416.467 "
   id="polygon196559" />

	<polygon
   style="fill:#59a4ff"
   points="209.327,311.069 197.658,304.331 197.658,328.698 209.327,335.435 "
   id="polygon196561" />

	<polygon
   style="fill:#59a4ff"
   points="174.321,398.783 174.32,398.782 174.321,398.78 174.321,398.768 162.653,392.03 162.653,416.436 174.321,423.174 "
   id="polygon196563" />

	<polygon
   style="fill:#59a4ff"
   points="209.327,337.975 197.658,331.238 197.658,355.605 209.327,362.341 "
   id="polygon196565" />

	<polygon
   style="fill:#59a4ff"
   points="209.327,364.881 197.658,358.145 197.658,382.785 209.327,389.521 "
   id="polygon196567" />

	<polygon
   style="fill:#59a4ff"
   points="209.327,443.414 209.327,419.009 197.658,412.272 197.658,436.678 "
   id="polygon196569" />

	<polygon
   style="fill:#59a4ff"
   points="191.823,408.903 191.822,408.903 191.823,408.901 191.823,408.888 180.156,402.151 180.156,426.557 191.823,433.293 "
   id="polygon196571" />

</g>
      <g
         id="g196713">
	<polygon
   style="fill:#2487ff"
   points="372.683,351.766 372.683,376.173 384.352,369.435 384.352,345.029 "
   id="polygon196575" />

	<polygon
   style="fill:#2487ff"
   points="366.849,406.487 366.849,382.082 355.181,388.818 355.181,413.224 "
   id="polygon196577" />

	<polygon
   style="fill:#2487ff"
   points="372.683,324.587 372.683,349.226 384.352,342.489 384.352,317.85 "
   id="polygon196579" />

	<polygon
   style="fill:#2487ff"
   points="302.673,418.844 302.674,418.847 302.673,418.847 302.673,443.093 314.342,436.355 314.342,411.949 302.673,418.686 "
   id="polygon196581" />

	<polygon
   style="fill:#2487ff"
   points="372.683,270.773 372.683,295.139 384.352,288.403 384.352,264.036 "
   id="polygon196583" />

	<polygon
   style="fill:#2487ff"
   points="349.346,362.7 349.346,338.06 337.678,344.796 337.678,369.436 "
   id="polygon196585" />

	<polygon
   style="fill:#2487ff"
   points="349.346,416.593 349.346,392.186 337.678,398.923 337.678,423.329 "
   id="polygon196587" />

	<polygon
   style="fill:#2487ff"
   points="349.346,389.646 349.346,365.24 337.678,371.976 337.678,396.382 "
   id="polygon196589" />

	<polygon
   style="fill:#2487ff"
   points="355.181,143.639 366.849,136.902 366.849,111.166 355.181,117.839 "
   id="polygon196591" />

	<polygon
   style="fill:#2487ff"
   points="372.683,133.534 384.352,126.797 384.352,101.06 372.683,107.735 "
   id="polygon196593" />

	<polygon
   style="fill:#2487ff"
   points="349.346,335.519 349.346,311.153 337.678,317.89 337.678,342.256 "
   id="polygon196595" />

	<polygon
   style="fill:#2487ff"
   points="372.683,243.867 372.683,268.233 384.352,261.495 384.352,237.129 "
   id="polygon196597" />

	<polygon
   style="fill:#2487ff"
   points="337.678,153.743 349.346,147.007 349.346,121.271 337.678,127.945 "
   id="polygon196599" />

	<polygon
   style="fill:#2487ff"
   points="372.683,136.074 372.683,160.606 384.352,153.87 384.352,129.337 "
   id="polygon196601" />

	<polygon
   style="fill:#2487ff"
   points="372.683,163.146 372.683,187.513 384.352,180.776 384.352,156.41 "
   id="polygon196603" />

	<polygon
   style="fill:#2487ff"
   points="372.683,216.96 372.683,241.325 384.352,234.589 384.352,210.223 "
   id="polygon196605" />

	<polygon
   style="fill:#2487ff"
   points="372.683,190.053 372.683,214.419 384.352,207.682 384.352,183.316 "
   id="polygon196607" />

	<polygon
   style="fill:#2487ff"
   points="372.683,297.679 372.683,322.046 384.352,315.309 384.352,290.943 "
   id="polygon196609" />

	<polygon
   style="fill:#2487ff"
   points="349.346,308.613 349.346,284.246 337.678,290.983 337.678,315.35 "
   id="polygon196611" />

	<polygon
   style="fill:#2487ff"
   points="366.849,325.414 366.849,301.047 355.182,307.783 355.182,307.785 355.181,307.785 355.181,332.151 "
   id="polygon196613" />

	<polygon
   style="fill:#2487ff"
   points="366.849,327.954 355.181,334.691 355.181,359.33 366.849,352.593 "
   id="polygon196615" />

	<polygon
   style="fill:#2487ff"
   points="366.849,247.234 355.181,253.972 355.181,278.338 366.849,271.6 "
   id="polygon196617" />

	<polygon
   style="fill:#2487ff"
   points="366.849,274.141 355.181,280.878 355.181,305.243 366.849,298.507 "
   id="polygon196619" />

	<polygon
   style="fill:#2487ff"
   points="366.849,379.54 366.849,355.133 355.182,361.87 355.182,361.871 355.181,361.871 355.181,386.278 "
   id="polygon196621" />

	<polygon
   style="fill:#2487ff"
   points="372.683,378.713 372.683,403.119 384.352,396.382 384.352,371.976 "
   id="polygon196623" />

	<polygon
   style="fill:#2487ff"
   points="349.346,174.079 349.346,149.548 337.678,156.285 337.678,180.816 "
   id="polygon196625" />

	<polygon
   style="fill:#2487ff"
   points="366.849,220.328 355.181,227.064 355.181,251.431 366.849,244.694 "
   id="polygon196627" />

	<polygon
   style="fill:#2487ff"
   points="366.849,193.422 355.181,200.158 355.181,224.524 366.849,217.788 "
   id="polygon196629" />

	<polygon
   style="fill:#2487ff"
   points="349.346,254.799 349.346,230.433 337.678,237.17 337.678,261.536 "
   id="polygon196631" />

	<polygon
   style="fill:#2487ff"
   points="349.346,281.706 349.346,257.34 337.678,264.076 337.678,288.442 "
   id="polygon196633" />

	<polygon
   style="fill:#2487ff"
   points="349.346,227.893 349.346,203.527 337.678,210.263 337.678,234.63 "
   id="polygon196635" />

	<polygon
   style="fill:#2487ff"
   points="355.181,173.252 355.181,197.618 366.849,190.88 366.849,166.515 "
   id="polygon196637" />

	<polygon
   style="fill:#2487ff"
   points="349.346,200.986 349.346,176.62 337.678,183.356 337.678,207.723 "
   id="polygon196639" />

	<polygon
   style="fill:#2487ff"
   points="355.181,146.179 355.181,170.711 366.849,163.974 366.849,139.443 "
   id="polygon196641" />

	<polygon
   style="fill:#2487ff"
   points="302.673,445.633 302.673,445.792 302.674,445.794 302.673,445.794 302.673,471.133 314.342,464.396 314.342,438.896 "
   id="polygon196643" />

	<polygon
   style="fill:#2487ff"
   points="302.673,257.092 302.674,257.093 302.673,257.094 302.673,281.299 314.342,274.562 314.342,250.196 302.673,256.932 "
   id="polygon196645" />

	<polygon
   style="fill:#2487ff"
   points="302.673,283.998 302.674,284 302.673,284 302.673,308.206 314.342,301.469 314.342,277.103 302.673,283.839 "
   id="polygon196647" />

	<polygon
   style="fill:#2487ff"
   points="296.839,422.215 285.171,428.953 285.171,429.111 285.172,429.113 285.171,429.114 285.171,453.359 296.839,446.622 "
   id="polygon196649" />

	<polygon
   style="fill:#2487ff"
   points="302.673,203.278 302.674,203.28 302.673,203.28 302.673,227.486 314.342,220.749 314.342,196.383 302.673,203.119 "
   id="polygon196651" />

	<polygon
   style="fill:#2487ff"
   points="302.673,310.905 302.674,310.907 302.673,310.907 302.673,335.112 314.342,328.375 314.342,304.009 302.673,310.746 "
   id="polygon196653" />

	<polygon
   style="fill:#2487ff"
   points="302.673,391.898 302.674,391.9 302.673,391.901 302.673,416.145 314.342,409.409 314.342,385.002 302.673,391.739 "
   id="polygon196655" />

	<polygon
   style="fill:#2487ff"
   points="302.673,364.718 302.674,364.719 302.673,364.72 302.673,389.198 314.342,382.462 314.342,357.822 302.673,364.56 "
   id="polygon196657" />

	<polygon
   style="fill:#2487ff"
   points="302.673,337.812 302.674,337.813 302.673,337.814 302.673,362.018 314.342,355.282 314.342,330.916 302.673,337.652 "
   id="polygon196659" />

	<polygon
   style="fill:#2487ff"
   points="302.673,230.186 302.674,230.187 302.673,230.188 302.673,254.392 314.342,247.655 314.342,223.289 302.673,230.026 "
   id="polygon196661" />

	<polygon
   style="fill:#2487ff"
   points="349.346,419.133 337.678,425.869 337.678,451.37 349.346,444.633 "
   id="polygon196663" />

	<polygon
   style="fill:#2487ff"
   points="302.673,200.579 314.342,193.842 314.342,168.167 302.673,174.842 "
   id="polygon196665" />

	<polygon
   style="fill:#2487ff"
   points="384.352,398.923 372.683,405.66 372.683,431.16 384.352,424.423 "
   id="polygon196667" />

	<polygon
   style="fill:#2487ff"
   points="285.171,455.899 285.171,456.058 285.172,456.06 285.171,456.06 285.171,481.399 296.839,474.662 296.839,449.162 "
   id="polygon196669" />

	<polygon
   style="fill:#2487ff"
   points="366.849,409.028 355.181,415.764 355.181,441.265 366.849,434.529 "
   id="polygon196671" />

	<polygon
   style="fill:#2487ff"
   points="285.171,210.845 296.839,204.109 296.839,178.433 285.171,185.108 "
   id="polygon196673" />

	<polygon
   style="fill:#2487ff"
   points="267.668,221.112 279.336,214.375 279.336,188.7 267.668,195.375 "
   id="polygon196675" />

	<polygon
   style="fill:#2487ff"
   points="279.336,459.429 267.668,466.165 267.668,491.666 279.336,484.929 "
   id="polygon196677" />

	<polygon
   style="fill:#2487ff"
   points="285.171,240.451 285.172,240.453 285.171,240.454 285.171,264.658 296.839,257.922 296.839,233.555 285.171,240.292 "
   id="polygon196679" />

	<polygon
   style="fill:#2487ff"
   points="285.171,348.077 285.172,348.079 285.171,348.08 285.171,372.286 296.839,365.548 296.839,341.182 285.171,347.919 "
   id="polygon196681" />

	<polygon
   style="fill:#2487ff"
   points="285.171,321.171 285.172,321.173 285.171,321.174 285.171,345.378 296.839,338.642 296.839,314.275 285.171,321.012 "
   id="polygon196683" />

	<polygon
   style="fill:#2487ff"
   points="285.171,294.264 285.172,294.267 285.171,294.268 285.171,318.472 296.839,311.735 296.839,287.369 285.171,294.106 "
   id="polygon196685" />

	<polygon
   style="fill:#2487ff"
   points="279.336,241.281 279.336,216.915 267.668,223.652 267.668,248.018 "
   id="polygon196687" />

	<polygon
   style="fill:#2487ff"
   points="285.171,267.358 285.172,267.36 285.171,267.36 285.171,291.565 296.839,284.828 296.839,260.463 285.171,267.199 "
   id="polygon196689" />

	<polygon
   style="fill:#2487ff"
   points="279.336,456.888 279.336,432.482 267.668,439.219 267.668,463.625 "
   id="polygon196691" />

	<polygon
   style="fill:#2487ff"
   points="285.171,237.752 296.839,231.015 296.839,206.649 285.171,213.386 285.171,213.544 285.172,213.546 285.171,213.546 "
   id="polygon196693" />

	<polygon
   style="fill:#2487ff"
   points="285.171,402.164 285.172,402.166 285.171,402.167 285.171,426.412 296.839,419.675 296.839,395.268 285.171,402.006 "
   id="polygon196695" />

	<polygon
   style="fill:#2487ff"
   points="285.171,374.984 285.172,374.986 285.171,374.987 285.171,399.466 296.839,392.728 296.839,368.089 285.171,374.826 "
   id="polygon196697" />

	<polygon
   style="fill:#2487ff"
   points="279.336,402.994 279.336,378.355 267.668,385.092 267.668,409.731 "
   id="polygon196699" />

	<polygon
   style="fill:#2487ff"
   points="279.336,429.941 279.336,405.534 267.668,412.272 267.668,436.678 "
   id="polygon196701" />

	<polygon
   style="fill:#2487ff"
   points="279.336,375.815 279.336,351.448 267.668,358.186 267.668,382.552 "
   id="polygon196703" />

	<polygon
   style="fill:#2487ff"
   points="279.336,295.095 279.336,270.729 267.668,277.466 267.668,301.832 "
   id="polygon196705" />

	<polygon
   style="fill:#2487ff"
   points="279.336,348.908 279.336,324.542 267.668,331.278 267.668,355.644 "
   id="polygon196707" />

	<polygon
   style="fill:#2487ff"
   points="279.336,268.189 279.336,243.822 267.668,250.559 267.668,274.925 "
   id="polygon196709" />

	<polygon
   style="fill:#2487ff"
   points="279.336,322.002 279.336,297.635 267.668,304.372 267.668,328.738 "
   id="polygon196711" />

</g>
      <g
         id="g196729">
	<polygon
   style="fill:#59a4ff"
   points="244.334,208.847 220.995,195.375 220.996,222.303 244.405,235.837 "
   id="polygon196715" />

	<polygon
   style="fill:#59a4ff"
   points="244.334,249.267 220.995,235.795 220.996,262.724 244.405,276.258 "
   id="polygon196717" />

	<polygon
   style="fill:#59a4ff"
   points="244.334,289.687 220.995,276.215 220.996,303.144 244.405,316.678 "
   id="polygon196719" />

	<polygon
   style="fill:#59a4ff"
   points="244.334,330.107 220.995,316.636 220.996,343.564 244.405,357.099 "
   id="polygon196721" />

	<polygon
   style="fill:#59a4ff"
   points="244.334,370.528 220.995,357.056 220.996,383.984 244.405,397.519 "
   id="polygon196723" />

	<polygon
   style="fill:#59a4ff"
   points="244.334,410.948 220.995,397.476 220.996,424.404 244.405,437.939 "
   id="polygon196725" />

	<polygon
   style="fill:#59a4ff"
   points="244.334,451.368 220.995,437.896 220.996,464.826 244.405,478.359 "
   id="polygon196727" />

</g>
      <polygon
         style="fill:#ffffff"
         points="300.113,32.329 349.346,60.653 349.346,87.587 326.01,101.06 276.777,72.737 276.777,45.802 "
         id="polygon196731" />
      <polygon
         style="fill:#d9ccbc"
         points="326.01,74.126 276.777,45.802 276.777,72.737 326.01,101.06 "
         id="polygon196733" />
      <polygon
         style="fill:#bfab92"
         points="326.01,74.126 326.01,101.06 349.346,87.587 349.346,60.653 "
         id="polygon196735" />
      <path
         style="fill:#d9ccbc"
         d="m 270.518,47.144 v -7.382 0 c 0.003,-2.442 -1.599,-4.884 -4.809,-6.737 -6.418,-3.705 -16.919,-3.705 -23.337,0 -3.21,1.854 -4.816,4.296 -4.817,6.737 v 0 7.382 0 c -0.004,2.442 1.597,4.883 4.803,6.734 6.41,3.701 16.912,3.701 23.337,0 3.215,-1.85 4.822,-4.292 4.823,-6.734 z"
         id="path196737" />
      <path
         style="fill:#ffffff"
         d="m 242.373,33.025 c -6.418,3.705 -6.424,9.765 -0.014,13.466 6.41,3.701 16.912,3.701 23.337,0 6.425,-3.701 6.431,-9.76 0.014,-13.466 -6.418,-3.705 -16.919,-3.705 -23.337,0 z"
         id="path196739" />
    </g>
  </g>
</svg>
