<?xml version="1.0" encoding="UTF-8" standalone="no"?>
<!-- Created with Inkscape (http://www.inkscape.org/) -->

<svg
   width="748"
   height="48"
   viewBox="0 0 197.90833 12.7"
   version="1.1"
   id="svg5"
   inkscape:version="1.2.2 (b0a8486541, 2022-12-01)"
   sodipodi:docname="request_detail_logo.svg"
   xml:space="preserve"
   xmlns:inkscape="http://www.inkscape.org/namespaces/inkscape"
   xmlns:sodipodi="http://sodipodi.sourceforge.net/DTD/sodipodi-0.dtd"
   xmlns="http://www.w3.org/2000/svg"
   xmlns:svg="http://www.w3.org/2000/svg"><sodipodi:namedview
     id="namedview7"
     pagecolor="#ffffff"
     bordercolor="#000000"
     borderopacity="0.25"
     inkscape:showpageshadow="false"
     inkscape:pageopacity="0.0"
     inkscape:pagecheckerboard="0"
     inkscape:deskcolor="#d1d1d1"
     inkscape:document-units="px"
     showgrid="false"
     inkscape:zoom="2.0182899"
     inkscape:cx="-7.9275034"
     inkscape:cy="140.46545"
     inkscape:window-width="2527"
     inkscape:window-height="1408"
     inkscape:window-x="33"
     inkscape:window-y="0"
     inkscape:window-maximized="1"
     inkscape:current-layer="g13437" /><defs
     id="defs2">
			
			
			
			
			
			
			
		
				
				
				
				
			
				
				
				
			
					
					
				
					
					
					
				
		
		
	<filter
   inkscape:collect="always"
   style="color-interpolation-filters:sRGB"
   id="filter8120"
   x="-0.081484851"
   y="-0.11972945"
   width="1.1629697"
   height="1.2394589"><feGaussianBlur
     inkscape:collect="always"
     stdDeviation="13.145102"
     id="feGaussianBlur8122" /></filter>
	
	
	

		
		
		
		
		
		
		
		
	
		
		
		
		
		
		
		
		
	</defs><g
     inkscape:label="Livello 1"
     inkscape:groupmode="layer"
     id="layer1"><g
       id="g347"
       transform="matrix(0.04446936,0,0,0.04446936,6.3827961,3.4111066)">
	
	
<g
   id="g13437"
   transform="matrix(0.53722547,0,0,0.53722547,-99.837134,-55.907049)"><path
     style="fill:#b28d61;stroke-width:1.02542"
     d="m 443.34583,206.58914 -13.76419,0.21534 -28.88808,0.35787 -23.72715,0.35889 -155.69847,2.58098 v 0.35787 l -13.76317,-0.14356 -13.76316,0.14356 v -0.35787 l -3.36952,-0.0718 -186.5933028,-2.5092 -23.7271522,-0.35889 -28.889106,-0.35787 -13.763164,-0.21534 2.36564,-13.69139 4.874838,-28.38665 10.896094,-63.15345 1.289976,-7.31226 C -40.163459,76.553806 -25.03854,63.793502 -7.2608652,63.793502 H 388.00504 c 17.77767,0 32.90362,12.760304 35.91424,30.250862 l 1.28998,7.312256 10.89609,63.15346 4.87484,28.38665 z"
     id="path301" /><path
     style="fill:#c8a373;stroke-width:1.02542"
     d="m 443.34583,203.07606 v 94.19286 c 0,13.0464 -10.61,23.6564 -23.65537,23.6564 H -38.945262 c -13.046396,0 -23.655373,-10.61 -23.655373,-23.6564 v -94.19286 c 0,-3.65562 0.860326,-7.09692 2.36564,-10.17933 3.727395,-7.95725 11.898953,-13.47707 21.289733,-13.47707 H 419.68943 c 9.39078,0 17.56234,5.51982 21.28974,13.47707 l 0.0718,0.0718 c 0,0.0718 0.0718,0.14356 0.0718,0.21534 0.35787,0.71676 0.64498,1.43353 0.86032,2.1503 0.21534,0.50143 0.35787,0.9321 0.50143,1.43353 0.14253,0.50143 0.28609,1.00286 0.35787,1.5771 0.14356,0.71676 0.28609,1.50531 0.35787,2.29386 0.0738,0.78854 0.14561,1.64887 0.14561,2.43742 z"
     id="path303" /><path
     style="fill:#6a573f;stroke-width:1.02542"
     d="M 416.18866,193.21256 H -35.444484 c -7.357376,0 -13.376581,6.0192 -13.376581,13.37658 v 87.16567 c 0,7.35738 6.019205,13.37658 13.376581,13.37658 H 416.18866 c 7.35737,0 13.37658,-6.0192 13.37658,-13.37658 v -87.16567 c 0,-7.35738 -6.01921,-13.37658 -13.37658,-13.37658 z"
     id="path305" /><polygon
     style="fill:#ececec"
     points="439.087,54.248 439.017,67.39 438.178,180.15 438.038,193.573 437.969,207.554 437.899,212.098 437.829,223.912 437.689,242.438 74.311,242.438 74.172,223.912 74.102,212.098 74.032,207.554 73.962,193.573 73.822,180.15 72.983,67.39 72.494,0 388.684,0 "
     id="polygon307"
     transform="matrix(1.0254182,0,0,1.0254182,-72.134973,-5.3094306)" /><polygon
     style="fill:#c4e5e1"
     points="439.087,54.248 388.684,0 439.506,0 439.437,7.55 "
     id="polygon309"
     transform="matrix(1.0254182,0,0,1.0254182,-72.134973,-5.3094306)" /><polygon
     style="fill:#e5e5e4"
     points="390.864,67.521 120.733,67.521 120.593,41.886 391.004,41.886 "
     id="polygon311"
     transform="matrix(1.0254182,0,0,1.0254182,-72.134973,-5.3094306)" /><polygon
     style="fill:#e5e5e4"
     points="390.537,127.224 121.061,127.224 120.921,101.713 390.676,101.713 "
     id="polygon313"
     transform="matrix(1.0254182,0,0,1.0254182,-72.134973,-5.3094306)" /><polygon
     style="fill:#e5e5e4"
     points="313.874,187.777 121.393,187.777 121.253,162.393 313.934,162.393 "
     id="polygon315"
     transform="matrix(1.0254182,0,0,1.0254182,-72.134973,-5.3094306)" /><path
     style="fill:#d4b58f;stroke-width:1.02542"
     d="m 452.87915,240.63918 -0.21534,9.17544 -2.86707,119.21102 -0.35787,13.54885 c 0,15.62737 -19.42655,28.38665 -43.1537,28.38665 H -25.53997 c -23.727152,0 -43.1537,-12.76031 -43.1537,-28.38665 l -0.358896,-13.54885 -2.867069,-119.21205 -0.215338,-9.17441 c 0,-6.66625 3.583837,-12.90284 9.534338,-17.77768 3.727396,-3.08241 8.386896,-5.59058 13.763164,-7.45479 5.949476,-2.07852 12.688524,-3.22597 19.857223,-3.22597 H 409.72647 c 7.1687,0 13.90672,1.14745 19.8562,3.22597 5.37627,1.86421 10.03577,4.37238 13.76419,7.45479 v 0.0718 c 1.86421,1.50531 3.51206,3.15419 4.87484,4.94662 0.42965,0.57321 0.86032,1.14744 1.21819,1.72065 0.42965,0.64499 0.86033,1.36175 1.2182,2.07955 0.21534,0.35787 0.3589,0.71676 0.50143,1.07463 0.21534,0.42966 0.42965,0.93211 0.57321,1.36176 0.14356,0.42965 0.28711,0.86033 0.35787,1.21922 0.28712,0.78855 0.42965,1.64888 0.57321,2.43742 0.14356,0.93006 0.21534,1.86216 0.21534,2.86605 z"
     id="path321" /><path
     style="fill:#c8a373;stroke-width:1.02542"
     d="m 452.87915,252.68169 -2.79529,116.34292 -0.3589,12.83208 -0.28609,12.54497 c 0,0 0,0 0,0.0718 v 0.14356 c 0,0.9321 -0.0718,1.79243 -0.21534,2.65173 -2.07955,14.40918 -20.57297,25.8067 -42.93939,25.8067 H -25.53997 c -5.878723,0 -11.469303,-0.78855 -16.559479,-2.22208 -14.408151,-3.94274 -24.874594,-12.97564 -26.379908,-23.58462 -0.143559,-0.93211 -0.215338,-1.86421 -0.215338,-2.86707 v -0.14356 l -0.644988,-25.23349 -2.79529,-116.34292 c 0,-1.00389 0.07178,-1.93599 0.215338,-2.86707 0.860326,-5.59161 4.228824,-10.68076 9.319,-14.90958 3.727396,-3.01063 8.386896,-5.59161 13.763164,-7.38404 5.949476,-2.07852 12.688524,-3.22597 19.857223,-3.22597 H 409.72647 c 7.1687,0 13.90672,1.14745 19.8562,3.22597 5.37627,1.79243 10.03577,4.37238 13.76419,7.38404 5.08915,4.22882 8.45867,9.319 9.319,14.90958 0.14151,0.93108 0.21329,1.93496 0.21329,2.86707 z"
     id="path323" /><circle
     style="opacity:0.2;fill:#6a573f;stroke-width:1.02542"
     cx="87.621086"
     cy="323.58014"
     r="34.757576"
     id="circle325" /><circle
     style="opacity:0.2;fill:#6a573f;stroke-width:1.02542"
     cx="293.12311"
     cy="323.58014"
     r="34.757576"
     id="circle327" /><path
     style="opacity:0.1;fill:#040000;stroke-width:1.02542"
     d="M 278.2412,344.01466 H 102.50298 c -10.460296,0 -19.018436,-8.55814 -19.018436,-19.01843 v 0 c 0,-10.46029 8.55814,-19.01843 19.018436,-19.01843 h 175.73719 c 10.46029,0 19.01843,8.55814 19.01843,19.01843 v 0 c 10e-4,10.46029 -8.55711,19.01843 -19.0174,19.01843 z"
     id="path331" /><path
     style="fill:#f4eea8;stroke-width:1.02542"
     d="M 270.18551,344.01466 H 110.55866 c -10.46029,0 -19.018431,-8.55814 -19.018431,-19.01843 v 0 c 0,-10.46029 8.558141,-19.01843 19.018431,-19.01843 h 159.62788 c 10.46029,0 19.01843,8.55814 19.01843,19.01843 v 0 c -10e-4,10.46029 -8.55917,19.01843 -19.01946,19.01843 z"
     id="path333" /><path
     style="opacity:0.1;fill:#ffffff;stroke-width:1.02542"
     d="m 288.70559,316.60831 c -2.96859,-4.57439 -8.12952,-7.61168 -13.96312,-7.61168 H 110.43971 c -9.16519,0 -16.673298,7.50811 -16.673298,16.69073 v 4.66053 c 0,1.96777 0.345566,3.86582 0.984402,5.62647 -1.708347,-2.62405 -2.710181,-5.73004 -2.710181,-9.07906 v -4.66052 c 0,-9.18262 7.508112,-16.69073 16.673297,-16.69073 h 164.30276 c 7.19639,0 13.37556,4.62566 15.6889,11.06426 z"
     id="path335" /><path
     style="opacity:0.2;fill:#6a573f;stroke-width:1.02542"
     d="m 450.08386,369.02461 -0.3589,12.83208 -0.28609,12.54497 c 0,0 0,0 0,0.0718 v 0.14356 c 0,0.9321 -0.0718,1.79243 -0.21534,2.65173 -2.22208,14.26459 -20.71652,25.51958 -42.93939,25.51958 H -25.53997 c -6.021256,0 -11.75642,-0.86032 -16.989129,-2.29386 -14.049254,-4.01451 -24.301386,-12.83106 -25.949233,-23.22572 -0.143558,-0.93211 -0.215338,-1.86421 -0.215338,-2.86707 v -0.14356 l -0.644988,-25.23349 h 0.429651 l 0.215337,9.24722 c 0,15.62738 19.426548,28.38665 43.1537,28.38665 h 431.82411 c 23.72715,0 43.1537,-12.75927 43.1537,-28.38665 l 0.21534,-9.24722 z"
     id="path341" /><g
     aria-label="730"
     id="text576"
     style="font-size:34.7015px;font-family:Teko;-inkscape-font-specification:Teko;text-align:center;text-anchor:middle;fill:#595a59;stroke:#ffccaa;stroke-width:0;stroke-linecap:round;stroke-linejoin:round"><path
       d="M 51.602611,63.132683 60.413538,46.171647 H 51.80594 V 38.56375 H 74.053532 L 61.633513,63.132683 Z"
       style="font-family:'Futura XBlk BT';-inkscape-font-specification:'Futura XBlk BT'"
       id="path11994" /><path
       d="m 83.982769,47.764392 h 0.37277 q 1.135254,0 1.711354,-0.423603 0.593043,-0.440546 0.593043,-1.287751 0,-0.643875 -0.389714,-1.050533 -0.389714,-0.406659 -0.999702,-0.406659 -0.643875,0 -0.982757,0.457491 -0.338882,0.440546 -0.338882,1.287751 h -8.183996 q 0.06778,-4.066582 2.524669,-6.16765 2.473838,-2.101067 7.184295,-2.101067 4.202135,0 6.743749,1.931627 2.558558,1.914682 2.558558,5.015451 0,1.897738 -0.881093,3.134657 -0.881093,1.236918 -2.660222,1.86385 2.185787,0.491378 3.321042,1.982459 1.152198,1.474135 1.152198,3.81242 0,3.64298 -2.778831,5.811824 -2.778831,2.168843 -7.489289,2.168843 -5.049339,0 -7.912891,-2.490781 -2.846607,-2.490782 -2.846607,-6.879301 v -0.06778 h 8.522878 q 0.05083,1.253863 0.525267,1.897739 0.474435,0.626931 1.355527,0.626931 0.881093,0 1.40636,-0.542211 0.542211,-0.559155 0.542211,-1.457192 0,-1.033589 -0.626932,-1.5758 -0.626931,-0.542211 -1.796073,-0.542211 -0.254162,0 -0.389714,0.01694 -0.135553,0 -0.237218,0 z"
       style="font-family:'Futura XBlk BT';-inkscape-font-specification:'Futura XBlk BT'"
       id="path11996" /><path
       d="m 106.92507,50.915993 q 0,2.677166 0.47443,3.931029 0.49138,1.236919 1.52497,1.236919 1.03359,0 1.50803,-1.219975 0.47443,-1.236919 0.47443,-3.947973 0,-2.694111 -0.47443,-3.93103 -0.47444,-1.236918 -1.50803,-1.236918 -1.05053,0 -1.52497,1.219974 -0.47443,1.219975 -0.47443,3.947974 z m -8.675376,0 q 0,-5.981265 2.846606,-9.403971 2.86355,-3.439651 7.82817,-3.439651 4.99851,0 7.82817,3.405763 2.82967,3.405762 2.82967,9.437859 0,6.032096 -2.82967,9.454803 -2.82966,3.422706 -7.82817,3.422706 -4.94767,0 -7.81122,-3.456594 -2.863556,-3.456595 -2.863556,-9.420915 z"
       style="font-family:'Futura XBlk BT';-inkscape-font-specification:'Futura XBlk BT'"
       id="path11998" /></g><g
     aria-label="ISEE"
     id="text630"
     style="font-size:34.7015px;font-family:Teko;-inkscape-font-specification:Teko;text-align:center;text-anchor:middle;fill:#595a59;stroke:#ffccaa;stroke-width:0;stroke-linecap:round;stroke-linejoin:round"><path
       d="M 49.61168,123.49597 V 98.689821 h 9.065089 v 24.806149 z"
       style="font-family:'Futura XBlk BT';-inkscape-font-specification:'Futura XBlk BT'"
       id="path12001" /><path
       d="m 61.235327,121.37796 2.846607,-6.94708 q 1.914682,1.33859 3.405762,1.96552 1.508025,0.60998 2.81272,0.60998 0.914981,0 1.440247,-0.33888 0.525267,-0.35582 0.525267,-0.94887 0,-1.03359 -2.626334,-1.5758 -0.847205,-0.18638 -1.321639,-0.28805 -2.778831,-0.67776 -4.252967,-2.40606 -1.474136,-1.72829 -1.474136,-4.3038 0,-3.9988 2.863551,-6.50653 2.863552,-2.507724 7.506233,-2.507724 2.134956,0 4.202135,0.559155 2.067179,0.559155 4.168246,1.694409 l -2.711054,6.48959 q -1.287751,-0.94887 -2.592446,-1.44025 -1.287751,-0.50832 -2.507726,-0.50832 -0.931925,0 -1.440248,0.32193 -0.508322,0.305 -0.508322,0.86415 0,1.05054 3.710756,1.84691 0.593043,0.13555 0.914981,0.20333 2.558557,0.5761 4.032693,2.35523 1.474136,1.77913 1.474136,4.3038 0,4.11741 -2.98216,6.7268 -2.965216,2.60939 -7.726506,2.60939 -2.439949,0 -4.879898,-0.69471 -2.439949,-0.6947 -4.879898,-2.08412 z"
       style="font-family:'Futura XBlk BT';-inkscape-font-specification:'Futura XBlk BT'"
       id="path12003" /><path
       d="M 84.685952,123.49597 V 98.689821 h 16.588268 v 6.726809 h -7.845116 v 2.38911 h 7.116516 v 6.35404 h -7.116516 v 2.60939 h 8.048446 v 6.7268 z"
       style="font-family:'Futura XBlk BT';-inkscape-font-specification:'Futura XBlk BT'"
       id="path12005" /><path
       d="M 105.08664,123.49597 V 98.689821 h 16.58826 v 6.726809 h -7.84511 v 2.38911 h 7.11652 v 6.35404 h -7.11652 v 2.60939 h 8.04844 v 6.7268 z"
       style="font-family:'Futura XBlk BT';-inkscape-font-specification:'Futura XBlk BT'"
       id="path12007" /></g><g
     aria-label="RDC"
     id="text736"
     style="font-size:34.7015px;font-family:Teko;-inkscape-font-specification:Teko;text-align:center;text-anchor:middle;fill:#595a59;stroke:#ffccaa;stroke-width:0;stroke-linecap:round;stroke-linejoin:round"><path
       d="m 58.973291,168.15991 v 4.84601 h 1.389415 q 1.270807,0 1.948571,-0.60998 0.694707,-0.62694 0.694707,-1.77913 0,-1.18609 -0.694707,-1.81302 -0.677764,-0.64388 -1.948571,-0.64388 z m -8.743152,18.41823 v -24.80615 h 11.216989 q 4.879898,0 7.4554,2.1519 2.575502,2.1519 2.575502,6.20154 0,2.64328 -1.304695,4.35463 -1.287751,1.71135 -3.490483,1.9994 l 6.62514,10.09868 h -9.997014 l -4.337687,-8.184 v 8.184 z"
       style="font-family:'Futura XBlk BT';-inkscape-font-specification:'Futura XBlk BT'"
       id="path12010" /><path
       d="m 83.914993,179.00413 q 3.016049,-0.0169 4.405464,-1.16914 1.389416,-1.16914 1.389416,-3.64298 0,-2.42301 -1.338584,-3.60909 -1.321639,-1.18609 -4.066582,-1.18609 h -0.389714 z m -8.844816,7.57401 v -24.80615 h 7.218184 q 3.43965,0 5.862655,0.38971 2.43995,0.37277 3.964918,1.16915 3.219377,1.69441 4.93073,4.49018 1.728298,2.79578 1.728298,6.37098 0,3.55826 -1.711353,6.33709 -1.711354,2.77883 -4.947675,4.49018 -1.575801,0.81332 -3.998806,1.18609 -2.423005,0.37277 -6.489587,0.37277 z"
       style="font-family:'Futura XBlk BT';-inkscape-font-specification:'Futura XBlk BT'"
       id="path12012" /><path
       d="m 120.76839,171.61651 q -1.21997,-1.16915 -2.49078,-1.74524 -1.27081,-0.5761 -2.67717,-0.5761 -2.18578,0 -3.52437,1.35552 -1.32164,1.33859 -1.32164,3.57521 0,2.18579 1.27081,3.49048 1.27081,1.3047 3.40576,1.3047 1.28775,0 2.60939,-0.54222 1.33859,-0.55915 2.91439,-1.76218 l -0.28805,9.33619 q -1.45719,0.59305 -2.91439,0.8811 -1.45719,0.30499 -2.91438,0.30499 -1.81302,0 -3.49048,-0.40666 -1.67747,-0.40666 -3.03299,-1.1522 -3.28716,-1.89773 -4.98157,-4.79517 -1.67746,-2.89744 -1.67746,-6.65903 0,-2.77883 0.94887,-5.15101 0.96581,-2.37217 2.79577,-4.18519 1.84691,-1.82996 4.26991,-2.76188 2.43995,-0.94887 5.26962,-0.94887 1.50802,0 2.96521,0.32193 1.47414,0.305 2.86355,0.93193 z"
       style="font-family:'Futura XBlk BT';-inkscape-font-specification:'Futura XBlk BT'"
       id="path12014" /></g><g
     id="g13251"
     transform="matrix(0.99998688,0,0,0.99998688,820.36173,0.00149137)"
     style="fill:#2a49cb;fill-opacity:1"><path
       d="m 1245.383,156.94459 h -19.637 v 48.38098 h 19.637 q 7.1148,0 7.1148,-6.26107 v -35.85885 q 0,-6.26106 -7.1148,-6.26106 z m -19.637,82.24766 v 64.88743 h -49.804 V 121.37034 h 84.5244 q 41.8354,0 41.8354,35.28965 v 47.24261 q 0,27.03642 -24.4751,33.29749 l 33.5821,66.87959 h -53.5037 l -29.0286,-64.88743 z"
       id="path7738"
       style="font-weight:bold;font-size:284.594px;font-family:Teko;-inkscape-font-specification:'Teko Bold';text-align:center;text-anchor:middle;fill:#2a49cb;stroke-width:0;stroke-linecap:round;stroke-linejoin:round;fill-opacity:1" /><path
       d="m 1370.6043,304.07968 h -48.381 v -142.0124 h 48.381 z m -49.2348,-156.2421 V 113.6863 h 50.0886 v 34.15128 z"
       id="path7740"
       style="font-weight:bold;font-size:284.594px;font-family:Teko;-inkscape-font-specification:'Teko Bold';text-align:center;text-anchor:middle;fill:#2a49cb;stroke-width:0;stroke-linecap:round;stroke-linejoin:round;fill-opacity:1" /><path
       d="m 1504.6481,216.99392 h -46.6734 V 203.9026 q 0,-6.26107 -7.1149,-6.26107 h -4.8381 q -7.1148,0 -7.1148,6.26107 v 58.34176 q 0,6.26107 7.1148,6.26107 h 4.8381 q 7.1149,0 7.1149,-6.26107 v -13.09132 h 46.6734 v 19.63699 q 0,35.28965 -41.8353,35.28965 h -30.4516 q -41.8353,0 -41.8353,-35.28965 v -71.4331 q 0,-35.28965 41.8353,-35.28965 h 30.4516 q 41.8353,0 41.8353,35.28965 z"
       id="path7742"
       style="font-weight:bold;font-size:284.594px;font-family:Teko;-inkscape-font-specification:'Teko Bold';text-align:center;text-anchor:middle;fill:#2a49cb;stroke-width:0;stroke-linecap:round;stroke-linejoin:round;fill-opacity:1" /><path
       d="m 1595.1491,162.06728 h 5.1227 q 37.851,0 37.851,35.28965 v 106.72275 h -48.381 V 203.9026 q 0,-6.26107 -7.1149,-6.26107 h -4.8381 q -7.684,0 -7.684,8.53782 v 97.90033 h -48.381 V 113.6863 h 48.381 v 63.74905 q 5.4073,-15.36807 25.0443,-15.36807 z"
       id="path7744"
       style="font-weight:bold;font-size:284.594px;font-family:Teko;-inkscape-font-specification:'Teko Bold';text-align:center;text-anchor:middle;fill:#2a49cb;stroke-width:0;stroke-linecap:round;stroke-linejoin:round;fill-opacity:1" /><path
       d="m 1707.8481,304.07968 h -48.381 v -142.0124 h 48.381 z m -49.2348,-156.2421 V 113.6863 h 50.0886 v 34.15128 z"
       id="path7746"
       style="font-weight:bold;font-size:284.594px;font-family:Teko;-inkscape-font-specification:'Teko Bold';text-align:center;text-anchor:middle;fill:#2a49cb;stroke-width:0;stroke-linecap:round;stroke-linejoin:round;fill-opacity:1" /><path
       d="m 1773.5892,219.55527 h 26.7519 v -17.92943 q 0,-6.26106 -7.1149,-6.26106 h -12.5221 q -7.1149,0 -7.1149,6.26106 z m -3.9843,-57.48799 h 34.7205 q 41.8353,0 41.8353,35.28965 v 48.38098 h -72.5715 v 18.78321 q 0,6.26106 7.1149,6.26106 h 12.5221 q 7.1149,0 7.1149,-6.83025 v -7.96863 h 45.8196 v 12.80673 q 0,35.28965 -41.8353,35.28965 h -34.7205 q -41.8353,0 -41.8353,-35.28965 v -71.4331 q 0,-35.28965 41.8353,-35.28965 z"
       id="path7748"
       style="font-weight:bold;font-size:284.594px;font-family:Teko;-inkscape-font-specification:'Teko Bold';text-align:center;text-anchor:middle;fill:#2a49cb;stroke-width:0;stroke-linecap:round;stroke-linejoin:round;fill-opacity:1" /><path
       d="m 1925.8472,266.51327 v -11.38376 q 0,-6.26106 -7.1149,-6.26106 h -17.3602 q -40.9815,0 -40.9815,-35.00506 v -16.50646 q 0,-35.28965 41.8353,-35.28965 h 26.4672 q 41.8354,0 41.8354,35.28965 v 11.95295 h -46.1043 v -9.67619 q 0,-6.26107 -7.1148,-6.26107 h -2.846 q -7.1148,0 -7.1148,6.26107 v 12.52213 q 0,6.26107 7.1148,6.26107 h 17.3603 q 21.9137,0 31.3053,9.10701 9.6762,8.82241 9.6762,25.61346 v 15.65267 q 0,35.28965 -41.8353,35.28965 h -27.8902 q -41.8353,0 -41.8353,-35.28965 v -11.66836 h 46.958 v 9.3916 q 0,6.26107 7.1148,6.26107 h 3.4151 q 7.1149,0 7.1149,-6.26107 z"
       id="path7750"
       style="font-weight:bold;font-size:284.594px;font-family:Teko;-inkscape-font-specification:'Teko Bold';text-align:center;text-anchor:middle;fill:#2a49cb;stroke-width:0;stroke-linecap:round;stroke-linejoin:round;fill-opacity:1" /><path
       d="m 2063.3061,197.64153 h -17.9295 v 64.60283 q 0,6.26107 7.1149,6.26107 h 10.53 v 35.57425 h -24.1905 q -41.8353,0 -41.8353,-35.28965 v -71.1485 h -15.6527 v -35.57425 h 15.6527 v -27.89021 h 48.3809 v 27.89021 h 17.9295 z"
       id="path7752"
       style="font-weight:bold;font-size:284.594px;font-family:Teko;-inkscape-font-specification:'Teko Bold';text-align:center;text-anchor:middle;fill:#2a49cb;stroke-width:0;stroke-linecap:round;stroke-linejoin:round;fill-opacity:1" /><path
       d="m 2130.1855,268.50543 h 4.8381 q 7.684,0 7.684,-8.53782 v -53.78826 q 0,-8.53782 -7.684,-8.53782 h -4.8381 q -7.1149,0 -7.1149,6.26107 v 58.34176 q 0,6.26107 7.1149,6.26107 z m 13.3759,-106.43815 h 47.5272 v 142.0124 h -48.381 v -15.36807 q -5.4073,15.36807 -25.0443,15.36807 h -5.1227 q -37.851,0 -37.851,-35.28965 v -71.4331 q 0,-35.28965 37.851,-35.28965 h 5.1227 q 21.9138,0 25.8981,18.21401 z"
       id="path7754"
       style="font-weight:bold;font-size:284.594px;font-family:Teko;-inkscape-font-specification:'Teko Bold';text-align:center;text-anchor:middle;fill:#2a49cb;stroke-width:0;stroke-linecap:round;stroke-linejoin:round;fill-opacity:1" /><path
       d="m 2347.331,202.47963 v -39.27398 q 0,-6.26106 -7.1149,-6.26106 h -19.6369 v 51.7961 h 19.6369 q 7.1149,0 7.1149,-6.26106 z m -76.5558,-81.10929 h 84.5244 q 41.8353,0 41.8353,35.28965 v 52.3653 q 0,35.28965 -41.8353,35.28965 h -34.7204 v 59.76474 h -49.804 z"
       id="path7756"
       style="font-weight:bold;font-size:284.594px;font-family:Teko;-inkscape-font-specification:'Teko Bold';text-align:center;text-anchor:middle;fill:#2a49cb;stroke-width:0;stroke-linecap:round;stroke-linejoin:round;fill-opacity:1" /><path
       d="m 2492.4739,160.64431 h 4.2689 v 42.11991 h -16.2219 q -17.9294,0 -17.9294,19.35239 v 81.96307 h -48.381 v -142.0124 h 47.5272 v 21.91374 q 2.2768,-10.81458 10.2454,-17.07564 7.9686,-6.26107 20.4908,-6.26107 z"
       id="path7758"
       style="font-weight:bold;font-size:284.594px;font-family:Teko;-inkscape-font-specification:'Teko Bold';text-align:center;text-anchor:middle;fill:#2a49cb;stroke-width:0;stroke-linecap:round;stroke-linejoin:round;fill-opacity:1" /><path
       d="m 2562.199,268.50543 h 4.8381 q 7.6841,0 7.6841,-8.53782 v -53.78826 q 0,-8.53782 -7.6841,-8.53782 h -4.8381 q -7.1148,0 -7.1148,6.26107 v 58.34176 q 0,6.26107 7.1148,6.26107 z m 13.3759,-106.43815 h 47.5272 v 142.0124 h -48.3809 v -15.36807 q -5.4073,15.36807 -25.0443,15.36807 h -5.1227 q -37.851,0 -37.851,-35.28965 v -71.4331 q 0,-35.28965 37.851,-35.28965 h 5.1227 q 21.9137,0 25.898,18.21401 z"
       id="path7760"
       style="font-weight:bold;font-size:284.594px;font-family:Teko;-inkscape-font-specification:'Teko Bold';text-align:center;text-anchor:middle;fill:#2a49cb;stroke-width:0;stroke-linecap:round;stroke-linejoin:round;fill-opacity:1" /><path
       d="m 2717.872,197.64153 h -17.9294 v 64.60283 q 0,6.26107 7.1148,6.26107 h 10.53 v 35.57425 h -24.1905 q -41.8353,0 -41.8353,-35.28965 v -71.1485 h -15.6527 v -35.57425 h 15.6527 v -27.89021 h 48.381 v 27.89021 h 17.9294 z"
       id="path7762"
       style="font-weight:bold;font-size:284.594px;font-family:Teko;-inkscape-font-specification:'Teko Bold';text-align:center;text-anchor:middle;fill:#2a49cb;stroke-width:0;stroke-linecap:round;stroke-linejoin:round;fill-opacity:1" /><path
       d="m 2780.4826,304.07968 h -48.381 v -142.0124 h 48.381 z m -49.2348,-156.2421 V 113.6863 h 50.0886 v 34.15128 z"
       id="path7764"
       style="font-weight:bold;font-size:284.594px;font-family:Teko;-inkscape-font-specification:'Teko Bold';text-align:center;text-anchor:middle;fill:#2a49cb;stroke-width:0;stroke-linecap:round;stroke-linejoin:round;fill-opacity:1" /><path
       d="m 2914.5263,216.99392 h -46.6734 V 203.9026 q 0,-6.26107 -7.1148,-6.26107 H 2855.9 q -7.1149,0 -7.1149,6.26107 v 58.34176 q 0,6.26107 7.1149,6.26107 h 4.8381 q 7.1148,0 7.1148,-6.26107 v -13.09132 h 46.6734 v 19.63699 q 0,35.28965 -41.8353,35.28965 h -30.4516 q -41.8353,0 -41.8353,-35.28965 v -71.4331 q 0,-35.28965 41.8353,-35.28965 h 30.4516 q 41.8353,0 41.8353,35.28965 z"
       id="path7766"
       style="font-weight:bold;font-size:284.594px;font-family:Teko;-inkscape-font-specification:'Teko Bold';text-align:center;text-anchor:middle;fill:#2a49cb;stroke-width:0;stroke-linecap:round;stroke-linejoin:round;fill-opacity:1" /><path
       d="m 2984.252,268.50543 h 4.8381 q 7.684,0 7.684,-8.53782 v -53.78826 q 0,-8.53782 -7.684,-8.53782 h -4.8381 q -7.1148,0 -7.1148,6.26107 v 58.34176 q 0,6.26107 7.1148,6.26107 z m 13.3759,-106.43815 h 47.5272 v 142.0124 h -48.381 v -15.36807 q -5.4072,15.36807 -25.0442,15.36807 h -5.1227 q -37.851,0 -37.851,-35.28965 v -71.4331 q 0,-35.28965 37.851,-35.28965 h 5.1227 q 21.9137,0 25.898,18.21401 z"
       id="path7768"
       style="font-weight:bold;font-size:284.594px;font-family:Teko;-inkscape-font-specification:'Teko Bold';text-align:center;text-anchor:middle;fill:#2a49cb;stroke-width:0;stroke-linecap:round;stroke-linejoin:round;fill-opacity:1" /></g><path
     id="polygon8070"
     style="opacity:0.37;fill:#808080;filter:url(#filter8120)"
     sodipodi:type="inkscape:offset"
     inkscape:radius="10.529538"
     inkscape:original="M 72.494141 0 L 72.982422 67.390625 L 73.822266 180.15039 L 73.962891 193.57227 L 74.03125 207.55469 L 74.101562 212.09766 L 74.171875 223.91211 L 74.310547 242.4375 L 437.68945 242.4375 L 437.82812 223.91211 L 437.89844 212.09766 L 437.96875 207.55469 L 438.03711 193.57227 L 438.17773 180.15039 L 439.01758 67.390625 L 439.08789 54.248047 L 388.68359 0 L 72.494141 0 z "
     d="M 72.494141,-10.529297 A 10.530591,10.530591 0 0 0 61.964844,0.07617187 L 62.453125,67.466797 a 10.530591,10.530591 0 0 0 0,0.002 l 0.839844,112.75977 a 10.530591,10.530591 0 0 0 0,0.0312 l 0.140625,13.39257 0.06836,13.95313 a 10.530591,10.530591 0 0 0 0.002,0.11133 l 0.06836,4.49414 0.07031,11.76367 a 10.530591,10.530591 0 0 0 0,0.0156 l 0.138672,18.52539 A 10.530591,10.530591 0 0 0 74.310547,252.9668 H 437.68945 a 10.530591,10.530591 0 0 0 10.5293,-10.45118 l 0.13867,-18.52539 a 10.530591,10.530591 0 0 0 0,-0.0156 l 0.0703,-11.76367 0.0684,-4.49414 a 10.530591,10.530591 0 0 0 0.002,-0.11133 l 0.0684,-13.95313 0.14062,-13.39257 a 10.530591,10.530591 0 0 0 0,-0.0312 l 0.83985,-112.75977 a 10.530591,10.530591 0 0 0 0,-0.02148 l 0.0703,-13.142578 a 10.530591,10.530591 0 0 0 -2.81641,-7.22461 l -50.4043,-54.2480468 a 10.530591,10.530591 0 0 0 -7.71289,-3.3613282 z"
     transform="matrix(1.0363993,0.27770237,-0.27770237,1.0363993,210.2339,53.317334)" /><polygon
     style="fill:#ececec"
     points="72.494,0 388.684,0 439.087,54.248 439.017,67.39 438.178,180.15 438.038,193.573 437.969,207.554 437.899,212.098 437.829,223.912 437.689,242.438 74.311,242.438 74.172,223.912 74.102,212.098 74.032,207.554 73.962,193.573 73.822,180.15 72.983,67.39 "
     id="polygon8068"
     transform="matrix(1.0363993,0.27770237,-0.27770237,1.0363993,210.2339,53.317334)" /><polygon
     style="fill:#fbe6b7"
     points="113.297,479.474 73.6,439.701 72.895,439.074 72.19,438.29 32.494,398.671 31.867,398.046 97.95,331.961 180.006,414.017 171.785,422.16 115.097,478.926 115.019,478.926 113.923,480.023 113.844,479.945 113.375,479.474 "
     id="polygon9409"
     transform="matrix(0.64366812,0,0,0.64366812,463.86755,-27.6424)" /><path
     style="fill:#ffffff;stroke-width:0.643668"
     d="m 793.06453,15.889519 c -0.40358,1.763007 -1.31051,3.477095 -2.67122,4.837809 l -23.13215,23.131501 -4.93886,4.938866 -2.67123,2.671223 c -4.03193,4.031937 -10.68424,4.031937 -14.76639,0 L 729.6143,36.198535 714.29307,20.877303 c -4.08214,-4.0815 -4.08214,-10.73381 0,-14.7663905 l 2.67122,-2.6712227 4.93887,-4.9388654 6.14831,-6.1483179 16.93363,-16.9825395 c 1.36071,-1.360715 3.07415,-2.26893 4.88866,-2.671223 3.42688,-0.906928 7.25735,0 9.92858,2.671223 l 15.27038,15.3212321 15.32059,15.2690951 c 2.67122,2.6712227 3.57815,6.5010478 2.67122,9.9292248 z"
     id="path9411" /><polygon
     style="fill:#9b6d46"
     points="322.664,107.248 395.089,34.823 471.351,111.085 477.145,116.88 404.72,189.306 363.692,148.276 "
     id="polygon9413"
     transform="matrix(0.64366812,0,0,0.64366812,463.86755,-27.6424)" /><polygon
     style="fill:#fbf3bd"
     points="387.416,42.498 404.641,25.271 480.903,101.533 486.697,107.248 477.145,116.88 469.472,124.473 463.678,118.757 393.21,48.29 "
     id="polygon9415"
     transform="matrix(0.64366812,0,0,0.64366812,463.86755,-27.6424)" /><polygon
     style="fill:#70a745"
     points="322.664,107.248 335.818,94.095 376.846,135.122 417.874,176.072 404.72,189.306 309.901,284.123 180.006,414.017 171.785,422.16 130.835,381.134 89.808,340.105 97.95,331.961 227.845,202.067 "
     id="polygon9417"
     transform="matrix(0.64366812,0,0,0.64366812,463.86755,-27.6424)" /><path
     style="fill:#fbe6b7;stroke-width:0.643668"
     d="m 537.90161,280.627 -0.70546,0.20211 -0.35273,0.15126 h -0.0502 l -46.4162,13.45717 c -0.0502,-0.10105 -0.10105,-0.15255 -0.10105,-0.25232 -2.01597,-3.88067 -4.58614,-7.55988 -7.86177,-10.83615 -3.27562,-3.27563 -6.95483,-5.896 -10.88571,-7.86241 -0.0502,-0.0489 -0.15126,-0.0489 -0.20147,-0.10105 l 13.45653,-46.4162 0.15126,-0.4525 0.20211,-0.7061 0.5542,0.55484 25.85293,25.85422 0.95778,0.95713 24.84623,24.84559 z"
     id="path9419" /><path
     style="fill:#595a59;stroke-width:0.643668"
     d="m 490.6789,294.08417 -0.40293,0.10105 -0.0502,0.0502 -17.08488,4.98907 -9.27333,2.67122 2.67122,-9.27332 4.98907,-17.13574 0.15127,-0.45249 c 3.98173,2.01532 7.76135,4.63634 11.08782,7.96346 3.32584,3.32519 5.94685,7.10481 7.91197,11.08654 z"
     id="path9421" /><polygon
     style="fill:#70a745"
     points="309.901,284.123 180.006,414.017 115.097,478.926 113.766,480.258 113.844,479.945 113.923,479.239 114.158,477.987 122.457,431.087 75.557,439.387 73.6,439.701 71.955,440.012 71.877,440.012 72.19,438.29 72.504,436.333 80.803,389.432 33.903,397.732 32.728,397.968 31.945,398.124 31.789,398.124 97.95,331.961 227.845,202.067 "
     id="polygon9423"
     transform="matrix(0.64366812,0,0,0.64366812,463.86755,-27.6424)" /><polygon
     style="fill:#fbe6b7"
     points="113.297,479.474 73.6,439.701 72.895,439.074 72.19,438.29 32.494,398.671 31.867,398.046 97.95,331.961 180.006,414.017 171.785,422.16 115.097,478.926 115.019,478.926 113.923,480.023 113.844,479.945 113.375,479.474 "
     id="polygon9427"
     transform="matrix(0.64366812,0,0,0.64366812,463.86755,-27.6424)" /><path
     style="fill:#e6e6e6;stroke-width:0.643668"
     d="m 793.06453,15.889519 c -0.40358,1.763007 -1.31051,3.477095 -2.67122,4.837809 l -23.13215,23.131501 -4.93886,4.938866 -2.67123,2.671223 c -4.03193,4.031937 -10.68424,4.031937 -14.76639,0 L 729.6143,36.198535 714.29307,20.877303 c -4.08214,-4.0815 -4.08214,-10.73381 0,-14.7663905 l 2.67122,-2.6712227 4.93887,-4.9388654 6.14831,-6.1483179 16.93363,-16.9825395 c 1.36071,-1.360715 3.07415,-2.26893 4.88866,-2.671223 3.42688,-0.906928 7.25735,0 9.92858,2.671223 l 15.27038,15.3212321 15.32059,15.2690951 c 2.67122,2.6712227 3.57815,6.5010478 2.67122,9.9292248 z"
     id="path9429" /><polygon
     style="fill:#9b6d46"
     points="322.664,107.248 395.089,34.823 471.351,111.085 477.145,116.88 404.72,189.306 363.692,148.276 "
     id="polygon9431"
     transform="matrix(0.64366812,0,0,0.64366812,463.86755,-27.6424)" /><polygon
     style="fill:#fbf3bd"
     points="387.416,42.498 404.641,25.271 480.903,101.533 486.697,107.248 477.145,116.88 469.472,124.473 463.678,118.757 393.21,48.29 "
     id="polygon9433"
     transform="matrix(0.64366812,0,0,0.64366812,463.86755,-27.6424)" /><polygon
     style="fill:#4662d9;fill-opacity:1"
     points="322.664,107.248 335.818,94.095 376.846,135.122 417.874,176.072 404.72,189.306 309.901,284.123 180.006,414.017 171.785,422.16 130.835,381.134 89.808,340.105 97.95,331.961 227.845,202.067 "
     id="polygon9435"
     transform="matrix(0.64366812,0,0,0.64366812,463.86755,-27.6424)" /><path
     style="fill:#fbe6b7;stroke-width:0.643668"
     d="m 537.90161,280.627 -0.70546,0.20211 -0.35273,0.15126 h -0.0502 l -46.4162,13.45717 c -0.0502,-0.10105 -0.10105,-0.15255 -0.10105,-0.25232 -2.01597,-3.88067 -4.58614,-7.55988 -7.86177,-10.83615 -3.27562,-3.27563 -6.95483,-5.896 -10.88571,-7.86241 -0.0502,-0.0489 -0.15126,-0.0489 -0.20147,-0.10105 l 13.45653,-46.4162 0.15126,-0.4525 0.20211,-0.7061 0.5542,0.55484 25.85293,25.85422 0.95778,0.95713 24.84623,24.84559 z"
     id="path9437" /><path
     style="fill:#595a59;stroke-width:0.643668"
     d="m 490.6789,294.08417 -0.40293,0.10105 -0.0502,0.0502 -17.08488,4.98907 -9.27333,2.67122 2.67122,-9.27332 4.98907,-17.13574 0.15127,-0.45249 c 3.98173,2.01532 7.76135,4.63634 11.08782,7.96346 3.32584,3.32519 5.94685,7.10481 7.91197,11.08654 z"
     id="path9439" /><polygon
     style="fill:#4662d9;fill-opacity:1"
     points="309.901,284.123 180.006,414.017 115.097,478.926 113.766,480.258 113.844,479.945 113.923,479.239 114.158,477.987 122.457,431.087 75.557,439.387 73.6,439.701 71.955,440.012 71.877,440.012 72.19,438.29 72.504,436.333 80.803,389.432 33.903,397.732 32.728,397.968 31.945,398.124 31.789,398.124 97.95,331.961 227.845,202.067 "
     id="polygon9441"
     transform="matrix(0.64366812,0,0,0.64366812,463.86755,-27.6424)" /><path
     style="opacity:0.08;fill:#040000;stroke-width:0.643668"
     d="m 773.4333,37.693776 16.94392,-16.943919 c 4.06476,-4.064765 4.06412,-10.7145 0,-14.7792641 L 775.08109,-9.3255363 463.87785,301.8777 l 26.36722,-7.65193 c 0.036,0.0708 0.0798,0.13839 0.11457,0.2092 l 46.45482,-13.48034 0.3154,0.31539 -0.0361,0.20405 0.12037,-0.12037 37.24778,-37.24779 5.26263,-5.26263 83.62987,-83.62987 61.0191,-61.01909 8.48483,-8.484833 33.21199,-33.211988 4.90024,-4.900245 6.18436,-6.184363 z"
     id="path9445" /><path
     style="opacity:1;fill:#595a59;fill-opacity:1;stroke:#595a59;stroke-width:17.2544;stroke-linecap:round;stroke-linejoin:round;stroke-dasharray:none;stroke-opacity:1"
     d="m 300.66253,253.70737 163.20502,48.18835"
     id="path11032"
     sodipodi:nodetypes="cc" /><path
     d="M 960.62019,265.08835 V 160.35923 q 0,-6.26098 -7.11475,-6.26098 h -19.06753 v 117.25108 h 19.06753 q 7.11475,0 7.11475,-6.26098 z M 884.63466,121.3704 h 83.95405 q 41.83469,0 41.83469,35.28916 v 112.12846 q 0,35.28916 -41.83469,35.28916 h -83.95405 z"
     style="font-weight:bold;font-size:284.59px;font-family:Teko;-inkscape-font-specification:'Teko Bold';text-align:center;text-anchor:middle;fill:#d946ad;stroke-width:44.2131;stroke-linecap:round;stroke-linejoin:round"
     id="path11426" /><path
     d="m 1075.3098,219.55395 h 26.7514 v -17.92917 q 0,-6.26098 -7.1147,-6.26098 h -12.522 q -7.1147,0 -7.1147,6.26098 z m -3.9843,-57.48718 h 34.72 q 41.8347,0 41.8347,35.28916 v 48.3803 h -72.5704 v 18.78294 q 0,6.26098 7.1147,6.26098 h 12.522 q 7.1147,0 7.1147,-6.83016 v -7.96852 h 45.819 v 12.80655 q 0,35.28916 -41.8347,35.28916 h -34.72 q -41.8347,0 -41.8347,-35.28916 v -71.43209 q 0,-35.28916 41.8347,-35.28916 z"
     style="font-weight:bold;font-size:284.59px;font-family:Teko;-inkscape-font-specification:'Teko Bold';text-align:center;text-anchor:middle;fill:#d946ad;stroke-width:44.2131;stroke-linecap:round;stroke-linejoin:round"
     id="path11428" /><path
     d="m 1238.38,197.64052 h -17.9291 v 64.60193 q 0,6.26098 7.1147,6.26098 h 10.5298 v 35.57375 h -24.1901 q -41.8347,0 -41.8347,-35.28916 v -71.1475 h -15.6525 v -35.57375 h 15.6525 v -27.88982 h 48.3803 v 27.88982 h 17.9291 z"
     style="font-weight:bold;font-size:284.59px;font-family:Teko;-inkscape-font-specification:'Teko Bold';text-align:center;text-anchor:middle;fill:#d946ad;stroke-width:44.2131;stroke-linecap:round;stroke-linejoin:round"
     id="path11430" /><path
     d="m 1324.6106,197.64052 h -17.9291 v 64.60193 q 0,6.26098 7.1147,6.26098 h 10.5299 v 35.57375 h -24.1902 q -41.8347,0 -41.8347,-35.28916 v -71.1475 h -15.6525 v -35.57375 h 15.6525 v -27.88982 h 48.3803 v 27.88982 h 17.9291 z"
     style="font-weight:bold;font-size:284.59px;font-family:Teko;-inkscape-font-specification:'Teko Bold';text-align:center;text-anchor:middle;fill:#d946ad;stroke-width:44.2131;stroke-linecap:round;stroke-linejoin:round"
     id="path11432" /><path
     d="m 1391.4892,268.50343 h 4.838 q 7.6839,0 7.6839,-8.5377 v -53.78751 q 0,-8.5377 -7.6839,-8.5377 h -4.838 q -7.1148,0 -7.1148,6.26098 v 58.34095 q 0,6.26098 7.1148,6.26098 z m 13.3757,-106.43666 h 47.5265 v 142.01041 h -48.3803 v -15.36786 q -5.4072,15.36786 -25.0439,15.36786 h -5.1226 q -37.8505,0 -37.8505,-35.28916 v -71.43209 q 0,-35.28916 37.8505,-35.28916 h 5.1226 q 21.9135,0 25.8977,18.21376 z"
     style="font-weight:bold;font-size:284.59px;font-family:Teko;-inkscape-font-specification:'Teko Bold';text-align:center;text-anchor:middle;fill:#d946ad;stroke-width:44.2131;stroke-linecap:round;stroke-linejoin:round"
     id="path11434" /><path
     d="m 1527.8078,259.96573 h 4.838 q 7.6839,0 7.6839,-8.5377 v -45.24981 q 0,-8.5377 -7.6839,-8.5377 h -4.838 q -7.1148,0 -7.1148,6.26098 v 49.80325 q 0,6.26098 7.1148,6.26098 z m 13.3757,-97.89896 h 47.5265 v 143.43336 q 0,35.28916 -41.8347,35.28916 h -68.017 v -34.1508 h 54.3567 q 7.1147,0 7.1147,-6.26098 v -20.20589 q -5.4072,15.36786 -25.0439,15.36786 h -5.1226 q -37.8505,0 -37.8505,-35.28916 v -62.89439 q 0,-35.28916 37.8505,-35.28916 h 5.1226 q 21.9135,0 25.8977,18.21376 z"
     style="font-weight:bold;font-size:284.59px;font-family:Teko;-inkscape-font-specification:'Teko Bold';text-align:center;text-anchor:middle;fill:#d946ad;stroke-width:44.2131;stroke-linecap:round;stroke-linejoin:round"
     id="path11436" /><path
     d="m 1659.8576,304.07718 h -48.3803 V 113.68647 h 48.3803 z"
     style="font-weight:bold;font-size:284.59px;font-family:Teko;-inkscape-font-specification:'Teko Bold';text-align:center;text-anchor:middle;fill:#d946ad;stroke-width:44.2131;stroke-linecap:round;stroke-linejoin:round"
     id="path11438" /><path
     d="m 1731.0051,304.07718 h -48.3803 V 162.06677 h 48.3803 z M 1681.771,147.83727 v -34.1508 h 50.0878 v 34.1508 z"
     style="font-weight:bold;font-size:284.59px;font-family:Teko;-inkscape-font-specification:'Teko Bold';text-align:center;text-anchor:middle;fill:#d946ad;stroke-width:44.2131;stroke-linecap:round;stroke-linejoin:round"
     id="path11440" /><path
     d="m 1821.7893,264.23458 v -62.32521 q 0,-6.26098 -7.1148,-6.26098 h -7.6839 q -7.1147,0 -7.1147,6.26098 v 62.32521 q 0,6.26098 7.1147,6.26098 h 7.6839 q 7.1148,0 7.1148,-6.26098 z m -29.0282,-102.16781 h 36.1429 q 21.6289,0 31.0204,9.10688 9.3914,9.10688 9.3914,26.18228 v 71.43209 q 0,17.0754 -9.3914,26.18228 -9.3915,9.10688 -31.0204,9.10688 h -36.1429 q -21.6288,0 -31.0203,-9.10688 -9.3915,-9.10688 -9.3915,-26.18228 v -71.43209 q 0,-17.0754 9.3915,-26.18228 9.3915,-9.10688 31.0203,-9.10688 z"
     style="font-weight:bold;font-size:284.59px;font-family:Teko;-inkscape-font-specification:'Teko Bold';text-align:center;text-anchor:middle;fill:#d946ad;stroke-width:44.2131;stroke-linecap:round;stroke-linejoin:round"
     id="path11442" /></g></g></g></svg>
