<?xml version="1.0" encoding="UTF-8" standalone="no"?>
<!-- Created with Inkscape (http://www.inkscape.org/) -->

<svg
   width="748"
   height="48"
   viewBox="0 0 197.90833 12.7"
   version="1.1"
   id="svg5"
   inkscape:version="1.2.2 (b0a8486541, 2022-12-01)"
   sodipodi:docname="request_new_logo.svg"
   xml:space="preserve"
   xmlns:inkscape="http://www.inkscape.org/namespaces/inkscape"
   xmlns:sodipodi="http://sodipodi.sourceforge.net/DTD/sodipodi-0.dtd"
   xmlns="http://www.w3.org/2000/svg"
   xmlns:svg="http://www.w3.org/2000/svg"><sodipodi:namedview
     id="namedview7"
     pagecolor="#ffffff"
     bordercolor="#000000"
     borderopacity="0.25"
     inkscape:showpageshadow="false"
     inkscape:pageopacity="0.0"
     inkscape:pagecheckerboard="0"
     inkscape:deskcolor="#d1d1d1"
     inkscape:document-units="px"
     showgrid="false"
     inkscape:zoom="5.708586"
     inkscape:cx="196.89639"
     inkscape:cy="56.1435"
     inkscape:window-width="2527"
     inkscape:window-height="1408"
     inkscape:window-x="33"
     inkscape:window-y="0"
     inkscape:window-maximized="1"
     inkscape:current-layer="g347" /><defs
     id="defs2">
			
			
			
			
			
			
			
		
				
				
				
				
			
				
				
				
			
					
					
				
					
					
					
				
		
		
	<filter
   inkscape:collect="always"
   style="color-interpolation-filters:sRGB"
   id="filter8120"
   x="-0.081484851"
   y="-0.11972945"
   width="1.1629697"
   height="1.2394589"><feGaussianBlur
     inkscape:collect="always"
     stdDeviation="13.145102"
     id="feGaussianBlur8122" /></filter>
	
	
	

		
		
		
		
		
		
		
		
	
		
		
		
		
		
		
		
		
	</defs><g
     inkscape:label="Livello 1"
     inkscape:groupmode="layer"
     id="layer1"><g
       id="g347"
       transform="matrix(0.04446936,0,0,0.04446936,6.3827961,3.4111066)">
	
	
<path
   style="fill:#b28d61;stroke-width:0.550882"
   d="m 138.33954,55.077899 -7.39448,0.115686 -15.51941,0.192257 -12.74683,0.192805 -83.645181,1.386568 v 0.192257 l -7.393925,-0.07712 -7.3939205,0.07712 v -0.192257 l -1.810192,-0.03857 -100.2426745,-1.348006 -12.746827,-0.192805 -15.51997,-0.192257 -7.39392,-0.115686 1.27088,-7.355363 2.61889,-15.250032 5.85366,-33.9276416 0.69301,-3.9283323 c 1.61738,-9.3969141 9.74287,-16.2520741 19.29349,-16.2520741 h 212.34692 c 9.55061,0 17.67666,6.85516 19.29404,16.2515337 l 0.69301,3.9283301 5.85366,33.9276472 2.61889,15.250031 z"
   id="path301" /><path
   style="fill:#c8a373;stroke-width:0.550882"
   d="m 138.33954,53.190583 v 50.602807 c 0,7.00885 -5.69996,12.70882 -12.70827,12.70882 h -246.39079 c -7.00886,0 -12.70827,-5.69997 -12.70827,-12.70882 V 53.190583 c 0,-1.963892 0.46219,-3.812646 1.27088,-5.468596 2.00245,-4.274837 6.39242,-7.240225 11.43739,-7.240225 h 246.39024 c 5.04496,0 9.43493,2.965388 11.43739,7.240225 l 0.0386,0.03857 c 0,0.03857 0.0386,0.07712 0.0386,0.115686 0.19226,0.385062 0.3465,0.770129 0.46219,1.155196 0.11569,0.269381 0.19226,0.500748 0.26938,0.770129 0.0766,0.269381 0.1537,0.538762 0.19226,0.847258 0.0771,0.385062 0.15369,0.808691 0.19225,1.23232 0.0397,0.423624 0.0782,0.885815 0.0782,1.309445 z"
   id="path303" /><path
   style="fill:#6a573f;stroke-width:0.550882"
   d="m 123.75001,47.891659 h -242.62882 c -3.95257,0 -7.18624,3.233668 -7.18624,7.18624 v 46.827621 c 0,3.95257 3.23367,7.18624 7.18624,7.18624 h 242.62882 c 3.95257,0 7.18624,-3.23367 7.18624,-7.18624 V 55.077899 c 0,-3.952572 -3.23367,-7.18624 -7.18624,-7.18624 z"
   id="path305" /><polygon
   style="fill:#ececec"
   points="438.178,180.15 438.038,193.573 437.969,207.554 437.899,212.098 437.829,223.912 437.689,242.438 74.311,242.438 74.172,223.912 74.102,212.098 74.032,207.554 73.962,193.573 73.822,180.15 72.983,67.39 72.494,0 388.684,0 439.087,54.248 439.017,67.39 "
   id="polygon307"
   transform="matrix(0.55088077,0,0,0.55088077,-138.58988,-58.75941)" /><polygon
   style="fill:#c4e5e1"
   points="439.506,0 439.437,7.55 439.087,54.248 388.684,0 "
   id="polygon309"
   transform="matrix(0.55088077,0,0,0.55088077,-138.58988,-58.75941)" /><polygon
   style="fill:#e5e5e4"
   points="120.593,41.886 391.004,41.886 390.864,67.521 120.733,67.521 "
   id="polygon311"
   transform="matrix(0.55088077,0,0,0.55088077,-138.58988,-58.75941)" /><polygon
   style="fill:#e5e5e4"
   points="120.921,101.713 390.676,101.713 390.537,127.224 121.061,127.224 "
   id="polygon313"
   transform="matrix(0.55088077,0,0,0.55088077,-138.58988,-58.75941)" /><polygon
   style="fill:#e5e5e4"
   points="121.253,162.393 313.934,162.393 313.874,187.777 121.393,187.777 "
   id="polygon315"
   transform="matrix(0.55088077,0,0,0.55088077,-138.58988,-58.75941)" /><path
   style="fill:#d4b58f;stroke-width:0.550882"
   d="m 143.46108,73.370448 -0.11569,4.92928 -1.54026,64.043192 -0.19226,7.27879 c 0,8.39542 -10.43643,15.25003 -23.18326,15.25003 h -231.98747 c -12.74683,0 -23.18326,-6.85516 -23.18326,-15.25003 l -0.19281,-7.27879 -1.54026,-64.043746 -0.11569,-4.928726 c 0,-3.58128 1.92533,-6.931735 5.12209,-9.550623 2.00245,-1.655949 4.50565,-3.003402 7.39392,-4.004903 3.19621,-1.116634 6.8166,-1.733073 10.66781,-1.733073 h 235.68442 c 3.85121,0 7.47105,0.616439 10.66726,1.733073 2.88827,1.001501 5.39147,2.348954 7.39447,4.004903 v 0.03857 c 1.0015,0.808691 1.88677,1.694511 2.61889,2.65745 0.23082,0.307943 0.46219,0.616434 0.65444,0.924377 0.23082,0.346505 0.46219,0.731567 0.65445,1.117187 0.11569,0.192257 0.19281,0.385062 0.26938,0.577319 0.11569,0.230824 0.23082,0.500753 0.30794,0.731572 0.0771,0.230819 0.15425,0.462191 0.19226,0.654996 0.15425,0.423629 0.23082,0.88582 0.30794,1.309444 0.0771,0.499652 0.11569,1.0004 0.11569,1.539715 z"
   id="path321" /><path
   style="fill:#c8a373;stroke-width:0.550882"
   d="m 143.46108,79.839991 -1.5017,62.502379 -0.19281,6.89372 -0.1537,6.73948 c 0,0 0,0 0,0.0386 v 0.0771 c 0,0.50074 -0.0386,0.96293 -0.11568,1.42457 -1.11719,7.74098 -11.05233,13.86402 -23.06814,13.86402 h -231.98691 c -3.1582,0 -6.1616,-0.42363 -8.89617,-1.19376 -7.74043,-2.11814 -13.36327,-6.97084 -14.17196,-12.67026 -0.0771,-0.50075 -0.11568,-1.0015 -0.11568,-1.54026 v -0.0771 l -0.34651,-13.55607 -1.5017,-62.502379 c 0,-0.539315 0.0386,-1.040063 0.11569,-1.540263 0.46219,-3.003955 2.27183,-5.737976 5.0064,-8.009806 2.00245,-1.617387 4.50565,-3.003955 7.39392,-3.966894 3.19621,-1.116634 6.8166,-1.733073 10.66781,-1.733073 h 235.68442 c 3.85121,0 7.47105,0.616439 10.66726,1.733073 2.88827,0.962939 5.39147,2.348954 7.39447,3.966894 2.73402,2.27183 4.54421,5.006404 5.00641,8.009806 0.076,0.5002 0.11458,1.03951 0.11458,1.540263 z"
   id="path323" /><circle
   style="opacity:0.2;fill:#6a573f;stroke-width:0.550882"
   cx="-52.764854"
   cy="117.92844"
   r="18.672655"
   id="circle325" /><circle
   style="opacity:0.2;fill:#6a573f;stroke-width:0.550882"
   cx="57.636066"
   cy="117.92844"
   r="18.672655"
   id="circle327" /><path
   style="opacity:0.1;fill:#040000;stroke-width:0.550882"
   d="m 49.641125,128.90639 h -94.411047 c -5.619538,0 -10.217189,-4.59765 -10.217189,-10.21719 v 0 c 0,-5.61953 4.597651,-10.21718 10.217189,-10.21718 h 94.410494 c 5.619534,0 10.217185,4.59765 10.217185,10.21718 v 0 c 5.37e-4,5.61954 -4.597097,10.21719 -10.216632,10.21719 z"
   id="path331" /><path
   style="fill:#f4eea8;stroke-width:0.550882"
   d="m 45.313404,128.90639 h -85.75561 c -5.619534,0 -10.217185,-4.59765 -10.217185,-10.21719 v 0 c 0,-5.61953 4.597651,-10.21718 10.217185,-10.21718 h 85.756163 c 5.619534,0 10.217185,4.59765 10.217185,10.21718 v 0 c -5.37e-4,5.61954 -4.598204,10.21719 -10.217738,10.21719 z"
   id="path333" /><path
   style="opacity:0.1;fill:#ffffff;stroke-width:0.550882"
   d="m 55.262862,114.183 c -1.594802,-2.45748 -4.367385,-4.08919 -7.501343,-4.08919 h -88.267628 c -4.923773,0 -8.95732,4.03355 -8.95732,8.96669 v 2.50375 c 0,1.05714 0.185647,2.07682 0.528846,3.02268 -0.917768,-1.4097 -1.455979,-3.07832 -1.455979,-4.8775 v -2.50375 c 0,-4.93314 4.033549,-8.96668 8.95732,-8.96668 h 88.267628 c 3.866084,0 7.185691,2.48502 8.428476,5.944 z"
   id="path335" /><path
   style="opacity:0.2;fill:#6a573f;stroke-width:0.550882"
   d="m 141.95938,142.34237 -0.19281,6.89372 -0.1537,6.73948 c 0,0 0,0 0,0.0386 v 0.0771 c 0,0.50074 -0.0386,0.96293 -0.11568,1.42457 -1.19376,7.6633 -11.12944,13.70977 -23.06814,13.70977 h -231.98691 c -3.23477,0 -6.31584,-0.46219 -9.12699,-1.23232 -7.54762,-2.1567 -13.05532,-6.89317 -13.94059,-12.47745 -0.0771,-0.50075 -0.11568,-1.0015 -0.11568,-1.54026 v -0.0771 l -0.34651,-13.55607 h 0.23082 l 0.11569,4.96784 c 0,8.39543 10.43643,15.25003 23.18326,15.25003 h 231.98691 c 12.74683,0 23.18327,-6.8546 23.18327,-15.25003 l 0.11569,-4.96784 z"
   id="path341" /><path
   d="m -72.114897,-21.990564 4.733454,-9.1119 h -4.624221 v -4.087156 h 11.951974 l -6.672351,13.199056 z"
   style="font-size:34.7015px;font-family:'Futura XBlk BT';-inkscape-font-specification:'Futura XBlk BT';text-align:center;text-anchor:middle;fill:#595a59;stroke:#ffccaa;stroke-width:0;stroke-linecap:round;stroke-linejoin:round"
   id="path11994" /><path
   d="m -54.719451,-30.246801 h 0.200261 q 0.609887,0 0.919383,-0.22757 0.318598,-0.236673 0.318598,-0.691813 0,-0.345906 -0.209364,-0.564373 -0.209365,-0.218468 -0.537066,-0.218468 -0.345906,0 -0.527962,0.245776 -0.182056,0.236673 -0.182056,0.691813 h -4.396651 q 0.03641,-2.184672 1.356316,-3.313419 1.329009,-1.128747 3.859587,-1.128747 2.257494,0 3.622913,1.03772 1.374523,1.028616 1.374523,2.694428 0,1.019513 -0.473346,1.684017 -0.473345,0.664504 -1.429139,1.001308 1.174261,0.263981 1.784149,1.065027 0.61899,0.791943 0.61899,2.04813 0,1.957101 -1.492859,3.122259 -1.492859,1.165158 -4.023437,1.165158 -2.712633,0 -4.251006,-1.338111 -1.52927,-1.338111 -1.52927,-3.695736 v -0.03641 h 4.578707 q 0.02731,0.673607 0.282187,1.019514 0.254878,0.336803 0.728223,0.336803 0.473346,0 0.755533,-0.291289 0.291289,-0.300393 0.291289,-0.782841 0,-0.55527 -0.336803,-0.84656 -0.336804,-0.291289 -0.964897,-0.291289 -0.136542,0 -0.209364,0.0091 -0.07282,0 -0.127439,0 z"
   style="font-size:34.7015px;font-family:'Futura XBlk BT';-inkscape-font-specification:'Futura XBlk BT';text-align:center;text-anchor:middle;fill:#595a59;stroke:#ffccaa;stroke-width:0;stroke-linecap:round;stroke-linejoin:round"
   id="path11996" /><path
   d="m -42.394263,-28.553681 q 0,1.438242 0.254876,2.111849 0.263982,0.664505 0.819253,0.664505 0.55527,0 0.810152,-0.655402 0.254876,-0.664504 0.254876,-2.120952 0,-1.447345 -0.254876,-2.111849 -0.254882,-0.664504 -0.810152,-0.664504 -0.564372,0 -0.819253,0.655401 -0.254876,0.655402 -0.254876,2.120952 z m -4.660633,0 q 0,-3.213288 1.529269,-5.052052 1.538372,-1.847869 4.205493,-1.847869 2.685326,0 4.205492,1.829663 1.520171,1.829662 1.520171,5.070258 0,3.240596 -1.520171,5.079361 -1.520166,1.838765 -4.205492,1.838765 -2.658015,0 -4.196387,-1.85697 -1.538375,-1.856971 -1.538375,-5.061156 z"
   style="font-size:34.7015px;font-family:'Futura XBlk BT';-inkscape-font-specification:'Futura XBlk BT';text-align:center;text-anchor:middle;fill:#595a59;stroke:#ffccaa;stroke-width:0;stroke-linecap:round;stroke-linejoin:round"
   id="path11998" /><path
   d="M -73.184476,10.438132 V -2.8883635 h 4.869997 V 10.438132 Z"
   style="font-size:34.7015px;font-family:'Futura XBlk BT';-inkscape-font-specification:'Futura XBlk BT';text-align:center;text-anchor:middle;fill:#595a59;stroke:#ffccaa;stroke-width:0;stroke-linecap:round;stroke-linejoin:round"
   id="path12001" /><path
   d="m -66.939957,9.3002826 1.52927,-3.7321483 q 1.028616,0.7191246 1.829662,1.0559274 0.81015,0.3276968 1.511065,0.3276968 0.491551,0 0.773737,-0.182055 0.282187,-0.1911555 0.282187,-0.5097571 0,-0.5552709 -1.410933,-0.8465599 -0.45514,-0.1001281 -0.710018,-0.1547478 -1.492859,-0.3641099 -2.284803,-1.2925967 -0.791943,-0.9284814 -0.791943,-2.312111 0,-2.1482572 1.538372,-3.4954736 1.538374,-1.3472132 4.03254,-1.3472132 1.146953,0 2.257494,0.3003923 1.110541,0.3003923 2.239288,0.9102796 l -1.456447,3.4863731 q -0.691813,-0.50975715 -1.392728,-0.773739 -0.691813,-0.27308245 -1.347215,-0.27308245 -0.500653,0 -0.773738,0.17294899 -0.273083,0.16385377 -0.273083,0.46424336 0,0.5643769 1.993513,0.9922071 0.318597,0.072821 0.491551,0.1092341 1.374522,0.3094956 2.166465,1.2652895 0.791943,0.955794 0.791943,2.312111 0,2.2119775 -1.602092,3.6138083 -1.592989,1.4018309 -4.150876,1.4018309 -1.310802,0 -2.621605,-0.373216 -1.310803,-0.373211 -2.621606,-1.1196424 z"
   style="font-size:34.7015px;font-family:'Futura XBlk BT';-inkscape-font-specification:'Futura XBlk BT';text-align:center;text-anchor:middle;fill:#595a59;stroke:#ffccaa;stroke-width:0;stroke-linecap:round;stroke-linejoin:round"
   id="path12003" /><path
   d="M -54.341684,10.438132 V -2.8883635 h 8.91164 v 3.6138131 h -4.214596 v 1.2834907 h 3.823174 v 3.4135522 h -3.823174 v 1.4018307 h 4.32383 v 3.6138088 z"
   style="font-size:34.7015px;font-family:'Futura XBlk BT';-inkscape-font-specification:'Futura XBlk BT';text-align:center;text-anchor:middle;fill:#595a59;stroke:#ffccaa;stroke-width:0;stroke-linecap:round;stroke-linejoin:round"
   id="path12005" /><path
   d="M -43.381914,10.438132 V -2.8883635 h 8.911635 v 3.6138131 h -4.214593 v 1.2834907 h 3.823176 v 3.4135522 h -3.823176 v 1.4018307 h 4.323827 v 3.6138088 z"
   style="font-size:34.7015px;font-family:'Futura XBlk BT';-inkscape-font-specification:'Futura XBlk BT';text-align:center;text-anchor:middle;fill:#595a59;stroke:#ffccaa;stroke-width:0;stroke-linecap:round;stroke-linejoin:round"
   id="path12007" /><path
   d="m -68.15518,34.432738 v 2.6034 h 0.746429 q 0.68271,0 1.046822,-0.327697 0.373214,-0.336808 0.373214,-0.955794 0,-0.637198 -0.373214,-0.974001 -0.364112,-0.345908 -1.046822,-0.345908 z m -4.697044,9.894742 V 31.000984 h 6.026052 q 2.621606,0 4.005231,1.156056 1.383625,1.156055 1.383625,3.331625 0,1.420037 -0.700915,2.339418 -0.691813,0.919381 -1.875176,1.074129 l 3.559193,5.425268 h -5.37065 l -2.330316,-4.396653 v 4.396653 z"
   style="font-size:34.7015px;font-family:'Futura XBlk BT';-inkscape-font-specification:'Futura XBlk BT';text-align:center;text-anchor:middle;fill:#595a59;stroke:#ffccaa;stroke-width:0;stroke-linecap:round;stroke-linejoin:round"
   id="path12010" /><path
   d="m -54.755862,40.258529 q 1.620298,-0.0091 2.366727,-0.628092 0.74643,-0.628092 0.74643,-1.957102 0,-1.301702 -0.719122,-1.938895 -0.710018,-0.637197 -2.184671,-0.637197 h -0.209364 z m -4.751661,4.068951 V 31.000984 h 3.877792 q 1.847868,0 3.149568,0.209362 1.310803,0.200262 2.130055,0.628098 1.729531,0.91028 2.648914,2.412239 0.928485,1.501964 0.928485,3.422652 0,1.911588 -0.919382,3.404447 -0.919383,1.492858 -2.658017,2.412239 -0.84656,0.436936 -2.14826,0.637197 -1.3017,0.200262 -3.486372,0.200262 z"
   style="font-size:34.7015px;font-family:'Futura XBlk BT';-inkscape-font-specification:'Futura XBlk BT';text-align:center;text-anchor:middle;fill:#595a59;stroke:#ffccaa;stroke-width:0;stroke-linecap:round;stroke-linejoin:round"
   id="path12012" /><path
   d="m -34.957279,36.289711 q -0.655399,-0.628097 -1.33811,-0.937587 -0.682712,-0.309496 -1.438244,-0.309496 -1.174257,0 -1.893382,0.72822 -0.710018,0.719125 -0.710018,1.920694 0,1.174262 0.682711,1.875175 0.682712,0.700918 1.829661,0.700918 0.691812,0 1.401831,-0.291295 0.719125,-0.300389 1.565685,-0.946688 l -0.154748,5.01564 q -0.78284,0.318601 -1.565685,0.473349 -0.782839,0.163848 -1.565679,0.163848 -0.974,0 -1.875175,-0.218468 -0.901179,-0.218468 -1.629399,-0.618991 -1.765946,-1.019509 -2.676226,-2.576087 -0.901175,-1.556579 -0.901175,-3.577401 0,-1.492858 0.509757,-2.767254 0.518858,-1.27439 1.501959,-2.24839 0.992207,-0.983102 2.293905,-1.483753 1.310803,-0.509757 2.830974,-0.509757 0.810147,0 1.592986,0.172949 0.791946,0.163854 1.538372,0.500657 z"
   style="font-size:34.7015px;font-family:'Futura XBlk BT';-inkscape-font-specification:'Futura XBlk BT';text-align:center;text-anchor:middle;fill:#595a59;stroke:#ffccaa;stroke-width:0;stroke-linecap:round;stroke-linejoin:round"
   id="path12014" /><path
   d="m 409.56491,9.296189 h 24.46261 V 107.4523 H 411.09385 L 389.23038,55.927988 V 107.4523 H 364.76782 V 9.296189 h 22.93367 l 21.86342,52.441662 z"
   id="path7728"
   style="font-weight:bold;font-size:284.594px;font-family:Teko;-inkscape-font-specification:'Teko Bold';text-align:center;text-anchor:middle;fill:#1cad1f;fill-opacity:1;stroke-width:0;stroke-linecap:round;stroke-linejoin:round" /><path
   d="m 482.03544,31.159622 h 25.99151 V 107.4523 h -25.53283 v -9.78503 q -2.14046,9.78503 -13.91306,9.78503 h -2.75205 q -20.33452,0 -20.33452,-18.958499 V 31.159622 H 471.486 v 53.817679 q 0,3.363606 3.82225,3.363606 h 2.59915 q 4.12804,0 4.12804,-4.586735 z"
   id="path7730"
   style="font-weight:bold;font-size:284.594px;font-family:Teko;-inkscape-font-specification:'Teko Bold';text-align:center;text-anchor:middle;fill:#1cad1f;fill-opacity:1;stroke-width:0;stroke-linecap:round;stroke-linejoin:round" /><path
   d="M 556.79912,86.04754 V 52.564382 q 0,-3.363606 -3.8223,-3.363606 h -4.12804 q -3.82226,0 -3.82226,3.363606 V 86.04754 q 0,3.363606 3.82226,3.363606 h 4.12804 q 3.8223,0 3.8223,-3.363606 z m -15.5949,-54.887918 h 19.41715 q 11.61976,0 16.66517,4.892517 5.0454,4.892513 5.0454,14.065981 v 38.375681 q 0,9.173469 -5.0454,14.065979 -5.04541,4.89252 -16.66517,4.89252 h -19.41715 q -11.61971,0 -16.66511,-4.89252 -5.04541,-4.89251 -5.04541,-14.065979 V 50.11812 q 0,-9.173468 5.04541,-14.065981 5.0454,-4.892517 16.66511,-4.892517 z"
   id="path7732"
   style="font-weight:bold;font-size:284.594px;font-family:Teko;-inkscape-font-specification:'Teko Bold';text-align:center;text-anchor:middle;fill:#1cad1f;fill-opacity:1;stroke-width:0;stroke-linecap:round;stroke-linejoin:round" /><path
   d="m 587.6833,31.159622 h 25.83856 l 9.32639,48.925166 9.17345,-48.925166 h 25.83861 L 638.29026,107.4523 h -31.03691 z"
   id="path7734"
   style="font-weight:bold;font-size:284.594px;font-family:Teko;-inkscape-font-specification:'Teko Bold';text-align:center;text-anchor:middle;fill:#1cad1f;fill-opacity:1;stroke-width:0;stroke-linecap:round;stroke-linejoin:round" /><path
   d="m 692.26074,88.340907 h 2.59915 q 4.12809,0 4.12809,-4.586735 V 54.857749 q 0,-4.586734 -4.12809,-4.586734 h -2.59915 q -3.82225,0 -3.82225,3.363606 v 31.34268 q 0,3.363606 3.82225,3.363606 z m 7.18593,-57.181285 h 25.53282 V 107.4523 h -25.99151 v -8.256119 q -2.90494,8.256119 -13.45443,8.256119 h -2.75205 q -20.33452,0 -20.33452,-18.958499 V 50.11812 q 0,-18.958498 20.33452,-18.958498 h 2.75205 q 11.77259,0 13.91312,9.78503 z"
   id="path7736"
   style="font-weight:bold;font-size:284.594px;font-family:Teko;-inkscape-font-specification:'Teko Bold';text-align:center;text-anchor:middle;fill:#1cad1f;fill-opacity:1;stroke-width:0;stroke-linecap:round;stroke-linejoin:round" /><path
   d="m 805.09458,28.407582 h -10.5495 v 25.991495 h 10.5495 q 3.82225,0 3.82225,-3.363606 V 31.771183 q 0,-3.363601 -3.82225,-3.363601 z M 794.54508,72.59312 V 107.4523 H 767.78911 V 9.296189 h 45.40866 q 22.47504,0 22.47504,18.958499 v 25.379933 q 0,14.524654 -13.14865,17.88826 l 18.04116,35.929419 h -28.74355 l -15.5949,-34.85918 z"
   id="path7738"
   style="font-weight:bold;font-size:284.594px;font-family:Teko;-inkscape-font-specification:'Teko Bold';text-align:center;text-anchor:middle;fill:#2a49cb;stroke-width:0;stroke-linecap:round;stroke-linejoin:round;fill-opacity:1" /><path
   d="m 872.36665,107.4523 h -25.9915 V 31.159622 h 25.9915 z M 845.91646,23.515064 V 5.168127 h 26.90887 v 18.346937 z"
   id="path7740"
   style="font-weight:bold;font-size:284.594px;font-family:Teko;-inkscape-font-specification:'Teko Bold';text-align:center;text-anchor:middle;fill:#2a49cb;stroke-width:0;stroke-linecap:round;stroke-linejoin:round;fill-opacity:1" /><path
   d="m 944.37839,60.667612 h -25.07413 v -7.032991 q 0,-3.363606 -3.82231,-3.363606 h -2.59915 q -3.82225,0 -3.82225,3.363606 v 31.34268 q 0,3.363606 3.82225,3.363606 h 2.59915 q 3.82231,0 3.82231,-3.363606 V 77.94431 h 25.07413 v 10.549491 q 0,18.958499 -22.47498,18.958499 h -16.35938 q -22.47499,0 -22.47499,-18.958499 V 50.11812 q 0,-18.958498 22.47499,-18.958498 h 16.35938 q 22.47498,0 22.47498,18.958498 z"
   id="path7742"
   style="font-weight:bold;font-size:284.594px;font-family:Teko;-inkscape-font-specification:'Teko Bold';text-align:center;text-anchor:middle;fill:#2a49cb;stroke-width:0;stroke-linecap:round;stroke-linejoin:round;fill-opacity:1" /><path
   d="m 992.99784,31.159622 h 2.75204 q 20.33452,0 20.33452,18.958498 V 107.4523 H 990.0929 V 53.634621 q 0,-3.363606 -3.82231,-3.363606 h -2.59915 q -4.12804,0 -4.12804,4.586734 V 107.4523 H 953.5519 V 5.168127 h 25.9915 V 39.41574 q 2.90494,-8.256118 13.45444,-8.256118 z"
   id="path7744"
   style="font-weight:bold;font-size:284.594px;font-family:Teko;-inkscape-font-specification:'Teko Bold';text-align:center;text-anchor:middle;fill:#2a49cb;stroke-width:0;stroke-linecap:round;stroke-linejoin:round;fill-opacity:1" /><path
   d="m 1053.5426,107.4523 h -25.9915 V 31.159622 h 25.9915 z M 1027.0924,23.515064 V 5.168127 h 26.9089 v 18.346937 z"
   id="path7746"
   style="font-weight:bold;font-size:284.594px;font-family:Teko;-inkscape-font-specification:'Teko Bold';text-align:center;text-anchor:middle;fill:#2a49cb;stroke-width:0;stroke-linecap:round;stroke-linejoin:round;fill-opacity:1" /><path
   d="m 1088.8604,62.043634 h 14.3718 v -9.632146 q 0,-3.363601 -3.8223,-3.363601 h -6.7272 q -3.8223,0 -3.8223,3.363601 z m -2.1405,-30.884012 h 18.6528 q 22.475,0 22.475,18.958498 v 25.991495 h -38.9873 v 10.090819 q 0,3.363601 3.8223,3.363601 h 6.7272 q 3.8223,0 3.8223,-3.669384 V 81.6137 h 24.6155 v 6.880101 q 0,18.958499 -22.475,18.958499 h -18.6528 q -22.475,0 -22.475,-18.958499 V 50.11812 q 0,-18.958498 22.475,-18.958498 z"
   id="path7748"
   style="font-weight:bold;font-size:284.594px;font-family:Teko;-inkscape-font-specification:'Teko Bold';text-align:center;text-anchor:middle;fill:#2a49cb;stroke-width:0;stroke-linecap:round;stroke-linejoin:round;fill-opacity:1" /><path
   d="m 1170.6573,87.270668 v -6.115646 q 0,-3.363601 -3.8223,-3.363601 h -9.3264 q -22.0163,0 -22.0163,-18.80561 V 50.11812 q 0,-18.958498 22.475,-18.958498 h 14.2189 q 22.475,0 22.475,18.958498 v 6.42143 h -24.7684 v -5.198296 q 0,-3.363606 -3.8222,-3.363606 h -1.529 q -3.8222,0 -3.8222,3.363606 v 6.727207 q 0,3.363606 3.8222,3.363606 h 9.3264 q 11.7726,0 16.818,4.892518 5.1983,4.739623 5.1983,13.760203 v 8.409013 q 0,18.958499 -22.475,18.958499 h -14.9833 q -22.475,0 -22.475,-18.958499 v -6.26854 h 25.227 v 5.045407 q 0,3.363606 3.8223,3.363606 h 1.8347 q 3.8223,0 3.8223,-3.363606 z"
   id="path7750"
   style="font-weight:bold;font-size:284.594px;font-family:Teko;-inkscape-font-specification:'Teko Bold';text-align:center;text-anchor:middle;fill:#2a49cb;stroke-width:0;stroke-linecap:round;stroke-linejoin:round;fill-opacity:1" /><path
   d="m 1244.5037,50.271015 h -9.6322 v 34.706286 q 0,3.363606 3.8223,3.363606 h 5.657 V 107.4523 h -12.9957 q -22.475,0 -22.475,-18.958499 V 50.271015 h -8.4091 V 31.159622 h 8.4091 V 16.17629 h 25.9914 v 14.983332 h 9.6322 z"
   id="path7752"
   style="font-weight:bold;font-size:284.594px;font-family:Teko;-inkscape-font-specification:'Teko Bold';text-align:center;text-anchor:middle;fill:#2a49cb;stroke-width:0;stroke-linecap:round;stroke-linejoin:round;fill-opacity:1" /><path
   d="m 1280.433,88.340907 h 2.5992 q 4.128,0 4.128,-4.586735 V 54.857749 q 0,-4.586734 -4.128,-4.586734 h -2.5992 q -3.8223,0 -3.8223,3.363606 v 31.34268 q 0,3.363606 3.8223,3.363606 z m 7.1859,-57.181285 h 25.5328 V 107.4523 h -25.9915 v -8.256119 q -2.9049,8.256119 -13.4544,8.256119 h -2.7521 q -20.3345,0 -20.3345,-18.958499 V 50.11812 q 0,-18.958498 20.3345,-18.958498 h 2.7521 q 11.7726,0 13.9131,9.78503 z"
   id="path7754"
   style="font-weight:bold;font-size:284.594px;font-family:Teko;-inkscape-font-specification:'Teko Bold';text-align:center;text-anchor:middle;fill:#2a49cb;stroke-width:0;stroke-linecap:round;stroke-linejoin:round;fill-opacity:1" /><path
   d="M 1397.0891,52.870165 V 31.771183 q 0,-3.363601 -3.8223,-3.363601 h -10.5494 v 27.826184 h 10.5494 q 3.8223,0 3.8223,-3.363601 z M 1355.9614,9.296189 h 45.4086 q 22.475,0 22.475,18.958499 v 28.131973 q 0,18.958498 -22.475,18.958498 h -18.6526 V 107.4523 h -26.756 z"
   id="path7756"
   style="font-weight:bold;font-size:284.594px;font-family:Teko;-inkscape-font-specification:'Teko Bold';text-align:center;text-anchor:middle;fill:#2a49cb;stroke-width:0;stroke-linecap:round;stroke-linejoin:round;fill-opacity:1" /><path
   d="m 1475.0636,30.395166 h 2.2933 v 22.627888 h -8.7148 q -9.6321,0 -9.6321,10.396597 V 107.4523 h -25.9915 V 31.159622 h 25.5328 v 11.772619 q 1.2232,-5.809868 5.5041,-9.173469 4.2809,-3.363606 11.0082,-3.363606 z"
   id="path7758"
   style="font-weight:bold;font-size:284.594px;font-family:Teko;-inkscape-font-specification:'Teko Bold';text-align:center;text-anchor:middle;fill:#2a49cb;stroke-width:0;stroke-linecap:round;stroke-linejoin:round;fill-opacity:1" /><path
   d="m 1512.5217,88.340907 h 2.5991 q 4.1281,0 4.1281,-4.586735 V 54.857749 q 0,-4.586734 -4.1281,-4.586734 h -2.5991 q -3.8223,0 -3.8223,3.363606 v 31.34268 q 0,3.363606 3.8223,3.363606 z m 7.1858,-57.181285 h 25.5329 V 107.4523 h -25.9915 v -8.256119 q -2.9049,8.256119 -13.4544,8.256119 h -2.7521 q -20.3345,0 -20.3345,-18.958499 V 50.11812 q 0,-18.958498 20.3345,-18.958498 h 2.7521 q 11.7726,0 13.913,9.78503 z"
   id="path7760"
   style="font-weight:bold;font-size:284.594px;font-family:Teko;-inkscape-font-specification:'Teko Bold';text-align:center;text-anchor:middle;fill:#2a49cb;stroke-width:0;stroke-linecap:round;stroke-linejoin:round;fill-opacity:1" /><path
   d="m 1596.1532,50.271015 h -9.6322 v 34.706286 q 0,3.363606 3.8223,3.363606 h 5.657 V 107.4523 h -12.9958 q -22.475,0 -22.475,-18.958499 V 50.271015 h -8.409 V 31.159622 h 8.409 V 16.17629 h 25.9915 v 14.983332 h 9.6322 z"
   id="path7762"
   style="font-weight:bold;font-size:284.594px;font-family:Teko;-inkscape-font-specification:'Teko Bold';text-align:center;text-anchor:middle;fill:#2a49cb;stroke-width:0;stroke-linecap:round;stroke-linejoin:round;fill-opacity:1" /><path
   d="m 1629.7892,107.4523 h -25.9915 V 31.159622 h 25.9915 z M 1603.339,23.515064 V 5.168127 h 26.9089 v 18.346937 z"
   id="path7764"
   style="font-weight:bold;font-size:284.594px;font-family:Teko;-inkscape-font-specification:'Teko Bold';text-align:center;text-anchor:middle;fill:#2a49cb;stroke-width:0;stroke-linecap:round;stroke-linejoin:round;fill-opacity:1" /><path
   d="m 1701.8009,60.667612 h -25.0742 v -7.032991 q 0,-3.363606 -3.8222,-3.363606 h -2.5992 q -3.8223,0 -3.8223,3.363606 v 31.34268 q 0,3.363606 3.8223,3.363606 h 2.5992 q 3.8222,0 3.8222,-3.363606 V 77.94431 h 25.0742 v 10.549491 q 0,18.958499 -22.475,18.958499 h -16.3594 q -22.475,0 -22.475,-18.958499 V 50.11812 q 0,-18.958498 22.475,-18.958498 h 16.3594 q 22.475,0 22.475,18.958498 z"
   id="path7766"
   style="font-weight:bold;font-size:284.594px;font-family:Teko;-inkscape-font-specification:'Teko Bold';text-align:center;text-anchor:middle;fill:#2a49cb;stroke-width:0;stroke-linecap:round;stroke-linejoin:round;fill-opacity:1" /><path
   d="m 1739.2593,88.340907 h 2.5991 q 4.1281,0 4.1281,-4.586735 V 54.857749 q 0,-4.586734 -4.1281,-4.586734 h -2.5991 q -3.8223,0 -3.8223,3.363606 v 31.34268 q 0,3.363606 3.8223,3.363606 z m 7.1859,-57.181285 h 25.5328 V 107.4523 h -25.9915 v -8.256119 q -2.9049,8.256119 -13.4544,8.256119 h -2.752 q -20.3346,0 -20.3346,-18.958499 V 50.11812 q 0,-18.958498 20.3346,-18.958498 h 2.752 q 11.7726,0 13.9131,9.78503 z"
   id="path7768"
   style="font-weight:bold;font-size:284.594px;font-family:Teko;-inkscape-font-specification:'Teko Bold';text-align:center;text-anchor:middle;fill:#2a49cb;stroke-width:0;stroke-linecap:round;stroke-linejoin:round;fill-opacity:1" /><path
   id="polygon8070"
   style="opacity:0.37;fill:#808080;filter:url(#filter8120)"
   sodipodi:type="inkscape:offset"
   inkscape:radius="10.529538"
   inkscape:original="M 72.494141 0 L 72.982422 67.390625 L 73.822266 180.15039 L 73.962891 193.57227 L 74.03125 207.55469 L 74.101562 212.09766 L 74.171875 223.91211 L 74.310547 242.4375 L 437.68945 242.4375 L 437.82812 223.91211 L 437.89844 212.09766 L 437.96875 207.55469 L 438.03711 193.57227 L 438.17773 180.15039 L 439.01758 67.390625 L 439.08789 54.248047 L 388.68359 0 L 72.494141 0 z "
   d="m 72.494141,-10.529297 c -3.509766,3.5351564 -10.203776,55.532552 -10.041016,77.996094 0,6.51e-4 0.559896,75.175133 0.839844,112.761723 0,0.0104 0.09375,8.95963 0.140625,13.42382 0.02279,4.65105 0.06966,14.02735 0.07031,14.06446 0.02279,1.49804 0.115235,12.33659 0.138672,16.25781 0,0.005 0.09245,12.36588 0.138672,18.54101 3.509766,3.48373 252.7819,10.45118 373.9082,10.45118 3.50977,-3.48373 10.62175,-22.80144 10.66797,-28.97657 0,-0.005 0.0469,-7.85807 0.0703,-11.77929 0.0228,-1.49805 0.0697,-4.56836 0.0703,-4.60547 0.0228,-4.65104 0.16211,-22.88151 0.20898,-27.3457 0,-0.0104 0.5599,-75.20443 0.83985,-112.79102 0,-0.0072 0.0469,-8.783203 0.0703,-13.164062 -0.9388,-2.408204 -36.41927,-43.389974 -53.22071,-61.4726568 -2.57096,-1.1204427 -218.50586,-3.3613282 -323.902339,-3.3613282 z"
   transform="matrix(0.5567801,0.14918879,-0.14918879,0.5567801,13.105872,-27.263619)" /><polygon
   style="fill:#ececec"
   points="439.087,54.248 439.017,67.39 438.178,180.15 438.038,193.573 437.969,207.554 437.899,212.098 437.829,223.912 437.689,242.438 74.311,242.438 74.172,223.912 74.102,212.098 74.032,207.554 73.962,193.573 73.822,180.15 72.983,67.39 72.494,0 388.684,0 "
   id="polygon8068"
   transform="matrix(0.5567801,0.14918879,-0.14918879,0.5567801,13.105872,-27.263619)" /><polygon
   style="fill:#fbe6b7"
   points="72.895,439.074 72.19,438.29 32.494,398.671 31.867,398.046 97.95,331.961 180.006,414.017 171.785,422.16 115.097,478.926 115.019,478.926 113.923,480.023 113.844,479.945 113.375,479.474 113.297,479.474 73.6,439.701 "
   id="polygon9409"
   transform="matrix(0.34579491,0,0,0.34579491,149.36433,-70.75725)" /><path
   style="fill:#ffffff;stroke-width:0.345795"
   d="m 326.21733,-47.370795 c -0.21681,0.947133 -0.70404,1.867984 -1.43505,2.598995 l -12.42718,12.426831 -2.65328,2.653285 -1.43505,1.435049 c -2.16606,2.166059 -5.73985,2.166059 -7.93288,0 l -8.20364,-8.203639 -8.23095,-8.230956 c -2.19303,-2.192686 -2.19303,-5.766476 0,-7.932881 l 1.43504,-1.435049 2.65329,-2.653284 3.30303,-3.303033 9.09718,-9.123453 c 0.731,-0.731011 1.65151,-1.218927 2.62631,-1.435049 1.84101,-0.487225 3.89883,0 5.33389,1.435049 l 8.20363,8.230956 8.23061,8.202947 c 1.43505,1.435049 1.92228,3.492528 1.43505,5.334232 z"
   id="path9411" /><polygon
   style="fill:#9b6d46"
   points="471.351,111.085 477.145,116.88 404.72,189.306 363.692,148.276 322.664,107.248 395.089,34.823 "
   id="polygon9413"
   transform="matrix(0.34579491,0,0,0.34579491,149.36433,-70.75725)" /><polygon
   style="fill:#fbf3bd"
   points="480.903,101.533 486.697,107.248 477.145,116.88 469.472,124.473 463.678,118.757 393.21,48.29 387.416,42.498 404.641,25.271 "
   id="polygon9415"
   transform="matrix(0.34579491,0,0,0.34579491,149.36433,-70.75725)" /><polygon
   style="fill:#70a745"
   points="376.846,135.122 417.874,176.072 404.72,189.306 309.901,284.123 180.006,414.017 171.785,422.16 130.835,381.134 89.808,340.105 97.95,331.961 227.845,202.067 322.664,107.248 335.818,94.095 "
   id="polygon9417"
   transform="matrix(0.34579491,0,0,0.34579491,149.36433,-70.75725)" /><path
   style="fill:#fbe6b7;stroke-width:0.345795"
   d="m 189.13731,94.852923 -0.37899,0.108579 -0.1895,0.08126 h -0.027 l -24.93597,7.229538 c -0.027,-0.0543 -0.0543,-0.082 -0.0543,-0.13556 -1.08303,-2.08479 -2.46379,-4.061356 -4.22354,-5.821452 -1.75975,-1.759752 -3.73631,-3.167481 -5.84808,-4.223887 -0.027,-0.02627 -0.0813,-0.02627 -0.10823,-0.05429 l 7.22919,-24.935965 0.0813,-0.243095 0.10858,-0.379335 0.29773,0.298075 13.88885,13.889545 0.51454,0.514195 13.34803,13.347684 z"
   id="path9419" /><path
   style="fill:#595a59;stroke-width:0.345795"
   d="m 163.76807,102.08246 -0.21647,0.0543 -0.027,0.027 -9.17844,2.68026 -4.98187,1.43505 1.43505,-4.98187 2.68026,-9.205754 0.0813,-0.243089 c 2.13909,1.082681 4.1696,2.49076 5.95666,4.278173 1.78673,1.786377 3.1948,3.816885 4.25051,5.95597 z"
   id="path9421" /><polygon
   style="fill:#70a745"
   points="115.097,478.926 113.766,480.258 113.844,479.945 113.923,479.239 114.158,477.987 122.457,431.087 75.557,439.387 73.6,439.701 71.955,440.012 71.877,440.012 72.19,438.29 72.504,436.333 80.803,389.432 33.903,397.732 32.728,397.968 31.945,398.124 31.789,398.124 97.95,331.961 227.845,202.067 309.901,284.123 180.006,414.017 "
   id="polygon9423"
   transform="matrix(0.34579491,0,0,0.34579491,149.36433,-70.75725)" /><polygon
   style="fill:#fbe6b7"
   points="72.895,439.074 72.19,438.29 32.494,398.671 31.867,398.046 97.95,331.961 180.006,414.017 171.785,422.16 115.097,478.926 115.019,478.926 113.923,480.023 113.844,479.945 113.375,479.474 113.297,479.474 73.6,439.701 "
   id="polygon9427"
   transform="matrix(0.34579491,0,0,0.34579491,149.36433,-70.75725)" /><path
   style="fill:#e6e6e6;stroke-width:0.345795"
   d="m 326.21733,-47.370795 c -0.21681,0.947133 -0.70404,1.867984 -1.43505,2.598995 l -12.42718,12.426831 -2.65328,2.653285 -1.43505,1.435049 c -2.16606,2.166059 -5.73985,2.166059 -7.93288,0 l -8.20364,-8.203639 -8.23095,-8.230956 c -2.19303,-2.192686 -2.19303,-5.766476 0,-7.932881 l 1.43504,-1.435049 2.65329,-2.653284 3.30303,-3.303033 9.09718,-9.123453 c 0.731,-0.731011 1.65151,-1.218927 2.62631,-1.435049 1.84101,-0.487225 3.89883,0 5.33389,1.435049 l 8.20363,8.230956 8.23061,8.202947 c 1.43505,1.435049 1.92228,3.492528 1.43505,5.334232 z"
   id="path9429" /><polygon
   style="fill:#9b6d46"
   points="471.351,111.085 477.145,116.88 404.72,189.306 363.692,148.276 322.664,107.248 395.089,34.823 "
   id="polygon9431"
   transform="matrix(0.34579491,0,0,0.34579491,149.36433,-70.75725)" /><polygon
   style="fill:#fbf3bd"
   points="480.903,101.533 486.697,107.248 477.145,116.88 469.472,124.473 463.678,118.757 393.21,48.29 387.416,42.498 404.641,25.271 "
   id="polygon9433"
   transform="matrix(0.34579491,0,0,0.34579491,149.36433,-70.75725)" /><polygon
   style="fill:#70a745"
   points="376.846,135.122 417.874,176.072 404.72,189.306 309.901,284.123 180.006,414.017 171.785,422.16 130.835,381.134 89.808,340.105 97.95,331.961 227.845,202.067 322.664,107.248 335.818,94.095 "
   id="polygon9435"
   transform="matrix(0.34579491,0,0,0.34579491,149.36433,-70.75725)" /><path
   style="fill:#fbe6b7;stroke-width:0.345795"
   d="m 189.13731,94.852923 -0.37899,0.108579 -0.1895,0.08126 h -0.027 l -24.93597,7.229538 c -0.027,-0.0543 -0.0543,-0.082 -0.0543,-0.13556 -1.08303,-2.08479 -2.46379,-4.061356 -4.22354,-5.821452 -1.75975,-1.759752 -3.73631,-3.167481 -5.84808,-4.223887 -0.027,-0.02627 -0.0813,-0.02627 -0.10823,-0.05429 l 7.22919,-24.935965 0.0813,-0.243095 0.10858,-0.379335 0.29773,0.298075 13.88885,13.889545 0.51454,0.514195 13.34803,13.347684 z"
   id="path9437" /><path
   style="fill:#595a59;stroke-width:0.345795"
   d="m 163.76807,102.08246 -0.21647,0.0543 -0.027,0.027 -9.17844,2.68026 -4.98187,1.43505 1.43505,-4.98187 2.68026,-9.205754 0.0813,-0.243089 c 2.13909,1.082681 4.1696,2.49076 5.95666,4.278173 1.78673,1.786377 3.1948,3.816885 4.25051,5.95597 z"
   id="path9439" /><polygon
   style="fill:#70a745"
   points="115.097,478.926 113.766,480.258 113.844,479.945 113.923,479.239 114.158,477.987 122.457,431.087 75.557,439.387 73.6,439.701 71.955,440.012 71.877,440.012 72.19,438.29 72.504,436.333 80.803,389.432 33.903,397.732 32.728,397.968 31.945,398.124 31.789,398.124 97.95,331.961 227.845,202.067 309.901,284.123 180.006,414.017 "
   id="polygon9441"
   transform="matrix(0.34579491,0,0,0.34579491,149.36433,-70.75725)" /><path
   style="opacity:0.08;fill:#040000;stroke-width:0.345795"
   d="m 315.67093,-35.656992 9.10271,-9.102705 c 2.18369,-2.183696 2.18335,-5.756103 0,-7.939797 l -8.21747,-8.217471 -167.18631,167.186305 14.16514,-4.11081 c 0.0193,0.038 0.0429,0.0743 0.0616,0.11239 l 24.95672,-7.241986 0.16944,0.169436 -0.0194,0.109621 0.0647,-0.06467 20.01046,-20.010462 2.82721,-2.827219 44.9281,-44.928096 32.78102,-32.7810092 4.55826,-4.5582684 17.84233,-17.8423254 2.63253,-2.632537 3.3224,-3.322397 z"
   id="path9445" /><path
   style="fill:#595a59;fill-opacity:1;stroke:#595a59;stroke-width:9.2695;stroke-linecap:round;stroke-linejoin:round;stroke-dasharray:none;stroke-opacity:1"
   d="M 61.686435,80.391012 149.36433,106.27902"
   id="path11032"
   sodipodi:nodetypes="cc" /></g></g></svg>
