<?xml version="1.0" encoding="UTF-8" standalone="no"?>
<!-- Created with Inkscape (http://www.inkscape.org/) -->

<svg
   width="748"
   height="48"
   viewBox="0 0 197.90833 12.7"
   version="1.1"
   id="svg5"
   inkscape:version="1.2.2 (b0a8486541, 2022-12-01)"
   sodipodi:docname="request_edit_logo.svg"
   xml:space="preserve"
   xmlns:inkscape="http://www.inkscape.org/namespaces/inkscape"
   xmlns:sodipodi="http://sodipodi.sourceforge.net/DTD/sodipodi-0.dtd"
   xmlns="http://www.w3.org/2000/svg"
   xmlns:svg="http://www.w3.org/2000/svg"><sodipodi:namedview
     id="namedview7"
     pagecolor="#ffffff"
     bordercolor="#000000"
     borderopacity="0.25"
     inkscape:showpageshadow="false"
     inkscape:pageopacity="0.0"
     inkscape:pagecheckerboard="0"
     inkscape:deskcolor="#d1d1d1"
     inkscape:document-units="px"
     showgrid="false"
     inkscape:zoom="2.854293"
     inkscape:cx="215.46492"
     inkscape:cy="-27.152083"
     inkscape:window-width="2527"
     inkscape:window-height="1408"
     inkscape:window-x="33"
     inkscape:window-y="0"
     inkscape:window-maximized="1"
     inkscape:current-layer="g347" /><defs
     id="defs2">
			
			
			
			
			
			
			
		
				
				
				
				
			
				
				
				
			
					
					
				
					
					
					
				
		
		
	<filter
   inkscape:collect="always"
   style="color-interpolation-filters:sRGB"
   id="filter8120"
   x="-0.081484851"
   y="-0.11972945"
   width="1.1629697"
   height="1.2394589"><feGaussianBlur
     inkscape:collect="always"
     stdDeviation="13.145102"
     id="feGaussianBlur8122" /></filter>
	
	
	

		
		
		
		
		
		
		
		
	
		
		
		
		
		
		
		
		
	</defs><g
     inkscape:label="Livello 1"
     inkscape:groupmode="layer"
     id="layer1"><g
       id="g347"
       transform="matrix(0.04446936,0,0,0.04446936,6.3827961,3.4111066)">
	
	
<path
   style="fill:#b28d61;stroke-width:0.550882"
   d="m 138.33954,55.077899 -7.39448,0.115686 -15.51941,0.192257 -12.74683,0.192805 -83.645181,1.386568 v 0.192257 l -7.393925,-0.07712 -7.3939205,0.07712 v -0.192257 l -1.810192,-0.03857 -100.2426745,-1.348006 -12.746827,-0.192805 -15.51997,-0.192257 -7.39392,-0.115686 1.27088,-7.355363 2.61889,-15.250032 5.85366,-33.9276416 0.69301,-3.9283323 c 1.61738,-9.3969141 9.74287,-16.2520741 19.29349,-16.2520741 h 212.34692 c 9.55061,0 17.67666,6.85516 19.29404,16.2515337 l 0.69301,3.9283301 5.85366,33.9276472 2.61889,15.250031 z"
   id="path301" /><path
   style="fill:#c8a373;stroke-width:0.550882"
   d="m 138.33954,53.190583 v 50.602807 c 0,7.00885 -5.69996,12.70882 -12.70827,12.70882 h -246.39079 c -7.00886,0 -12.70827,-5.69997 -12.70827,-12.70882 V 53.190583 c 0,-1.963892 0.46219,-3.812646 1.27088,-5.468596 2.00245,-4.274837 6.39242,-7.240225 11.43739,-7.240225 h 246.39024 c 5.04496,0 9.43493,2.965388 11.43739,7.240225 l 0.0386,0.03857 c 0,0.03857 0.0386,0.07712 0.0386,0.115686 0.19226,0.385062 0.3465,0.770129 0.46219,1.155196 0.11569,0.269381 0.19226,0.500748 0.26938,0.770129 0.0766,0.269381 0.1537,0.538762 0.19226,0.847258 0.0771,0.385062 0.15369,0.808691 0.19225,1.23232 0.0397,0.423624 0.0782,0.885815 0.0782,1.309445 z"
   id="path303" /><path
   style="fill:#6a573f;stroke-width:0.550882"
   d="m 123.75001,47.891659 h -242.62882 c -3.95257,0 -7.18624,3.233668 -7.18624,7.18624 v 46.827621 c 0,3.95257 3.23367,7.18624 7.18624,7.18624 h 242.62882 c 3.95257,0 7.18624,-3.23367 7.18624,-7.18624 V 55.077899 c 0,-3.952572 -3.23367,-7.18624 -7.18624,-7.18624 z"
   id="path305" /><polygon
   style="fill:#ececec"
   points="438.178,180.15 438.038,193.573 437.969,207.554 437.899,212.098 437.829,223.912 437.689,242.438 74.311,242.438 74.172,223.912 74.102,212.098 74.032,207.554 73.962,193.573 73.822,180.15 72.983,67.39 72.494,0 388.684,0 439.087,54.248 439.017,67.39 "
   id="polygon307"
   transform="matrix(0.55088077,0,0,0.55088077,-138.58988,-58.75941)" /><polygon
   style="fill:#c4e5e1"
   points="439.506,0 439.437,7.55 439.087,54.248 388.684,0 "
   id="polygon309"
   transform="matrix(0.55088077,0,0,0.55088077,-138.58988,-58.75941)" /><polygon
   style="fill:#e5e5e4"
   points="120.593,41.886 391.004,41.886 390.864,67.521 120.733,67.521 "
   id="polygon311"
   transform="matrix(0.55088077,0,0,0.55088077,-138.58988,-58.75941)" /><polygon
   style="fill:#e5e5e4"
   points="120.921,101.713 390.676,101.713 390.537,127.224 121.061,127.224 "
   id="polygon313"
   transform="matrix(0.55088077,0,0,0.55088077,-138.58988,-58.75941)" /><polygon
   style="fill:#e5e5e4"
   points="121.253,162.393 313.934,162.393 313.874,187.777 121.393,187.777 "
   id="polygon315"
   transform="matrix(0.55088077,0,0,0.55088077,-138.58988,-58.75941)" /><path
   style="fill:#d4b58f;stroke-width:0.550882"
   d="m 143.46108,73.370448 -0.11569,4.92928 -1.54026,64.043192 -0.19226,7.27879 c 0,8.39542 -10.43643,15.25003 -23.18326,15.25003 h -231.98747 c -12.74683,0 -23.18326,-6.85516 -23.18326,-15.25003 l -0.19281,-7.27879 -1.54026,-64.043746 -0.11569,-4.928726 c 0,-3.58128 1.92533,-6.931735 5.12209,-9.550623 2.00245,-1.655949 4.50565,-3.003402 7.39392,-4.004903 3.19621,-1.116634 6.8166,-1.733073 10.66781,-1.733073 h 235.68442 c 3.85121,0 7.47105,0.616439 10.66726,1.733073 2.88827,1.001501 5.39147,2.348954 7.39447,4.004903 v 0.03857 c 1.0015,0.808691 1.88677,1.694511 2.61889,2.65745 0.23082,0.307943 0.46219,0.616434 0.65444,0.924377 0.23082,0.346505 0.46219,0.731567 0.65445,1.117187 0.11569,0.192257 0.19281,0.385062 0.26938,0.577319 0.11569,0.230824 0.23082,0.500753 0.30794,0.731572 0.0771,0.230819 0.15425,0.462191 0.19226,0.654996 0.15425,0.423629 0.23082,0.88582 0.30794,1.309444 0.0771,0.499652 0.11569,1.0004 0.11569,1.539715 z"
   id="path321" /><path
   style="fill:#c8a373;stroke-width:0.550882"
   d="m 143.46108,79.839991 -1.5017,62.502379 -0.19281,6.89372 -0.1537,6.73948 c 0,0 0,0 0,0.0386 v 0.0771 c 0,0.50074 -0.0386,0.96293 -0.11568,1.42457 -1.11719,7.74098 -11.05233,13.86402 -23.06814,13.86402 h -231.98691 c -3.1582,0 -6.1616,-0.42363 -8.89617,-1.19376 -7.74043,-2.11814 -13.36327,-6.97084 -14.17196,-12.67026 -0.0771,-0.50075 -0.11568,-1.0015 -0.11568,-1.54026 v -0.0771 l -0.34651,-13.55607 -1.5017,-62.502379 c 0,-0.539315 0.0386,-1.040063 0.11569,-1.540263 0.46219,-3.003955 2.27183,-5.737976 5.0064,-8.009806 2.00245,-1.617387 4.50565,-3.003955 7.39392,-3.966894 3.19621,-1.116634 6.8166,-1.733073 10.66781,-1.733073 h 235.68442 c 3.85121,0 7.47105,0.616439 10.66726,1.733073 2.88827,0.962939 5.39147,2.348954 7.39447,3.966894 2.73402,2.27183 4.54421,5.006404 5.00641,8.009806 0.076,0.5002 0.11458,1.03951 0.11458,1.540263 z"
   id="path323" /><circle
   style="opacity:0.2;fill:#6a573f;stroke-width:0.550882"
   cx="-52.764854"
   cy="117.92844"
   r="18.672655"
   id="circle325" /><circle
   style="opacity:0.2;fill:#6a573f;stroke-width:0.550882"
   cx="57.636066"
   cy="117.92844"
   r="18.672655"
   id="circle327" /><path
   style="opacity:0.1;fill:#040000;stroke-width:0.550882"
   d="m 49.641125,128.90639 h -94.411047 c -5.619538,0 -10.217189,-4.59765 -10.217189,-10.21719 v 0 c 0,-5.61953 4.597651,-10.21718 10.217189,-10.21718 h 94.410494 c 5.619534,0 10.217185,4.59765 10.217185,10.21718 v 0 c 5.37e-4,5.61954 -4.597097,10.21719 -10.216632,10.21719 z"
   id="path331" /><path
   style="fill:#f4eea8;stroke-width:0.550882"
   d="m 45.313404,128.90639 h -85.75561 c -5.619534,0 -10.217185,-4.59765 -10.217185,-10.21719 v 0 c 0,-5.61953 4.597651,-10.21718 10.217185,-10.21718 h 85.756163 c 5.619534,0 10.217185,4.59765 10.217185,10.21718 v 0 c -5.37e-4,5.61954 -4.598204,10.21719 -10.217738,10.21719 z"
   id="path333" /><path
   style="opacity:0.1;fill:#ffffff;stroke-width:0.550882"
   d="m 55.262862,114.183 c -1.594802,-2.45748 -4.367385,-4.08919 -7.501343,-4.08919 h -88.267628 c -4.923773,0 -8.95732,4.03355 -8.95732,8.96669 v 2.50375 c 0,1.05714 0.185647,2.07682 0.528846,3.02268 -0.917768,-1.4097 -1.455979,-3.07832 -1.455979,-4.8775 v -2.50375 c 0,-4.93314 4.033549,-8.96668 8.95732,-8.96668 h 88.267628 c 3.866084,0 7.185691,2.48502 8.428476,5.944 z"
   id="path335" /><path
   style="opacity:0.2;fill:#6a573f;stroke-width:0.550882"
   d="m 141.95938,142.34237 -0.19281,6.89372 -0.1537,6.73948 c 0,0 0,0 0,0.0386 v 0.0771 c 0,0.50074 -0.0386,0.96293 -0.11568,1.42457 -1.19376,7.6633 -11.12944,13.70977 -23.06814,13.70977 h -231.98691 c -3.23477,0 -6.31584,-0.46219 -9.12699,-1.23232 -7.54762,-2.1567 -13.05532,-6.89317 -13.94059,-12.47745 -0.0771,-0.50075 -0.11568,-1.0015 -0.11568,-1.54026 v -0.0771 l -0.34651,-13.55607 h 0.23082 l 0.11569,4.96784 c 0,8.39543 10.43643,15.25003 23.18326,15.25003 h 231.98691 c 12.74683,0 23.18327,-6.8546 23.18327,-15.25003 l 0.11569,-4.96784 z"
   id="path341" /><g
   aria-label="730"
   id="text576"
   style="font-size:34.7015px;font-family:Teko;-inkscape-font-specification:Teko;text-align:center;text-anchor:middle;fill:#595a59;stroke:#ffccaa;stroke-width:0;stroke-linecap:round;stroke-linejoin:round"
   transform="matrix(0.53722547,0,0,0.53722547,-99.837134,-55.907049)"><path
     d="M 51.602611,63.132683 60.413538,46.171647 H 51.80594 V 38.56375 H 74.053532 L 61.633513,63.132683 Z"
     style="font-family:'Futura XBlk BT';-inkscape-font-specification:'Futura XBlk BT'"
     id="path11994" /><path
     d="m 83.982769,47.764392 h 0.37277 q 1.135254,0 1.711354,-0.423603 0.593043,-0.440546 0.593043,-1.287751 0,-0.643875 -0.389714,-1.050533 -0.389714,-0.406659 -0.999702,-0.406659 -0.643875,0 -0.982757,0.457491 -0.338882,0.440546 -0.338882,1.287751 h -8.183996 q 0.06778,-4.066582 2.524669,-6.16765 2.473838,-2.101067 7.184295,-2.101067 4.202135,0 6.743749,1.931627 2.558558,1.914682 2.558558,5.015451 0,1.897738 -0.881093,3.134657 -0.881093,1.236918 -2.660222,1.86385 2.185787,0.491378 3.321042,1.982459 1.152198,1.474135 1.152198,3.81242 0,3.64298 -2.778831,5.811824 -2.778831,2.168843 -7.489289,2.168843 -5.049339,0 -7.912891,-2.490781 -2.846607,-2.490782 -2.846607,-6.879301 v -0.06778 h 8.522878 q 0.05083,1.253863 0.525267,1.897739 0.474435,0.626931 1.355527,0.626931 0.881093,0 1.40636,-0.542211 0.542211,-0.559155 0.542211,-1.457192 0,-1.033589 -0.626932,-1.5758 -0.626931,-0.542211 -1.796073,-0.542211 -0.254162,0 -0.389714,0.01694 -0.135553,0 -0.237218,0 z"
     style="font-family:'Futura XBlk BT';-inkscape-font-specification:'Futura XBlk BT'"
     id="path11996" /><path
     d="m 106.92507,50.915993 q 0,2.677166 0.47443,3.931029 0.49138,1.236919 1.52497,1.236919 1.03359,0 1.50803,-1.219975 0.47443,-1.236919 0.47443,-3.947973 0,-2.694111 -0.47443,-3.93103 -0.47444,-1.236918 -1.50803,-1.236918 -1.05053,0 -1.52497,1.219974 -0.47443,1.219975 -0.47443,3.947974 z m -8.675376,0 q 0,-5.981265 2.846606,-9.403971 2.86355,-3.439651 7.82817,-3.439651 4.99851,0 7.82817,3.405763 2.82967,3.405762 2.82967,9.437859 0,6.032096 -2.82967,9.454803 -2.82966,3.422706 -7.82817,3.422706 -4.94767,0 -7.81122,-3.456594 -2.863556,-3.456595 -2.863556,-9.420915 z"
     style="font-family:'Futura XBlk BT';-inkscape-font-specification:'Futura XBlk BT'"
     id="path11998" /></g><g
   aria-label="ISEE"
   id="text630"
   style="font-size:34.7015px;font-family:Teko;-inkscape-font-specification:Teko;text-align:center;text-anchor:middle;fill:#595a59;stroke:#ffccaa;stroke-width:0;stroke-linecap:round;stroke-linejoin:round"
   transform="matrix(0.53722547,0,0,0.53722547,-99.837134,-55.907049)"><path
     d="M 49.61168,123.49597 V 98.689821 h 9.065089 v 24.806149 z"
     style="font-family:'Futura XBlk BT';-inkscape-font-specification:'Futura XBlk BT'"
     id="path12001" /><path
     d="m 61.235327,121.37796 2.846607,-6.94708 q 1.914682,1.33859 3.405762,1.96552 1.508025,0.60998 2.81272,0.60998 0.914981,0 1.440247,-0.33888 0.525267,-0.35582 0.525267,-0.94887 0,-1.03359 -2.626334,-1.5758 -0.847205,-0.18638 -1.321639,-0.28805 -2.778831,-0.67776 -4.252967,-2.40606 -1.474136,-1.72829 -1.474136,-4.3038 0,-3.9988 2.863551,-6.50653 2.863552,-2.507724 7.506233,-2.507724 2.134956,0 4.202135,0.559155 2.067179,0.559155 4.168246,1.694409 l -2.711054,6.48959 q -1.287751,-0.94887 -2.592446,-1.44025 -1.287751,-0.50832 -2.507726,-0.50832 -0.931925,0 -1.440248,0.32193 -0.508322,0.305 -0.508322,0.86415 0,1.05054 3.710756,1.84691 0.593043,0.13555 0.914981,0.20333 2.558557,0.5761 4.032693,2.35523 1.474136,1.77913 1.474136,4.3038 0,4.11741 -2.98216,6.7268 -2.965216,2.60939 -7.726506,2.60939 -2.439949,0 -4.879898,-0.69471 -2.439949,-0.6947 -4.879898,-2.08412 z"
     style="font-family:'Futura XBlk BT';-inkscape-font-specification:'Futura XBlk BT'"
     id="path12003" /><path
     d="M 84.685952,123.49597 V 98.689821 h 16.588268 v 6.726809 h -7.845116 v 2.38911 h 7.116516 v 6.35404 h -7.116516 v 2.60939 h 8.048446 v 6.7268 z"
     style="font-family:'Futura XBlk BT';-inkscape-font-specification:'Futura XBlk BT'"
     id="path12005" /><path
     d="M 105.08664,123.49597 V 98.689821 h 16.58826 v 6.726809 h -7.84511 v 2.38911 h 7.11652 v 6.35404 h -7.11652 v 2.60939 h 8.04844 v 6.7268 z"
     style="font-family:'Futura XBlk BT';-inkscape-font-specification:'Futura XBlk BT'"
     id="path12007" /></g><g
   aria-label="RDC"
   id="text736"
   style="font-size:34.7015px;font-family:Teko;-inkscape-font-specification:Teko;text-align:center;text-anchor:middle;fill:#595a59;stroke:#ffccaa;stroke-width:0;stroke-linecap:round;stroke-linejoin:round"
   transform="matrix(0.53722547,0,0,0.53722547,-99.837134,-55.907049)"><path
     d="m 58.973291,168.15991 v 4.84601 h 1.389415 q 1.270807,0 1.948571,-0.60998 0.694707,-0.62694 0.694707,-1.77913 0,-1.18609 -0.694707,-1.81302 -0.677764,-0.64388 -1.948571,-0.64388 z m -8.743152,18.41823 v -24.80615 h 11.216989 q 4.879898,0 7.4554,2.1519 2.575502,2.1519 2.575502,6.20154 0,2.64328 -1.304695,4.35463 -1.287751,1.71135 -3.490483,1.9994 l 6.62514,10.09868 h -9.997014 l -4.337687,-8.184 v 8.184 z"
     style="font-family:'Futura XBlk BT';-inkscape-font-specification:'Futura XBlk BT'"
     id="path12010" /><path
     d="m 83.914993,179.00413 q 3.016049,-0.0169 4.405464,-1.16914 1.389416,-1.16914 1.389416,-3.64298 0,-2.42301 -1.338584,-3.60909 -1.321639,-1.18609 -4.066582,-1.18609 h -0.389714 z m -8.844816,7.57401 v -24.80615 h 7.218184 q 3.43965,0 5.862655,0.38971 2.43995,0.37277 3.964918,1.16915 3.219377,1.69441 4.93073,4.49018 1.728298,2.79578 1.728298,6.37098 0,3.55826 -1.711353,6.33709 -1.711354,2.77883 -4.947675,4.49018 -1.575801,0.81332 -3.998806,1.18609 -2.423005,0.37277 -6.489587,0.37277 z"
     style="font-family:'Futura XBlk BT';-inkscape-font-specification:'Futura XBlk BT'"
     id="path12012" /><path
     d="m 120.76839,171.61651 q -1.21997,-1.16915 -2.49078,-1.74524 -1.27081,-0.5761 -2.67717,-0.5761 -2.18578,0 -3.52437,1.35552 -1.32164,1.33859 -1.32164,3.57521 0,2.18579 1.27081,3.49048 1.27081,1.3047 3.40576,1.3047 1.28775,0 2.60939,-0.54222 1.33859,-0.55915 2.91439,-1.76218 l -0.28805,9.33619 q -1.45719,0.59305 -2.91439,0.8811 -1.45719,0.30499 -2.91438,0.30499 -1.81302,0 -3.49048,-0.40666 -1.67747,-0.40666 -3.03299,-1.1522 -3.28716,-1.89773 -4.98157,-4.79517 -1.67746,-2.89744 -1.67746,-6.65903 0,-2.77883 0.94887,-5.15101 0.96581,-2.37217 2.79577,-4.18519 1.84691,-1.82996 4.26991,-2.76188 2.43995,-0.94887 5.26962,-0.94887 1.50802,0 2.96521,0.32193 1.47414,0.305 2.86355,0.93193 z"
     style="font-family:'Futura XBlk BT';-inkscape-font-specification:'Futura XBlk BT'"
     id="path12014" /></g><path
   id="polygon8070"
   style="opacity:0.37;fill:#808080;filter:url(#filter8120)"
   sodipodi:type="inkscape:offset"
   inkscape:radius="10.529538"
   inkscape:original="M 72.494141 0 L 72.982422 67.390625 L 73.822266 180.15039 L 73.962891 193.57227 L 74.03125 207.55469 L 74.101562 212.09766 L 74.171875 223.91211 L 74.310547 242.4375 L 437.68945 242.4375 L 437.82812 223.91211 L 437.89844 212.09766 L 437.96875 207.55469 L 438.03711 193.57227 L 438.17773 180.15039 L 439.01758 67.390625 L 439.08789 54.248047 L 388.68359 0 L 72.494141 0 z "
   d="m 72.494141,-10.529297 c -3.509766,3.5351564 -10.203776,55.532552 -10.041016,77.996094 0,6.51e-4 0.559896,75.175133 0.839844,112.761723 0,0.0104 0.09375,8.95963 0.140625,13.42382 0.02279,4.65105 0.06966,14.02735 0.07031,14.06446 0.02279,1.49804 0.115235,12.33659 0.138672,16.25781 0,0.005 0.09245,12.36588 0.138672,18.54101 3.509766,3.48373 252.7819,10.45118 373.9082,10.45118 3.50977,-3.48373 10.62175,-22.80144 10.66797,-28.97657 0,-0.005 0.0469,-7.85807 0.0703,-11.77929 0.0228,-1.49805 0.0697,-4.56836 0.0703,-4.60547 0.0228,-4.65104 0.16211,-22.88151 0.20898,-27.3457 0,-0.0104 0.5599,-75.20443 0.83985,-112.79102 0,-0.0072 0.0469,-8.783203 0.0703,-13.164062 -0.9388,-2.408204 -36.41927,-43.389974 -53.22071,-61.4726568 -2.57096,-1.1204427 -218.50586,-3.3613282 -323.902339,-3.3613282 z"
   transform="matrix(0.5567801,0.14918879,-0.14918879,0.5567801,13.105872,-27.263619)" /><polygon
   style="fill:#ececec"
   points="439.087,54.248 439.017,67.39 438.178,180.15 438.038,193.573 437.969,207.554 437.899,212.098 437.829,223.912 437.689,242.438 74.311,242.438 74.172,223.912 74.102,212.098 74.032,207.554 73.962,193.573 73.822,180.15 72.983,67.39 72.494,0 388.684,0 "
   id="polygon8068"
   transform="matrix(0.5567801,0.14918879,-0.14918879,0.5567801,13.105872,-27.263619)" /><polygon
   style="fill:#fbe6b7"
   points="72.895,439.074 72.19,438.29 32.494,398.671 31.867,398.046 97.95,331.961 180.006,414.017 171.785,422.16 115.097,478.926 115.019,478.926 113.923,480.023 113.844,479.945 113.375,479.474 113.297,479.474 73.6,439.701 "
   id="polygon9409"
   transform="matrix(0.34579491,0,0,0.34579491,149.36433,-70.75725)" /><path
   style="fill:#ffffff;stroke-width:0.345795"
   d="m 326.21733,-47.370795 c -0.21681,0.947133 -0.70404,1.867984 -1.43505,2.598995 l -12.42718,12.426831 -2.65328,2.653285 -1.43505,1.435049 c -2.16606,2.166059 -5.73985,2.166059 -7.93288,0 l -8.20364,-8.203639 -8.23095,-8.230956 c -2.19303,-2.192686 -2.19303,-5.766476 0,-7.932881 l 1.43504,-1.435049 2.65329,-2.653284 3.30303,-3.303033 9.09718,-9.123453 c 0.731,-0.731011 1.65151,-1.218927 2.62631,-1.435049 1.84101,-0.487225 3.89883,0 5.33389,1.435049 l 8.20363,8.230956 8.23061,8.202947 c 1.43505,1.435049 1.92228,3.492528 1.43505,5.334232 z"
   id="path9411" /><polygon
   style="fill:#9b6d46"
   points="471.351,111.085 477.145,116.88 404.72,189.306 363.692,148.276 322.664,107.248 395.089,34.823 "
   id="polygon9413"
   transform="matrix(0.34579491,0,0,0.34579491,149.36433,-70.75725)" /><polygon
   style="fill:#fbf3bd"
   points="480.903,101.533 486.697,107.248 477.145,116.88 469.472,124.473 463.678,118.757 393.21,48.29 387.416,42.498 404.641,25.271 "
   id="polygon9415"
   transform="matrix(0.34579491,0,0,0.34579491,149.36433,-70.75725)" /><polygon
   style="fill:#70a745"
   points="376.846,135.122 417.874,176.072 404.72,189.306 309.901,284.123 180.006,414.017 171.785,422.16 130.835,381.134 89.808,340.105 97.95,331.961 227.845,202.067 322.664,107.248 335.818,94.095 "
   id="polygon9417"
   transform="matrix(0.34579491,0,0,0.34579491,149.36433,-70.75725)" /><path
   style="fill:#fbe6b7;stroke-width:0.345795"
   d="m 189.13731,94.852923 -0.37899,0.108579 -0.1895,0.08126 h -0.027 l -24.93597,7.229538 c -0.027,-0.0543 -0.0543,-0.082 -0.0543,-0.13556 -1.08303,-2.08479 -2.46379,-4.061356 -4.22354,-5.821452 -1.75975,-1.759752 -3.73631,-3.167481 -5.84808,-4.223887 -0.027,-0.02627 -0.0813,-0.02627 -0.10823,-0.05429 l 7.22919,-24.935965 0.0813,-0.243095 0.10858,-0.379335 0.29773,0.298075 13.88885,13.889545 0.51454,0.514195 13.34803,13.347684 z"
   id="path9419" /><path
   style="fill:#595a59;stroke-width:0.345795"
   d="m 163.76807,102.08246 -0.21647,0.0543 -0.027,0.027 -9.17844,2.68026 -4.98187,1.43505 1.43505,-4.98187 2.68026,-9.205754 0.0813,-0.243089 c 2.13909,1.082681 4.1696,2.49076 5.95666,4.278173 1.78673,1.786377 3.1948,3.816885 4.25051,5.95597 z"
   id="path9421" /><polygon
   style="fill:#70a745"
   points="115.097,478.926 113.766,480.258 113.844,479.945 113.923,479.239 114.158,477.987 122.457,431.087 75.557,439.387 73.6,439.701 71.955,440.012 71.877,440.012 72.19,438.29 72.504,436.333 80.803,389.432 33.903,397.732 32.728,397.968 31.945,398.124 31.789,398.124 97.95,331.961 227.845,202.067 309.901,284.123 180.006,414.017 "
   id="polygon9423"
   transform="matrix(0.34579491,0,0,0.34579491,149.36433,-70.75725)" /><polygon
   style="fill:#fbe6b7"
   points="72.895,439.074 72.19,438.29 32.494,398.671 31.867,398.046 97.95,331.961 180.006,414.017 171.785,422.16 115.097,478.926 115.019,478.926 113.923,480.023 113.844,479.945 113.375,479.474 113.297,479.474 73.6,439.701 "
   id="polygon9427"
   transform="matrix(0.34579491,0,0,0.34579491,149.36433,-70.75725)" /><path
   style="fill:#e6e6e6;stroke-width:0.345795"
   d="m 326.21733,-47.370795 c -0.21681,0.947133 -0.70404,1.867984 -1.43505,2.598995 l -12.42718,12.426831 -2.65328,2.653285 -1.43505,1.435049 c -2.16606,2.166059 -5.73985,2.166059 -7.93288,0 l -8.20364,-8.203639 -8.23095,-8.230956 c -2.19303,-2.192686 -2.19303,-5.766476 0,-7.932881 l 1.43504,-1.435049 2.65329,-2.653284 3.30303,-3.303033 9.09718,-9.123453 c 0.731,-0.731011 1.65151,-1.218927 2.62631,-1.435049 1.84101,-0.487225 3.89883,0 5.33389,1.435049 l 8.20363,8.230956 8.23061,8.202947 c 1.43505,1.435049 1.92228,3.492528 1.43505,5.334232 z"
   id="path9429" /><polygon
   style="fill:#9b6d46"
   points="471.351,111.085 477.145,116.88 404.72,189.306 363.692,148.276 322.664,107.248 395.089,34.823 "
   id="polygon9431"
   transform="matrix(0.34579491,0,0,0.34579491,149.36433,-70.75725)" /><polygon
   style="fill:#fbf3bd"
   points="480.903,101.533 486.697,107.248 477.145,116.88 469.472,124.473 463.678,118.757 393.21,48.29 387.416,42.498 404.641,25.271 "
   id="polygon9433"
   transform="matrix(0.34579491,0,0,0.34579491,149.36433,-70.75725)" /><polygon
   style="fill:#ff803b;fill-opacity:1"
   points="376.846,135.122 417.874,176.072 404.72,189.306 309.901,284.123 180.006,414.017 171.785,422.16 130.835,381.134 89.808,340.105 97.95,331.961 227.845,202.067 322.664,107.248 335.818,94.095 "
   id="polygon9435"
   transform="matrix(0.34579491,0,0,0.34579491,149.36433,-70.75725)" /><path
   style="fill:#fbe6b7;stroke-width:0.345795"
   d="m 189.13731,94.852923 -0.37899,0.108579 -0.1895,0.08126 h -0.027 l -24.93597,7.229538 c -0.027,-0.0543 -0.0543,-0.082 -0.0543,-0.13556 -1.08303,-2.08479 -2.46379,-4.061356 -4.22354,-5.821452 -1.75975,-1.759752 -3.73631,-3.167481 -5.84808,-4.223887 -0.027,-0.02627 -0.0813,-0.02627 -0.10823,-0.05429 l 7.22919,-24.935965 0.0813,-0.243095 0.10858,-0.379335 0.29773,0.298075 13.88885,13.889545 0.51454,0.514195 13.34803,13.347684 z"
   id="path9437" /><path
   style="fill:#595a59;stroke-width:0.345795"
   d="m 163.76807,102.08246 -0.21647,0.0543 -0.027,0.027 -9.17844,2.68026 -4.98187,1.43505 1.43505,-4.98187 2.68026,-9.205754 0.0813,-0.243089 c 2.13909,1.082681 4.1696,2.49076 5.95666,4.278173 1.78673,1.786377 3.1948,3.816885 4.25051,5.95597 z"
   id="path9439" /><polygon
   style="fill:#ff803b;fill-opacity:1"
   points="115.097,478.926 113.766,480.258 113.844,479.945 113.923,479.239 114.158,477.987 122.457,431.087 75.557,439.387 73.6,439.701 71.955,440.012 71.877,440.012 72.19,438.29 72.504,436.333 80.803,389.432 33.903,397.732 32.728,397.968 31.945,398.124 31.789,398.124 97.95,331.961 227.845,202.067 309.901,284.123 180.006,414.017 "
   id="polygon9441"
   transform="matrix(0.34579491,0,0,0.34579491,149.36433,-70.75725)" /><path
   style="opacity:0.08;fill:#040000;stroke-width:0.345795"
   d="m 315.67093,-35.656992 9.10271,-9.102705 c 2.18369,-2.183696 2.18335,-5.756103 0,-7.939797 l -8.21747,-8.217471 -167.18631,167.186305 14.16514,-4.11081 c 0.0193,0.038 0.0429,0.0743 0.0616,0.11239 l 24.95672,-7.241986 0.16944,0.169436 -0.0194,0.109621 0.0647,-0.06467 20.01046,-20.010462 2.82721,-2.827219 44.9281,-44.928096 32.78102,-32.7810092 4.55826,-4.5582684 17.84233,-17.8423254 2.63253,-2.632537 3.3224,-3.322397 z"
   id="path9445" /><path
   style="fill:#595a59;fill-opacity:1;stroke:#595a59;stroke-width:9.2695;stroke-linecap:round;stroke-linejoin:round;stroke-dasharray:none;stroke-opacity:1"
   d="M 61.686435,80.391012 149.36433,106.27902"
   id="path11032"
   sodipodi:nodetypes="cc" /><path
   d="M 388.6185,117.22942 H 364.76782 V 19.07468 h 29.2018 l 15.90045,52.44093 15.90046,-52.44093 h 29.2018 v 98.15474 h -23.6978 V 54.85071 L 419.04341,95.97785 H 400.69673 L 388.6185,55.15649 Z"
   id="path14680"
   style="font-weight:bold;font-size:152.889px;font-family:Teko;-inkscape-font-specification:'Teko Bold';text-align:center;text-anchor:middle;fill:#ff803b;stroke-width:23.7524;stroke-linecap:round;stroke-linejoin:round" /><path
   d="M 503.74393,95.82496 V 62.34227 q 0,-3.36356 -3.82222,-3.36356 h -4.128 q -3.82223,0 -3.82223,3.36356 v 33.48269 q 0,3.36356 3.82223,3.36356 h 4.128 q 3.82222,0 3.82222,-3.36356 z M 488.14926,40.93781 h 19.4169 q 11.61956,0 16.6649,4.89245 5.04534,4.89244 5.04534,14.06578 v 38.37515 q 0,9.17334 -5.04534,14.06578 -5.04534,4.89245 -16.6649,4.89245 h -19.4169 q -11.61957,0 -16.66491,-4.89245 -5.04533,-4.89244 -5.04533,-14.06578 V 59.89604 q 0,-9.17334 5.04533,-14.06578 5.04534,-4.89245 16.66491,-4.89245 z"
   id="path14682"
   style="font-weight:bold;font-size:152.889px;font-family:Teko;-inkscape-font-specification:'Teko Bold';text-align:center;text-anchor:middle;fill:#ff803b;stroke-width:23.7524;stroke-linecap:round;stroke-linejoin:round" /><path
   d="m 569.02768,98.1183 h 2.59912 q 4.128,0 4.128,-4.58667 V 64.6356 q 0,-4.58667 -4.128,-4.58667 h -2.59912 q -3.82222,0 -3.82222,3.36356 v 31.34225 q 0,3.36356 3.82222,3.36356 z m 6.72712,-83.17162 h 25.99113 v 102.28274 h -25.53246 v -9.78489 q -2.14045,9.78489 -13.9129,9.78489 h -2.752 q -20.33424,0 -20.33424,-18.95823 V 59.89604 q 0,-18.95823 20.33424,-18.95823 h 2.752 q 10.54934,0 13.45423,8.256 z"
   id="path14684"
   style="font-weight:bold;font-size:152.889px;font-family:Teko;-inkscape-font-specification:'Teko Bold';text-align:center;text-anchor:middle;fill:#ff803b;stroke-width:23.7524;stroke-linecap:round;stroke-linejoin:round" /><path
   d="M 639.96819,117.22942 H 613.97706 V 40.93781 h 25.99113 z M 613.51839,33.29336 V 14.94668 h 26.90847 v 18.34668 z"
   id="path14686"
   style="font-weight:bold;font-size:152.889px;font-family:Teko;-inkscape-font-specification:'Teko Bold';text-align:center;text-anchor:middle;fill:#ff803b;stroke-width:23.7524;stroke-linecap:round;stroke-linejoin:round" /><path
   d="m 693.32645,33.29336 h -8.10312 q -3.82223,0 -3.82223,3.36356 v 4.28089 h 11.92535 V 60.04893 H 681.4011 v 57.18049 H 655.40997 V 60.04893 h -7.79734 V 40.93781 h 7.79734 v -7.0329 q 0,-18.95823 22.47469,-18.95823 h 15.44179 z"
   id="path14688"
   style="font-weight:bold;font-size:152.889px;font-family:Teko;-inkscape-font-specification:'Teko Bold';text-align:center;text-anchor:middle;fill:#ff803b;stroke-width:23.7524;stroke-linecap:round;stroke-linejoin:round" /><path
   d="M 726.19745,117.22942 H 700.20632 V 40.93781 h 25.99113 z M 699.74766,33.29336 V 14.94668 h 26.90846 v 18.34668 z"
   id="path14690"
   style="font-weight:bold;font-size:152.889px;font-family:Teko;-inkscape-font-specification:'Teko Bold';text-align:center;text-anchor:middle;fill:#ff803b;stroke-width:23.7524;stroke-linecap:round;stroke-linejoin:round" /><path
   d="m 798.20818,70.44539 h -25.07379 v -7.0329 q 0,-3.36356 -3.82223,-3.36356 h -2.59911 q -3.82223,0 -3.82223,3.36356 v 31.34225 q 0,3.36356 3.82223,3.36356 h 2.59911 q 3.82223,0 3.82223,-3.36356 v -7.0329 h 25.07379 v 10.54935 q 0,18.95823 -22.47468,18.95823 h -16.35912 q -22.47469,0 -22.47469,-18.95823 V 59.89604 q 0,-18.95823 22.47469,-18.95823 h 16.35912 q 22.47468,0 22.47468,18.95823 z"
   id="path14692"
   style="font-weight:bold;font-size:152.889px;font-family:Teko;-inkscape-font-specification:'Teko Bold';text-align:center;text-anchor:middle;fill:#ff803b;stroke-width:23.7524;stroke-linecap:round;stroke-linejoin:round" /><path
   d="m 835.666,98.1183 h 2.5991 q 4.128,0 4.128,-4.58667 V 64.6356 q 0,-4.58667 -4.128,-4.58667 h -2.5991 q -3.8222,0 -3.8222,3.36356 v 31.34225 q 0,3.36356 3.8222,3.36356 z m 7.1858,-57.18049 h 25.5325 v 76.29161 h -25.9912 v -8.256 q -2.9049,8.256 -13.4542,8.256 h -2.752 q -20.33424,0 -20.33424,-18.95823 V 59.89604 q 0,-18.95823 20.33424,-18.95823 h 2.752 q 11.7725,0 13.9129,9.78489 z"
   id="path14694"
   style="font-weight:bold;font-size:152.889px;font-family:Teko;-inkscape-font-specification:'Teko Bold';text-align:center;text-anchor:middle;fill:#ff803b;stroke-width:23.7524;stroke-linecap:round;stroke-linejoin:round" /><path
   d="m 948.4983,38.18581 h -10.5494 v 25.99113 h 10.5494 q 3.8222,0 3.8222,-3.36356 V 41.54936 q 0,-3.36355 -3.8222,-3.36355 z m -10.5494,44.18492 v 34.85869 H 911.1934 V 19.07468 h 45.408 q 22.4747,0 22.4747,18.95824 v 25.37957 q 0,14.52446 -13.1485,17.88802 l 18.0409,35.92891 H 955.2254 L 939.6307,82.37073 Z"
   id="path14696"
   style="font-weight:bold;font-size:152.889px;font-family:Teko;-inkscape-font-specification:'Teko Bold';text-align:center;text-anchor:middle;fill:#2a49cb;fill-opacity:1;stroke-width:23.7524;stroke-linecap:round;stroke-linejoin:round" /><path
   d="M 1015.7694,117.22942 H 989.7783 V 40.93781 h 25.9911 z M 989.3196,33.29336 V 14.94668 h 26.9085 v 18.34668 z"
   id="path14698"
   style="font-weight:bold;font-size:152.889px;font-family:Teko;-inkscape-font-specification:'Teko Bold';text-align:center;text-anchor:middle;fill:#2a49cb;fill-opacity:1;stroke-width:23.7524;stroke-linecap:round;stroke-linejoin:round" /><path
   d="m 1087.7801,70.44539 h -25.0738 v -7.0329 q 0,-3.36356 -3.8222,-3.36356 h -2.5991 q -3.8222,0 -3.8222,3.36356 v 31.34225 q 0,3.36356 3.8222,3.36356 h 2.5991 q 3.8222,0 3.8222,-3.36356 v -7.0329 h 25.0738 v 10.54935 q 0,18.95823 -22.4746,18.95823 h -16.3592 q -22.4746,0 -22.4746,-18.95823 V 59.89604 q 0,-18.95823 22.4746,-18.95823 h 16.3592 q 22.4746,0 22.4746,18.95823 z"
   id="path14700"
   style="font-weight:bold;font-size:152.889px;font-family:Teko;-inkscape-font-specification:'Teko Bold';text-align:center;text-anchor:middle;fill:#2a49cb;fill-opacity:1;stroke-width:23.7524;stroke-linecap:round;stroke-linejoin:round" /><path
   d="m 1136.3988,40.93781 h 2.7521 q 20.3342,0 20.3342,18.95823 v 57.33338 H 1133.494 V 63.41249 q 0,-3.36356 -3.8223,-3.36356 h -2.5991 q -4.128,0 -4.128,4.58667 v 52.59382 h -25.9911 V 14.94668 h 25.9911 v 34.24713 q 2.9049,-8.256 13.4542,-8.256 z"
   id="path14702"
   style="font-weight:bold;font-size:152.889px;font-family:Teko;-inkscape-font-specification:'Teko Bold';text-align:center;text-anchor:middle;fill:#2a49cb;fill-opacity:1;stroke-width:23.7524;stroke-linecap:round;stroke-linejoin:round" /><path
   d="m 1196.9428,117.22942 h -25.9911 V 40.93781 h 25.9911 z M 1170.493,33.29336 V 14.94668 h 26.9085 v 18.34668 z"
   id="path14704"
   style="font-weight:bold;font-size:152.889px;font-family:Teko;-inkscape-font-specification:'Teko Bold';text-align:center;text-anchor:middle;fill:#2a49cb;fill-opacity:1;stroke-width:23.7524;stroke-linecap:round;stroke-linejoin:round" /><path
   d="m 1232.2601,71.82139 h 14.3716 v -9.63201 q 0,-3.36356 -3.8222,-3.36356 h -6.7272 q -3.8222,0 -3.8222,3.36356 z m -2.1404,-30.88358 h 18.6524 q 22.4747,0 22.4747,18.95823 v 25.99114 h -38.9867 v 10.09067 q 0,3.36356 3.8222,3.36356 h 6.7272 q 3.8222,0 3.8222,-3.66934 v -4.28089 h 24.6151 v 6.88001 q 0,18.95823 -22.4747,18.95823 h -18.6524 q -22.4747,0 -22.4747,-18.95823 V 59.89604 q 0,-18.95823 22.4747,-18.95823 z"
   id="path14706"
   style="font-weight:bold;font-size:152.889px;font-family:Teko;-inkscape-font-specification:'Teko Bold';text-align:center;text-anchor:middle;fill:#2a49cb;fill-opacity:1;stroke-width:23.7524;stroke-linecap:round;stroke-linejoin:round" /><path
   d="m 1314.0559,97.04807 v -6.11556 q 0,-3.36355 -3.8222,-3.36355 h -9.3263 q -22.016,0 -22.016,-18.80535 v -8.86757 q 0,-18.95823 22.4747,-18.95823 h 14.2187 q 22.4747,0 22.4747,18.95823 v 6.42134 h -24.7681 v -5.19822 q 0,-3.36356 -3.8222,-3.36356 h -1.5289 q -3.8222,0 -3.8222,3.36356 v 6.72711 q 0,3.36356 3.8222,3.36356 h 9.3263 q 11.7724,0 16.8177,4.89245 5.1983,4.73956 5.1983,13.76001 v 8.4089 q 0,18.95823 -22.4747,18.95823 h -14.9831 q -22.4747,0 -22.4747,-18.95823 v -6.26845 h 25.2267 v 5.04533 q 0,3.36356 3.8222,3.36356 h 1.8347 q 3.8222,0 3.8222,-3.36356 z"
   id="path14708"
   style="font-weight:bold;font-size:152.889px;font-family:Teko;-inkscape-font-specification:'Teko Bold';text-align:center;text-anchor:middle;fill:#2a49cb;fill-opacity:1;stroke-width:23.7524;stroke-linecap:round;stroke-linejoin:round" /><path
   d="m 1387.9012,60.04893 h -9.632 v 34.70581 q 0,3.36356 3.8222,3.36356 h 5.6569 v 19.11112 h -12.9956 q -22.4747,0 -22.4747,-18.95823 V 60.04893 h -8.4088 V 40.93781 h 8.4088 V 25.95469 h 25.9912 v 14.98312 h 9.632 z"
   id="path14710"
   style="font-weight:bold;font-size:152.889px;font-family:Teko;-inkscape-font-specification:'Teko Bold';text-align:center;text-anchor:middle;fill:#2a49cb;fill-opacity:1;stroke-width:23.7524;stroke-linecap:round;stroke-linejoin:round" /><path
   d="m 1423.8301,98.1183 h 2.5991 q 4.128,0 4.128,-4.58667 V 64.6356 q 0,-4.58667 -4.128,-4.58667 h -2.5991 q -3.8222,0 -3.8222,3.36356 v 31.34225 q 0,3.36356 3.8222,3.36356 z m 7.1858,-57.18049 h 25.5325 v 76.29161 h -25.9912 v -8.256 q -2.9049,8.256 -13.4542,8.256 h -2.752 q -20.3342,0 -20.3342,-18.95823 V 59.89604 q 0,-18.95823 20.3342,-18.95823 h 2.752 q 11.7725,0 13.9129,9.78489 z"
   id="path14712"
   style="font-weight:bold;font-size:152.889px;font-family:Teko;-inkscape-font-specification:'Teko Bold';text-align:center;text-anchor:middle;fill:#2a49cb;fill-opacity:1;stroke-width:23.7524;stroke-linecap:round;stroke-linejoin:round" /><path
   d="M 1540.4846,62.64805 V 41.54936 q 0,-3.36355 -3.8223,-3.36355 h -10.5493 v 27.8258 h 10.5493 q 3.8223,0 3.8223,-3.36356 z m -41.1272,-43.57337 h 45.4081 q 22.4746,0 22.4746,18.95824 v 28.13157 q 0,18.95824 -22.4746,18.95824 h -18.6525 v 32.10669 h -26.7556 z"
   id="path14714"
   style="font-weight:bold;font-size:152.889px;font-family:Teko;-inkscape-font-specification:'Teko Bold';text-align:center;text-anchor:middle;fill:#2a49cb;fill-opacity:1;stroke-width:23.7524;stroke-linecap:round;stroke-linejoin:round" /><path
   d="m 1618.4578,40.17336 h 2.2933 v 22.62758 h -8.7146 q -9.632,0 -9.632,10.39645 v 44.03203 h -25.9912 V 40.93781 h 25.5325 v 11.77245 q 1.2231,-5.80978 5.504,-9.17334 4.2809,-3.36356 11.008,-3.36356 z"
   id="path14716"
   style="font-weight:bold;font-size:152.889px;font-family:Teko;-inkscape-font-specification:'Teko Bold';text-align:center;text-anchor:middle;fill:#2a49cb;fill-opacity:1;stroke-width:23.7524;stroke-linecap:round;stroke-linejoin:round" /><path
   d="m 1655.9156,98.1183 h 2.5991 q 4.128,0 4.128,-4.58667 V 64.6356 q 0,-4.58667 -4.128,-4.58667 h -2.5991 q -3.8223,0 -3.8223,3.36356 v 31.34225 q 0,3.36356 3.8223,3.36356 z m 7.1857,-57.18049 h 25.5325 v 76.29161 h -25.9911 v -8.256 q -2.9049,8.256 -13.4543,8.256 h -2.752 q -20.3342,0 -20.3342,-18.95823 V 59.89604 q 0,-18.95823 20.3342,-18.95823 h 2.752 q 11.7725,0 13.9129,9.78489 z"
   id="path14718"
   style="font-weight:bold;font-size:152.889px;font-family:Teko;-inkscape-font-specification:'Teko Bold';text-align:center;text-anchor:middle;fill:#2a49cb;fill-opacity:1;stroke-width:23.7524;stroke-linecap:round;stroke-linejoin:round" /><path
   d="m 1739.5458,60.04893 h -9.632 v 34.70581 q 0,3.36356 3.8222,3.36356 h 5.6569 v 19.11112 h -12.9956 q -22.4747,0 -22.4747,-18.95823 V 60.04893 h -8.4089 V 40.93781 h 8.4089 V 25.95469 h 25.9912 v 14.98312 h 9.632 z"
   id="path14720"
   style="font-weight:bold;font-size:152.889px;font-family:Teko;-inkscape-font-specification:'Teko Bold';text-align:center;text-anchor:middle;fill:#2a49cb;fill-opacity:1;stroke-width:23.7524;stroke-linecap:round;stroke-linejoin:round" /><path
   d="m 1773.1813,117.22942 h -25.9911 V 40.93781 h 25.9911 z M 1746.7315,33.29336 V 14.94668 h 26.9085 v 18.34668 z"
   id="path14722"
   style="font-weight:bold;font-size:152.889px;font-family:Teko;-inkscape-font-specification:'Teko Bold';text-align:center;text-anchor:middle;fill:#2a49cb;fill-opacity:1;stroke-width:23.7524;stroke-linecap:round;stroke-linejoin:round" /><path
   d="m 1845.1921,70.44539 h -25.0738 v -7.0329 q 0,-3.36356 -3.8223,-3.36356 h -2.5991 q -3.8222,0 -3.8222,3.36356 v 31.34225 q 0,3.36356 3.8222,3.36356 h 2.5991 q 3.8223,0 3.8223,-3.36356 v -7.0329 h 25.0738 v 10.54935 q 0,18.95823 -22.4747,18.95823 h -16.3591 q -22.4747,0 -22.4747,-18.95823 V 59.89604 q 0,-18.95823 22.4747,-18.95823 h 16.3591 q 22.4747,0 22.4747,18.95823 z"
   id="path14724"
   style="font-weight:bold;font-size:152.889px;font-family:Teko;-inkscape-font-specification:'Teko Bold';text-align:center;text-anchor:middle;fill:#2a49cb;fill-opacity:1;stroke-width:23.7524;stroke-linecap:round;stroke-linejoin:round" /><path
   d="m 1882.6499,98.1183 h 2.5992 q 4.128,0 4.128,-4.58667 V 64.6356 q 0,-4.58667 -4.128,-4.58667 h -2.5992 q -3.8222,0 -3.8222,3.36356 v 31.34225 q 0,3.36356 3.8222,3.36356 z m 7.1858,-57.18049 h 25.5325 v 76.29161 h -25.9911 v -8.256 q -2.9049,8.256 -13.4543,8.256 h -2.752 q -20.3342,0 -20.3342,-18.95823 V 59.89604 q 0,-18.95823 20.3342,-18.95823 h 2.752 q 11.7725,0 13.9129,9.78489 z"
   id="path14726"
   style="font-weight:bold;font-size:152.889px;font-family:Teko;-inkscape-font-specification:'Teko Bold';text-align:center;text-anchor:middle;fill:#2a49cb;fill-opacity:1;stroke-width:23.7524;stroke-linecap:round;stroke-linejoin:round" /></g></g></svg>
