<?xml version="1.0" encoding="UTF-8" standalone="no"?>
<!-- Created with Inkscape (http://www.inkscape.org/) -->

<svg
   width="748"
   height="48"
   viewBox="0 0 197.90833 12.7"
   version="1.1"
   id="svg5"
   inkscape:version="1.2.2 (b0a8486541, 2022-12-01)"
   sodipodi:docname="request_unupdatable_logo.svg"
   xml:space="preserve"
   xmlns:inkscape="http://www.inkscape.org/namespaces/inkscape"
   xmlns:sodipodi="http://sodipodi.sourceforge.net/DTD/sodipodi-0.dtd"
   xmlns="http://www.w3.org/2000/svg"
   xmlns:svg="http://www.w3.org/2000/svg"><sodipodi:namedview
     id="namedview7"
     pagecolor="#ffffff"
     bordercolor="#000000"
     borderopacity="0.25"
     inkscape:showpageshadow="false"
     inkscape:pageopacity="0.0"
     inkscape:pagecheckerboard="0"
     inkscape:deskcolor="#d1d1d1"
     inkscape:document-units="px"
     showgrid="false"
     inkscape:zoom="4.0365799"
     inkscape:cx="258.88253"
     inkscape:cy="18.208484"
     inkscape:window-width="2527"
     inkscape:window-height="1408"
     inkscape:window-x="33"
     inkscape:window-y="0"
     inkscape:window-maximized="1"
     inkscape:current-layer="g347" /><defs
     id="defs2">
			
			
			
			
			
			
			
		
				
				
				
				
			
				
				
				
			
					
					
				
					
					
					
				
		
		
	
	
	
	

		
		
		
		
		
		
		
		
	
		
		
		
		
		
		
		
		
	</defs><g
     inkscape:label="Livello 1"
     inkscape:groupmode="layer"
     id="layer1"><g
       id="g347"
       transform="matrix(0.04446936,0,0,0.04446936,6.3827961,3.4111066)">
	
	
<circle
   style="fill:#2a49cb;fill-opacity:1;stroke-width:0.534551"
   cx="1763.4376"
   cy="66.088051"
   r="136.84515"
   id="circle15288" /><path
   style="fill:#1f389e;fill-opacity:1;stroke-width:0.534551"
   d="m 1709.2988,119.45606 80.861,80.86106 c 54.141,-10.71829 96.7897,-53.36801 107.508,-107.508448 L 1817.5,12.64093 Z"
   id="path15290" /><circle
   style="fill:#ffc61b;stroke-width:0.534551"
   cx="1763.4376"
   cy="66.088051"
   r="76.024971"
   id="circle15292" /><path
   style="fill:#eaa22f;stroke-width:0.534551"
   d="m 1839.4626,66.088051 c 0,-41.986874 -34.037,-76.0249688 -76.025,-76.0249688 V 142.11302 c 41.988,0 76.025,-34.03809 76.025,-76.024969 z"
   id="path15294" /><circle
   style="fill:#ffedb5;stroke-width:0.534551"
   cx="1733.0275"
   cy="50.88327"
   r="15.204781"
   id="circle15296" /><circle
   style="fill:#272525;stroke-width:0.534551"
   cx="1733.0275"
   cy="50.88327"
   r="7.6023903"
   id="circle15298" /><circle
   style="fill:#ffedb5;stroke-width:0.534551"
   cx="1793.8478"
   cy="50.88327"
   r="15.204781"
   id="circle15300" /><circle
   style="fill:#272525;stroke-width:0.534551"
   cx="1793.8478"
   cy="50.88327"
   r="7.6023903"
   id="circle15302" /><path
   style="fill:#c92f00;stroke-width:0.534551"
   d="m 1797.0711,108.56351 c -1.5786,0 -3.039,-1.021 -3.5238,-2.60968 -3.7729,-12.35028 -16.1552,-20.974732 -30.1108,-20.974732 -13.9544,0 -26.3362,8.624452 -30.1107,20.974732 -0.5955,1.9463 -2.6551,3.04213 -4.602,2.44771 -1.9473,-0.59549 -3.0426,-2.65565 -2.4477,-4.60196 4.7137,-15.421804 19.9949,-26.19248 37.1604,-26.19248 17.1677,0 32.4484,10.770676 37.1599,26.19248 0.5955,1.94631 -0.5014,4.00754 -2.4477,4.60196 -0.3581,0.10958 -0.7211,0.16197 -1.0776,0.16197 z"
   id="path15304" /><path
   style="fill:#930000;stroke-width:0.534551"
   d="m 1800.5975,103.79905 c -4.7126,-15.421809 -19.9933,-26.192485 -37.161,-26.192485 -0.1021,0 -0.2036,0.0053 -0.3057,0.0053 v 7.377879 c 0.1021,-0.0011 0.2036,-0.01176 0.3057,-0.01176 13.9556,0 26.3369,8.624452 30.1108,20.974736 0.4848,1.58868 1.9452,2.60968 3.5238,2.60968 0.3565,0 0.7189,-0.0524 1.0781,-0.16197 1.9474,-0.59442 3.0427,-2.65512 2.4483,-4.60142 z"
   id="path15306" /><path
   d="M 2014.2183,93.809553 V 38.366541 q 0,-3.505018 -3.9829,-3.505018 h -6.6914 q -3.983,0 -3.983,3.505018 v 55.443012 q 0,3.505018 3.983,3.505018 h 6.6914 q 3.9829,0 3.9829,-3.505018 z m -19.1182,-78.862905 h 23.5792 q 23.4199,0 23.4199,19.755556 V 97.47389 q 0,19.75556 -23.4199,19.75556 h -23.5792 q -23.4199,0 -23.4199,-19.75556 V 34.702204 q 0,-19.755556 23.4199,-19.755556 z"
   id="path15510"
   style="font-weight:bold;font-size:159.319px;font-family:Teko;-inkscape-font-specification:'Teko Bold';text-align:center;text-anchor:middle;fill:#ff803b;stroke-width:24.7513;stroke-linecap:round;stroke-linejoin:round" /><path
   d="M 2096.4271,93.809553 V 38.366541 q 0,-3.505018 -3.983,-3.505018 h -6.6914 q -3.983,0 -3.983,3.505018 v 55.443012 q 0,3.505018 3.983,3.505018 h 6.6914 q 3.983,0 3.983,-3.505018 z m -19.1183,-78.862905 h 23.5792 q 23.4199,0 23.4199,19.755556 V 97.47389 q 0,19.75556 -23.4199,19.75556 h -23.5792 q -23.4199,0 -23.4199,-19.75556 V 34.702204 q 0,-19.755556 23.4199,-19.755556 z"
   id="path15512"
   style="font-weight:bold;font-size:159.319px;font-family:Teko;-inkscape-font-specification:'Teko Bold';text-align:center;text-anchor:middle;fill:#ff803b;stroke-width:24.7513;stroke-linecap:round;stroke-linejoin:round" /><path
   d="M 2178.6358,93.809553 V 38.366541 q 0,-3.505018 -3.983,-3.505018 h -6.6914 q -3.983,0 -3.983,3.505018 v 55.443012 q 0,3.505018 3.983,3.505018 h 6.6914 q 3.983,0 3.983,-3.505018 z m -19.1183,-78.862905 h 23.5792 q 23.4199,0 23.4199,19.755556 V 97.47389 q 0,19.75556 -23.4199,19.75556 h -23.5792 q -23.4199,0 -23.4199,-19.75556 V 34.702204 q 0,-19.755556 23.4199,-19.755556 z"
   id="path15514"
   style="font-weight:bold;font-size:159.319px;font-family:Teko;-inkscape-font-specification:'Teko Bold';text-align:center;text-anchor:middle;fill:#ff803b;stroke-width:24.7513;stroke-linecap:round;stroke-linejoin:round" /><path
   d="M 2261.6411,60.352563 V 38.366541 q 0,-3.505018 -3.983,-3.505018 h -10.993 v 28.996058 h 10.993 q 3.983,0 3.983,-3.505018 z m -42.8568,-45.405915 h 47.3177 q 23.4199,0 23.4199,19.755556 V 64.0169 q 0,19.755556 -23.4199,19.755556 h -19.4369 v 33.456994 h -27.8808 z"
   id="path15516"
   style="font-weight:bold;font-size:159.319px;font-family:Teko;-inkscape-font-specification:'Teko Bold';text-align:center;text-anchor:middle;fill:#ff803b;stroke-width:24.7513;stroke-linecap:round;stroke-linejoin:round" /><path
   d="M 2338.2735,93.809553 V 79.311524 q 0,-3.505018 -3.983,-3.505018 h -15.2946 q -11.7896,0 -16.7285,-5.098208 -4.7796,-5.257527 -4.7796,-14.975986 V 34.702204 q 0,-19.755556 23.2606,-19.755556 h 21.8267 q 23.2606,0 23.2606,19.755556 v 12.267563 h -27.8808 v -8.603226 q 0,-3.505018 -3.983,-3.505018 h -4.6203 q -3.9829,0 -3.9829,3.505018 v 15.135305 q 0,3.505018 3.9829,3.505018 h 14.976 q 11.7896,0 16.7285,4.938889 5.0982,4.938889 5.0982,14.498029 V 97.47389 q 0,19.75556 -23.2605,19.75556 h -21.6674 q -23.4199,0 -23.4199,-19.75556 V 85.206327 h 27.8808 v 8.603226 q 0,3.505018 3.983,3.505018 h 4.6202 q 3.983,0 3.983,-3.505018 z"
   id="path15518"
   style="font-weight:bold;font-size:159.319px;font-family:Teko;-inkscape-font-specification:'Teko Bold';text-align:center;text-anchor:middle;fill:#ff803b;stroke-width:24.7513;stroke-linecap:round;stroke-linejoin:round" /><path
   d="m 2410.7636,14.946648 h 31.3859 l -4.7796,65.161471 h -21.8267 z m 1.9119,102.282802 V 91.10113 h 27.4028 v 26.12832 z"
   id="path15520"
   style="font-weight:bold;font-size:159.319px;font-family:Teko;-inkscape-font-specification:'Teko Bold';text-align:center;text-anchor:middle;fill:#ff803b;stroke-width:24.7513;stroke-linecap:round;stroke-linejoin:round" /><path
   d="m 2458.0815,14.946648 h 31.3858 l -4.7795,65.161471 h -21.8267 z m 1.9118,102.282802 V 91.10113 h 27.4029 v 26.12832 z"
   id="path15522"
   style="font-weight:bold;font-size:159.319px;font-family:Teko;-inkscape-font-specification:'Teko Bold';text-align:center;text-anchor:middle;fill:#ff803b;stroke-width:24.7513;stroke-linecap:round;stroke-linejoin:round" /><path
   d="m 2505.3994,14.946648 h 31.3858 l -4.7795,65.161471 h -21.8267 z m 1.9118,102.282802 V 91.10113 h 27.4029 v 26.12832 z"
   id="path15524"
   style="font-weight:bold;font-size:159.319px;font-family:Teko;-inkscape-font-specification:'Teko Bold';text-align:center;text-anchor:middle;fill:#ff803b;stroke-width:24.7513;stroke-linecap:round;stroke-linejoin:round" /></g></g></svg>
