<?xml version="1.0" encoding="UTF-8" standalone="no"?>
<!-- Created with Inkscape (http://www.inkscape.org/) -->

<svg
   width="420"
   height="74"
   viewBox="0 0 111.125 19.579166"
   version="1.1"
   id="svg5"
   inkscape:version="1.1.2 (0a00cf5339, 2022-02-04)"
   sodipodi:docname="subscription_type_index_logo.svg"
   xmlns:inkscape="http://www.inkscape.org/namespaces/inkscape"
   xmlns:sodipodi="http://sodipodi.sourceforge.net/DTD/sodipodi-0.dtd"
   xmlns="http://www.w3.org/2000/svg"
   xmlns:svg="http://www.w3.org/2000/svg">
  <sodipodi:namedview
     id="namedview7"
     pagecolor="#505050"
     bordercolor="#eeeeee"
     borderopacity="1"
     inkscape:pageshadow="0"
     inkscape:pageopacity="0"
     inkscape:pagecheckerboard="0"
     inkscape:document-units="px"
     showgrid="false"
     inkscape:showpageshadow="false"
     inkscape:zoom="2.8001429"
     inkscape:cx="221.41727"
     inkscape:cy="67.85368"
     inkscape:window-width="3034"
     inkscape:window-height="1696"
     inkscape:window-x="38"
     inkscape:window-y="0"
     inkscape:window-maximized="1"
     inkscape:current-layer="layer1"
     inkscape:snap-global="false"
     inkscape:snap-bbox="false"
     units="px"
     inkscape:snap-nodes="true" />
  <defs
     id="defs2" />
  <g
     inkscape:label="Livello 1"
     inkscape:groupmode="layer"
     id="layer1">
    <circle
       style="fill:#0064a3;fill-opacity:1;stroke-width:0.0330729"
       cx="9.5250006"
       cy="9.7895823"
       r="8.4666662"
       id="circle1004" />
    <path
       style="fill:#00548c;fill-opacity:1;stroke-width:0.0330729"
       d="M 17.991665,9.7895831 12.785173,4.8150422 8.3939388,10.792525 4.9313831,14.63821 9.5249993,18.256249 c 4.6759827,0 8.4666657,-3.790685 8.4666657,-8.4666659 z"
       id="path1006"
       sodipodi:nodetypes="cccccc" />
    <g
       id="path34461"
       style="fill:#0064a3;fill-opacity:1">
      <path
         style="color:#000000;fill:#0064a3;fill-opacity:1;stroke-width:0.926042;-inkscape-stroke:none"
         d="M 20.184966,14.143537 H 76.053449"
         id="path42950" />
      <path
         style="color:#000000;fill:#0064a3;fill-opacity:1;-inkscape-stroke:none"
         d="m 20.185547,13.679688 v 0.927734 h 88.931983 v -0.927734 z"
         id="path42952"
         sodipodi:nodetypes="ccccc" />
    </g>
    <g
       id="g109890"
       transform="matrix(0.74053107,0,0,0.74053107,17.817052,3.0344102)">
      <path
         style="fill:#6ab5d3;stroke-width:0.0272192"
         d="M -6.1277546,3.5152273 V 14.727594 c 0,0.749809 -0.6127596,1.362596 -1.3625952,1.362596 h -9.0334392 c -0.04154,0 -0.0831,-0.0021 -0.122542,-0.0062 -0.04154,-0.0021 -0.081,-0.0083 -0.120472,-0.0166 -0.02077,-0.0021 -0.04154,-0.0062 -0.06024,-0.01247 -0.114239,-0.02493 -0.224314,-0.06647 -0.324045,-0.120472 -0.0021,0 -0.0021,-0.0021 -0.0021,-0.0021 -0.0062,-0.0021 -0.01247,-0.0042 -0.01663,-0.0083 -0.03947,-0.02079 -0.07687,-0.04363 -0.11217,-0.06856 -0.0436,-0.027 -0.08517,-0.05817 -0.122541,-0.09347 -0.027,-0.02079 -0.05194,-0.0457 -0.07684,-0.07063 -0.04777,-0.0457 -0.0914,-0.09761 -0.13087,-0.151638 -0.01247,-0.0166 -0.02493,-0.0353 -0.0374,-0.05193 -0.02907,-0.04154 -0.0561,-0.08514 -0.07684,-0.128775 -0.02077,-0.03533 -0.0374,-0.0727 -0.05194,-0.110074 -0.01663,-0.0374 -0.03117,-0.07687 -0.04363,-0.118404 -0.01037,-0.027 -0.01663,-0.05193 -0.02284,-0.081 -0.0062,-0.02284 -0.01247,-0.04777 -0.01663,-0.0727 -0.0042,-0.02079 -0.0062,-0.0436 -0.01037,-0.0644 0,-0.0042 -0.0021,-0.0083 -0.0021,-0.01244 -0.0062,-0.0561 -0.01037,-0.114266 -0.01037,-0.172379 V 7.0359816 l 4.881227,-4.8812808 h 5.5127122 c 0.1599403,0 0.3136473,0.026974 0.454888,0.080977 0.3863499,0.1350346 0.6916953,0.4424487 0.8267027,0.8267027 0.027001,0.066497 0.045701,0.1350347 0.058167,0.2056686 0.0083,0.039441 0.012466,0.081004 0.016631,0.1204724 0.00414,0.041509 0.00621,0.085169 0.00621,0.1267055 z"
         id="path62105" />
      <path
         stroke="#979797"
         stroke-linecap="square"
         stroke-width="0.815207"
         d="m -15.632684,6.1767803 h 7.7444683 M -15.632684,7.807195 h 4.891243 m -4.891243,1.6304149 h 2.445621 m 1.630414,0 h 2.4456231"
         id="path62253"
         style="fill:#0064a3;fill-opacity:1;fill-rule:evenodd" />
      <path
         style="fill:#4884b9;stroke-width:0.0272192"
         d="m -14.365576,7.035655 c 0.749155,0 1.362105,-0.6129501 1.362105,-1.3621053 v -3.519611 l -4.881716,4.8817163 z"
         id="path62107" />
      <path
         style="opacity:0.06;fill:#040000;stroke-width:0.0272192"
         d="M -6.1277546,3.5152273 V 14.727594 c 0,0.749809 -0.6127596,1.362596 -1.3625952,1.362596 h -9.0334392 c -0.04154,0 -0.0831,-0.0021 -0.122542,-0.0062 -0.04154,-0.0021 -0.081,-0.0083 -0.120472,-0.0166 -0.02077,-0.0021 -0.04154,-0.0062 -0.06024,-0.01247 -0.114239,-0.02493 -0.224314,-0.06647 -0.324045,-0.120472 -0.0021,0 -0.0021,-0.0021 -0.0021,-0.0021 -0.0062,-0.0021 -0.01247,-0.0042 -0.01663,-0.0083 -0.03947,-0.02079 -0.07687,-0.04363 -0.11217,-0.06856 -0.0436,-0.027 -0.08517,-0.05817 -0.122541,-0.09347 -0.027,-0.02079 -0.05194,-0.0457 -0.07684,-0.07063 -0.04777,-0.0457 -0.0914,-0.09761 -0.13087,-0.151638 -0.01247,-0.0166 -0.02493,-0.0353 -0.0374,-0.05193 -0.02907,-0.04154 -0.0561,-0.08514 -0.07684,-0.128775 -0.02077,-0.03533 -0.0374,-0.0727 -0.05194,-0.110074 -0.01663,-0.0374 -0.03117,-0.07687 -0.04363,-0.118404 -0.01037,-0.027 -0.01663,-0.05193 -0.02284,-0.081 -0.0062,-0.02284 -0.01247,-0.04777 -0.01663,-0.0727 l 5.562578,-5.5625783 0.319881,-0.3178119 0.270015,-0.2720835 h 0.0021 l 5.5563454,-5.5563179 c 0.0083,0.039441 0.012466,0.081004 0.016631,0.1204724 0.00414,0.041509 0.00621,0.085169 0.00621,0.1267055 z"
         id="path62111" />
      <path
         style="opacity:0.1;fill:#040000;stroke-width:0.0272192"
         d="m -6.140221,14.345382 v 0.307414 c 0,0.747794 -0.6127596,1.360526 -1.3605265,1.360526 h -9.0334395 c -0.299112,0 -0.577456,-0.09761 -0.80177,-0.263808 -0.116308,-0.0831 -0.216039,-0.184874 -0.301181,-0.301181 -0.101773,-0.141268 -0.17864,-0.301208 -0.220176,-0.475684 -0.0062,-0.01873 -0.01037,-0.03944 -0.01454,-0.06024 0,-0.0042 -0.0021,-0.0083 -0.0021,-0.01244 l 0.06854,-0.06644 c 0.0083,0.02074 0.01663,0.04154 0.02493,0.06231 0.213943,0.475656 0.693764,0.812167 1.246287,0.812167 h 9.0334669 c 0.7477398,0 1.3604721,-0.612759 1.3604721,-1.362622 z"
         id="path62115" />
      <rect
         width="7.4180446"
         height="1.7118565"
         x="-14.947664"
         fill="#325aa6"
         id="rect62255"
         y="2.2355015"
         transform="rotate(-45)"
         style="fill:#cccccc;fill-rule:evenodd;stroke-width:0.285309" />
      <rect
         width="1.1412376"
         height="1.1412376"
         x="-7.5296192"
         y="2.5208111"
         fill="#5ea7ff"
         id="rect62257"
         transform="rotate(-45)"
         style="fill:#ff2a2a;fill-rule:evenodd;stroke-width:0.285309" />
      <path
         style="color:#000000;fill:#0064a3;fill-rule:evenodd;stroke-linecap:round;stroke-linejoin:round;-inkscape-stroke:none"
         d="m -13.847656,12.021484 c -0.154875,0.04293 -0.235024,0.13024 -0.31836,0.222657 -0.16667,0.184833 -0.31779,0.438008 -0.46289,0.707031 -0.290202,0.538045 -0.53711,1.130859 -0.53711,1.130859 a 0.28530949,0.28530949 0 0 0 0.154297,0.373047 0.28530949,0.28530949 0 0 0 0.373047,-0.154297 c 0,0 0.240677,-0.575603 0.511719,-1.078125 0.08313,-0.154133 0.157687,-0.248446 0.236328,-0.365234 0.0025,0.172668 0.0309,0.302501 -0.02148,0.513672 -0.08803,0.354879 -0.210938,0.654297 -0.210938,0.654297 -2.2e-5,5.9e-5 -0.002,0.0059 -0.002,0.0059 a 0.28533802,0.28533802 0 0 0 0.529297,0.212891 c 0,0 0.0019,-0.0058 0.002,-0.0059 0,0 0.09583,-0.240009 0.212891,-0.425781 0.03226,-0.05121 0.05149,-0.06704 0.08008,-0.09961 0.0609,0.0923 0.124419,0.201576 0.152343,0.332031 0.03614,0.168841 0.03906,0.302734 0.03906,0.302734 a 0.28533802,0.28533802 0 0 0 0.472656,0.210938 l 0.556641,-0.482422 c 0.05302,0.104112 0.04738,0.129062 0.136719,0.251953 0.106098,0.145946 0.238416,0.294038 0.417968,0.400391 0.179553,0.106352 0.424196,0.160883 0.664063,0.08594 a 0.28530949,0.28530949 0 0 0 0.185547,-0.357422 0.28530949,0.28530949 0 0 0 -0.357422,-0.1875 c -0.07861,0.02456 -0.125293,0.01485 -0.203125,-0.03125 -0.07783,-0.0461 -0.16825,-0.139014 -0.246094,-0.246093 -0.155687,-0.214159 -0.251953,-0.462891 -0.251953,-0.462891 a 0.28533802,0.28533802 0 0 0 -0.455078,-0.115234 l -0.458985,0.396484 c -0.05285,-0.202887 -0.11173,-0.429143 -0.30664,-0.611328 -0.08028,-0.07504 -0.199141,-0.130237 -0.314453,-0.13086 -0.03899,-2.1e-4 -0.06138,0.02293 -0.0957,0.03125 0.04791,-0.297869 0.142131,-0.601595 -0.01953,-0.878906 -0.03905,-0.06699 -0.09987,-0.136395 -0.189453,-0.177734 -0.08959,-0.04134 -0.196,-0.04295 -0.273437,-0.02149 z"
         id="path62265" />
      <rect
         width="1.3215854"
         height="0.30498126"
         x="-17.320675"
         fill="#325aa6"
         id="rect76507"
         y="2.9176931"
         transform="rotate(-45)"
         style="fill:#0064a3;fill-opacity:1;fill-rule:evenodd;stroke-width:0.0508301" />
      <rect
         width="2.4980779"
         height="0.57647955"
         x="-16.435202"
         fill="#325aa6"
         id="rect76505"
         y="2.773859"
         transform="rotate(-45)"
         style="fill:#cccccc;fill-rule:evenodd;stroke-width:0.0960798" />
    </g>
    <path
       d="m 20.10553,8.0124708 v -0.902368 h 3.716283 v 0.902368 H 22.492201 V 12.472747 H 21.40936 V 8.0124708 Z"
       style="font-weight:bold;font-size:7.54306px;line-height:1.25;font-family:'Roboto Condensed';-inkscape-font-specification:'Roboto Condensed,  Bold';fill:#0064a3;stroke-width:0.353581"
       id="path1017" />
    <path
       d="M 25.574985,7.1101028 V 12.472747 H 24.492144 V 7.1101028 Z"
       style="font-weight:bold;font-size:7.54306px;line-height:1.25;font-family:'Roboto Condensed';-inkscape-font-specification:'Roboto Condensed,  Bold';fill:#0064a3;stroke-width:0.353581"
       id="path1014" />
    <path
       d="m 27.571244,10.586982 v 1.885765 H 26.48472 V 7.1101028 h 1.830518 q 0.810289,0 1.274364,0.5045894 0.467758,0.5009063 0.467758,1.2706815 0,0.7771414 -0.464075,1.2375333 -0.460391,0.460392 -1.266998,0.464075 z m 0,-2.5745112 v 1.6721431 h 0.743994 q 0.338848,0 0.489857,-0.2209881 0.154691,-0.2246712 0.154691,-0.5708859 0,-0.3462146 -0.154691,-0.6114003 -0.151009,-0.2688688 -0.489857,-0.2688688 z"
       style="font-weight:bold;font-size:7.54306px;line-height:1.25;font-family:'Roboto Condensed';-inkscape-font-specification:'Roboto Condensed,  Bold';fill:#0064a3;stroke-width:0.353581"
       id="path1011" />
    <path
       d="m 34.550784,10.270232 q 0,1.134406 -0.530371,1.705292 -0.530371,0.570886 -1.395908,0.570886 -0.861854,0 -1.399591,-0.570886 -0.537738,-0.570886 -0.537738,-1.705292 V 9.3789137 q 0,-1.1601874 0.534055,-1.749489 0.534054,-0.5929846 1.395908,-0.5929846 0.865536,0 1.399591,0.5929846 0.534054,0.5893016 0.534054,1.749489 z M 33.467943,9.3715474 q 0,-0.766092 -0.217305,-1.0975741 -0.217305,-0.3314821 -0.633499,-0.3314821 -0.412511,0 -0.629816,0.327799 -0.213622,0.3241158 -0.217305,1.0717922 v 0.9281496 q 0,0.729261 0.217305,1.053377 0.220988,0.320433 0.637182,0.320433 0.412511,0 0.626133,-0.31675 0.213622,-0.31675 0.217305,-1.031278 z"
       style="font-weight:bold;font-size:7.54306px;line-height:1.25;font-family:'Roboto Condensed';-inkscape-font-specification:'Roboto Condensed,  Bold';fill:#0064a3;stroke-width:0.353581"
       id="path1008" />
    <path
       d="m 38.311265,11.574062 v 0.898685 H 35.327926 V 7.1101028 h 1.086525 v 4.4639592 z"
       style="font-weight:bold;font-size:7.54306px;line-height:1.25;font-family:'Roboto Condensed';-inkscape-font-specification:'Roboto Condensed,  Bold';fill:#0064a3;stroke-width:0.353581"
       id="path1005" />
    <path
       d="m 42.47689,10.270232 q 0,1.134406 -0.530372,1.705292 -0.530371,0.570886 -1.395908,0.570886 -0.861853,0 -1.399591,-0.570886 -0.537737,-0.570886 -0.537737,-1.705292 V 9.3789137 q 0,-1.1601874 0.534054,-1.749489 0.534055,-0.5929846 1.395908,-0.5929846 0.865537,0 1.399591,0.5929846 0.534055,0.5893016 0.534055,1.749489 z M 41.394048,9.3715474 q 0,-0.766092 -0.217305,-1.0975741 -0.217305,-0.3314821 -0.633499,-0.3314821 -0.412511,0 -0.629816,0.327799 -0.213622,0.3241158 -0.217305,1.0717922 v 0.9281496 q 0,0.729261 0.217305,1.053377 0.220988,0.320433 0.637182,0.320433 0.412511,0 0.626133,-0.31675 0.213622,-0.31675 0.217305,-1.031278 z"
       style="font-weight:bold;font-size:7.54306px;line-height:1.25;font-family:'Roboto Condensed';-inkscape-font-specification:'Roboto Condensed,  Bold';fill:#0064a3;stroke-width:0.353581"
       id="path1002" />
    <path
       d="M 46.904018,9.6514657 V 11.86503 q -0.169424,0.180473 -0.589301,0.430926 -0.419878,0.250454 -1.17492,0.250454 -0.895002,0 -1.43274,-0.56352 -0.534054,-0.567203 -0.534054,-1.734756 V 9.3383992 q 0,-1.1712368 0.511955,-1.7384395 0.511956,-0.5672028 1.388542,-0.5672028 0.909734,0 1.336978,0.4567087 0.427244,0.4530256 0.489857,1.3259285 h -1.049693 q -0.0442,-0.5045894 -0.217305,-0.6924293 -0.169425,-0.191523 -0.530372,-0.191523 -0.419877,0 -0.629816,0.3130664 -0.209938,0.3130665 -0.213622,1.0570597 v 0.9465661 q 0,0.762408 0.232038,1.082841 0.232037,0.31675 0.710845,0.31675 0.287284,0 0.416194,-0.07735 l 0.198889,-0.11786 V 10.469122 H 45.055084 V 9.6514657 Z"
       style="font-weight:bold;font-size:7.54306px;line-height:1.25;font-family:'Roboto Condensed';-inkscape-font-specification:'Roboto Condensed,  Bold';fill:#0064a3;stroke-width:0.353581"
       id="path999" />
    <path
       d="M 48.800833,7.1101028 V 12.472747 H 47.717991 V 7.1101028 Z"
       style="font-weight:bold;font-size:7.54306px;line-height:1.25;font-family:'Roboto Condensed';-inkscape-font-specification:'Roboto Condensed,  Bold';fill:#0064a3;stroke-width:0.353581"
       id="path996" />
    <path
       d="M 49.710567,12.472747 V 7.1101028 h 3.071734 v 0.902368 h -1.985209 v 1.2669983 h 1.683192 v 0.8729029 h -1.683192 v 1.42169 h 1.992576 v 0.898685 z"
       style="font-weight:bold;font-size:7.54306px;line-height:1.25;font-family:'Roboto Condensed';-inkscape-font-specification:'Roboto Condensed,  Bold';fill:#0064a3;stroke-width:0.353581"
       id="path993" />
    <path
       d="m 57.419367,11.062106 q 0,-0.276235 -0.136276,-0.453025 Q 57.150498,10.428607 56.579612,10.19657 56.008726,9.9645321 55.581483,9.6072681 55.128457,9.2279052 55.128457,8.5354759 q 0,-0.6776968 0.475125,-1.0865248 0.475124,-0.412511 1.2228,-0.412511 0.769775,0 1.226484,0.4640749 0.460392,0.464075 0.460392,1.1896525 h -1.082842 q 0,-0.3351652 -0.147325,-0.5524702 -0.143642,-0.2173049 -0.475124,-0.2173049 -0.305701,0 -0.453026,0.1804736 -0.143642,0.1804736 -0.143642,0.438293 0,0.2615026 0.217305,0.438293 0.220988,0.1767905 0.581935,0.3351653 0.75136,0.2688688 1.123356,0.6740136 0.371997,0.4051451 0.371997,1.0681091 0,0.707162 -0.44566,1.101257 -0.445659,0.390413 -1.211751,0.390413 -0.460392,0 -0.887635,-0.18784 -0.423561,-0.18784 -0.696113,-0.578252 -0.272552,-0.390413 -0.272552,-1.001813 h 1.086525 q 0,0.486174 0.191523,0.685063 0.195206,0.198889 0.578252,0.198889 0.313067,0 0.441976,-0.169424 0.12891,-0.173107 0.12891,-0.430927 z"
       style="font-weight:bold;font-size:7.54306px;line-height:1.25;font-family:'Roboto Condensed';-inkscape-font-specification:'Roboto Condensed,  Bold';fill:#0064a3;stroke-width:0.353581"
       id="path990" />
    <path
       d="m 62.999316,10.270232 q 0,1.134406 -0.530371,1.705292 -0.530371,0.570886 -1.395908,0.570886 -0.861853,0 -1.399591,-0.570886 -0.537738,-0.570886 -0.537738,-1.705292 V 9.3789137 q 0,-1.1601874 0.534055,-1.749489 0.534054,-0.5929846 1.395908,-0.5929846 0.865536,0 1.399591,0.5929846 0.534054,0.5893016 0.534054,1.749489 z M 61.916475,9.3715474 q 0,-0.766092 -0.217305,-1.0975741 -0.217305,-0.3314821 -0.633499,-0.3314821 -0.412511,0 -0.629816,0.327799 -0.213622,0.3241158 -0.217305,1.0717922 v 0.9281496 q 0,0.729261 0.217305,1.053377 0.220988,0.320433 0.637182,0.320433 0.412511,0 0.626133,-0.31675 0.213622,-0.31675 0.217305,-1.031278 z"
       style="font-weight:bold;font-size:7.54306px;line-height:1.25;font-family:'Roboto Condensed';-inkscape-font-specification:'Roboto Condensed,  Bold';fill:#0064a3;stroke-width:0.353581"
       id="path987" />
    <path
       d="m 63.223988,8.0124708 v -0.902368 h 3.716283 v 0.902368 H 65.610659 V 12.472747 H 64.527818 V 8.0124708 Z"
       style="font-weight:bold;font-size:7.54306px;line-height:1.25;font-family:'Roboto Condensed';-inkscape-font-specification:'Roboto Condensed,  Bold';fill:#0064a3;stroke-width:0.353581"
       id="path984" />
    <path
       d="m 67.382248,8.0124708 v -0.902368 h 3.716283 v 0.902368 H 69.76892 V 12.472747 H 68.686078 V 8.0124708 Z"
       style="font-weight:bold;font-size:7.54306px;line-height:1.25;font-family:'Roboto Condensed';-inkscape-font-specification:'Roboto Condensed,  Bold';fill:#0064a3;stroke-width:0.353581"
       id="path981" />
    <path
       d="m 75.393066,10.270232 q 0,1.134406 -0.530372,1.705292 -0.530371,0.570886 -1.395908,0.570886 -0.861853,0 -1.399591,-0.570886 -0.537738,-0.570886 -0.537738,-1.705292 V 9.3789137 q 0,-1.1601874 0.534055,-1.749489 0.534054,-0.5929846 1.395908,-0.5929846 0.865537,0 1.399591,0.5929846 0.534055,0.5893016 0.534055,1.749489 z M 74.310224,9.3715474 q 0,-0.766092 -0.217305,-1.0975741 -0.217305,-0.3314821 -0.633499,-0.3314821 -0.412511,0 -0.629816,0.327799 -0.213622,0.3241158 -0.217305,1.0717922 v 0.9281496 q 0,0.729261 0.217305,1.053377 0.220988,0.320433 0.637182,0.320433 0.412511,0 0.626133,-0.31675 0.213622,-0.31675 0.217305,-1.031278 z"
       style="font-weight:bold;font-size:7.54306px;line-height:1.25;font-family:'Roboto Condensed';-inkscape-font-specification:'Roboto Condensed,  Bold';fill:#0064a3;stroke-width:0.353581"
       id="path978" />
    <path
       d="m 78.439017,11.062106 q 0,-0.276235 -0.136276,-0.453025 -0.132593,-0.180474 -0.703479,-0.412511 -0.570886,-0.2320379 -0.99813,-0.5893019 -0.453025,-0.3793629 -0.453025,-1.0717922 0,-0.6776968 0.475124,-1.0865248 0.475124,-0.412511 1.222801,-0.412511 0.769775,0 1.226484,0.4640749 0.460392,0.464075 0.460392,1.1896525 h -1.082842 q 0,-0.3351652 -0.147325,-0.5524702 -0.143643,-0.2173049 -0.475125,-0.2173049 -0.3057,0 -0.453025,0.1804736 -0.143643,0.1804736 -0.143643,0.438293 0,0.2615026 0.217305,0.438293 0.220988,0.1767905 0.581936,0.3351653 0.751359,0.2688688 1.123356,0.6740136 0.371996,0.4051451 0.371996,1.0681091 0,0.707162 -0.445659,1.101257 -0.445659,0.390413 -1.211751,0.390413 -0.460392,0 -0.887636,-0.18784 -0.42356,-0.18784 -0.696112,-0.578252 -0.272552,-0.390413 -0.272552,-1.001813 h 1.086524 q 0,0.486174 0.191523,0.685063 0.195207,0.198889 0.578253,0.198889 0.313066,0 0.441976,-0.169424 0.12891,-0.173107 0.12891,-0.430927 z"
       style="font-weight:bold;font-size:7.54306px;line-height:1.25;font-family:'Roboto Condensed';-inkscape-font-specification:'Roboto Condensed,  Bold';fill:#0064a3;stroke-width:0.353581"
       id="path975" />
    <path
       d="m 82.796165,10.682743 h 1.082842 q -0.03683,0.913418 -0.515639,1.388542 -0.478808,0.475125 -1.340661,0.475125 -0.883952,0 -1.373809,-0.578253 -0.489857,-0.578252 -0.500907,-1.66846 V 9.3383992 q 0,-1.123356 0.50459,-1.7126576 0.508272,-0.5929847 1.384859,-0.5929847 0.876586,0 1.333294,0.4935401 0.456709,0.4898569 0.515639,1.4032743 H 82.803532 Q 82.785116,8.3550023 82.623058,8.1450636 82.461,7.9314418 82.03744,7.9314418 q -0.416195,0 -0.607718,0.2983339 -0.191523,0.2983339 -0.198889,1.0423271 v 0.9760312 q 0,0.758725 0.165741,1.079158 0.165741,0.320433 0.626133,0.320433 0.401462,0 0.578252,-0.191523 0.176791,-0.191523 0.195206,-0.773459 z"
       style="font-weight:bold;font-size:7.54306px;line-height:1.25;font-family:'Roboto Condensed';-inkscape-font-specification:'Roboto Condensed,  Bold';fill:#0064a3;stroke-width:0.353581"
       id="path972" />
    <path
       d="m 86.980208,12.472747 -0.806607,-1.959428 h -0.537737 v 1.959428 H 84.549339 V 7.1101028 h 1.72739 q 0.802923,0 1.252266,0.4161942 0.449342,0.4125111 0.449342,1.204385 0,0.5819353 -0.206255,0.9391994 -0.206256,0.3572636 -0.570886,0.5524706 l 0.942882,2.198831 v 0.05156 z M 85.635864,8.0124708 v 1.5984804 h 0.6114 q 0.324116,0 0.486174,-0.2136218 0.162058,-0.217305 0.162058,-0.5782522 0,-0.7918739 -0.596668,-0.8066064 z"
       style="font-weight:bold;font-size:7.54306px;line-height:1.25;font-family:'Roboto Condensed';-inkscape-font-specification:'Roboto Condensed,  Bold';fill:#0064a3;stroke-width:0.353581"
       id="path969" />
    <path
       d="M 89.853052,7.1101028 V 12.472747 H 88.77021 V 7.1101028 Z"
       style="font-weight:bold;font-size:7.54306px;line-height:1.25;font-family:'Roboto Condensed';-inkscape-font-specification:'Roboto Condensed,  Bold';fill:#0064a3;stroke-width:0.353581"
       id="path966" />
    <path
       d="m 90.597047,8.0124708 v -0.902368 h 3.462147 v 0.6334991 l -2.17305,3.8304601 h 2.209881 v 0.898685 h -3.476879 v -0.651915 l 2.187782,-3.8083612 z"
       style="font-weight:bold;font-size:7.54306px;line-height:1.25;font-family:'Roboto Condensed';-inkscape-font-specification:'Roboto Condensed,  Bold';fill:#0064a3;stroke-width:0.353581"
       id="path963" />
    <path
       d="M 95.893389,7.1101028 V 12.472747 H 94.810547 V 7.1101028 Z"
       style="font-weight:bold;font-size:7.54306px;line-height:1.25;font-family:'Roboto Condensed';-inkscape-font-specification:'Roboto Condensed,  Bold';fill:#0064a3;stroke-width:0.353581"
       id="path960" />
    <path
       d="m 100.57834,10.270232 q 0,1.134406 -0.53037,1.705292 -0.530375,0.570886 -1.395912,0.570886 -0.861853,0 -1.399591,-0.570886 Q 96.71473,11.404638 96.71473,10.270232 V 9.3789137 q 0,-1.1601874 0.534054,-1.749489 0.534055,-0.5929846 1.395908,-0.5929846 0.865537,0 1.399588,0.5929846 0.53406,0.5893016 0.53406,1.749489 z M 99.495496,9.3715474 q 0,-0.766092 -0.217305,-1.0975741 -0.217305,-0.3314821 -0.633499,-0.3314821 -0.412511,0 -0.629816,0.327799 -0.213622,0.3241158 -0.217305,1.0717922 v 0.9281496 q 0,0.729261 0.217305,1.053377 0.220988,0.320433 0.637182,0.320433 0.412512,0 0.626133,-0.31675 0.213622,-0.31675 0.217305,-1.031278 z"
       style="font-weight:bold;font-size:7.54306px;line-height:1.25;font-family:'Roboto Condensed';-inkscape-font-specification:'Roboto Condensed,  Bold';fill:#0064a3;stroke-width:0.353581"
       id="path957" />
    <path
       d="m 105.10859,7.1101028 v 5.3626442 h -1.08284 L 102.442,8.9553532 v 3.5173938 h -1.08652 V 7.1101028 h 1.08652 l 1.58375,3.5210772 V 7.1101028 Z"
       style="font-weight:bold;font-size:7.54306px;line-height:1.25;font-family:'Roboto Condensed';-inkscape-font-specification:'Roboto Condensed,  Bold';fill:#0064a3;stroke-width:0.353581"
       id="path954" />
    <path
       d="M 105.97413,12.472747 V 7.1101028 h 3.07173 v 0.902368 h -1.98521 v 1.2669983 h 1.6832 v 0.8729029 h -1.6832 v 1.42169 h 1.99258 v 0.898685 z"
       style="font-weight:bold;font-size:7.54306px;line-height:1.25;font-family:'Roboto Condensed';-inkscape-font-specification:'Roboto Condensed,  Bold';fill:#0064a3;stroke-width:0.353581"
       id="path951" />
  </g>
</svg>
