<?xml version="1.0" encoding="UTF-8" standalone="no"?>
<!-- Created with Inkscape (http://www.inkscape.org/) -->

<svg
   width="512"
   height="96"
   viewBox="0 0 135.46666 25.399999"
   version="1.1"
   id="svg5"
   inkscape:version="1.2.2 (b0a8486541, 2022-12-01)"
   sodipodi:docname="subscriber_index_logo.svg"
   xml:space="preserve"
   xmlns:inkscape="http://www.inkscape.org/namespaces/inkscape"
   xmlns:sodipodi="http://sodipodi.sourceforge.net/DTD/sodipodi-0.dtd"
   xmlns="http://www.w3.org/2000/svg"
   xmlns:svg="http://www.w3.org/2000/svg"><sodipodi:namedview
     id="namedview7"
     pagecolor="#505050"
     bordercolor="#eeeeee"
     borderopacity="1"
     inkscape:pageshadow="0"
     inkscape:pageopacity="0"
     inkscape:pagecheckerboard="0"
     inkscape:document-units="px"
     showgrid="false"
     inkscape:showpageshadow="false"
     inkscape:zoom="1.3796869"
     inkscape:cx="260.92877"
     inkscape:cy="-142.42362"
     inkscape:window-width="2528"
     inkscape:window-height="1404"
     inkscape:window-x="32"
     inkscape:window-y="0"
     inkscape:window-maximized="1"
     inkscape:current-layer="layer1"
     inkscape:snap-global="true"
     inkscape:snap-bbox="false"
     units="px"
     inkscape:snap-nodes="true"
     inkscape:deskcolor="#505050" /><defs
     id="defs2" /><g
     inkscape:label="Livello 1"
     inkscape:groupmode="layer"
     id="layer1"><g
       id="g5823"><circle
         style="fill:#1d6862;fill-opacity:1;stroke-width:0.0475423"
         cx="13.229168"
         cy="12.699999"
         r="12.170833"
         id="circle1004" /><path
         style="fill:#1a5b56;fill-opacity:1;stroke-width:0.0475423"
         d="M 25.399998,12.699999 17.056469,9.0191138 c -4.382065,2.2680502 -6.938861,5.6813542 -12.3559132,9.9272982 1.8781252,2.913469 3.3602266,6.212254 8.5286102,5.924421 6.721725,0 12.170832,-5.44911 12.170832,-12.170834 z"
         id="path1006"
         sodipodi:nodetypes="ccccc" /><path
         d="m 15.411298,15.599798 c -0.939763,0.452422 -1.880719,0.904845 -2.819824,1.398396 -0.368181,0.205646 -0.505602,0.658068 -0.470519,1.069361 0.01714,0.246776 -0.07448,0.57581 0.181335,0.740327 0.243037,0.123388 0.527977,0.04113 0.791821,0.08226 h 8.528567 c 0.316284,-0.04113 0.400188,-0.370163 0.369341,-0.616939 0.0058,-0.411293 0.02797,-0.822585 -0.270631,-1.11049 C 21.478314,16.915937 21.131183,16.792549 20.83423,16.628032 20.123516,16.298998 19.412391,15.928834 18.701677,15.5998 h -3.290342 z"
         fill="#c0392b"
         id="path1222"
         style="fill:#aa0000;stroke-width:0.411294" /><path
         d="m 15.411298,15.599798 c -0.134,0.04113 -0.264379,0.123388 -0.398461,0.205647 0.08098,0.781456 0.961232,1.439524 2.043632,1.439524 1.08828,0 1.970915,-0.658068 2.043714,-1.480654 -0.132437,-0.04113 -0.266518,-0.123387 -0.398543,-0.164517 z"
         fill="#ecf0f1"
         id="path1224"
         style="stroke-width:0.411294" /><rect
         height="2.056464"
         width="2.4677565"
         y="14.36593"
         x="15.822591"
         fill="#95a5a6"
         id="rect1226"
         style="fill:#e39c9c;stroke-width:0.411294;fill-opacity:1" /><path
         d="m 17.056469,9.019114 c -1.218496,0 -2.228385,1.106336 -2.429178,2.557747 -0.04668,-0.01275 -0.09875,-0.02677 -0.141402,-0.01287 -0.21597,0.07033 -0.269191,0.480595 -0.128529,0.912535 0.08255,0.25348 0.219877,0.453039 0.359881,0.565528 0.319287,1.241199 1.240048,2.146454 2.339228,2.146454 1.098974,0 2.019859,-0.905255 2.339433,-2.146454 0.139839,-0.11253 0.277211,-0.312089 0.35947,-0.565528 0.140662,-0.43194 0.0876,-0.842204 -0.128323,-0.912535 -0.04277,-0.0139 -0.0946,1.23e-4 -0.141485,0.01287 -0.200711,-1.451452 -1.210435,-2.557747 -2.429095,-2.557747 z"
         fill="#bdc3c7"
         id="path1228"
         style="fill:#e9afaf;stroke-width:0.411294" /><path
         d="m 17.048243,9.019114 c -0.840189,-0.041129 -1.619918,0.5346806 -2.048238,1.316137 -0.218067,0.370163 -0.363542,0.822585 -0.427662,1.233878 0.137536,-0.04113 0.246858,0.04113 0.371397,-0.123388 0.258703,-0.246775 0.373618,-0.452422 0.467558,-0.781456 0.160445,-0.370163 0.511319,-0.9459733 0.822585,-0.8225855 0.285026,0.082259 0.411293,0.2467755 0.822586,0.2467755 0.411292,0 0.537559,-0.1645169 0.822585,-0.2467755 0.311349,-0.1233878 0.662182,0.4524225 0.822586,0.8225855 0.09377,0.329034 0.192485,0.534681 0.451188,0.781456 0.124622,0.164517 0.234025,0.08226 0.371397,0.123388 -0.06416,-0.411293 -0.209759,-0.863715 -0.427744,-1.233878 C 18.668325,9.5537946 17.888514,8.9779847 17.048243,9.019114 Z"
         fill="#f39c12"
         id="path1230"
         style="fill:#917c6f;fill-opacity:1;stroke-width:0.411294" /><path
         d="m 15.411298,15.599798 c 0,0.681512 0.736584,1.233878 1.645171,1.233878 0.908545,0 1.645171,-0.552366 1.645171,-1.233878 z"
         fill="#95a5a6"
         id="path1232"
         style="fill:#e39c9c;stroke-width:0.411294;fill-opacity:1" /><path
         d="m 7.6763945,13.758714 c 0.7754021,0.325025 1.8890103,0.529356 3.1430565,0.529356 1.254047,0 2.367814,-0.204331 3.143322,-0.529356 H 7.6761296 Z"
         fill="#2c3e50"
         id="path1249"
         style="fill:#6c5d53;stroke-width:0.529356" /><path
         d="m 8.1726668,8.9945015 h 5.2935692 l 0.529357,4.7642125 H 7.6433097 Z"
         fill="#2c3e50"
         id="path1251"
         style="fill:#6c5d53;stroke-width:0.529356" /><path
         d="m 8.7020235,14.817428 c -1.2095277,0.582292 -2.4205906,1.164585 -3.629271,1.799813 -0.47387,0.264679 -0.6507386,0.846971 -0.6055844,1.376328 0.022054,0.317614 -0.095861,0.7411 0.233388,0.952843 0.3128023,0.158807 0.6795356,0.05294 1.0191179,0.105871 H 16.69642 c 0.407075,-0.05294 0.515064,-0.476421 0.475362,-0.794035 0.0074,-0.529357 0.036,-1.058714 -0.348317,-1.429264 -0.31285,-0.317614 -0.759627,-0.476422 -1.141823,-0.688164 -0.914728,-0.423486 -1.829987,-0.899907 -2.744715,-1.323392 H 8.7020713 Z"
         fill="#d35400"
         id="path1253"
         style="fill:#aa0000;stroke-width:0.529356" /><rect
         height="2.6467848"
         width="3.1761417"
         y="13.229369"
         x="9.2313805"
         fill="#95a5a6"
         id="rect1255"
         style="fill:#e39c9c;stroke-width:0.529356;fill-opacity:1" /><path
         d="m 10.819451,6.3477166 c -1.5682726,0 -2.8680556,1.4292638 -3.1264878,3.2820132 -0.060082,0 -0.1270986,-0.052936 -0.1819929,-0.052936 -0.2779651,0.1058716 -0.3464639,0.6352282 -0.1654239,1.2175212 0.1062421,0.317614 0.2829943,0.582293 0.4631875,0.688164 0.4109394,1.641006 1.596011,2.805592 3.0107171,2.805592 1.414442,0 2.599672,-1.164586 3.010982,-2.805592 0.179982,-0.105871 0.356787,-0.37055 0.462658,-0.688164 0.181041,-0.582293 0.112753,-1.1116496 -0.165159,-1.2175212 -0.05505,0 -0.121752,0.052936 -0.182099,0.052936 C 13.687507,7.7769804 12.387936,6.3477166 10.819451,6.3477166 Z"
         fill="#bdc3c7"
         id="path1257"
         style="fill:#e9afaf;stroke-width:0.529356" /><path
         d="m 8.7020235,14.817428 c 0,0.861793 0.5567248,3.18567 1.3398025,4.234855 h 1.555251 c 0.782919,-1.049185 1.339802,-3.373062 1.339802,-4.234855 z"
         fill="#ecf0f1"
         id="path1259"
         style="stroke-width:0.529356" /><path
         d="m 10.819451,6.3477166 c -1.8990677,0 -3.7727796,1.9056849 -3.7054981,3.7054984 -0.027261,1.164585 0.5290923,2.435042 0.5495254,3.599627 C 8.217609,12.964678 8.1981287,12.117707 8.1755779,11.270736 8.2880666,10.688444 8.1810849,9.8414721 8.7020235,9.5238582 9.9587171,8.8886299 10.723638,7.6711088 11.133889,6.3477166 Z"
         fill="#34495e"
         id="path1261"
         style="fill:#917c6f;stroke-width:0.529356" /><path
         d="m 8.7020235,14.817428 c 0,0.741099 0.9480254,3.176141 2.1174275,3.176141 1.16935,0 2.117428,-2.435042 2.117428,-3.176141 z"
         fill="#95a5a6"
         id="path1263"
         style="fill:#e39c9c;stroke-width:0.529356;fill-opacity:1" /><path
         d="m 10.819451,6.3477166 c 1.898804,0 3.772727,1.9056849 3.705499,3.7054984 0.027,1.164585 -0.528828,2.435042 -0.549473,3.599627 C 13.421241,12.964678 13.440827,12.117707 13.46306,11.270736 13.350836,10.688444 13.457766,9.8414721 12.936879,9.5238582 11.680185,8.8886299 10.915265,7.6711088 10.505013,6.3477166 Z"
         fill="#34495e"
         id="path1265"
         style="fill:#917c6f;stroke-width:0.529356" /><path
         d="m 33.717643,14.900874 q 0,-0.477758 -0.235694,-0.783524 -0.229325,-0.312136 -1.216693,-0.713453 -0.987368,-0.401317 -1.726302,-1.019219 -0.783524,-0.656122 -0.783524,-1.853704 0,-1.1721006 0.821745,-1.8791836 0.821745,-0.713453 2.114879,-0.713453 1.331354,0 2.121249,0.802634 0.796265,0.802635 0.796265,2.0575476 h -1.872815 q 0,-0.579681 -0.254804,-0.9555166 -0.248435,-0.375837 -0.821746,-0.375837 -0.528719,0 -0.783524,0.312135 -0.248435,0.3121356 -0.248435,0.7580436 0,0.452279 0.375837,0.758044 0.382207,0.305766 1.006479,0.579681 1.299504,0.465018 1.942886,1.165731 0.643381,0.700713 0.643381,1.847334 0,1.223063 -0.770784,1.904665 -0.770784,0.675233 -2.095768,0.675233 -0.796265,0 -1.535198,-0.324876 -0.732564,-0.324876 -1.203953,-1.000109 -0.471388,-0.675232 -0.471388,-1.732672 h 1.879184 q 0,0.840856 0.331246,1.184842 0.337617,0.343986 1.000109,0.343986 0.54146,0 0.764414,-0.293025 0.222954,-0.299395 0.222954,-0.745304 z"
         style="font-weight:bold;font-size:13.046px;line-height:1.25;font-family:'Roboto Condensed';-inkscape-font-specification:'Roboto Condensed,  Bold';fill:#1d6862;stroke-width:0.611528;fill-opacity:1"
         id="path35076" /><path
         d="m 43.36837,13.531299 q 0,1.961996 -0.917297,2.949364 -0.917297,0.987369 -2.414274,0.987369 -1.490608,0 -2.420645,-0.987369 -0.930037,-0.987368 -0.930037,-2.949364 v -1.541568 q 0,-2.0065866 0.923667,-3.0258056 0.923667,-1.025588 2.414274,-1.025588 1.496978,0 2.420645,1.025588 0.923667,1.019219 0.923667,3.0258056 z m -1.872815,-1.554308 q 0,-1.324985 -0.375836,-1.898295 -0.375837,-0.5733106 -1.095661,-0.5733106 -0.713453,0 -1.08929,0.5669406 -0.369466,0.56057 -0.375836,1.853704 v 1.605269 q 0,1.261283 0.375836,1.821854 0.382207,0.5542 1.102031,0.5542 0.713453,0 1.08292,-0.54783 0.369466,-0.54783 0.375836,-1.783633 z"
         style="font-weight:bold;font-size:13.046px;line-height:1.25;font-family:'Roboto Condensed';-inkscape-font-specification:'Roboto Condensed,  Bold';fill:#1d6862;stroke-width:0.611528;fill-opacity:1"
         id="path35073" /><path
         d="m 43.756947,9.6264184 v -1.560679 h 6.427448 v 1.560679 H 47.884783 V 17.340629 H 46.011968 V 9.6264184 Z"
         style="font-weight:bold;font-size:13.046px;line-height:1.25;font-family:'Roboto Condensed';-inkscape-font-specification:'Roboto Condensed,  Bold';fill:#1d6862;stroke-width:0.611528;fill-opacity:1"
         id="path35070" /><path
         d="m 50.948809,9.6264184 v -1.560679 h 6.427448 v 1.560679 H 55.076645 V 17.340629 H 53.20383 V 9.6264184 Z"
         style="font-weight:bold;font-size:13.046px;line-height:1.25;font-family:'Roboto Condensed';-inkscape-font-specification:'Roboto Condensed,  Bold';fill:#1d6862;stroke-width:0.611528;fill-opacity:1"
         id="path35067" /><path
         d="m 64.803814,13.531299 q 0,1.961996 -0.917297,2.949364 -0.917297,0.987369 -2.414274,0.987369 -1.490608,0 -2.420645,-0.987369 -0.930037,-0.987368 -0.930037,-2.949364 v -1.541568 q 0,-2.0065866 0.923667,-3.0258056 0.923667,-1.025588 2.414274,-1.025588 1.496978,0 2.420645,1.025588 0.923667,1.019219 0.923667,3.0258056 z m -1.872815,-1.554308 q 0,-1.324985 -0.375837,-1.898295 -0.375836,-0.5733106 -1.09566,-0.5733106 -0.713453,0 -1.08929,0.5669406 -0.369466,0.56057 -0.375837,1.853704 v 1.605269 q 0,1.261283 0.375837,1.821854 0.382207,0.5542 1.102031,0.5542 0.713453,0 1.082919,-0.54783 0.369467,-0.54783 0.375837,-1.783633 z"
         style="font-weight:bold;font-size:13.046px;line-height:1.25;font-family:'Roboto Condensed';-inkscape-font-specification:'Roboto Condensed,  Bold';fill:#1d6862;stroke-width:0.611528;fill-opacity:1"
         id="path35064" /><path
         d="m 70.071899,14.900874 q 0,-0.477758 -0.235695,-0.783524 -0.229324,-0.312136 -1.216692,-0.713453 -0.987368,-0.401317 -1.726302,-1.019219 -0.783524,-0.656122 -0.783524,-1.853704 0,-1.1721006 0.821745,-1.8791836 0.821745,-0.713453 2.114879,-0.713453 1.331354,0 2.121249,0.802634 0.796264,0.802635 0.796264,2.0575476 h -1.872814 q 0,-0.579681 -0.254805,-0.9555166 -0.248434,-0.375837 -0.821745,-0.375837 -0.52872,0 -0.783524,0.312135 -0.248435,0.3121356 -0.248435,0.7580436 0,0.452279 0.375837,0.758044 0.382207,0.305766 1.006479,0.579681 1.299503,0.465018 1.942885,1.165731 0.643382,0.700713 0.643382,1.847334 0,1.223063 -0.770784,1.904665 -0.770784,0.675233 -2.095769,0.675233 -0.796264,0 -1.535198,-0.324876 -0.732563,-0.324876 -1.203952,-1.000109 -0.471389,-0.675232 -0.471389,-1.732672 h 1.879185 q 0,0.840856 0.331246,1.184842 0.337616,0.343986 1.000108,0.343986 0.54146,0 0.764414,-0.293025 0.222955,-0.299395 0.222955,-0.745304 z"
         style="font-weight:bold;font-size:13.046px;line-height:1.25;font-family:'Roboto Condensed';-inkscape-font-specification:'Roboto Condensed,  Bold';fill:#1d6862;stroke-width:0.611528;fill-opacity:1"
         id="path35061" /><path
         d="m 77.607747,14.244752 h 1.872814 q -0.0637,1.579789 -0.891816,2.401534 -0.828116,0.821746 -2.318723,0.821746 -1.528828,0 -2.376054,-1.000109 -0.847225,-1.000108 -0.866335,-2.885663 v -1.6626 q 0,-1.9428856 0.872706,-2.9621046 0.879076,-1.025589 2.395164,-1.025589 1.516087,0 2.305982,0.853596 0.789894,0.847226 0.891816,2.4270146 h -1.872814 q -0.03185,-0.993739 -0.312136,-1.3568346 -0.280285,-0.369467 -1.012848,-0.369467 -0.719824,0 -1.05107,0.5159786 -0.331246,0.51598 -0.343986,1.802744 v 1.688081 q 0,1.312244 0.286655,1.866444 0.286655,0.5542 1.08292,0.5542 0.694343,0 1.000108,-0.331246 0.305766,-0.331246 0.337617,-1.337725 z"
         style="font-weight:bold;font-size:13.046px;line-height:1.25;font-family:'Roboto Condensed';-inkscape-font-specification:'Roboto Condensed,  Bold';fill:#1d6862;stroke-width:0.611528;fill-opacity:1"
         id="path35058" /><path
         d="M 84.844203,17.340629 83.449147,13.951727 H 82.51911 v 3.388902 H 80.639926 V 8.0657394 h 2.987585 q 1.388685,0 2.165839,0.719823 0.777155,0.713453 0.777155,2.0830276 0,1.006479 -0.356727,1.62438 -0.356727,0.617902 -0.987368,0.955518 l 1.63075,3.80296 v 0.08918 z M 82.51911,9.6264184 v 2.7646296 h 1.05744 q 0.56057,0 0.840855,-0.369466 0.280285,-0.375837 0.280285,-1.000109 0,-1.3695746 -1.031959,-1.3950546 z"
         style="font-weight:bold;font-size:13.046px;line-height:1.25;font-family:'Roboto Condensed';-inkscape-font-specification:'Roboto Condensed,  Bold';fill:#1d6862;stroke-width:0.611528;fill-opacity:1"
         id="path35055" /><path
         d="M 89.812891,8.0657394 V 17.340629 H 87.940076 V 8.0657394 Z"
         style="font-weight:bold;font-size:13.046px;line-height:1.25;font-family:'Roboto Condensed';-inkscape-font-specification:'Roboto Condensed,  Bold';fill:#1d6862;stroke-width:0.611528;fill-opacity:1"
         id="path35052" /><path
         d="m 90.787522,9.6264184 v -1.560679 h 6.427452 v 1.560679 h -2.29962 V 17.340629 H 93.042543 V 9.6264184 Z"
         style="font-weight:bold;font-size:13.046px;line-height:1.25;font-family:'Roboto Condensed';-inkscape-font-specification:'Roboto Condensed,  Bold';fill:#1d6862;stroke-width:0.611528;fill-opacity:1"
         id="path35049" /><path
         d="m 97.979384,9.6264184 v -1.560679 h 6.427446 v 1.560679 h -2.29961 V 17.340629 H 100.2344 V 9.6264184 Z"
         style="font-weight:bold;font-size:13.046px;line-height:1.25;font-family:'Roboto Condensed';-inkscape-font-specification:'Roboto Condensed,  Bold';fill:#1d6862;stroke-width:0.611528;fill-opacity:1"
         id="path35046" /><path
         d="m 111.83438,13.531299 q 0,1.961996 -0.91729,2.949364 -0.9173,0.987369 -2.41428,0.987369 -1.4906,0 -2.42064,-0.987369 -0.93004,-0.987368 -0.93004,-2.949364 v -1.541568 q 0,-2.0065866 0.92367,-3.0258056 0.92367,-1.025588 2.41427,-1.025588 1.49698,0 2.42065,1.025588 0.92366,1.019219 0.92366,3.0258056 z m -1.87281,-1.554308 q 0,-1.324985 -0.37584,-1.898295 -0.37583,-0.5733106 -1.09566,-0.5733106 -0.71345,0 -1.08929,0.5669406 -0.36946,0.56057 -0.37583,1.853704 v 1.605269 q 0,1.261283 0.37583,1.821854 0.38221,0.5542 1.10203,0.5542 0.71346,0 1.08292,-0.54783 0.36947,-0.54783 0.37584,-1.783633 z"
         style="font-weight:bold;font-size:13.046px;line-height:1.25;font-family:'Roboto Condensed';-inkscape-font-specification:'Roboto Condensed,  Bold';fill:#1d6862;stroke-width:0.611528;fill-opacity:1"
         id="path35043" /><path
         d="m 117.38912,17.340629 -1.39505,-3.388902 h -0.93004 v 3.388902 h -1.87919 V 8.0657394 h 2.98759 q 1.38868,0 2.16584,0.719823 0.77715,0.713453 0.77715,2.0830276 0,1.006479 -0.35672,1.62438 -0.35673,0.617902 -0.98737,0.955518 l 1.63075,3.80296 v 0.08918 z m -2.32509,-7.7142106 v 2.7646296 h 1.05744 q 0.56057,0 0.84085,-0.369466 0.28029,-0.375837 0.28029,-1.000109 0,-1.3695746 -1.03196,-1.3950546 z"
         style="font-weight:bold;font-size:13.046px;line-height:1.25;font-family:'Roboto Condensed';-inkscape-font-specification:'Roboto Condensed,  Bold';fill:#1d6862;stroke-width:0.611528;fill-opacity:1"
         id="path35040" /><path
         d="M 122.35782,8.0657394 V 17.340629 H 120.485 V 8.0657394 Z"
         style="font-weight:bold;font-size:13.046px;line-height:1.25;font-family:'Roboto Condensed';-inkscape-font-specification:'Roboto Condensed,  Bold';fill:#1d6862;stroke-width:0.611528;fill-opacity:1"
         id="path35037" /><path
         id="path35534"
         style="fill:#1d6862;stroke-width:2.92118;fill-opacity:1"
         d="m 29.519732,18.114543 h 92.838048 v 1.5875 H 29.519732 Z" /></g></g></svg>
