<?xml version="1.0" encoding="UTF-8" standalone="no"?>
<!-- Created with Inkscape (http://www.inkscape.org/) -->

<svg
   width="400"
   height="74"
   viewBox="0 0 105.83333 19.579166"
   version="1.1"
   id="svg5"
   inkscape:version="1.1.2 (0a00cf5339, 2022-02-04)"
   sodipodi:docname="subscription_reason_index_logo.svg"
   xmlns:inkscape="http://www.inkscape.org/namespaces/inkscape"
   xmlns:sodipodi="http://sodipodi.sourceforge.net/DTD/sodipodi-0.dtd"
   xmlns="http://www.w3.org/2000/svg"
   xmlns:svg="http://www.w3.org/2000/svg">
  <sodipodi:namedview
     id="namedview7"
     pagecolor="#505050"
     bordercolor="#eeeeee"
     borderopacity="1"
     inkscape:pageshadow="0"
     inkscape:pageopacity="0"
     inkscape:pagecheckerboard="0"
     inkscape:document-units="px"
     showgrid="false"
     inkscape:showpageshadow="false"
     inkscape:zoom="2.8284271"
     inkscape:cx="301.22749"
     inkscape:cy="135.05739"
     inkscape:window-width="3034"
     inkscape:window-height="1696"
     inkscape:window-x="38"
     inkscape:window-y="0"
     inkscape:window-maximized="1"
     inkscape:current-layer="layer1"
     inkscape:snap-global="true"
     inkscape:snap-bbox="false"
     units="px"
     inkscape:snap-nodes="true" />
  <defs
     id="defs2">
	
	

	
	

	
	

	
	

	
	
	
	
	
	

	
	
	
	
	
	
</defs>
  <g
     inkscape:label="Livello 1"
     inkscape:groupmode="layer"
     id="layer1">
    <g
       id="path34461"
       style="fill:#0064a3;fill-opacity:1">
      <path
         style="color:#000000;fill:#0064a3;fill-opacity:1;stroke-width:0.926042;-inkscape-stroke:none"
         d="M 20.184966,14.143537 H 76.053449"
         id="path42950" />
      <path
         style="color:#000000;fill:#0064a3;fill-opacity:1;-inkscape-stroke:none"
         d="m 20.185547,13.679688 v 0.927734 h 78.675249 v -0.927734 z"
         id="path42952"
         sodipodi:nodetypes="ccccc" />
    </g>
    <g
       id="g128947"
       transform="matrix(0.84745673,0,0,0.84745673,28.268159,1.8923841)">
      <circle
         style="fill:#0064a3;fill-opacity:1;stroke-width:0.0390261"
         cx="-21.927174"
         cy="9.6815405"
         r="9.9906769"
         id="circle100235" />
      <path
         style="fill:#00548c;fill-opacity:1;stroke-width:0.0390261"
         d="m -11.971431,9.6698476 -5.550367,-5.5503672 -4.39543,6.8959086 -4.485189,4.204826 4.440309,4.440309 c 5.517664,0 9.990677,-4.473013 9.990677,-9.9906764 z"
         id="path100237" />
      <polygon
         style="fill:#e9eff4"
         points="369.778,113.778 193.653,113.778 142.222,165.209 142.222,398.222 369.778,398.222 "
         id="polygon100239"
         transform="matrix(0.03902608,0,0,0.03902608,-31.952784,-0.32082891)" />
      <rect
         x="-21.984314"
         y="4.1194806"
         style="fill:#cfdbe6;stroke-width:0.0390261"
         width="4.4625154"
         height="11.100735"
         id="rect100241" />
      <polygon
         style="fill:#cfdbe6"
         points="142.222,165.209 193.653,165.209 193.653,113.778 "
         id="polygon100243"
         transform="matrix(0.03902608,0,0,0.03902608,-31.952784,-0.32082891)" />
      <rect
         x="-25.29232"
         y="7.3487711"
         style="fill:#d0d1d3;stroke-width:0.0390261"
         width="6.6604643"
         height="0.20184289"
         id="rect100247" />
      <rect
         x="-25.29232"
         y="8.458868"
         style="fill:#d0d1d3;stroke-width:0.0390261"
         width="6.6604643"
         height="0.20184289"
         id="rect100249" />
      <rect
         x="-25.29232"
         y="9.5689259"
         style="fill:#d0d1d3;stroke-width:0.0390261"
         width="6.6604643"
         height="0.20184289"
         id="rect100251" />
      <rect
         x="-25.29232"
         y="10.679024"
         style="fill:#d0d1d3;stroke-width:0.0390261"
         width="6.6604643"
         height="0.20184289"
         id="rect100253" />
      <rect
         x="-25.29232"
         y="11.789082"
         style="fill:#d0d1d3;stroke-width:0.0390261"
         width="6.6604643"
         height="0.20184289"
         id="rect100255" />
      <rect
         x="-21.984314"
         y="7.3487711"
         style="fill:#a6a8aa;stroke-width:0.0390261"
         width="3.3525743"
         height="0.20184289"
         id="rect100261" />
      <rect
         x="-21.984314"
         y="8.458868"
         style="fill:#a6a8aa;stroke-width:0.0390261"
         width="3.3525743"
         height="0.20184289"
         id="rect100263" />
      <rect
         x="-21.984314"
         y="9.5689259"
         style="fill:#a6a8aa;stroke-width:0.0390261"
         width="3.3525743"
         height="0.20184289"
         id="rect100265" />
      <rect
         x="-21.984314"
         y="10.679024"
         style="fill:#a6a8aa;stroke-width:0.0390261"
         width="3.3525743"
         height="0.20184289"
         id="rect100267" />
      <rect
         x="-21.984314"
         y="11.789082"
         style="fill:#a6a8aa;stroke-width:0.0390261"
         width="3.3525743"
         height="0.20184289"
         id="rect100269" />
      <g
         aria-label="?"
         id="text102360"
         style="font-size:7.2046px;line-height:1.25;fill:#0064a3;stroke-width:0.180115">
        <path
           d="m -21.633946,10.550902 h -0.87595 q 0,-0.474912 0.09498,-0.7704134 0.09498,-0.2955012 0.348269,-0.5663773 0.189965,-0.2145901 0.316608,-0.4045551 0.126644,-0.1934829 0.126644,-0.4467697 0,-0.5874844 -0.383448,-0.5874844 -0.133679,0 -0.263841,0.1407148 -0.126643,0.137197 -0.133679,0.4538054 h -0.999075 q 0.01055,-0.7387529 0.408073,-1.0835043 0.401037,-0.3482692 0.988522,-0.3482692 0.647288,0 1.013147,0.3588228 0.369376,0.355305 0.369376,1.0201826 0,0.4608411 -0.228661,0.7668959 -0.225144,0.3060548 -0.510092,0.6296989 -0.158304,0.1794114 -0.21459,0.372894 -0.05277,0.193483 -0.05629,0.464359 z m -0.967414,1.079987 q 0,-0.23218 0.14775,-0.386966 0.147751,-0.158304 0.39752,-0.158304 0.249768,0 0.394001,0.158304 0.147751,0.154786 0.147751,0.386966 0,0.228661 -0.147751,0.386966 -0.144233,0.154786 -0.394001,0.154786 -0.249769,0 -0.39752,-0.154786 -0.14775,-0.158305 -0.14775,-0.386966 z"
           style="font-weight:bold;font-family:'Roboto Condensed';-inkscape-font-specification:'Roboto Condensed,  Bold'"
           id="path112544" />
      </g>
    </g>
    <g
       id="g148959"
       transform="translate(-48.38357,0.28496522)">
      <path
         d="m 71.484616,10.699795 1.009178,-3.8746578 h 1.414324 v 5.3626438 h -1.086525 v -1.451155 l 0.09945,-2.2209299 -1.068109,3.6720849 h -0.74031 l -1.068109,-3.6720849 0.09944,2.2209299 v 1.451155 H 69.05743 V 6.8251372 h 1.414323 z"
         style="font-weight:bold;font-size:7.54306px;line-height:1.25;font-family:'Roboto Condensed';-inkscape-font-specification:'Roboto Condensed,  Bold';fill:#0064a3;stroke-width:0.188577"
         id="path148917" />
      <path
         d="m 78.552551,9.9852668 q 0,1.1344052 -0.530371,1.7052912 -0.530372,0.570886 -1.395908,0.570886 -0.861854,0 -1.399592,-0.570886 -0.537737,-0.570886 -0.537737,-1.7052912 V 9.0939482 q 0,-1.1601874 0.534054,-1.749489 0.534055,-0.5929847 1.395908,-0.5929847 0.865537,0 1.399592,0.5929847 0.534054,0.5893016 0.534054,1.749489 z M 77.469709,9.0865819 q 0,-0.766092 -0.217305,-1.0975741 -0.217304,-0.3314821 -0.633499,-0.3314821 -0.412511,0 -0.629816,0.327799 -0.213622,0.3241158 -0.217305,1.0717922 v 0.9281499 q 0,0.7292602 0.217305,1.0533762 0.220988,0.320433 0.637183,0.320433 0.412511,0 0.626132,-0.31675 0.213622,-0.316749 0.217305,-1.031277 z"
         style="font-weight:bold;font-size:7.54306px;line-height:1.25;font-family:'Roboto Condensed';-inkscape-font-specification:'Roboto Condensed,  Bold';fill:#0064a3;stroke-width:0.188577"
         id="path148914" />
      <path
         d="m 78.777222,7.7275052 v -0.902368 h 3.716283 v 0.902368 H 81.163893 V 12.187781 H 80.081052 V 7.7275052 Z"
         style="font-weight:bold;font-size:7.54306px;line-height:1.25;font-family:'Roboto Condensed';-inkscape-font-specification:'Roboto Condensed,  Bold';fill:#0064a3;stroke-width:0.188577"
         id="path148911" />
      <path
         d="M 84.246677,6.8251372 V 12.187781 H 83.163836 V 6.8251372 Z"
         style="font-weight:bold;font-size:7.54306px;line-height:1.25;font-family:'Roboto Condensed';-inkscape-font-specification:'Roboto Condensed,  Bold';fill:#0064a3;stroke-width:0.188577"
         id="path148908" />
      <path
         d="m 89.012654,6.8251372 -1.546917,5.3626438 h -1.123356 l -1.53955,-5.3626438 h 1.200702 l 0.898684,3.8893898 0.902368,-3.8893898 z"
         style="font-weight:bold;font-size:7.54306px;line-height:1.25;font-family:'Roboto Condensed';-inkscape-font-specification:'Roboto Condensed,  Bold';fill:#0064a3;stroke-width:0.188577"
         id="path148905" />
      <path
         d="M 90.647964,6.8251372 V 12.187781 H 89.565123 V 6.8251372 Z"
         style="font-weight:bold;font-size:7.54306px;line-height:1.25;font-family:'Roboto Condensed';-inkscape-font-specification:'Roboto Condensed,  Bold';fill:#0064a3;stroke-width:0.188577"
         id="path148902" />
      <path
         d="m 95.564949,10.777141 q 0,-0.276235 -0.136276,-0.453026 Q 95.29608,10.143642 94.725195,9.9116041 94.154309,9.6795666 93.727065,9.3223026 93.274039,8.9429397 93.274039,8.2505104 q 0,-0.6776968 0.475125,-1.0865248 0.475124,-0.4125111 1.222801,-0.4125111 0.769775,0 1.226483,0.464075 0.460392,0.464075 0.460392,1.1896525 h -1.082841 q 0,-0.3351652 -0.147326,-0.5524702 -0.143642,-0.2173049 -0.475124,-0.2173049 -0.3057,0 -0.453026,0.1804736 -0.143642,0.1804736 -0.143642,0.438293 0,0.2615026 0.217305,0.438293 0.220988,0.1767905 0.581935,0.3351653 0.75136,0.2688688 1.123356,0.6740136 0.371997,0.4051446 0.371997,1.0681086 0,0.707162 -0.445659,1.101258 -0.44566,0.390412 -1.211752,0.390412 -0.460392,0 -0.887635,-0.18784 -0.423561,-0.18784 -0.696113,-0.578252 -0.272552,-0.390412 -0.272552,-1.001813 h 1.086525 q 0,0.486174 0.191523,0.685063 0.195206,0.19889 0.578252,0.19889 0.313067,0 0.441976,-0.169424 0.12891,-0.173108 0.12891,-0.430927 z"
         style="font-weight:bold;font-size:7.54306px;line-height:1.25;font-family:'Roboto Condensed';-inkscape-font-specification:'Roboto Condensed,  Bold';fill:#0064a3;stroke-width:0.188577"
         id="path148899" />
      <path
         d="m 101.1449,9.9852668 q 0,1.1344052 -0.53037,1.7052912 -0.53037,0.570886 -1.395911,0.570886 -0.861853,0 -1.399591,-0.570886 Q 97.28129,11.119672 97.28129,9.9852668 V 9.0939482 q 0,-1.1601874 0.534055,-1.749489 0.534054,-0.5929847 1.395908,-0.5929847 0.865537,0 1.399587,0.5929847 0.53406,0.5893016 0.53406,1.749489 z m -1.08284,-0.8986849 q 0,-0.766092 -0.217308,-1.0975741 -0.217305,-0.3314821 -0.633499,-0.3314821 -0.412511,0 -0.629816,0.327799 -0.213622,0.3241158 -0.217305,1.0717922 v 0.9281499 q 0,0.7292602 0.217305,1.0533762 0.220988,0.320433 0.637182,0.320433 0.412511,0 0.626133,-0.31675 0.213618,-0.316749 0.217308,-1.031277 z"
         style="font-weight:bold;font-size:7.54306px;line-height:1.25;font-family:'Roboto Condensed';-inkscape-font-specification:'Roboto Condensed,  Bold';fill:#0064a3;stroke-width:0.188577"
         id="path148896" />
      <path
         d="m 101.36957,7.7275052 v -0.902368 h 3.71628 v 0.902368 h -1.32961 V 12.187781 H 102.6734 V 7.7275052 Z"
         style="font-weight:bold;font-size:7.54306px;line-height:1.25;font-family:'Roboto Condensed';-inkscape-font-specification:'Roboto Condensed,  Bold';fill:#0064a3;stroke-width:0.188577"
         id="path148893" />
      <path
         d="m 105.52783,7.7275052 v -0.902368 h 3.71628 v 0.902368 h -1.32961 v 4.4602758 h -1.08284 V 7.7275052 Z"
         style="font-weight:bold;font-size:7.54306px;line-height:1.25;font-family:'Roboto Condensed';-inkscape-font-specification:'Roboto Condensed,  Bold';fill:#0064a3;stroke-width:0.188577"
         id="path148890" />
      <path
         d="m 113.53865,9.9852668 q 0,1.1344052 -0.53037,1.7052912 -0.53037,0.570886 -1.39591,0.570886 -0.86186,0 -1.39959,-0.570886 -0.53774,-0.570886 -0.53774,-1.7052912 V 9.0939482 q 0,-1.1601874 0.53405,-1.749489 0.53406,-0.5929847 1.39591,-0.5929847 0.86554,0 1.39959,0.5929847 0.53406,0.5893016 0.53406,1.749489 z m -1.08284,-0.8986849 q 0,-0.766092 -0.21731,-1.0975741 -0.2173,-0.3314821 -0.6335,-0.3314821 -0.41251,0 -0.62981,0.327799 -0.21363,0.3241158 -0.21731,1.0717922 v 0.9281499 q 0,0.7292602 0.21731,1.0533762 0.22098,0.320433 0.63718,0.320433 0.41251,0 0.62613,-0.31675 0.21362,-0.316749 0.21731,-1.031277 z"
         style="font-weight:bold;font-size:7.54306px;line-height:1.25;font-family:'Roboto Condensed';-inkscape-font-specification:'Roboto Condensed,  Bold';fill:#0064a3;stroke-width:0.188577"
         id="path148887" />
      <path
         d="m 116.5846,10.777141 q 0,-0.276235 -0.13628,-0.453026 -0.13259,-0.180473 -0.70348,-0.4125109 -0.57088,-0.2320375 -0.99813,-0.5893015 -0.45302,-0.3793629 -0.45302,-1.0717922 0,-0.6776968 0.47512,-1.0865248 0.47513,-0.4125111 1.2228,-0.4125111 0.76978,0 1.22649,0.464075 0.46039,0.464075 0.46039,1.1896525 h -1.08284 q 0,-0.3351652 -0.14733,-0.5524702 -0.14364,-0.2173049 -0.47512,-0.2173049 -0.3057,0 -0.45303,0.1804736 -0.14364,0.1804736 -0.14364,0.438293 0,0.2615026 0.21731,0.438293 0.22098,0.1767905 0.58193,0.3351653 0.75136,0.2688688 1.12336,0.6740136 0.37199,0.4051446 0.37199,1.0681086 0,0.707162 -0.44566,1.101258 -0.44566,0.390412 -1.21175,0.390412 -0.46039,0 -0.88763,-0.18784 -0.42356,-0.18784 -0.69612,-0.578252 -0.27255,-0.390412 -0.27255,-1.001813 h 1.08653 q 0,0.486174 0.19152,0.685063 0.19521,0.19889 0.57825,0.19889 0.31307,0 0.44198,-0.169424 0.12891,-0.173108 0.12891,-0.430927 z"
         style="font-weight:bold;font-size:7.54306px;line-height:1.25;font-family:'Roboto Condensed';-inkscape-font-specification:'Roboto Condensed,  Bold';fill:#0064a3;stroke-width:0.188577"
         id="path148884" />
      <path
         d="m 120.94175,10.397778 h 1.08284 q -0.0368,0.913417 -0.51564,1.388542 -0.47881,0.475124 -1.34066,0.475124 -0.88395,0 -1.37381,-0.578252 -0.48986,-0.578252 -0.50091,-1.66846 V 9.0534337 q 0,-1.1233561 0.50459,-1.7126576 0.50828,-0.5929847 1.38486,-0.5929847 0.87659,0 1.3333,0.4935401 0.45671,0.4898569 0.51564,1.4032743 h -1.08285 q -0.0184,-0.574569 -0.18047,-0.7845077 -0.16206,-0.2136218 -0.58562,-0.2136218 -0.41619,0 -0.60772,0.2983339 -0.19152,0.2983339 -0.19888,1.0423271 V 9.963168 q 0,0.758726 0.16574,1.079158 0.16574,0.320433 0.62613,0.320433 0.40146,0 0.57825,-0.191523 0.17679,-0.191523 0.19521,-0.773458 z"
         style="font-weight:bold;font-size:7.54306px;line-height:1.25;font-family:'Roboto Condensed';-inkscape-font-specification:'Roboto Condensed,  Bold';fill:#0064a3;stroke-width:0.188577"
         id="path148881" />
      <path
         d="m 125.12579,12.187781 -0.80661,-1.959427 h -0.53774 v 1.959427 h -1.08652 V 6.8251372 h 1.72739 q 0.80292,0 1.25226,0.4161943 0.44935,0.412511 0.44935,1.204385 0,0.5819353 -0.20626,0.9391993 -0.20626,0.3572641 -0.57089,0.5524702 l 0.94289,2.198831 v 0.05156 z m -1.34435,-4.4602758 v 1.5984805 h 0.6114 q 0.32412,0 0.48618,-0.2136218 0.16205,-0.217305 0.16205,-0.5782522 0,-0.7918739 -0.59666,-0.8066065 z"
         style="font-weight:bold;font-size:7.54306px;line-height:1.25;font-family:'Roboto Condensed';-inkscape-font-specification:'Roboto Condensed,  Bold';fill:#0064a3;stroke-width:0.188577"
         id="path148878" />
      <path
         d="m 127.99863,6.8251372 v 5.3626438 h -1.08284 V 6.8251372 Z"
         style="font-weight:bold;font-size:7.54306px;line-height:1.25;font-family:'Roboto Condensed';-inkscape-font-specification:'Roboto Condensed,  Bold';fill:#0064a3;stroke-width:0.188577"
         id="path148875" />
      <path
         d="m 128.74263,7.7275052 v -0.902368 h 3.46214 v 0.6334992 l -2.17305,3.8304596 h 2.20988 v 0.898685 h -3.47688 v -0.651915 l 2.18779,-3.8083608 z"
         style="font-weight:bold;font-size:7.54306px;line-height:1.25;font-family:'Roboto Condensed';-inkscape-font-specification:'Roboto Condensed,  Bold';fill:#0064a3;stroke-width:0.188577"
         id="path148872" />
      <path
         d="m 134.03897,6.8251372 v 5.3626438 h -1.08284 V 6.8251372 Z"
         style="font-weight:bold;font-size:7.54306px;line-height:1.25;font-family:'Roboto Condensed';-inkscape-font-specification:'Roboto Condensed,  Bold';fill:#0064a3;stroke-width:0.188577"
         id="path148869" />
      <path
         d="m 138.72392,9.9852668 q 0,1.1344052 -0.53037,1.7052912 -0.53037,0.570886 -1.39591,0.570886 -0.86185,0 -1.39959,-0.570886 -0.53773,-0.570886 -0.53773,-1.7052912 V 9.0939482 q 0,-1.1601874 0.53405,-1.749489 0.53405,-0.5929847 1.39591,-0.5929847 0.86553,0 1.39959,0.5929847 0.53405,0.5893016 0.53405,1.749489 z m -1.08284,-0.8986849 q 0,-0.766092 -0.2173,-1.0975741 -0.21731,-0.3314821 -0.6335,-0.3314821 -0.41251,0 -0.62982,0.327799 -0.21362,0.3241158 -0.2173,1.0717922 v 0.9281499 q 0,0.7292602 0.2173,1.0533762 0.22099,0.320433 0.63718,0.320433 0.41252,0 0.62614,-0.31675 0.21362,-0.316749 0.2173,-1.031277 z"
         style="font-weight:bold;font-size:7.54306px;line-height:1.25;font-family:'Roboto Condensed';-inkscape-font-specification:'Roboto Condensed,  Bold';fill:#0064a3;stroke-width:0.188577"
         id="path148866" />
      <path
         d="m 143.25418,6.8251372 v 5.3626438 h -1.08284 l -1.58375,-3.5173933 v 3.5173933 h -1.08653 V 6.8251372 h 1.08653 l 1.58375,3.5210768 V 6.8251372 Z"
         style="font-weight:bold;font-size:7.54306px;line-height:1.25;font-family:'Roboto Condensed';-inkscape-font-specification:'Roboto Condensed,  Bold';fill:#0064a3;stroke-width:0.188577"
         id="path148863" />
      <path
         d="M 144.11972,12.187781 V 6.8251372 h 3.07173 v 0.902368 h -1.98521 v 1.2669984 h 1.68319 v 0.8729029 h -1.68319 v 1.4216895 h 1.99258 v 0.898685 z"
         style="font-weight:bold;font-size:7.54306px;line-height:1.25;font-family:'Roboto Condensed';-inkscape-font-specification:'Roboto Condensed,  Bold';fill:#0064a3;stroke-width:0.188577"
         id="path148860" />
    </g>
  </g>
</svg>
