<?xml version="1.0" encoding="UTF-8" standalone="no"?>
<!-- Created with Inkscape (http://www.inkscape.org/) -->

<svg
   width="420"
   height="74"
   viewBox="0 0 111.125 19.579166"
   version="1.1"
   id="svg5"
   inkscape:version="1.2.2 (b0a8486541, 2022-12-01)"
   sodipodi:docname="subscription_type_index_logo.svg"
   xml:space="preserve"
   inkscape:export-filename="../../../../UtilityLari/PngOpt/subscription_type_index_logo.png"
   inkscape:export-xdpi="96"
   inkscape:export-ydpi="96"
   xmlns:inkscape="http://www.inkscape.org/namespaces/inkscape"
   xmlns:sodipodi="http://sodipodi.sourceforge.net/DTD/sodipodi-0.dtd"
   xmlns="http://www.w3.org/2000/svg"
   xmlns:svg="http://www.w3.org/2000/svg"><sodipodi:namedview
     id="namedview7"
     pagecolor="#505050"
     bordercolor="#eeeeee"
     borderopacity="1"
     inkscape:pageshadow="0"
     inkscape:pageopacity="0"
     inkscape:pagecheckerboard="0"
     inkscape:document-units="px"
     showgrid="false"
     inkscape:showpageshadow="false"
     inkscape:zoom="2.8001429"
     inkscape:cx="225.70277"
     inkscape:cy="38.748022"
     inkscape:window-width="2528"
     inkscape:window-height="1404"
     inkscape:window-x="32"
     inkscape:window-y="0"
     inkscape:window-maximized="1"
     inkscape:current-layer="layer1"
     inkscape:snap-global="false"
     inkscape:snap-bbox="false"
     units="px"
     inkscape:snap-nodes="true"
     inkscape:deskcolor="#505050" /><defs
     id="defs2" /><g
     inkscape:label="Livello 1"
     inkscape:groupmode="layer"
     id="layer1"><circle
       style="fill:#1d6862;fill-opacity:1;stroke-width:0.0330729"
       cx="9.5250006"
       cy="9.7895823"
       r="8.4666662"
       id="circle1004" /><path
       style="fill:#1a5b56;fill-opacity:1;stroke-width:0.0330729"
       d="M 17.991665,9.7895831 12.785173,4.8150422 8.3939388,10.792525 4.9313831,14.63821 9.5249993,18.256249 c 4.6759827,0 8.4666657,-3.790685 8.4666657,-8.4666659 z"
       id="path1006"
       sodipodi:nodetypes="cccccc" /><g
       id="path34461"
       style="fill:#1d6862;fill-opacity:1"><path
         style="color:#000000;fill:#1d6862;fill-opacity:1;stroke-width:0.926042;-inkscape-stroke:none"
         d="M 20.184966,14.143537 H 76.053449"
         id="path42950" /><path
         style="color:#000000;fill:#1d6862;fill-opacity:1;-inkscape-stroke:none"
         d="m 20.185547,13.679688 v 0.927734 h 88.931983 v -0.927734 z"
         id="path42952"
         sodipodi:nodetypes="ccccc" /></g><path
       style="fill:#ffffff;stroke-width:0.0201567"
       d="m 13.279259,5.6375452 v 8.3031058 c 0,0.555257 -0.453767,1.009045 -1.009044,1.009045 H 5.5806729 c -0.030762,0 -0.061538,-0.0016 -0.090746,-0.0046 -0.030762,-0.0016 -0.059983,-0.0061 -0.089213,-0.01229 -0.015381,-0.0016 -0.030762,-0.0046 -0.04461,-0.0092 -0.084597,-0.01846 -0.1661114,-0.04922 -0.2399653,-0.08921 -0.00156,0 -0.00156,-0.0016 -0.00156,-0.0016 -0.00459,-0.0016 -0.00923,-0.0031 -0.012315,-0.0061 -0.029229,-0.0154 -0.056925,-0.03231 -0.083065,-0.05077 -0.032287,-0.02 -0.063071,-0.04308 -0.090745,-0.06922 -0.019994,-0.01539 -0.038463,-0.03384 -0.056902,-0.0523 -0.035375,-0.03384 -0.067685,-0.07228 -0.096913,-0.112293 -0.00923,-0.01229 -0.018461,-0.02614 -0.027696,-0.03846 -0.021527,-0.03076 -0.041544,-0.06305 -0.056902,-0.09536 -0.015381,-0.02616 -0.027696,-0.05384 -0.038463,-0.08151 -0.012315,-0.0277 -0.023082,-0.05692 -0.032309,-0.08768 -0.00768,-0.01999 -0.012315,-0.03846 -0.016914,-0.05998 -0.00459,-0.01691 -0.00923,-0.03538 -0.012315,-0.05384 -0.00311,-0.0154 -0.00459,-0.03229 -0.00768,-0.04769 0,-0.0031 -0.00156,-0.0061 -0.00156,-0.0092 -0.00459,-0.04154 -0.00768,-0.08462 -0.00768,-0.127652 V 8.2447732 L 8.1878287,4.6300331 h 4.0823343 c 0.118441,0 0.232266,0.019975 0.336859,0.059966 0.286104,0.099997 0.512222,0.327647 0.612199,0.612199 0.02,0.049243 0.03384,0.099997 0.04307,0.152304 0.0061,0.029207 0.0092,0.059986 0.01232,0.089214 0.0031,0.030739 0.0046,0.06307 0.0046,0.093829 z"
       id="path62105" /><path
       stroke="#979797"
       stroke-linecap="square"
       stroke-width="0.603686"
       d="M 6.2405638,7.6085079 H 11.975583 M 6.2405638,8.8158807 H 9.8626812 M 6.2405638,10.023254 h 1.8110583 m 1.2073723,0 h 1.8110596"
       id="path62253"
       style="fill:#0064a3;fill-opacity:1;fill-rule:evenodd" /><path
       style="fill:#a0dbbf;stroke-width:0.0201567;fill-opacity:1"
       d="m 7.1788966,8.2445313 c 0.5547726,0 1.0086811,-0.4539086 1.0086811,-1.0086813 V 4.6294687 L 4.5725153,8.2445313 Z"
       id="path62107" /><path
       style="opacity:0.06;fill:#040000;stroke-width:0.0201567"
       d="m 13.279259,5.6375452 v 8.3031058 c 0,0.555257 -0.453767,1.009045 -1.009044,1.009045 H 5.5806729 c -0.030762,0 -0.061538,-0.0016 -0.090746,-0.0046 -0.030762,-0.0016 -0.059983,-0.0061 -0.089213,-0.01229 -0.015381,-0.0016 -0.030762,-0.0046 -0.04461,-0.0092 -0.084597,-0.01846 -0.1661114,-0.04922 -0.2399653,-0.08921 -0.00156,0 -0.00156,-0.0016 -0.00156,-0.0016 -0.00459,-0.0016 -0.00923,-0.0031 -0.012315,-0.0061 -0.029229,-0.0154 -0.056925,-0.03231 -0.083065,-0.05077 -0.032287,-0.02 -0.063071,-0.04308 -0.090745,-0.06922 -0.019994,-0.01539 -0.038463,-0.03384 -0.056902,-0.0523 -0.035375,-0.03384 -0.067685,-0.07228 -0.096913,-0.112293 -0.00923,-0.01229 -0.018461,-0.02614 -0.027696,-0.03846 -0.021527,-0.03076 -0.041544,-0.06305 -0.056902,-0.09536 -0.015381,-0.02616 -0.027696,-0.05384 -0.038463,-0.08151 -0.012315,-0.0277 -0.023082,-0.05692 -0.032309,-0.08768 -0.00768,-0.01999 -0.012315,-0.03846 -0.016914,-0.05998 -0.00459,-0.01691 -0.00923,-0.03538 -0.012315,-0.05384 l 4.1192645,-4.1193 0.2368818,-0.2353491 0.1999545,-0.2014863 h 0.00156 l 4.1146466,-4.114626 c 0.0061,0.029207 0.0092,0.059986 0.01232,0.089214 0.0031,0.030739 0.0046,0.06307 0.0046,0.093829 z"
       id="path62111" /><path
       style="opacity:0.1;fill:#040000;stroke-width:0.0201567"
       d="m 13.270028,13.657611 v 0.22765 c 0,0.553765 -0.453768,1.007512 -1.007513,1.007512 H 5.5729728 c -0.2215017,0 -0.4276241,-0.07228 -0.5937356,-0.195358 -0.08613,-0.06154 -0.1599836,-0.136905 -0.2230339,-0.223034 -0.075366,-0.104614 -0.1322884,-0.223054 -0.1630471,-0.352259 -0.00459,-0.01387 -0.00768,-0.02921 -0.010767,-0.04461 0,-0.0031 -0.00156,-0.0061 -0.00156,-0.0092 l 0.050756,-0.0492 c 0.00615,0.01536 0.012315,0.03076 0.018461,0.04614 0.1584314,0.352238 0.5137538,0.601435 0.9229142,0.601435 h 6.6895626 c 0.553725,0 1.007472,-0.453767 1.007472,-1.009064 z"
       id="path62115" /><rect
       width="5.4932923"
       height="1.2676829"
       x="-0.6163035"
       fill="#325aa6"
       id="rect62255"
       y="16.399668"
       transform="rotate(-45)"
       style="fill:#cccccc;fill-rule:evenodd;stroke-width:0.21128" /><rect
       width="0.84512192"
       height="0.84512192"
       x="4.8769894"
       y="16.610949"
       fill="#5ea7ff"
       id="rect62257"
       transform="rotate(-45)"
       style="fill:#ff2a2a;fill-rule:evenodd;stroke-width:0.21128" /><path
       style="color:#000000;fill:#1a5b56;fill-rule:evenodd;stroke-width:0.740531;stroke-linecap:round;stroke-linejoin:round;-inkscape-stroke:none;fill-opacity:1"
       d="m 7.5624325,11.936693 c -0.1146898,0.03179 -0.1740426,0.09645 -0.2357555,0.164884 -0.1234243,0.136875 -0.2353334,0.324359 -0.3427844,0.523578 -0.2149036,0.398439 -0.3977467,0.837437 -0.3977467,0.837437 a 0.21128054,0.21128054 0 0 0 0.1142618,0.276253 0.21128054,0.21128054 0 0 0 0.2762529,-0.114262 c 0,0 0.1782288,-0.426252 0.3789438,-0.798385 0.06156,-0.11414 0.1167721,-0.183982 0.1750082,-0.270467 0.00185,0.127866 0.022882,0.224011 -0.015907,0.38039 -0.065189,0.262799 -0.1562061,0.484527 -0.1562061,0.484527 -1.63e-5,4.4e-5 -0.00148,0.0044 -0.00148,0.0044 a 0.21130167,0.21130167 0 0 0 0.3919609,0.157653 c 0,0 0.00141,-0.0043 0.00148,-0.0044 0,0 0.070965,-0.177734 0.1576524,-0.315304 0.02389,-0.03792 0.03813,-0.04964 0.059302,-0.07376 0.045098,0.06835 0.092136,0.149273 0.1128147,0.245879 0.026763,0.125032 0.028925,0.224184 0.028925,0.224184 a 0.21130167,0.21130167 0 0 0 0.3500165,0.156206 l 0.4122099,-0.357248 c 0.039263,0.0771 0.035086,0.09557 0.1012447,0.186579 0.078569,0.108077 0.1765545,0.217744 0.3095183,0.296502 0.1329646,0.07876 0.3141303,0.119139 0.4917593,0.06364 a 0.21128054,0.21128054 0 0 0 0.1374033,-0.264682 0.21128054,0.21128054 0 0 0 -0.2646821,-0.13885 c -0.058213,0.01819 -0.092783,0.011 -0.1504204,-0.02314 C 9.4385687,13.544163 9.3716099,13.475358 9.313964,13.396062 9.1986729,13.237471 9.1273849,13.053277 9.1273849,13.053277 a 0.21130167,0.21130167 0 0 0 -0.3369994,-0.08533 l -0.3398926,0.293609 c -0.039137,-0.150245 -0.08274,-0.317794 -0.2270765,-0.452708 -0.05945,-0.05557 -0.14747,-0.09644 -0.2328622,-0.09691 -0.028873,-1.55e-4 -0.045454,0.01698 -0.070869,0.02314 0.035479,-0.220581 0.1052524,-0.4455 -0.014463,-0.650857 -0.028918,-0.04961 -0.073957,-0.101005 -0.1402958,-0.131618 -0.066344,-0.03061 -0.1451441,-0.03181 -0.2024886,-0.01591 z"
       id="path62265" /><rect
       width="0.97867507"
       height="0.22584809"
       x="-2.3735917"
       fill="#325aa6"
       id="rect76507"
       y="16.904852"
       transform="rotate(-45)"
       style="fill:#1a5b56;fill-opacity:1;fill-rule:evenodd;stroke-width:0.0376413" /><rect
       width="1.8499043"
       height="0.42690101"
       x="-1.7178712"
       fill="#325aa6"
       id="rect76505"
       y="16.79834"
       transform="rotate(-45)"
       style="fill:#cccccc;fill-rule:evenodd;stroke-width:0.0711501" /><path
       d="m 20.10553,8.0124708 v -0.902368 h 3.716283 v 0.902368 H 22.492201 V 12.472747 H 21.40936 V 8.0124708 Z"
       style="font-weight:bold;font-size:7.54306px;line-height:1.25;font-family:'Roboto Condensed';-inkscape-font-specification:'Roboto Condensed,  Bold';fill:#1d6862;stroke-width:0.353581;fill-opacity:1"
       id="path1017" /><path
       d="M 25.574985,7.1101028 V 12.472747 H 24.492144 V 7.1101028 Z"
       style="font-weight:bold;font-size:7.54306px;line-height:1.25;font-family:'Roboto Condensed';-inkscape-font-specification:'Roboto Condensed,  Bold';fill:#1d6862;stroke-width:0.353581;fill-opacity:1"
       id="path1014" /><path
       d="m 27.571244,10.586982 v 1.885765 H 26.48472 V 7.1101028 h 1.830518 q 0.810289,0 1.274364,0.5045894 0.467758,0.5009063 0.467758,1.2706815 0,0.7771414 -0.464075,1.2375333 -0.460391,0.460392 -1.266998,0.464075 z m 0,-2.5745112 v 1.6721431 h 0.743994 q 0.338848,0 0.489857,-0.2209881 0.154691,-0.2246712 0.154691,-0.5708859 0,-0.3462146 -0.154691,-0.6114003 -0.151009,-0.2688688 -0.489857,-0.2688688 z"
       style="font-weight:bold;font-size:7.54306px;line-height:1.25;font-family:'Roboto Condensed';-inkscape-font-specification:'Roboto Condensed,  Bold';fill:#1d6862;stroke-width:0.353581;fill-opacity:1"
       id="path1011" /><path
       d="m 34.550784,10.270232 q 0,1.134406 -0.530371,1.705292 -0.530371,0.570886 -1.395908,0.570886 -0.861854,0 -1.399591,-0.570886 -0.537738,-0.570886 -0.537738,-1.705292 V 9.3789137 q 0,-1.1601874 0.534055,-1.749489 0.534054,-0.5929846 1.395908,-0.5929846 0.865536,0 1.399591,0.5929846 0.534054,0.5893016 0.534054,1.749489 z M 33.467943,9.3715474 q 0,-0.766092 -0.217305,-1.0975741 -0.217305,-0.3314821 -0.633499,-0.3314821 -0.412511,0 -0.629816,0.327799 -0.213622,0.3241158 -0.217305,1.0717922 v 0.9281496 q 0,0.729261 0.217305,1.053377 0.220988,0.320433 0.637182,0.320433 0.412511,0 0.626133,-0.31675 0.213622,-0.31675 0.217305,-1.031278 z"
       style="font-weight:bold;font-size:7.54306px;line-height:1.25;font-family:'Roboto Condensed';-inkscape-font-specification:'Roboto Condensed,  Bold';fill:#1d6862;stroke-width:0.353581;fill-opacity:1"
       id="path1008" /><path
       d="m 38.311265,11.574062 v 0.898685 H 35.327926 V 7.1101028 h 1.086525 v 4.4639592 z"
       style="font-weight:bold;font-size:7.54306px;line-height:1.25;font-family:'Roboto Condensed';-inkscape-font-specification:'Roboto Condensed,  Bold';fill:#1d6862;stroke-width:0.353581;fill-opacity:1"
       id="path1005" /><path
       d="m 42.47689,10.270232 q 0,1.134406 -0.530372,1.705292 -0.530371,0.570886 -1.395908,0.570886 -0.861853,0 -1.399591,-0.570886 -0.537737,-0.570886 -0.537737,-1.705292 V 9.3789137 q 0,-1.1601874 0.534054,-1.749489 0.534055,-0.5929846 1.395908,-0.5929846 0.865537,0 1.399591,0.5929846 0.534055,0.5893016 0.534055,1.749489 z M 41.394048,9.3715474 q 0,-0.766092 -0.217305,-1.0975741 -0.217305,-0.3314821 -0.633499,-0.3314821 -0.412511,0 -0.629816,0.327799 -0.213622,0.3241158 -0.217305,1.0717922 v 0.9281496 q 0,0.729261 0.217305,1.053377 0.220988,0.320433 0.637182,0.320433 0.412511,0 0.626133,-0.31675 0.213622,-0.31675 0.217305,-1.031278 z"
       style="font-weight:bold;font-size:7.54306px;line-height:1.25;font-family:'Roboto Condensed';-inkscape-font-specification:'Roboto Condensed,  Bold';fill:#1d6862;stroke-width:0.353581;fill-opacity:1"
       id="path1002" /><path
       d="M 46.904018,9.6514657 V 11.86503 q -0.169424,0.180473 -0.589301,0.430926 -0.419878,0.250454 -1.17492,0.250454 -0.895002,0 -1.43274,-0.56352 -0.534054,-0.567203 -0.534054,-1.734756 V 9.3383992 q 0,-1.1712368 0.511955,-1.7384395 0.511956,-0.5672028 1.388542,-0.5672028 0.909734,0 1.336978,0.4567087 0.427244,0.4530256 0.489857,1.3259285 h -1.049693 q -0.0442,-0.5045894 -0.217305,-0.6924293 -0.169425,-0.191523 -0.530372,-0.191523 -0.419877,0 -0.629816,0.3130664 -0.209938,0.3130665 -0.213622,1.0570597 v 0.9465661 q 0,0.762408 0.232038,1.082841 0.232037,0.31675 0.710845,0.31675 0.287284,0 0.416194,-0.07735 l 0.198889,-0.11786 V 10.469122 H 45.055084 V 9.6514657 Z"
       style="font-weight:bold;font-size:7.54306px;line-height:1.25;font-family:'Roboto Condensed';-inkscape-font-specification:'Roboto Condensed,  Bold';fill:#1d6862;stroke-width:0.353581;fill-opacity:1"
       id="path999" /><path
       d="M 48.800833,7.1101028 V 12.472747 H 47.717991 V 7.1101028 Z"
       style="font-weight:bold;font-size:7.54306px;line-height:1.25;font-family:'Roboto Condensed';-inkscape-font-specification:'Roboto Condensed,  Bold';fill:#1d6862;stroke-width:0.353581;fill-opacity:1"
       id="path996" /><path
       d="M 49.710567,12.472747 V 7.1101028 h 3.071734 v 0.902368 h -1.985209 v 1.2669983 h 1.683192 v 0.8729029 h -1.683192 v 1.42169 h 1.992576 v 0.898685 z"
       style="font-weight:bold;font-size:7.54306px;line-height:1.25;font-family:'Roboto Condensed';-inkscape-font-specification:'Roboto Condensed,  Bold';fill:#1d6862;stroke-width:0.353581;fill-opacity:1"
       id="path993" /><path
       d="m 57.419367,11.062106 q 0,-0.276235 -0.136276,-0.453025 Q 57.150498,10.428607 56.579612,10.19657 56.008726,9.9645321 55.581483,9.6072681 55.128457,9.2279052 55.128457,8.5354759 q 0,-0.6776968 0.475125,-1.0865248 0.475124,-0.412511 1.2228,-0.412511 0.769775,0 1.226484,0.4640749 0.460392,0.464075 0.460392,1.1896525 h -1.082842 q 0,-0.3351652 -0.147325,-0.5524702 -0.143642,-0.2173049 -0.475124,-0.2173049 -0.305701,0 -0.453026,0.1804736 -0.143642,0.1804736 -0.143642,0.438293 0,0.2615026 0.217305,0.438293 0.220988,0.1767905 0.581935,0.3351653 0.75136,0.2688688 1.123356,0.6740136 0.371997,0.4051451 0.371997,1.0681091 0,0.707162 -0.44566,1.101257 -0.445659,0.390413 -1.211751,0.390413 -0.460392,0 -0.887635,-0.18784 -0.423561,-0.18784 -0.696113,-0.578252 -0.272552,-0.390413 -0.272552,-1.001813 h 1.086525 q 0,0.486174 0.191523,0.685063 0.195206,0.198889 0.578252,0.198889 0.313067,0 0.441976,-0.169424 0.12891,-0.173107 0.12891,-0.430927 z"
       style="font-weight:bold;font-size:7.54306px;line-height:1.25;font-family:'Roboto Condensed';-inkscape-font-specification:'Roboto Condensed,  Bold';fill:#1d6862;stroke-width:0.353581;fill-opacity:1"
       id="path990" /><path
       d="m 62.999316,10.270232 q 0,1.134406 -0.530371,1.705292 -0.530371,0.570886 -1.395908,0.570886 -0.861853,0 -1.399591,-0.570886 -0.537738,-0.570886 -0.537738,-1.705292 V 9.3789137 q 0,-1.1601874 0.534055,-1.749489 0.534054,-0.5929846 1.395908,-0.5929846 0.865536,0 1.399591,0.5929846 0.534054,0.5893016 0.534054,1.749489 z M 61.916475,9.3715474 q 0,-0.766092 -0.217305,-1.0975741 -0.217305,-0.3314821 -0.633499,-0.3314821 -0.412511,0 -0.629816,0.327799 -0.213622,0.3241158 -0.217305,1.0717922 v 0.9281496 q 0,0.729261 0.217305,1.053377 0.220988,0.320433 0.637182,0.320433 0.412511,0 0.626133,-0.31675 0.213622,-0.31675 0.217305,-1.031278 z"
       style="font-weight:bold;font-size:7.54306px;line-height:1.25;font-family:'Roboto Condensed';-inkscape-font-specification:'Roboto Condensed,  Bold';fill:#1d6862;stroke-width:0.353581;fill-opacity:1"
       id="path987" /><path
       d="m 63.223988,8.0124708 v -0.902368 h 3.716283 v 0.902368 H 65.610659 V 12.472747 H 64.527818 V 8.0124708 Z"
       style="font-weight:bold;font-size:7.54306px;line-height:1.25;font-family:'Roboto Condensed';-inkscape-font-specification:'Roboto Condensed,  Bold';fill:#1d6862;stroke-width:0.353581;fill-opacity:1"
       id="path984" /><path
       d="m 67.382248,8.0124708 v -0.902368 h 3.716283 v 0.902368 H 69.76892 V 12.472747 H 68.686078 V 8.0124708 Z"
       style="font-weight:bold;font-size:7.54306px;line-height:1.25;font-family:'Roboto Condensed';-inkscape-font-specification:'Roboto Condensed,  Bold';fill:#1d6862;stroke-width:0.353581;fill-opacity:1"
       id="path981" /><path
       d="m 75.393066,10.270232 q 0,1.134406 -0.530372,1.705292 -0.530371,0.570886 -1.395908,0.570886 -0.861853,0 -1.399591,-0.570886 -0.537738,-0.570886 -0.537738,-1.705292 V 9.3789137 q 0,-1.1601874 0.534055,-1.749489 0.534054,-0.5929846 1.395908,-0.5929846 0.865537,0 1.399591,0.5929846 0.534055,0.5893016 0.534055,1.749489 z M 74.310224,9.3715474 q 0,-0.766092 -0.217305,-1.0975741 -0.217305,-0.3314821 -0.633499,-0.3314821 -0.412511,0 -0.629816,0.327799 -0.213622,0.3241158 -0.217305,1.0717922 v 0.9281496 q 0,0.729261 0.217305,1.053377 0.220988,0.320433 0.637182,0.320433 0.412511,0 0.626133,-0.31675 0.213622,-0.31675 0.217305,-1.031278 z"
       style="font-weight:bold;font-size:7.54306px;line-height:1.25;font-family:'Roboto Condensed';-inkscape-font-specification:'Roboto Condensed,  Bold';fill:#1d6862;stroke-width:0.353581;fill-opacity:1"
       id="path978" /><path
       d="m 78.439017,11.062106 q 0,-0.276235 -0.136276,-0.453025 -0.132593,-0.180474 -0.703479,-0.412511 -0.570886,-0.2320379 -0.99813,-0.5893019 -0.453025,-0.3793629 -0.453025,-1.0717922 0,-0.6776968 0.475124,-1.0865248 0.475124,-0.412511 1.222801,-0.412511 0.769775,0 1.226484,0.4640749 0.460392,0.464075 0.460392,1.1896525 h -1.082842 q 0,-0.3351652 -0.147325,-0.5524702 -0.143643,-0.2173049 -0.475125,-0.2173049 -0.3057,0 -0.453025,0.1804736 -0.143643,0.1804736 -0.143643,0.438293 0,0.2615026 0.217305,0.438293 0.220988,0.1767905 0.581936,0.3351653 0.751359,0.2688688 1.123356,0.6740136 0.371996,0.4051451 0.371996,1.0681091 0,0.707162 -0.445659,1.101257 -0.445659,0.390413 -1.211751,0.390413 -0.460392,0 -0.887636,-0.18784 -0.42356,-0.18784 -0.696112,-0.578252 -0.272552,-0.390413 -0.272552,-1.001813 h 1.086524 q 0,0.486174 0.191523,0.685063 0.195207,0.198889 0.578253,0.198889 0.313066,0 0.441976,-0.169424 0.12891,-0.173107 0.12891,-0.430927 z"
       style="font-weight:bold;font-size:7.54306px;line-height:1.25;font-family:'Roboto Condensed';-inkscape-font-specification:'Roboto Condensed,  Bold';fill:#1d6862;stroke-width:0.353581;fill-opacity:1"
       id="path975" /><path
       d="m 82.796165,10.682743 h 1.082842 q -0.03683,0.913418 -0.515639,1.388542 -0.478808,0.475125 -1.340661,0.475125 -0.883952,0 -1.373809,-0.578253 -0.489857,-0.578252 -0.500907,-1.66846 V 9.3383992 q 0,-1.123356 0.50459,-1.7126576 0.508272,-0.5929847 1.384859,-0.5929847 0.876586,0 1.333294,0.4935401 0.456709,0.4898569 0.515639,1.4032743 H 82.803532 Q 82.785116,8.3550023 82.623058,8.1450636 82.461,7.9314418 82.03744,7.9314418 q -0.416195,0 -0.607718,0.2983339 -0.191523,0.2983339 -0.198889,1.0423271 v 0.9760312 q 0,0.758725 0.165741,1.079158 0.165741,0.320433 0.626133,0.320433 0.401462,0 0.578252,-0.191523 0.176791,-0.191523 0.195206,-0.773459 z"
       style="font-weight:bold;font-size:7.54306px;line-height:1.25;font-family:'Roboto Condensed';-inkscape-font-specification:'Roboto Condensed,  Bold';fill:#1d6862;stroke-width:0.353581;fill-opacity:1"
       id="path972" /><path
       d="m 86.980208,12.472747 -0.806607,-1.959428 h -0.537737 v 1.959428 H 84.549339 V 7.1101028 h 1.72739 q 0.802923,0 1.252266,0.4161942 0.449342,0.4125111 0.449342,1.204385 0,0.5819353 -0.206255,0.9391994 -0.206256,0.3572636 -0.570886,0.5524706 l 0.942882,2.198831 v 0.05156 z M 85.635864,8.0124708 v 1.5984804 h 0.6114 q 0.324116,0 0.486174,-0.2136218 0.162058,-0.217305 0.162058,-0.5782522 0,-0.7918739 -0.596668,-0.8066064 z"
       style="font-weight:bold;font-size:7.54306px;line-height:1.25;font-family:'Roboto Condensed';-inkscape-font-specification:'Roboto Condensed,  Bold';fill:#1d6862;stroke-width:0.353581;fill-opacity:1"
       id="path969" /><path
       d="M 89.853052,7.1101028 V 12.472747 H 88.77021 V 7.1101028 Z"
       style="font-weight:bold;font-size:7.54306px;line-height:1.25;font-family:'Roboto Condensed';-inkscape-font-specification:'Roboto Condensed,  Bold';fill:#1d6862;stroke-width:0.353581;fill-opacity:1"
       id="path966" /><path
       d="m 90.597047,8.0124708 v -0.902368 h 3.462147 v 0.6334991 l -2.17305,3.8304601 h 2.209881 v 0.898685 h -3.476879 v -0.651915 l 2.187782,-3.8083612 z"
       style="font-weight:bold;font-size:7.54306px;line-height:1.25;font-family:'Roboto Condensed';-inkscape-font-specification:'Roboto Condensed,  Bold';fill:#1d6862;stroke-width:0.353581;fill-opacity:1"
       id="path963" /><path
       d="M 95.893389,7.1101028 V 12.472747 H 94.810547 V 7.1101028 Z"
       style="font-weight:bold;font-size:7.54306px;line-height:1.25;font-family:'Roboto Condensed';-inkscape-font-specification:'Roboto Condensed,  Bold';fill:#1d6862;stroke-width:0.353581;fill-opacity:1"
       id="path960" /><path
       d="m 100.57834,10.270232 q 0,1.134406 -0.53037,1.705292 -0.530375,0.570886 -1.395912,0.570886 -0.861853,0 -1.399591,-0.570886 Q 96.71473,11.404638 96.71473,10.270232 V 9.3789137 q 0,-1.1601874 0.534054,-1.749489 0.534055,-0.5929846 1.395908,-0.5929846 0.865537,0 1.399588,0.5929846 0.53406,0.5893016 0.53406,1.749489 z M 99.495496,9.3715474 q 0,-0.766092 -0.217305,-1.0975741 -0.217305,-0.3314821 -0.633499,-0.3314821 -0.412511,0 -0.629816,0.327799 -0.213622,0.3241158 -0.217305,1.0717922 v 0.9281496 q 0,0.729261 0.217305,1.053377 0.220988,0.320433 0.637182,0.320433 0.412512,0 0.626133,-0.31675 0.213622,-0.31675 0.217305,-1.031278 z"
       style="font-weight:bold;font-size:7.54306px;line-height:1.25;font-family:'Roboto Condensed';-inkscape-font-specification:'Roboto Condensed,  Bold';fill:#1d6862;stroke-width:0.353581;fill-opacity:1"
       id="path957" /><path
       d="m 105.10859,7.1101028 v 5.3626442 h -1.08284 L 102.442,8.9553532 v 3.5173938 h -1.08652 V 7.1101028 h 1.08652 l 1.58375,3.5210772 V 7.1101028 Z"
       style="font-weight:bold;font-size:7.54306px;line-height:1.25;font-family:'Roboto Condensed';-inkscape-font-specification:'Roboto Condensed,  Bold';fill:#1d6862;stroke-width:0.353581;fill-opacity:1"
       id="path954" /><path
       d="M 105.97413,12.472747 V 7.1101028 h 3.07173 v 0.902368 h -1.98521 v 1.2669983 h 1.6832 v 0.8729029 h -1.6832 v 1.42169 h 1.99258 v 0.898685 z"
       style="font-weight:bold;font-size:7.54306px;line-height:1.25;font-family:'Roboto Condensed';-inkscape-font-specification:'Roboto Condensed,  Bold';fill:#1d6862;stroke-width:0.353581;fill-opacity:1"
       id="path951" /></g></svg>
