<?xml version="1.0" encoding="UTF-8" standalone="no"?>
<!-- Created with Inkscape (http://www.inkscape.org/) -->

<svg
   width="748"
   height="512"
   viewBox="0 0 197.90833 135.46667"
   version="1.1"
   id="svg4045"
   inkscape:version="1.2.2 (b0a8486541, 2022-12-01)"
   sodipodi:docname="theme.svg"
   xmlns:inkscape="http://www.inkscape.org/namespaces/inkscape"
   xmlns:sodipodi="http://sodipodi.sourceforge.net/DTD/sodipodi-0.dtd"
   xmlns="http://www.w3.org/2000/svg"
   xmlns:svg="http://www.w3.org/2000/svg">
  <sodipodi:namedview
     id="namedview4047"
     pagecolor="#ffffff"
     bordercolor="#000000"
     borderopacity="0.25"
     inkscape:showpageshadow="false"
     inkscape:pageopacity="0.0"
     inkscape:pagecheckerboard="0"
     inkscape:deskcolor="#d1d1d1"
     inkscape:document-units="px"
     showgrid="false"
     inkscape:zoom="2.1718996"
     inkscape:cx="434.64257"
     inkscape:cy="182.55909"
     inkscape:window-width="2527"
     inkscape:window-height="1408"
     inkscape:window-x="33"
     inkscape:window-y="0"
     inkscape:window-maximized="1"
     inkscape:current-layer="layer1" />
  <defs
     id="defs4042" />
  <g
     inkscape:label="Livello 1"
     inkscape:groupmode="layer"
     id="layer1">
    <rect
       style="fill:#4662d9;fill-opacity:1;stroke:#ffccaa;stroke-width:0;stroke-linecap:round;stroke-linejoin:round"
       id="rect2615"
       width="91.742592"
       height="4.0533957"
       x="89.704918"
       y="8.6362562" />
    <rect
       style="fill:#fcf8f8;fill-opacity:1;stroke:#ffccaa;stroke-width:0;stroke-linecap:round;stroke-linejoin:round"
       id="rect2617"
       width="91.805717"
       height="49.031216"
       x="89.641838"
       y="12.689652" />
    <rect
       style="fill:#2a49cb;fill-opacity:1;stroke:#ffccaa;stroke-width:0;stroke-linecap:round;stroke-linejoin:round"
       id="rect5577"
       width="9.4440908"
       height="9.4440908"
       x="31.962444"
       y="8.6362562" />
    <rect
       style="fill:#706aff;fill-opacity:1;stroke:#ffccaa;stroke-width:0;stroke-linecap:round;stroke-linejoin:round"
       id="rect5579"
       width="9.4440908"
       height="9.4440908"
       x="31.962444"
       y="18.080345" />
    <rect
       style="fill:#d946ad;fill-opacity:1;stroke:#ffccaa;stroke-width:0;stroke-linecap:round;stroke-linejoin:round"
       id="rect5581"
       width="9.4440908"
       height="9.4440908"
       x="31.962444"
       y="27.524437" />
    <rect
       style="fill:#fd7cff;fill-opacity:1;stroke:#ffccaa;stroke-width:0;stroke-linecap:round;stroke-linejoin:round"
       id="rect5583"
       width="9.4440908"
       height="9.4440908"
       x="31.962444"
       y="36.968529" />
    <rect
       style="fill:#ff524e;fill-opacity:1;stroke:#ffccaa;stroke-width:0;stroke-linecap:round;stroke-linejoin:round"
       id="rect5585"
       width="9.4440908"
       height="9.4440908"
       x="31.962444"
       y="46.412617" />
    <rect
       style="fill:#ff803b;fill-opacity:1;stroke:#ffccaa;stroke-width:0;stroke-linecap:round;stroke-linejoin:round"
       id="rect5587"
       width="9.4440908"
       height="9.4440908"
       x="31.962444"
       y="55.856712" />
    <rect
       style="fill:#f2e20f;fill-opacity:1;stroke:#ffccaa;stroke-width:0;stroke-linecap:round;stroke-linejoin:round"
       id="rect5589"
       width="9.4440908"
       height="9.4440908"
       x="31.962444"
       y="65.300804" />
    <rect
       style="fill:#1cad1f;fill-opacity:1;stroke:#ffccaa;stroke-width:0;stroke-linecap:round;stroke-linejoin:round"
       id="rect5591"
       width="9.4440908"
       height="9.4440908"
       x="31.962444"
       y="74.744888" />
    <path
       d="m 44.68883,14.529371 v -1.435505 q 0,-0.08562 -0.03023,-0.115845 -0.03023,-0.03022 -0.120884,-0.03022 H 44.36143 q -0.09066,0 -0.130958,0.04029 -0.03526,0.0403 -0.03526,0.135995 v 1.375063 q 0,0.09569 0.03526,0.135995 0.0403,0.04029 0.130958,0.04029 h 0.176291 q 0.09066,0 0.120884,-0.02518 0.03023,-0.03023 0.03023,-0.120884 z m -0.181327,-1.949265 h 0.176291 q 0.458354,0 0.458354,0.448282 v 1.571499 q 0,0.443244 -0.458354,0.443244 h -0.176291 q -0.246806,0 -0.312285,-0.196439 v 0.196439 H 43.7419 v -3.369659 h 0.453318 v 1.103073 q 0.06548,-0.196439 0.312285,-0.196439 z"
       id="path17341"
       style="font-size:4.31444px;font-family:Teko;-inkscape-font-specification:Teko;text-align:center;text-anchor:middle;fill:#333333;stroke:#ffccaa;stroke-width:0;stroke-linecap:round;stroke-linejoin:round" />
    <path
       d="M 46.00849,15.043131 H 45.555172 V 11.673472 H 46.00849 Z"
       id="path17343"
       style="font-size:4.31444px;font-family:Teko;-inkscape-font-specification:Teko;text-align:center;text-anchor:middle;fill:#333333;stroke:#ffccaa;stroke-width:0;stroke-linecap:round;stroke-linejoin:round" />
    <path
       d="m 47.393624,12.585144 h 0.453316 v 2.457987 h -0.453316 v -0.196439 q -0.06548,0.196439 -0.312287,0.196439 h -0.181325 q -0.453318,0 -0.453318,-0.443244 v -2.014743 h 0.453318 v 1.944227 q 0,0.09066 0.03023,0.120884 0.03023,0.02518 0.120885,0.02518 h 0.176289 q 0.09066,0 0.125922,-0.04029 0.0403,-0.0403 0.0403,-0.135996 z"
       id="path17345"
       style="font-size:4.31444px;font-family:Teko;-inkscape-font-specification:Teko;text-align:center;text-anchor:middle;fill:#333333;stroke:#ffccaa;stroke-width:0;stroke-linecap:round;stroke-linejoin:round" />
    <path
       d="m 48.723353,13.622737 h 0.54398 V 13.08883 q 0,-0.08563 -0.03023,-0.115846 -0.02518,-0.03022 -0.115846,-0.03022 h -0.246804 q -0.09066,0 -0.120885,0.03022 -0.03023,0.03022 -0.03023,0.115846 z m 0.02518,-1.037593 h 0.493612 q 0.473465,0 0.473465,0.44828 v 0.921746 h -0.99226 v 0.584275 q 0,0.08562 0.03022,0.115845 0.03023,0.03022 0.120886,0.03022 h 0.231695 q 0.09066,0 0.120885,-0.03022 0.03023,-0.03023 0.03023,-0.120885 v -0.201473 h 0.443244 v 0.266953 q 0,0.443244 -0.468428,0.443244 h -0.483538 q -0.468428,0 -0.468428,-0.443244 v -1.566463 q 0,-0.44828 0.468428,-0.44828 z"
       id="path17347"
       style="font-size:4.31444px;font-family:Teko;-inkscape-font-specification:Teko;text-align:center;text-anchor:middle;fill:#333333;stroke:#ffccaa;stroke-width:0;stroke-linecap:round;stroke-linejoin:round" />
    <path
       d="m 44.205289,24.142195 h -0.453316 v -2.457986 h 0.453316 z m -0.46339,-2.926413 v -0.448281 h 0.473464 v 0.448281 z"
       id="path17350"
       style="font-size:4.31444px;font-family:Teko;-inkscape-font-specification:Teko;text-align:center;text-anchor:middle;fill:#333333;stroke:#ffccaa;stroke-width:0;stroke-linecap:round;stroke-linejoin:round" />
    <path
       d="m 45.414132,21.684209 h 0.176291 q 0.458354,0 0.458354,0.448281 v 2.009705 h -0.453318 v -1.944227 q 0,-0.09066 -0.03023,-0.115845 -0.03022,-0.03022 -0.120885,-0.03022 H 45.26806 q -0.09066,0 -0.130959,0.0403 -0.03526,0.0403 -0.03526,0.135995 v 1.914006 h -0.453317 v -2.457986 h 0.453317 v 0.196437 q 0.06548,-0.196437 0.312285,-0.196437 z"
       id="path17352"
       style="font-size:4.31444px;font-family:Teko;-inkscape-font-specification:Teko;text-align:center;text-anchor:middle;fill:#333333;stroke:#ffccaa;stroke-width:0;stroke-linecap:round;stroke-linejoin:round" />
    <path
       d="m 47.061184,23.774505 h 0.176291 q 0.09066,0 0.125921,-0.04029 0.0403,-0.0403 0.0403,-0.135995 v -1.375062 q 0,-0.09569 -0.0403,-0.135995 -0.03526,-0.0403 -0.125921,-0.0403 h -0.176291 q -0.09066,0 -0.120884,0.03023 -0.03023,0.03022 -0.03023,0.115845 v 1.435504 q 0,0.09066 0.03023,0.120885 0.03023,0.02518 0.120884,0.02518 z m 0.342506,-3.001967 h 0.453318 v 3.369657 H 47.40369 v -0.196437 q -0.06548,0.196437 -0.312285,0.196437 h -0.181327 q -0.453316,0 -0.453316,-0.443242 v -1.571501 q 0,-0.44828 0.453316,-0.44828 h 0.181327 q 0.246807,0 0.312285,0.196437 z"
       id="path17354"
       style="font-size:4.31444px;font-family:Teko;-inkscape-font-specification:Teko;text-align:center;text-anchor:middle;fill:#333333;stroke:#ffccaa;stroke-width:0;stroke-linecap:round;stroke-linejoin:round" />
    <path
       d="m 48.753572,24.142195 h -0.453318 v -2.457986 h 0.453318 z M 48.29018,21.215782 v -0.448281 h 0.473466 v 0.448281 z"
       id="path17356"
       style="font-size:4.31444px;font-family:Teko;-inkscape-font-specification:Teko;text-align:center;text-anchor:middle;fill:#333333;stroke:#ffccaa;stroke-width:0;stroke-linecap:round;stroke-linejoin:round" />
    <path
       d="m 49.771014,23.744283 h 0.176291 q 0.09066,0 0.125921,-0.0403 0.04029,-0.0403 0.04029,-0.135995 v -1.339799 q 0,-0.09569 -0.04029,-0.135995 -0.03526,-0.0403 -0.125921,-0.0403 h -0.176291 q -0.09066,0 -0.120884,0.03022 -0.03022,0.02518 -0.03022,0.115845 v 1.400248 q 0,0.08562 0.03022,0.115845 0.03023,0.03022 0.120884,0.03022 z m 0.342506,-2.060074 h 0.453318 v 2.709829 q 0,0.443244 -0.473465,0.443244 h -0.841155 v -0.357617 h 0.710197 q 0.09066,0 0.120884,-0.03023 0.03023,-0.03022 0.03023,-0.115845 v -0.41806 q -0.06548,0.196439 -0.312285,0.196439 h -0.181327 q -0.453318,0 -0.453318,-0.448282 v -1.531204 q 0,-0.44828 0.453318,-0.44828 h 0.181327 q 0.246805,0 0.312285,0.196437 z"
       id="path17358"
       style="font-size:4.31444px;font-family:Teko;-inkscape-font-specification:Teko;text-align:center;text-anchor:middle;fill:#333333;stroke:#ffccaa;stroke-width:0;stroke-linecap:round;stroke-linejoin:round" />
    <path
       d="m 52.007382,23.633473 v -1.440541 q 0,-0.09066 -0.03023,-0.120886 -0.03023,-0.03023 -0.120885,-0.03023 H 51.57924 q -0.09066,0 -0.120885,0.03023 -0.02518,0.03023 -0.02518,0.120886 v 1.440541 q 0,0.09066 0.02518,0.120884 0.03023,0.03023 0.120885,0.03023 h 0.277027 q 0.09066,0 0.120885,-0.03023 0.03023,-0.03022 0.03023,-0.120884 z m -0.55909,-1.949264 h 0.538943 q 0.468427,0 0.468427,0.448281 v 1.566463 q 0,0.443242 -0.468427,0.443242 h -0.538943 q -0.463392,0 -0.463392,-0.443242 V 22.13249 q 0,-0.448281 0.463392,-0.448281 z"
       id="path17360"
       style="font-size:4.31444px;font-family:Teko;-inkscape-font-specification:Teko;text-align:center;text-anchor:middle;fill:#333333;stroke:#ffccaa;stroke-width:0;stroke-linecap:round;stroke-linejoin:round" />
    <path
       d="m 44.688829,33.070011 v -1.430468 q 0,-0.09066 -0.03023,-0.115845 -0.03022,-0.03022 -0.120885,-0.03022 h -0.17629 q -0.09066,0 -0.130959,0.04029 -0.03526,0.0403 -0.03526,0.135996 v 1.370025 q 0,0.0957 0.03526,0.135996 0.0403,0.04029 0.130959,0.04029 h 0.17629 q 0.09066,0 0.120885,-0.02518 0.03023,-0.03023 0.03023,-0.120884 z m -0.181327,-1.944227 h 0.17629 q 0.458354,0 0.458354,0.44828 v 1.566463 q 0,0.443243 -0.458354,0.443243 h -0.17629 q -0.246806,0 -0.312285,-0.196438 v 0.891524 H 43.7419 v -3.153072 h 0.453317 v 0.196437 q 0.06548,-0.196437 0.312285,-0.196437 z"
       id="path17363"
       style="font-size:4.31444px;font-family:Teko;-inkscape-font-specification:Teko;text-align:center;text-anchor:middle;fill:#333333;stroke:#ffccaa;stroke-width:0;stroke-linecap:round;stroke-linejoin:round" />
    <path
       d="m 46.497064,31.125784 h 0.453317 v 2.457986 h -0.453317 v -0.196438 q -0.06548,0.196438 -0.312285,0.196438 h -0.181327 q -0.453317,0 -0.453317,-0.443243 v -2.014743 h 0.453317 v 1.944227 q 0,0.09066 0.03022,0.120884 0.03023,0.02518 0.120886,0.02518 h 0.176289 q 0.09066,0 0.125922,-0.04029 0.0403,-0.0403 0.0403,-0.135995 z"
       id="path17365"
       style="font-size:4.31444px;font-family:Teko;-inkscape-font-specification:Teko;text-align:center;text-anchor:middle;fill:#333333;stroke:#ffccaa;stroke-width:0;stroke-linecap:round;stroke-linejoin:round" />
    <path
       d="m 48.244852,31.120746 h 0.100739 v 0.392876 h -0.181327 q -0.317322,0 -0.317322,0.372727 v 1.697421 h -0.453317 v -2.457986 h 0.453317 v 0.302211 q 0.0403,-0.130958 0.141032,-0.216585 0.10577,-0.09066 0.256879,-0.09066 z"
       id="path17367"
       style="font-size:4.31444px;font-family:Teko;-inkscape-font-specification:Teko;text-align:center;text-anchor:middle;fill:#333333;stroke:#ffccaa;stroke-width:0;stroke-linecap:round;stroke-linejoin:round" />
    <path
       d="m 49.539329,33.070011 v -1.430468 q 0,-0.09066 -0.03023,-0.115845 -0.03023,-0.03022 -0.120885,-0.03022 h -0.17629 q -0.09066,0 -0.130959,0.04029 -0.03526,0.0403 -0.03526,0.135996 v 1.370025 q 0,0.0957 0.03526,0.135996 0.0403,0.04029 0.130959,0.04029 h 0.17629 q 0.09066,0 0.120885,-0.02518 0.03023,-0.03023 0.03023,-0.120884 z m -0.181327,-1.944227 h 0.176291 q 0.458354,0 0.458354,0.44828 v 1.566463 q 0,0.443243 -0.458354,0.443243 h -0.176291 q -0.246805,0 -0.312285,-0.196438 v 0.891524 H 48.5924 v -3.153072 h 0.453317 v 0.196437 q 0.06548,-0.196437 0.312285,-0.196437 z"
       id="path17369"
       style="font-size:4.31444px;font-family:Teko;-inkscape-font-specification:Teko;text-align:center;text-anchor:middle;fill:#333333;stroke:#ffccaa;stroke-width:0;stroke-linecap:round;stroke-linejoin:round" />
    <path
       d="m 50.858989,33.58377 h -0.453318 v -3.369658 h 0.453318 z"
       id="path17371"
       style="font-size:4.31444px;font-family:Teko;-inkscape-font-specification:Teko;text-align:center;text-anchor:middle;fill:#333333;stroke:#ffccaa;stroke-width:0;stroke-linecap:round;stroke-linejoin:round" />
    <path
       d="m 51.735399,32.163376 h 0.543982 v -0.533907 q 0,-0.08563 -0.03023,-0.115845 -0.02518,-0.03023 -0.115846,-0.03023 H 51.8865 q -0.09066,0 -0.120884,0.03023 -0.03023,0.03023 -0.03023,0.115845 z m 0.02518,-1.037592 h 0.493613 q 0.473465,0 0.473465,0.44828 v 0.921744 h -0.992262 v 0.584276 q 0,0.08563 0.03023,0.115845 0.03023,0.03023 0.120884,0.03023 h 0.231697 q 0.09066,0 0.120883,-0.03023 0.03023,-0.03023 0.03023,-0.120885 v -0.201475 h 0.443243 v 0.266954 q 0,0.443243 -0.468428,0.443243 h -0.483539 q -0.468427,0 -0.468427,-0.443243 v -1.566459 q 0,-0.44828 0.468427,-0.44828 z"
       id="path17373"
       style="font-size:4.31444px;font-family:Teko;-inkscape-font-specification:Teko;text-align:center;text-anchor:middle;fill:#333333;stroke:#ffccaa;stroke-width:0;stroke-linecap:round;stroke-linejoin:round" />
    <path
       d="m 44.688829,42.516616 v -1.430468 q 0,-0.09066 -0.03023,-0.115845 -0.03022,-0.03023 -0.120885,-0.03023 h -0.17629 q -0.09066,0 -0.130958,0.04029 -0.03526,0.0403 -0.03526,0.135996 v 1.370025 q 0,0.0957 0.03526,0.135996 0.04029,0.04029 0.130958,0.04029 h 0.17629 q 0.09066,0 0.120885,-0.02518 0.03023,-0.03023 0.03023,-0.120884 z m -0.181327,-1.944228 h 0.176289 q 0.458354,0 0.458354,0.448281 v 1.566463 q 0,0.443242 -0.458354,0.443242 h -0.176289 q -0.246807,0 -0.312285,-0.196437 v 0.891524 h -0.453318 v -3.153073 h 0.453318 v 0.196438 q 0.06548,-0.196438 0.312285,-0.196438 z"
       id="path17376"
       style="font-size:4.31444px;font-family:Teko;-inkscape-font-specification:Teko;text-align:center;text-anchor:middle;fill:#333333;stroke:#ffccaa;stroke-width:0;stroke-linecap:round;stroke-linejoin:round" />
    <path
       d="m 46.008488,43.030374 h -0.453317 v -2.457986 h 0.453317 z M 45.545097,40.103961 V 39.65568 h 0.473464 v 0.448281 z"
       id="path17378"
       style="font-size:4.31444px;font-family:Teko;-inkscape-font-specification:Teko;text-align:center;text-anchor:middle;fill:#333333;stroke:#ffccaa;stroke-width:0;stroke-linecap:round;stroke-linejoin:round" />
    <path
       d="m 47.217332,40.572388 h 0.176289 q 0.458354,0 0.458354,0.448281 v 2.009705 h -0.453316 v -1.944226 q 0,-0.09066 -0.03023,-0.115845 -0.03023,-0.03023 -0.120884,-0.03023 h -0.176288 q -0.09066,0 -0.130957,0.04029 -0.03526,0.0403 -0.03526,0.135996 v 1.914005 h -0.45331 v -2.457986 h 0.453318 v 0.196438 q 0.06548,-0.196438 0.312285,-0.196438 z"
       id="path17380"
       style="font-size:4.31444px;font-family:Teko;-inkscape-font-specification:Teko;text-align:center;text-anchor:middle;fill:#333333;stroke:#ffccaa;stroke-width:0;stroke-linecap:round;stroke-linejoin:round" />
    <path
       d="m 48.290182,43.030374 v -3.369657 h 0.453316 v 3.369657 z m 1.561425,-2.457986 -0.564128,1.173588 0.564128,1.284398 h -0.483538 l -0.543981,-1.284398 0.543981,-1.173588 z"
       id="path17382"
       style="font-size:4.31444px;font-family:Teko;-inkscape-font-specification:Teko;text-align:center;text-anchor:middle;fill:#333333;stroke:#ffccaa;stroke-width:0;stroke-linecap:round;stroke-linejoin:round" />
    <path
       d="m 44.593129,50.356475 h 0.100738 V 50.74935 H 44.51254 q -0.317322,0 -0.317322,0.372726 v 1.697422 H 43.7419 v -2.457987 h 0.453318 v 0.302211 q 0.0403,-0.130957 0.141032,-0.216585 0.10577,-0.09066 0.25688,-0.09066 z"
       id="path17385"
       style="font-size:4.31444px;font-family:Teko;-inkscape-font-specification:Teko;text-align:center;text-anchor:middle;fill:#333333;stroke:#ffccaa;stroke-width:0;stroke-linecap:round;stroke-linejoin:round" />
    <path
       d="m 45.373846,51.399105 h 0.54398 v -0.533908 q 0,-0.08563 -0.03023,-0.115845 -0.02518,-0.03023 -0.115845,-0.03023 h -0.246805 q -0.09066,0 -0.120885,0.03023 -0.03023,0.03023 -0.03023,0.115845 z m 0.02518,-1.037594 h 0.493612 q 0.473464,0 0.473464,0.448281 v 0.921745 h -0.99226 v 0.584276 q 0,0.08562 0.03023,0.115845 0.03023,0.03023 0.120885,0.03023 h 0.231695 q 0.09066,0 0.120885,-0.03023 0.03023,-0.03023 0.03023,-0.120885 v -0.201474 h 0.443243 v 0.266953 q 0,0.443244 -0.468428,0.443244 H 45.39903 q -0.468428,0 -0.468428,-0.443244 v -1.566463 q 0,-0.44828 0.468428,-0.44828 z"
       id="path17387"
       style="font-size:4.31444px;font-family:Teko;-inkscape-font-specification:Teko;text-align:center;text-anchor:middle;fill:#333333;stroke:#ffccaa;stroke-width:0;stroke-linecap:round;stroke-linejoin:round" />
    <path
       d="m 47.32815,52.451807 h 0.176289 q 0.09066,0 0.125922,-0.0403 0.0403,-0.0403 0.0403,-0.135996 v -1.375062 q 0,-0.09569 -0.0403,-0.135995 -0.03526,-0.04029 -0.125922,-0.04029 H 47.32815 q -0.09066,0 -0.120885,0.03023 -0.03023,0.03023 -0.03023,0.115845 v 1.435505 q 0,0.09066 0.03023,0.120884 0.03023,0.02518 0.120885,0.02518 z m 0.342506,-3.001967 h 0.453317 v 3.369658 H 47.670656 V 52.62306 q -0.06548,0.196438 -0.312285,0.196438 h -0.181327 q -0.453317,0 -0.453317,-0.443243 v -1.5715 q 0,-0.44828 0.453317,-0.44828 h 0.181327 q 0.246806,0 0.312285,0.196437 z"
       id="path17389"
       style="font-size:4.31444px;font-family:Teko;-inkscape-font-specification:Teko;text-align:center;text-anchor:middle;fill:#333333;stroke:#ffccaa;stroke-width:0;stroke-linecap:round;stroke-linejoin:round" />
    <path
       d="m 44.764383,60.953998 v -1.440542 q 0,-0.09066 -0.03023,-0.120884 -0.03023,-0.03023 -0.120884,-0.03023 h -0.277027 q -0.09066,0 -0.120885,0.03023 -0.02518,0.03023 -0.02518,0.120884 v 1.440542 q 0,0.09066 0.02518,0.120885 0.03023,0.03023 0.120885,0.03023 h 0.277027 q 0.09066,0 0.120884,-0.03023 0.03023,-0.03023 0.03023,-0.120885 z m -0.559091,-1.949264 h 0.538944 q 0.468427,0 0.468427,0.44828 v 1.566463 q 0,0.443243 -0.468427,0.443243 h -0.538944 q -0.463391,0 -0.463391,-0.443243 v -1.566463 q 0,-0.44828 0.463391,-0.44828 z"
       id="path17392"
       style="font-size:4.31444px;font-family:Teko;-inkscape-font-specification:Teko;text-align:center;text-anchor:middle;fill:#333333;stroke:#ffccaa;stroke-width:0;stroke-linecap:round;stroke-linejoin:round" />
    <path
       d="m 46.481956,58.999697 h 0.100739 v 0.392875 h -0.181326 q -0.317322,0 -0.317322,0.372727 v 1.697421 h -0.453318 v -2.457986 h 0.453318 v 0.302211 q 0.04029,-0.130958 0.141031,-0.216585 0.105771,-0.09066 0.256881,-0.09066 z"
       id="path17394"
       style="font-size:4.31444px;font-family:Teko;-inkscape-font-specification:Teko;text-align:center;text-anchor:middle;fill:#333333;stroke:#ffccaa;stroke-width:0;stroke-linecap:round;stroke-linejoin:round" />
    <path
       d="m 47.403706,61.095029 h 0.176289 q 0.09066,0 0.125922,-0.04029 0.0403,-0.0403 0.0403,-0.135995 V 59.54872 q 0,-0.0957 -0.0403,-0.135995 -0.03526,-0.04029 -0.125922,-0.04029 h -0.176289 q -0.09066,0 -0.120886,0.03023 -0.03023,0.02518 -0.03023,0.115846 v 1.430467 q 0,0.09066 0.03023,0.120884 0.03023,0.02518 0.120886,0.02518 z m 0.342506,-2.090295 h 0.453317 V 61.46272 H 47.746212 V 61.266283 Q 47.68073,61.46272 47.433926,61.46272 H 47.2526 q -0.453318,0 -0.453318,-0.443243 v -1.566463 q 0,-0.44828 0.453318,-0.44828 h 0.181326 q 0.246807,0 0.312286,0.196437 z"
       id="path17396"
       style="font-size:4.31444px;font-family:Teko;-inkscape-font-specification:Teko;text-align:center;text-anchor:middle;fill:#333333;stroke:#ffccaa;stroke-width:0;stroke-linecap:round;stroke-linejoin:round" />
    <path
       d="m 49.408378,59.004734 h 0.17629 q 0.458354,0 0.458354,0.44828 v 2.009706 h -0.453318 v -1.944226 q 0,-0.09066 -0.03022,-0.115846 -0.03023,-0.03023 -0.120885,-0.03023 H 49.26231 q -0.09066,0 -0.130959,0.04029 -0.03526,0.0403 -0.03526,0.135995 v 1.914006 H 48.642778 V 59.00473 h 0.453316 v 0.196437 q 0.06548,-0.196437 0.312286,-0.196437 z"
       id="path17398"
       style="font-size:4.31444px;font-family:Teko;-inkscape-font-specification:Teko;text-align:center;text-anchor:middle;fill:#333333;stroke:#ffccaa;stroke-width:0;stroke-linecap:round;stroke-linejoin:round" />
    <path
       d="m 51.055429,61.064809 h 0.176291 q 0.09066,0 0.125921,-0.0403 0.04029,-0.04029 0.04029,-0.135995 v -1.339805 q 0,-0.09569 -0.04029,-0.135995 -0.03526,-0.04029 -0.125921,-0.04029 h -0.176291 q -0.09066,0 -0.120884,0.03023 -0.03023,0.02518 -0.03023,0.115845 v 1.400246 q 0,0.08563 0.03023,0.115845 0.03023,0.03023 0.120884,0.03023 z m 0.342506,-2.060075 h 0.453318 v 2.709829 q 0,0.443244 -0.473465,0.443244 H 50.536633 V 61.80019 h 0.710197 q 0.09066,0 0.120885,-0.03023 0.03023,-0.03023 0.03023,-0.115845 v -0.418059 q -0.06548,0.196437 -0.312285,0.196437 h -0.181327 q -0.453317,0 -0.453317,-0.44828 v -1.531205 q 0,-0.44828 0.453317,-0.44828 h 0.181327 q 0.246805,0 0.312285,0.196437 z"
       id="path17400"
       style="font-size:4.31444px;font-family:Teko;-inkscape-font-specification:Teko;text-align:center;text-anchor:middle;fill:#333333;stroke:#ffccaa;stroke-width:0;stroke-linecap:round;stroke-linejoin:round" />
    <path
       d="M 52.727669,60.042326 H 53.27165 V 59.50842 q 0,-0.08563 -0.03023,-0.115845 -0.02518,-0.03023 -0.115845,-0.03023 h -0.246807 q -0.09066,0 -0.120884,0.03023 -0.03023,0.03023 -0.03023,0.115845 z m 0.02518,-1.037592 h 0.493612 q 0.473465,0 0.473465,0.44828 v 0.921745 h -0.992261 v 0.584275 q 0,0.08563 0.03023,0.115845 0.03023,0.03022 0.120884,0.03022 h 0.231696 q 0.09066,0 0.120884,-0.03022 0.03023,-0.03023 0.03023,-0.120885 v -0.201471 h 0.443243 v 0.266954 q 0,0.443243 -0.468427,0.443243 h -0.483539 q -0.468428,0 -0.468428,-0.443243 v -1.566463 q 0,-0.44828 0.468428,-0.44828 z"
       id="path17402"
       style="font-size:4.31444px;font-family:Teko;-inkscape-font-specification:Teko;text-align:center;text-anchor:middle;fill:#333333;stroke:#ffccaa;stroke-width:0;stroke-linecap:round;stroke-linejoin:round" />
    <path
       d="m 44.285879,72.055219 h -0.302211 v -0.362653 h 0.206511 q 0.216585,0 0.261917,-0.166217 l 0.05036,-0.206511 h -0.246805 l -0.51376,-2.417691 h 0.463391 l 0.372728,2.060075 0.347543,-2.060075 h 0.458354 l -0.518796,2.694718 q -0.110814,0.458354 -0.579239,0.458354 z"
       id="path17405"
       style="font-size:4.31444px;font-family:Teko;-inkscape-font-specification:Teko;text-align:center;text-anchor:middle;fill:#333333;stroke:#ffccaa;stroke-width:0;stroke-linecap:round;stroke-linejoin:round" />
    <path
       d="m 46.079006,69.93974 h 0.543981 v -0.533908 q 0,-0.08562 -0.03023,-0.115845 -0.02518,-0.03023 -0.115845,-0.03023 H 46.23011 q -0.09066,0 -0.120884,0.03023 -0.03023,0.03023 -0.03023,0.115845 z m 0.02518,-1.037593 h 0.493612 q 0.473466,0 0.473466,0.44828 v 0.921745 h -0.992262 v 0.584276 q 0,0.08563 0.03023,0.115845 0.03023,0.03023 0.120884,0.03023 h 0.231697 q 0.09066,0 0.120884,-0.03023 0.03023,-0.03022 0.03023,-0.120885 v -0.201474 h 0.443242 v 0.266953 q 0,0.443244 -0.468426,0.443244 h -0.48354 q -0.468427,0 -0.468427,-0.443244 v -1.566463 q 0,-0.44828 0.468427,-0.44828 z"
       id="path17407"
       style="font-size:4.31444px;font-family:Teko;-inkscape-font-specification:Teko;text-align:center;text-anchor:middle;fill:#333333;stroke:#ffccaa;stroke-width:0;stroke-linecap:round;stroke-linejoin:round" />
    <path
       d="m 47.912425,71.360134 h -0.453317 v -3.369659 h 0.453317 z"
       id="path17409"
       style="font-size:4.31444px;font-family:Teko;-inkscape-font-specification:Teko;text-align:center;text-anchor:middle;fill:#333333;stroke:#ffccaa;stroke-width:0;stroke-linecap:round;stroke-linejoin:round" />
    <path
       d="m 48.808983,71.360134 h -0.453317 v -3.369659 h 0.453317 z"
       id="path17411"
       style="font-size:4.31444px;font-family:Teko;-inkscape-font-specification:Teko;text-align:center;text-anchor:middle;fill:#333333;stroke:#ffccaa;stroke-width:0;stroke-linecap:round;stroke-linejoin:round" />
    <path
       d="m 50.249521,70.85141 v -1.440541 q 0,-0.09066 -0.03023,-0.120884 -0.03023,-0.03023 -0.120885,-0.03023 h -0.277027 q -0.09066,0 -0.120884,0.03023 -0.02518,0.03023 -0.02518,0.120884 v 1.440541 q 0,0.09066 0.02518,0.120885 0.03023,0.03023 0.120884,0.03023 h 0.277027 q 0.09066,0 0.120885,-0.03023 0.03023,-0.03023 0.03023,-0.120885 z m -0.55909,-1.949263 h 0.538944 q 0.468428,0 0.468428,0.44828 v 1.566463 q 0,0.443244 -0.468428,0.443244 h -0.538944 q -0.463391,0 -0.463391,-0.443244 v -1.566463 q 0,-0.44828 0.463391,-0.44828 z"
       id="path17413"
       style="font-size:4.31444px;font-family:Teko;-inkscape-font-specification:Teko;text-align:center;text-anchor:middle;fill:#333333;stroke:#ffccaa;stroke-width:0;stroke-linecap:round;stroke-linejoin:round" />
    <path
       d="m 53.175941,68.902147 h 0.428133 l -0.453318,2.457987 H 52.55137 l -0.292137,-1.858602 -0.292138,1.858602 h -0.599386 l -0.44828,-2.457987 h 0.428132 l 0.327397,2.070148 0.317321,-2.070148 h 0.538943 l 0.307249,2.070148 z"
       id="path17415"
       style="font-size:4.31444px;font-family:Teko;-inkscape-font-specification:Teko;text-align:center;text-anchor:middle;fill:#333333;stroke:#ffccaa;stroke-width:0;stroke-linecap:round;stroke-linejoin:round" />
    <g
       id="g17926"
       transform="matrix(1.1674419,0,0,1.1674419,15.096313,-8.3211967)">
      <path
         d="m 25.054789,75.613345 h 0.151005 q 0.07766,0 0.107861,-0.03452 0.03452,-0.03451 0.03452,-0.11649 v -1.147641 q 0,-0.08197 -0.03452,-0.11649 -0.0302,-0.03451 -0.107861,-0.03451 h -0.151005 q -0.07766,0 -0.103547,0.02589 -0.02589,0.02157 -0.02589,0.09923 v 1.199414 q 0,0.07335 0.02589,0.09923 0.02589,0.02589 0.103547,0.02589 z m 0.293382,-1.764606 h 0.388299 v 2.321168 q 0,0.379671 -0.405557,0.379671 h -0.720512 v -0.306325 h 0.608336 q 0.07766,0 0.103547,-0.02589 0.02589,-0.02589 0.02589,-0.09923 v -0.358098 q -0.05609,0.168263 -0.267496,0.168263 h -0.15532 q -0.388299,0 -0.388299,-0.383985 v -1.31159 q 0,-0.383985 0.388299,-0.383985 h 0.15532 q 0.211408,0 0.267496,0.168263 z"
         id="path17418"
         style="font-size:4.31444px;font-family:Teko;-inkscape-font-specification:Teko;text-align:center;text-anchor:middle;fill:#333333;stroke:#ffccaa;stroke-width:0;stroke-linecap:round;stroke-linejoin:round" />
      <path
         d="m 26.845284,73.844424 h 0.08629 v 0.336527 h -0.15532 q -0.27181,0 -0.27181,0.319268 v 1.453966 h -0.388299 v -2.105446 h 0.388299 v 0.258866 q 0.03452,-0.112175 0.120804,-0.185521 0.0906,-0.07766 0.220037,-0.07766 z"
         id="path17420"
         style="font-size:4.31444px;font-family:Teko;-inkscape-font-specification:Teko;text-align:center;text-anchor:middle;fill:#333333;stroke:#ffccaa;stroke-width:0;stroke-linecap:round;stroke-linejoin:round" />
      <path
         d="m 27.514026,74.737513 h 0.465959 v -0.45733 q 0,-0.07335 -0.02589,-0.09923 -0.02157,-0.02589 -0.09923,-0.02589 h -0.211408 q -0.07766,0 -0.103547,0.02589 -0.02589,0.02589 -0.02589,0.09923 z m 0.02157,-0.888774 h 0.422815 q 0.405557,0 0.405557,0.383985 v 0.789542 h -0.849944 v 0.500476 q 0,0.07335 0.02589,0.09923 0.02589,0.02589 0.103547,0.02589 h 0.198464 q 0.07766,0 0.103547,-0.02589 0.02589,-0.02589 0.02589,-0.103547 v -0.172578 h 0.379671 v 0.228666 q 0,0.37967 -0.401243,0.37967 h -0.414186 q -0.401243,0 -0.401243,-0.37967 v -1.341791 q 0,-0.383985 0.401243,-0.383985 z"
         id="path17422"
         style="font-size:4.31444px;font-family:Teko;-inkscape-font-specification:Teko;text-align:center;text-anchor:middle;fill:#333333;stroke:#ffccaa;stroke-width:0;stroke-linecap:round;stroke-linejoin:round" />
      <path
         d="m 29.067227,74.737513 h 0.465959 v -0.45733 q 0,-0.07335 -0.02589,-0.09923 -0.02157,-0.02589 -0.09923,-0.02589 H 29.19666 q -0.07766,0 -0.103546,0.02589 -0.02589,0.02589 -0.02589,0.09923 z m 0.02157,-0.888774 h 0.422815 q 0.405558,0 0.405558,0.383985 v 0.789542 h -0.849945 v 0.500476 q 0,0.07335 0.02589,0.09923 0.02589,0.02589 0.103546,0.02589 h 0.198464 q 0.07766,0 0.103547,-0.02589 0.02589,-0.02589 0.02589,-0.103547 v -0.172578 h 0.37967 v 0.228666 q 0,0.37967 -0.401243,0.37967 h -0.414186 q -0.401243,0 -0.401243,-0.37967 v -1.341791 q 0,-0.383985 0.401243,-0.383985 z"
         id="path17424"
         style="font-size:4.31444px;font-family:Teko;-inkscape-font-specification:Teko;text-align:center;text-anchor:middle;fill:#333333;stroke:#ffccaa;stroke-width:0;stroke-linecap:round;stroke-linejoin:round" />
      <path
         d="m 30.905181,73.848739 h 0.151005 q 0.392614,0 0.392614,0.383985 v 1.721461 h -0.388299 v -1.665373 q 0,-0.07766 -0.02589,-0.09923 -0.02589,-0.02589 -0.103547,-0.02589 h -0.151005 q -0.07766,0 -0.112175,0.03451 -0.0302,0.03452 -0.0302,0.11649 v 1.639487 h -0.388299 v -2.105446 h 0.388299 v 0.168263 q 0.05609,-0.168263 0.267496,-0.168263 z"
         id="path17426"
         style="font-size:4.31444px;font-family:Teko;-inkscape-font-specification:Teko;text-align:center;text-anchor:middle;fill:#333333;stroke:#ffccaa;stroke-width:0;stroke-linecap:round;stroke-linejoin:round" />
    </g>
    <path
       d="m 44.769417,88.50556 h -0.337469 v 1.556389 q 0,0.09066 0.02518,0.120885 0.03023,0.02518 0.120885,0.02518 h 0.191402 v 0.387838 h -0.322358 q -0.473465,0 -0.473465,-0.443244 v -1.647052 h -0.231695 v -0.367691 h 0.231695 v -0.418058 h 0.458354 v 0.418058 h 0.337469 z"
       id="path17429"
       style="font-size:4.31444px;font-family:Teko;-inkscape-font-specification:Teko;text-align:center;text-anchor:middle;fill:#333333;stroke:#ffccaa;stroke-width:0;stroke-linecap:round;stroke-linejoin:round" />
    <path
       d="m 45.474577,89.175463 h 0.543981 v -0.533908 q 0,-0.08563 -0.03023,-0.115845 -0.02518,-0.03023 -0.115845,-0.03023 h -0.246806 q -0.09066,0 -0.120885,0.03023 -0.03023,0.03023 -0.03023,0.115845 z m 0.02518,-1.037593 h 0.493612 q 0.473465,0 0.473465,0.44828 v 0.921745 h -0.992258 v 0.584276 q 0,0.08563 0.03023,0.115845 0.03023,0.03023 0.120885,0.03023 h 0.231695 q 0.09066,0 0.120884,-0.03023 0.03023,-0.03023 0.03023,-0.120884 v -0.201475 h 0.443244 v 0.266953 q 0,0.443244 -0.468428,0.443244 h -0.483538 q -0.468428,0 -0.468428,-0.443244 v -1.566463 q 0,-0.44828 0.468428,-0.44828 z"
       id="path17431"
       style="font-size:4.31444px;font-family:Teko;-inkscape-font-specification:Teko;text-align:center;text-anchor:middle;fill:#333333;stroke:#ffccaa;stroke-width:0;stroke-linecap:round;stroke-linejoin:round" />
    <path
       d="m 47.428881,90.228166 h 0.17629 q 0.09066,0 0.125921,-0.0403 0.0403,-0.04029 0.0403,-0.135995 v -1.370025 q 0,-0.09569 -0.0403,-0.135995 -0.03526,-0.0403 -0.125921,-0.0403 h -0.17629 q -0.09066,0 -0.120885,0.03023 -0.03023,0.02518 -0.03023,0.115845 v 1.430468 q 0,0.09066 0.03023,0.120885 0.03022,0.02518 0.120885,0.02518 z m 0.342507,-2.090296 h 0.453316 v 2.457987 h -0.453316 v -0.196438 q -0.06548,0.196438 -0.312286,0.196438 h -0.181327 q -0.453317,0 -0.453317,-0.443244 V 88.58615 q 0,-0.44828 0.453317,-0.44828 h 0.181327 q 0.246806,0 0.312286,0.196437 z"
       id="path17433"
       style="font-size:4.31444px;font-family:Teko;-inkscape-font-specification:Teko;text-align:center;text-anchor:middle;fill:#333333;stroke:#ffccaa;stroke-width:0;stroke-linecap:round;stroke-linejoin:round" />
    <path
       d="m 49.121268,90.595857 h -0.453316 v -3.369658 h 0.453316 z"
       id="path17435"
       style="font-size:4.31444px;font-family:Teko;-inkscape-font-specification:Teko;text-align:center;text-anchor:middle;fill:#333333;stroke:#ffccaa;stroke-width:0;stroke-linecap:round;stroke-linejoin:round" />
    <path
       d="m 45.162293,97.554248 h -0.44828 v -0.261917 q 0,-0.09066 -0.03023,-0.115845 -0.03023,-0.03023 -0.120885,-0.03023 h -0.216585 q -0.09066,0 -0.120885,0.03023 -0.03023,0.02518 -0.03023,0.115845 v 1.430468 q 0,0.09066 0.03023,0.120884 0.03022,0.02518 0.120885,0.02518 h 0.216585 q 0.09066,0 0.120885,-0.02518 0.03023,-0.03023 0.03023,-0.120884 v -0.261917 h 0.44828 v 0.332433 q 0,0.443244 -0.473464,0.443244 h -0.478502 q -0.468428,0 -0.468428,-0.443244 v -1.566463 q 0,-0.44828 0.468428,-0.44828 h 0.478502 q 0.473464,0 0.473464,0.44828 z"
       id="path17438"
       style="font-size:4.31444px;font-family:Teko;-inkscape-font-specification:Teko;text-align:center;text-anchor:middle;fill:#333333;stroke:#ffccaa;stroke-width:0;stroke-linecap:round;stroke-linejoin:round" />
    <path
       d="m 45.90271,99.931644 h -0.302211 v -0.362653 h 0.206511 q 0.216585,0 0.261917,-0.166217 l 0.05036,-0.206511 H 45.87249 l -0.51376,-2.417691 h 0.463391 l 0.372728,2.060075 0.347542,-2.060075 h 0.458354 l -0.518796,2.694718 q -0.110813,0.458354 -0.579239,0.458354 z"
       id="path17440"
       style="font-size:4.31444px;font-family:Teko;-inkscape-font-specification:Teko;text-align:center;text-anchor:middle;fill:#333333;stroke:#ffccaa;stroke-width:0;stroke-linecap:round;stroke-linejoin:round" />
    <path
       d="m 47.836869,98.868868 h 0.17629 q 0.09066,0 0.125922,-0.0403 0.0403,-0.04029 0.0403,-0.135995 v -1.370025 q 0,-0.09569 -0.0403,-0.135995 -0.03526,-0.0403 -0.125922,-0.0403 h -0.17629 q -0.09066,0 -0.120884,0.03023 -0.03023,0.02518 -0.03023,0.115845 v 1.430468 q 0,0.09066 0.03023,0.120884 0.03022,0.02518 0.120884,0.02518 z m 0.342506,-2.090296 h 0.453318 v 2.457987 h -0.453318 v -0.196438 q -0.06548,0.196438 -0.312285,0.196438 h -0.181327 q -0.453318,0 -0.453318,-0.443244 v -1.566463 q 0,-0.44828 0.453318,-0.44828 h 0.181327 q 0.246805,0 0.312285,0.196437 z"
       id="path17442"
       style="font-size:4.31444px;font-family:Teko;-inkscape-font-specification:Teko;text-align:center;text-anchor:middle;fill:#333333;stroke:#ffccaa;stroke-width:0;stroke-linecap:round;stroke-linejoin:round" />
    <path
       d="m 49.841541,96.778572 h 0.17629 q 0.458354,0 0.458354,0.44828 v 2.009707 h -0.453318 v -1.944228 q 0,-0.09066 -0.03023,-0.115845 -0.03022,-0.03023 -0.120885,-0.03023 h -0.176289 q -0.09066,0 -0.130959,0.0403 -0.03526,0.04029 -0.03526,0.135995 v 1.914006 H 49.075927 V 96.77857 h 0.453317 v 0.196437 q 0.06548,-0.196437 0.312286,-0.196437 z"
       id="path17444"
       style="font-size:4.31444px;font-family:Teko;-inkscape-font-specification:Teko;text-align:center;text-anchor:middle;fill:#333333;stroke:#ffccaa;stroke-width:0;stroke-linecap:round;stroke-linejoin:round" />
    <rect
       style="fill:#00d1a5;fill-opacity:1;stroke:#ffccaa;stroke-width:0;stroke-linecap:round;stroke-linejoin:round"
       id="rect8959"
       width="9.4440908"
       height="9.4440908"
       x="31.962444"
       y="84.18898" />
    <rect
       style="fill:#00bcc7;fill-opacity:1;stroke:#ffccaa;stroke-width:0;stroke-linecap:round;stroke-linejoin:round"
       id="rect8961"
       width="9.4440908"
       height="9.4440908"
       x="31.962444"
       y="93.633064" />
    <g
       id="g662"
       transform="matrix(1.1674419,0,0,1.1674419,-36.814624,-8.3211967)">
      <rect
         style="fill:#ffffff;fill-opacity:1;stroke:#ffccaa;stroke-width:0;stroke-linecap:round;stroke-linejoin:round"
         id="rect16894"
         width="8.0895596"
         height="8.0895596"
         x="42.182735"
         y="14.525308" />
      <rect
         style="fill:#e6e6e6;fill-opacity:1;stroke:#ffccaa;stroke-width:0;stroke-linecap:round;stroke-linejoin:round"
         id="rect16896"
         width="8.0895596"
         height="8.0895596"
         x="42.182735"
         y="22.614866" />
      <rect
         style="fill:#cccccc;fill-opacity:1;stroke:#ffccaa;stroke-width:0;stroke-linecap:round;stroke-linejoin:round"
         id="rect16898"
         width="8.0895596"
         height="8.0895596"
         x="42.182735"
         y="30.704426" />
      <rect
         style="fill:#b3b3b3;fill-opacity:1;stroke:#ffccaa;stroke-width:0;stroke-linecap:round;stroke-linejoin:round"
         id="rect16900"
         width="8.0895596"
         height="8.0895596"
         x="42.182735"
         y="38.793987" />
      <rect
         style="fill:#999999;fill-opacity:1;stroke:#ffccaa;stroke-width:0;stroke-linecap:round;stroke-linejoin:round"
         id="rect16902"
         width="8.0895596"
         height="8.0895596"
         x="42.182735"
         y="46.883545" />
      <rect
         style="fill:#808080;fill-opacity:1;stroke:#ffccaa;stroke-width:0;stroke-linecap:round;stroke-linejoin:round"
         id="rect16904"
         width="8.0895596"
         height="8.0895596"
         x="42.182735"
         y="54.973106" />
      <rect
         style="fill:#666666;fill-opacity:1;stroke:#ffccaa;stroke-width:0;stroke-linecap:round;stroke-linejoin:round"
         id="rect16906"
         width="8.0895596"
         height="8.0895596"
         x="42.182735"
         y="63.062668" />
      <rect
         style="fill:#4d4d4d;fill-opacity:1;stroke:#ffccaa;stroke-width:0;stroke-linecap:round;stroke-linejoin:round"
         id="rect16908"
         width="8.0895596"
         height="8.0895596"
         x="42.182735"
         y="71.152222" />
      <path
         d="m 53.82591,17.907821 h 0.366727 l -0.388299,2.105447 h -0.513419 l -0.250237,-1.592029 -0.250238,1.592029 h -0.513418 l -0.383985,-2.105447 h 0.366727 l 0.280439,1.773235 0.27181,-1.773235 h 0.461645 l 0.263181,1.773235 z"
         id="path17458"
         style="font-size:4.31444px;font-family:Teko;-inkscape-font-specification:Teko;text-align:center;text-anchor:middle;fill:#333333;stroke:#ffccaa;stroke-width:0;stroke-linecap:round;stroke-linejoin:round" />
      <path
         d="m 55.059837,17.907821 h 0.151005 q 0.392614,0 0.392614,0.383985 v 1.721462 h -0.3883 v -1.665374 q 0,-0.07766 -0.02589,-0.09923 -0.02589,-0.02589 -0.103547,-0.02589 h -0.151005 q -0.07766,0 -0.112176,0.03452 -0.0302,0.03452 -0.0302,0.116489 v 1.639488 H 54.404039 V 17.12691 h 0.388299 v 0.949177 q 0.05609,-0.168263 0.267496,-0.168263 z"
         id="path17460"
         style="font-size:4.31444px;font-family:Teko;-inkscape-font-specification:Teko;text-align:center;text-anchor:middle;fill:#333333;stroke:#ffccaa;stroke-width:0;stroke-linecap:round;stroke-linejoin:round" />
      <path
         d="m 56.367111,20.013268 h -0.3883 v -2.105447 h 0.3883 z m -0.396929,-2.50669 v -0.383985 h 0.405558 v 0.383985 z"
         id="path17462"
         style="font-size:4.31444px;font-family:Teko;-inkscape-font-specification:Teko;text-align:center;text-anchor:middle;fill:#333333;stroke:#ffccaa;stroke-width:0;stroke-linecap:round;stroke-linejoin:round" />
      <path
         d="m 57.458662,18.222775 h -0.289067 v 1.333162 q 0,0.07766 0.02157,0.103546 0.02589,0.02157 0.103546,0.02157 h 0.163949 v 0.332212 h -0.276124 q -0.405557,0 -0.405557,-0.379671 v -1.410822 h -0.198465 v -0.314954 h 0.198465 v -0.358099 h 0.392614 v 0.358099 h 0.289067 z"
         id="path17464"
         style="font-size:4.31444px;font-family:Teko;-inkscape-font-specification:Teko;text-align:center;text-anchor:middle;fill:#333333;stroke:#ffccaa;stroke-width:0;stroke-linecap:round;stroke-linejoin:round" />
      <path
         d="m 58.062683,18.796596 h 0.465959 v -0.457331 q 0,-0.07335 -0.02589,-0.09923 -0.02157,-0.02589 -0.09923,-0.02589 h -0.211407 q -0.07766,0 -0.103547,0.02589 -0.02589,0.02589 -0.02589,0.09923 z m 0.02157,-0.888775 h 0.422815 q 0.405557,0 0.405557,0.383985 v 0.789543 h -0.849944 v 0.500475 q 0,0.07334 0.02589,0.09923 0.02589,0.02589 0.103547,0.02589 h 0.198464 q 0.07766,0 0.103547,-0.02589 0.02589,-0.02589 0.02589,-0.103547 V 19.40493 h 0.379671 v 0.228665 q 0,0.379671 -0.401243,0.379671 h -0.414186 q -0.401243,0 -0.401243,-0.379671 v -1.341791 q 0,-0.383985 0.401243,-0.383985 z"
         id="path17466"
         style="font-size:4.31444px;font-family:Teko;-inkscape-font-specification:Teko;text-align:center;text-anchor:middle;fill:#333333;stroke:#ffccaa;stroke-width:0;stroke-linecap:round;stroke-linejoin:round" />
      <path
         d="m 52.596296,25.106448 v 2.700839 h -0.392614 v -2.385885 h -0.31064 v -0.314954 z"
         id="path17469"
         style="font-size:4.31444px;font-family:Teko;-inkscape-font-specification:Teko;text-align:center;text-anchor:middle;fill:#333333;stroke:#ffccaa;stroke-width:0;stroke-linecap:round;stroke-linejoin:round" />
      <path
         d="m 54.300502,25.486119 v 1.941498 q 0,0.37967 -0.401243,0.37967 h -0.470274 q -0.405557,0 -0.405557,-0.37967 v -1.941498 q 0,-0.379671 0.405557,-0.379671 h 0.470274 q 0.401243,0 0.401243,0.379671 z m -0.392614,1.881095 v -1.820693 q 0,-0.07766 -0.02589,-0.09923 -0.02589,-0.02589 -0.103547,-0.02589 h -0.23298 q -0.07766,0 -0.103546,0.02589 -0.02157,0.02157 -0.02157,0.09923 v 1.820693 q 0,0.07766 0.02157,0.103547 0.02589,0.02157 0.103546,0.02157 h 0.23298 q 0.07766,0 0.103547,-0.02157 0.02589,-0.02589 0.02589,-0.103547 z"
         id="path17471"
         style="font-size:4.31444px;font-family:Teko;-inkscape-font-specification:Teko;text-align:center;text-anchor:middle;fill:#333333;stroke:#ffccaa;stroke-width:0;stroke-linecap:round;stroke-linejoin:round" />
      <path
         d="m 55.983131,25.486119 v 1.941498 q 0,0.37967 -0.401243,0.37967 h -0.470274 q -0.405557,0 -0.405557,-0.37967 v -1.941498 q 0,-0.379671 0.405557,-0.379671 h 0.470274 q 0.401243,0 0.401243,0.379671 z m -0.392614,1.881095 v -1.820693 q 0,-0.07766 -0.02589,-0.09923 -0.02589,-0.02589 -0.103546,-0.02589 h -0.23298 q -0.07766,0 -0.103546,0.02589 -0.02157,0.02157 -0.02157,0.09923 v 1.820693 q 0,0.07766 0.02157,0.103547 0.02589,0.02157 0.103546,0.02157 h 0.23298 q 0.07766,0 0.103546,-0.02157 0.02589,-0.02589 0.02589,-0.103547 z"
         id="path17473"
         style="font-size:4.31444px;font-family:Teko;-inkscape-font-specification:Teko;text-align:center;text-anchor:middle;fill:#333333;stroke:#ffccaa;stroke-width:0;stroke-linecap:round;stroke-linejoin:round" />
      <path
         d="m 52.281342,33.633925 v 0.440073 h -0.388299 v -0.500475 q 0,-0.379671 0.401243,-0.379671 h 0.371042 q 0.405557,0 0.405557,0.379671 v 0.27181 q 0,0.30201 -0.151006,0.591078 l -0.582449,1.143326 h 0.750713 v 0.314954 h -1.190786 v -0.30201 l 0.66011,-1.242559 q 0.120804,-0.228665 0.120804,-0.517733 v -0.198464 q 0,-0.07766 -0.02589,-0.09923 -0.02157,-0.02589 -0.103546,-0.02589 h -0.138062 q -0.07766,0 -0.103547,0.02589 -0.02589,0.02157 -0.02589,0.09923 z"
         id="path17476"
         style="font-size:4.31444px;font-family:Teko;-inkscape-font-specification:Teko;text-align:center;text-anchor:middle;fill:#333333;stroke:#ffccaa;stroke-width:0;stroke-linecap:round;stroke-linejoin:round" />
      <path
         d="m 54.680167,33.573523 v 1.941498 q 0,0.37967 -0.401243,0.37967 H 53.80865 q -0.405557,0 -0.405557,-0.37967 v -1.941498 q 0,-0.379671 0.405557,-0.379671 h 0.470274 q 0.401243,0 0.401243,0.379671 z m -0.392614,1.881096 v -1.820694 q 0,-0.07766 -0.02589,-0.09923 -0.02589,-0.02589 -0.103546,-0.02589 h -0.23298 q -0.07766,0 -0.103546,0.02589 -0.02157,0.02157 -0.02157,0.09923 v 1.820694 q 0,0.07766 0.02157,0.103546 0.02589,0.02157 0.103546,0.02157 h 0.23298 q 0.07766,0 0.103546,-0.02157 0.02589,-0.02589 0.02589,-0.103546 z"
         id="path17478"
         style="font-size:4.31444px;font-family:Teko;-inkscape-font-specification:Teko;text-align:center;text-anchor:middle;fill:#333333;stroke:#ffccaa;stroke-width:0;stroke-linecap:round;stroke-linejoin:round" />
      <path
         d="m 56.362796,33.573523 v 1.941498 q 0,0.37967 -0.401243,0.37967 h -0.470274 q -0.405557,0 -0.405557,-0.37967 v -1.941498 q 0,-0.379671 0.405557,-0.379671 h 0.470274 q 0.401243,0 0.401243,0.379671 z m -0.392614,1.881096 v -1.820694 q 0,-0.07766 -0.02589,-0.09923 -0.02589,-0.02589 -0.103546,-0.02589 h -0.23298 q -0.07766,0 -0.103547,0.02589 -0.02157,0.02157 -0.02157,0.09923 v 1.820694 q 0,0.07766 0.02157,0.103546 0.02589,0.02157 0.103547,0.02157 h 0.23298 q 0.07766,0 0.103546,-0.02157 0.02589,-0.02589 0.02589,-0.103546 z"
         id="path17480"
         style="font-size:4.31444px;font-family:Teko;-inkscape-font-specification:Teko;text-align:center;text-anchor:middle;fill:#333333;stroke:#ffccaa;stroke-width:0;stroke-linecap:round;stroke-linejoin:round" />
      <path
         d="m 52.281339,41.725638 v 0.405557 H 51.89304 v -0.465959 q 0,-0.379671 0.401243,-0.379671 h 0.396928 q 0.405557,0 0.405557,0.379671 v 0.681681 q 0,0.228666 -0.172577,0.267496 0.172577,0.03883 0.172577,0.250237 v 0.742084 q 0,0.37967 -0.405557,0.37967 h -0.396928 q -0.401243,0 -0.401243,-0.37967 v -0.461645 h 0.388299 v 0.401243 q 0,0.07766 0.02589,0.103546 0.02589,0.02157 0.103547,0.02157 h 0.168263 q 0.07766,0 0.103546,-0.02157 0.02589,-0.02589 0.02589,-0.103546 v -0.647166 q 0,-0.07766 -0.02589,-0.09923 -0.02589,-0.02589 -0.103546,-0.02589 h -0.323583 v -0.31064 h 0.323583 q 0.07766,0 0.103546,-0.02157 0.02589,-0.02589 0.02589,-0.103547 v -0.61265 q 0,-0.07766 -0.02589,-0.09923 -0.02589,-0.02589 -0.103546,-0.02589 h -0.168263 q -0.07766,0 -0.103547,0.02589 -0.02589,0.02157 -0.02589,0.09923 z"
         id="path17483"
         style="font-size:4.31444px;font-family:Teko;-inkscape-font-specification:Teko;text-align:center;text-anchor:middle;fill:#333333;stroke:#ffccaa;stroke-width:0;stroke-linecap:round;stroke-linejoin:round" />
      <path
         d="m 54.779398,41.665236 v 1.941498 q 0,0.37967 -0.401243,0.37967 h -0.470274 q -0.405557,0 -0.405557,-0.37967 v -1.941498 q 0,-0.379671 0.405557,-0.379671 h 0.470274 q 0.401243,0 0.401243,0.379671 z m -0.392614,1.881096 v -1.820694 q 0,-0.07766 -0.02589,-0.09923 -0.02589,-0.02589 -0.103546,-0.02589 h -0.23298 q -0.07766,0 -0.103546,0.02589 -0.02157,0.02157 -0.02157,0.09923 v 1.820694 q 0,0.07766 0.02157,0.103546 0.02589,0.02157 0.103546,0.02157 h 0.23298 q 0.07766,0 0.103546,-0.02157 0.02589,-0.02589 0.02589,-0.103546 z"
         id="path17485"
         style="font-size:4.31444px;font-family:Teko;-inkscape-font-specification:Teko;text-align:center;text-anchor:middle;fill:#333333;stroke:#ffccaa;stroke-width:0;stroke-linecap:round;stroke-linejoin:round" />
      <path
         d="m 56.462027,41.665236 v 1.941498 q 0,0.37967 -0.401243,0.37967 H 55.59051 q -0.405557,0 -0.405557,-0.37967 v -1.941498 q 0,-0.379671 0.405557,-0.379671 h 0.470274 q 0.401243,0 0.401243,0.379671 z m -0.392614,1.881096 v -1.820694 q 0,-0.07766 -0.02589,-0.09923 -0.02589,-0.02589 -0.103546,-0.02589 H 55.707 q -0.07766,0 -0.103547,0.02589 -0.02157,0.02157 -0.02157,0.09923 v 1.820694 q 0,0.07766 0.02157,0.103546 0.02589,0.02157 0.103547,0.02157 h 0.23298 q 0.07766,0 0.103546,-0.02157 0.02589,-0.02589 0.02589,-0.103546 z"
         id="path17487"
         style="font-size:4.31444px;font-family:Teko;-inkscape-font-specification:Teko;text-align:center;text-anchor:middle;fill:#333333;stroke:#ffccaa;stroke-width:0;stroke-linecap:round;stroke-linejoin:round" />
      <path
         d="m 53.433295,51.51725 v 0.319269 H 53.191687 V 52.37151 H 52.81633 v -0.534991 h -0.92329 v -0.323583 l 0.776599,-1.842266 h 0.3883 l -0.793857,1.84658 h 0.552248 v -0.517732 h 0.375357 v 0.517732 z"
         id="path17490"
         style="font-size:4.31444px;font-family:Teko;-inkscape-font-specification:Teko;text-align:center;text-anchor:middle;fill:#333333;stroke:#ffccaa;stroke-width:0;stroke-linecap:round;stroke-linejoin:round" />
      <path
         d="m 54.913152,50.050341 v 1.941498 q 0,0.379671 -0.401243,0.379671 h -0.470274 q -0.405557,0 -0.405557,-0.379671 v -1.941498 q 0,-0.379671 0.405557,-0.379671 h 0.470274 q 0.401243,0 0.401243,0.379671 z m -0.392614,1.881096 v -1.820694 q 0,-0.07766 -0.02589,-0.09923 -0.02589,-0.02589 -0.103546,-0.02589 h -0.23298 q -0.07766,0 -0.103547,0.02589 -0.02157,0.02157 -0.02157,0.09923 v 1.820694 q 0,0.07766 0.02157,0.103546 0.02589,0.02157 0.103547,0.02157 h 0.23298 q 0.07766,0 0.103546,-0.02157 0.02589,-0.02589 0.02589,-0.103546 z"
         id="path17492"
         style="font-size:4.31444px;font-family:Teko;-inkscape-font-specification:Teko;text-align:center;text-anchor:middle;fill:#333333;stroke:#ffccaa;stroke-width:0;stroke-linecap:round;stroke-linejoin:round" />
      <path
         d="m 56.595781,50.050341 v 1.941498 q 0,0.379671 -0.401243,0.379671 h -0.470274 q -0.405557,0 -0.405557,-0.379671 v -1.941498 q 0,-0.379671 0.405557,-0.379671 h 0.470274 q 0.401243,0 0.401243,0.379671 z m -0.392614,1.881096 v -1.820694 q 0,-0.07766 -0.02589,-0.09923 -0.02589,-0.02589 -0.103546,-0.02589 h -0.23298 q -0.07766,0 -0.103547,0.02589 -0.02157,0.02157 -0.02157,0.09923 v 1.820694 q 0,0.07766 0.02157,0.103546 0.02589,0.02157 0.103547,0.02157 h 0.23298 q 0.07766,0 0.103546,-0.02157 0.02589,-0.02589 0.02589,-0.103546 z"
         id="path17494"
         style="font-size:4.31444px;font-family:Teko;-inkscape-font-specification:Teko;text-align:center;text-anchor:middle;fill:#333333;stroke:#ffccaa;stroke-width:0;stroke-linecap:round;stroke-linejoin:round" />
      <path
         d="m 52.28997,58.08812 h 0.4185 q 0.405558,0 0.405558,0.379671 v 0.927605 q 0,0.37967 -0.405558,0.37967 h -0.414186 q -0.401243,0 -0.401243,-0.37967 v -0.478903 h 0.392614 v 0.418501 q 0,0.07766 0.02589,0.103546 0.02589,0.02157 0.103547,0.02157 h 0.176892 q 0.07766,0 0.103546,-0.02157 0.02589,-0.02589 0.02589,-0.103546 v -0.806801 q 0,-0.07766 -0.02589,-0.103546 -0.02589,-0.02589 -0.103546,-0.02589 H 51.90167 v -1.324533 h 1.203729 v 0.314954 H 52.28997 Z"
         id="path17497"
         style="font-size:4.31444px;font-family:Teko;-inkscape-font-specification:Teko;text-align:center;text-anchor:middle;fill:#333333;stroke:#ffccaa;stroke-width:0;stroke-linecap:round;stroke-linejoin:round" />
      <path
         d="m 54.744885,57.453898 v 1.941498 q 0,0.37967 -0.401243,0.37967 h -0.470274 q -0.405557,0 -0.405557,-0.37967 v -1.941498 q 0,-0.379671 0.405557,-0.379671 h 0.470274 q 0.401243,0 0.401243,0.379671 z m -0.392614,1.881096 V 57.5143 q 0,-0.07766 -0.02589,-0.09923 -0.02589,-0.02589 -0.103546,-0.02589 h -0.23298 q -0.07766,0 -0.103546,0.02589 -0.02157,0.02157 -0.02157,0.09923 v 1.820694 q 0,0.07766 0.02157,0.103546 0.02589,0.02157 0.103546,0.02157 h 0.23298 q 0.07766,0 0.103546,-0.02157 0.02589,-0.02589 0.02589,-0.103546 z"
         id="path17499"
         style="font-size:4.31444px;font-family:Teko;-inkscape-font-specification:Teko;text-align:center;text-anchor:middle;fill:#333333;stroke:#ffccaa;stroke-width:0;stroke-linecap:round;stroke-linejoin:round" />
      <path
         d="m 56.427514,57.453898 v 1.941498 q 0,0.37967 -0.401243,0.37967 h -0.470274 q -0.405557,0 -0.405557,-0.37967 v -1.941498 q 0,-0.379671 0.405557,-0.379671 h 0.470274 q 0.401243,0 0.401243,0.379671 z M 56.0349,59.334994 V 57.5143 q 0,-0.07766 -0.02589,-0.09923 -0.02589,-0.02589 -0.103546,-0.02589 h -0.23298 q -0.07766,0 -0.103547,0.02589 -0.02157,0.02157 -0.02157,0.09923 v 1.820694 q 0,0.07766 0.02157,0.103546 0.02589,0.02157 0.103547,0.02157 h 0.23298 q 0.07766,0 0.103546,-0.02157 0.02589,-0.02589 0.02589,-0.103546 z"
         id="path17501"
         style="font-size:4.31444px;font-family:Teko;-inkscape-font-specification:Teko;text-align:center;text-anchor:middle;fill:#333333;stroke:#ffccaa;stroke-width:0;stroke-linecap:round;stroke-linejoin:round" />
      <path
         d="M 52.768872,67.812857 V 67.13549 q 0,-0.07335 -0.02589,-0.09923 -0.02589,-0.02589 -0.103547,-0.02589 H 52.28134 v 0.802486 q 0,0.07766 0.02589,0.103546 0.02589,0.02157 0.103547,0.02157 h 0.228665 q 0.07766,0 0.103547,-0.02157 0.02589,-0.02589 0.02589,-0.103546 z M 52.28134,66.699731 h 0.474589 q 0.401243,0 0.401243,0.383986 v 0.789542 q 0,0.379671 -0.401243,0.379671 h -0.457331 q -0.405557,0 -0.405557,-0.379671 v -1.941498 q 0,-0.379671 0.405557,-0.379671 h 0.444388 q 0.401242,0 0.401242,0.379671 v 0.46596 h -0.383985 v -0.405558 q 0,-0.07766 -0.02589,-0.09923 -0.02589,-0.02589 -0.103547,-0.02589 H 52.41077 q -0.07766,0 -0.103547,0.02589 -0.02589,0.02157 -0.02589,0.09923 z"
         id="path17504"
         style="font-size:4.31444px;font-family:Teko;-inkscape-font-specification:Teko;text-align:center;text-anchor:middle;fill:#333333;stroke:#ffccaa;stroke-width:0;stroke-linecap:round;stroke-linejoin:round" />
      <path
         d="m 54.818231,65.931761 v 1.941498 q 0,0.379671 -0.401243,0.379671 h -0.470274 q -0.405557,0 -0.405557,-0.379671 v -1.941498 q 0,-0.379671 0.405557,-0.379671 h 0.470274 q 0.401243,0 0.401243,0.379671 z m -0.392614,1.881096 v -1.820694 q 0,-0.07766 -0.02589,-0.09923 -0.02589,-0.02589 -0.103546,-0.02589 h -0.23298 q -0.07766,0 -0.103547,0.02589 -0.02157,0.02157 -0.02157,0.09923 v 1.820694 q 0,0.07766 0.02157,0.103546 0.02589,0.02157 0.103547,0.02157 h 0.23298 q 0.07766,0 0.103546,-0.02157 0.02589,-0.02589 0.02589,-0.103546 z"
         id="path17506"
         style="font-size:4.31444px;font-family:Teko;-inkscape-font-specification:Teko;text-align:center;text-anchor:middle;fill:#333333;stroke:#ffccaa;stroke-width:0;stroke-linecap:round;stroke-linejoin:round" />
      <path
         d="m 56.50086,65.931761 v 1.941498 q 0,0.379671 -0.401243,0.379671 h -0.470274 q -0.405557,0 -0.405557,-0.379671 v -1.941498 q 0,-0.379671 0.405557,-0.379671 h 0.470274 q 0.401243,0 0.401243,0.379671 z m -0.392614,1.881096 v -1.820694 q 0,-0.07766 -0.02589,-0.09923 -0.02589,-0.02589 -0.103546,-0.02589 h -0.23298 q -0.07766,0 -0.103547,0.02589 -0.02157,0.02157 -0.02157,0.09923 v 1.820694 q 0,0.07766 0.02157,0.103546 0.02589,0.02157 0.103547,0.02157 h 0.23298 q 0.07766,0 0.103546,-0.02157 0.02589,-0.02589 0.02589,-0.103546 z"
         id="path17508"
         style="font-size:4.31444px;font-family:Teko;-inkscape-font-specification:Teko;text-align:center;text-anchor:middle;fill:#333333;stroke:#ffccaa;stroke-width:0;stroke-linecap:round;stroke-linejoin:round" />
      <path
         d="m 53.101085,73.253346 v 0.241609 l -0.724826,2.45923 h -0.396928 l 0.703253,-2.377256 h -0.789542 v -0.323583 z"
         id="path17511"
         style="font-size:4.31444px;font-family:Teko;-inkscape-font-specification:Teko;text-align:center;text-anchor:middle;fill:#333333;stroke:#ffccaa;stroke-width:0;stroke-linecap:round;stroke-linejoin:round" />
      <path
         d="m 54.602512,73.633017 v 1.941498 q 0,0.37967 -0.401243,0.37967 h -0.470274 q -0.405557,0 -0.405557,-0.37967 v -1.941498 q 0,-0.379671 0.405557,-0.379671 h 0.470274 q 0.401243,0 0.401243,0.379671 z m -0.392614,1.881096 v -1.820694 q 0,-0.07766 -0.02589,-0.09923 -0.02589,-0.02589 -0.103546,-0.02589 h -0.23298 q -0.07766,0 -0.103547,0.02589 -0.02157,0.02157 -0.02157,0.09923 v 1.820694 q 0,0.07766 0.02157,0.103546 0.02589,0.02157 0.103547,0.02157 h 0.23298 q 0.07766,0 0.103546,-0.02157 0.02589,-0.02589 0.02589,-0.103546 z"
         id="path17513"
         style="font-size:4.31444px;font-family:Teko;-inkscape-font-specification:Teko;text-align:center;text-anchor:middle;fill:#333333;stroke:#ffccaa;stroke-width:0;stroke-linecap:round;stroke-linejoin:round" />
      <path
         d="m 56.28514,73.633017 v 1.941498 q 0,0.37967 -0.401242,0.37967 h -0.470274 q -0.405558,0 -0.405558,-0.37967 v -1.941498 q 0,-0.379671 0.405558,-0.379671 h 0.470274 q 0.401242,0 0.401242,0.379671 z m -0.392614,1.881096 v -1.820694 q 0,-0.07766 -0.02589,-0.09923 -0.02589,-0.02589 -0.103547,-0.02589 H 55.53011 q -0.07766,0 -0.103547,0.02589 -0.02157,0.02157 -0.02157,0.09923 v 1.820694 q 0,0.07766 0.02157,0.103546 0.02589,0.02157 0.103547,0.02157 h 0.232979 q 0.07766,0 0.103547,-0.02157 0.02589,-0.02589 0.02589,-0.103546 z"
         id="path17515"
         style="font-size:4.31444px;font-family:Teko;-inkscape-font-specification:Teko;text-align:center;text-anchor:middle;fill:#333333;stroke:#ffccaa;stroke-width:0;stroke-linecap:round;stroke-linejoin:round" />
      <path
         d="m 52.781817,83.094571 v -0.629908 q 0,-0.07335 -0.02589,-0.09923 -0.02157,-0.02589 -0.09923,-0.02589 h -0.254552 q -0.07766,0 -0.103547,0.02589 -0.02157,0.02589 -0.02157,0.09923 v 0.629908 q 0,0.07335 0.02157,0.09923 0.02589,0.02589 0.103547,0.02589 h 0.254552 q 0.07766,0 0.09923,-0.02589 0.02589,-0.02589 0.02589,-0.09923 z m 0,1.1951 v -0.647166 q 0,-0.07335 -0.02589,-0.09923 -0.02157,-0.02589 -0.09923,-0.02589 h -0.254552 q -0.07766,0 -0.103547,0.02589 -0.02157,0.02589 -0.02157,0.09923 v 0.647166 q 0,0.07766 0.02157,0.103547 0.02589,0.02589 0.103547,0.02589 h 0.254552 q 0.07766,0 0.09923,-0.02589 0.02589,-0.02589 0.02589,-0.103547 z m 0.383986,-1.881096 V 83.1032 q 0,0.228665 -0.168264,0.267495 0.168264,0.04746 0.168264,0.254552 v 0.724826 q 0,0.379671 -0.401243,0.379671 h -0.470274 q -0.401243,0 -0.401243,-0.379671 v -0.724826 q 0,-0.207093 0.168263,-0.254552 -0.168263,-0.03883 -0.168263,-0.267495 v -0.694625 q 0,-0.37967 0.401243,-0.37967 h 0.470274 q 0.401243,0 0.401243,0.37967 z"
         id="path17518"
         style="font-size:4.31444px;font-family:Teko;-inkscape-font-specification:Teko;text-align:center;text-anchor:middle;fill:#333333;stroke:#ffccaa;stroke-width:0;stroke-linecap:round;stroke-linejoin:round" />
      <path
         d="m 54.848434,82.408575 v 1.941498 q 0,0.379671 -0.401243,0.379671 h -0.470274 q -0.405557,0 -0.405557,-0.379671 v -1.941498 q 0,-0.37967 0.405557,-0.37967 h 0.470274 q 0.401243,0 0.401243,0.37967 z m -0.392614,1.881096 v -1.820693 q 0,-0.07766 -0.02589,-0.09923 -0.02589,-0.02589 -0.103546,-0.02589 h -0.23298 q -0.07766,0 -0.103547,0.02589 -0.02157,0.02157 -0.02157,0.09923 v 1.820693 q 0,0.07766 0.02157,0.103547 0.02589,0.02157 0.103547,0.02157 h 0.23298 q 0.07766,0 0.103546,-0.02157 0.02589,-0.02589 0.02589,-0.103547 z"
         id="path17520"
         style="font-size:4.31444px;font-family:Teko;-inkscape-font-specification:Teko;text-align:center;text-anchor:middle;fill:#333333;stroke:#ffccaa;stroke-width:0;stroke-linecap:round;stroke-linejoin:round" />
      <path
         d="m 56.531063,82.408575 v 1.941498 q 0,0.379671 -0.401243,0.379671 h -0.470274 q -0.405558,0 -0.405558,-0.379671 v -1.941498 q 0,-0.37967 0.405558,-0.37967 h 0.470274 q 0.401243,0 0.401243,0.37967 z m -0.392614,1.881096 v -1.820693 q 0,-0.07766 -0.02589,-0.09923 -0.02589,-0.02589 -0.103547,-0.02589 h -0.232979 q -0.07766,0 -0.103547,0.02589 -0.02157,0.02157 -0.02157,0.09923 v 1.820693 q 0,0.07766 0.02157,0.103547 0.02589,0.02157 0.103547,0.02157 h 0.232979 q 0.07766,0 0.103547,-0.02157 0.02589,-0.02589 0.02589,-0.103547 z"
         id="path17522"
         style="font-size:4.31444px;font-family:Teko;-inkscape-font-specification:Teko;text-align:center;text-anchor:middle;fill:#333333;stroke:#ffccaa;stroke-width:0;stroke-linecap:round;stroke-linejoin:round" />
      <path
         d="m 52.410777,90.72032 h 0.353784 v -0.849945 q 0,-0.07766 -0.02589,-0.09923 -0.02157,-0.02589 -0.09923,-0.02589 h -0.228665 q -0.07766,0 -0.103547,0.02589 -0.02589,0.02157 -0.02589,0.09923 v 0.724826 q 0,0.07335 0.02589,0.09923 0.02589,0.02589 0.103547,0.02589 z m -0.11649,-1.290018 h 0.45733 q 0.405558,0 0.405558,0.379671 v 1.941498 q 0,0.379671 -0.405558,0.379671 H 52.30723 q -0.405557,0 -0.405557,-0.379671 v -0.461645 h 0.388299 v 0.401243 q 0,0.07766 0.02157,0.103546 0.02589,0.02157 0.107861,0.02157 h 0.220036 q 0.07766,0 0.09923,-0.02157 0.02589,-0.02589 0.02589,-0.103546 v -0.664424 h -0.470274 q -0.401243,0 -0.401243,-0.383985 v -0.832687 q 0,-0.379671 0.401243,-0.379671 z"
         id="path17525"
         style="font-size:4.31444px;font-family:Teko;-inkscape-font-specification:Teko;text-align:center;text-anchor:middle;fill:#333333;stroke:#ffccaa;stroke-width:0;stroke-linecap:round;stroke-linejoin:round" />
      <path
         d="m 54.839807,89.809973 v 1.941498 q 0,0.379671 -0.401242,0.379671 h -0.470274 q -0.405558,0 -0.405558,-0.379671 v -1.941498 q 0,-0.379671 0.405558,-0.379671 h 0.470274 q 0.401242,0 0.401242,0.379671 z m -0.392614,1.881096 v -1.820694 q 0,-0.07766 -0.02589,-0.09923 -0.02589,-0.02589 -0.103547,-0.02589 h -0.23298 q -0.07766,0 -0.103546,0.02589 -0.02157,0.02157 -0.02157,0.09923 v 1.820694 q 0,0.07766 0.02157,0.103546 0.02589,0.02157 0.103546,0.02157 h 0.23298 q 0.07766,0 0.103547,-0.02157 0.02589,-0.02589 0.02589,-0.103546 z"
         id="path17527"
         style="font-size:4.31444px;font-family:Teko;-inkscape-font-specification:Teko;text-align:center;text-anchor:middle;fill:#333333;stroke:#ffccaa;stroke-width:0;stroke-linecap:round;stroke-linejoin:round" />
      <path
         d="m 56.522436,89.809973 v 1.941498 q 0,0.379671 -0.401243,0.379671 h -0.470274 q -0.405557,0 -0.405557,-0.379671 v -1.941498 q 0,-0.379671 0.405557,-0.379671 h 0.470274 q 0.401243,0 0.401243,0.379671 z m -0.392614,1.881096 v -1.820694 q 0,-0.07766 -0.02589,-0.09923 -0.02589,-0.02589 -0.103547,-0.02589 h -0.23298 q -0.07766,0 -0.103546,0.02589 -0.02157,0.02157 -0.02157,0.09923 v 1.820694 q 0,0.07766 0.02157,0.103546 0.02589,0.02157 0.103546,0.02157 h 0.23298 q 0.07766,0 0.103547,-0.02157 0.02589,-0.02589 0.02589,-0.103546 z"
         id="path17529"
         style="font-size:4.31444px;font-family:Teko;-inkscape-font-specification:Teko;text-align:center;text-anchor:middle;fill:#333333;stroke:#ffccaa;stroke-width:0;stroke-linecap:round;stroke-linejoin:round" />
      <rect
         style="fill:#333333;fill-opacity:1;stroke:#ffccaa;stroke-width:0;stroke-linecap:round;stroke-linejoin:round"
         id="rect16950"
         width="8.0895596"
         height="8.0895596"
         x="42.182735"
         y="79.241783" />
      <rect
         style="fill:#1a1a1a;fill-opacity:1;stroke:#ffccaa;stroke-width:0;stroke-linecap:round;stroke-linejoin:round"
         id="rect16952"
         width="8.0895596"
         height="8.0895596"
         x="42.182735"
         y="87.331337" />
      <rect
         style="fill:#000000;fill-opacity:1;stroke:#ffccaa;stroke-width:0;stroke-linecap:round;stroke-linejoin:round"
         id="rect16954"
         width="8.0895596"
         height="8.0895596"
         x="42.182735"
         y="95.420891" />
      <path
         d="m 52.704158,99.78063 v -1.229615 q 0,-0.07335 -0.02589,-0.09923 -0.02589,-0.02589 -0.103547,-0.02589 H 52.42372 q -0.07766,0 -0.112176,0.03452 -0.0302,0.03451 -0.0302,0.11649 v 1.177842 q 0,0.08197 0.0302,0.11649 0.03452,0.03451 0.112176,0.03451 h 0.151005 q 0.07766,0 0.103547,-0.02157 0.02589,-0.02589 0.02589,-0.103547 z m -0.155319,-1.669688 h 0.151005 q 0.392614,0 0.392614,0.383985 v 1.346105 q 0,0.379668 -0.392614,0.379668 h -0.151005 q -0.211408,0 -0.267496,-0.16826 v 0.16826 h -0.388299 v -2.886357 h 0.388299 v 0.944862 q 0.05609,-0.168263 0.267496,-0.168263 z"
         id="path17532"
         style="font-size:4.31444px;font-family:Teko;-inkscape-font-specification:Teko;text-align:center;text-anchor:middle;fill:#333333;stroke:#ffccaa;stroke-width:0;stroke-linecap:round;stroke-linejoin:round" />
      <path
         d="m 53.834544,100.2207 h -0.388299 v -2.886357 h 0.388299 z"
         id="path17534"
         style="font-size:4.31444px;font-family:Teko;-inkscape-font-specification:Teko;text-align:center;text-anchor:middle;fill:#333333;stroke:#ffccaa;stroke-width:0;stroke-linecap:round;stroke-linejoin:round" />
      <path
         d="m 54.706059,99.905749 h 0.151005 q 0.07766,0 0.107861,-0.03451 0.03452,-0.03452 0.03452,-0.11649 v -1.173528 q 0,-0.08197 -0.03452,-0.11649 -0.0302,-0.03451 -0.107861,-0.03451 h -0.151005 q -0.07766,0 -0.103546,0.02589 -0.02589,0.02157 -0.02589,0.09923 v 1.225301 q 0,0.07766 0.02589,0.103547 0.02589,0.02157 0.103546,0.02157 z m 0.293382,-1.790492 h 0.3883 v 2.105443 h -0.3883 v -0.16826 q -0.05609,0.16826 -0.267495,0.16826 h -0.15532 q -0.3883,0 -0.3883,-0.379668 v -1.34179 q 0,-0.383985 0.3883,-0.383985 h 0.15532 q 0.211407,0 0.267495,0.168263 z"
         id="path17536"
         style="font-size:4.31444px;font-family:Teko;-inkscape-font-specification:Teko;text-align:center;text-anchor:middle;fill:#333333;stroke:#ffccaa;stroke-width:0;stroke-linecap:round;stroke-linejoin:round" />
      <path
         d="m 56.958199,98.77968 h -0.383985 v -0.224351 q 0,-0.07766 -0.02589,-0.09923 -0.02589,-0.02589 -0.103547,-0.02589 H 56.25926 q -0.07766,0 -0.103547,0.02589 -0.02589,0.02157 -0.02589,0.09923 v 1.225301 q 0,0.07766 0.02589,0.103547 0.02589,0.02157 0.103547,0.02157 h 0.185521 q 0.07766,0 0.103547,-0.02157 0.02589,-0.02589 0.02589,-0.103547 v -0.224351 h 0.383985 v 0.284753 q 0,0.379668 -0.405557,0.379668 H 56.14277 q -0.401243,0 -0.401243,-0.379668 v -1.34179 q 0,-0.383985 0.401243,-0.383985 h 0.409872 q 0.405557,0 0.405557,0.383985 z"
         id="path17538"
         style="font-size:4.31444px;font-family:Teko;-inkscape-font-specification:Teko;text-align:center;text-anchor:middle;fill:#333333;stroke:#ffccaa;stroke-width:0;stroke-linecap:round;stroke-linejoin:round" />
      <path
         d="m 57.281781,100.2207 v -2.886357 h 0.3883 v 2.886357 z m 1.337477,-2.105443 -0.483217,1.005264 0.483217,1.100179 h -0.414186 l -0.46596,-1.100179 0.46596,-1.005264 z"
         id="path17540"
         style="font-size:4.31444px;font-family:Teko;-inkscape-font-specification:Teko;text-align:center;text-anchor:middle;fill:#333333;stroke:#ffccaa;stroke-width:0;stroke-linecap:round;stroke-linejoin:round" />
    </g>
    <rect
       style="fill:#fcf8f8;fill-opacity:1;stroke:#ffccaa;stroke-width:0;stroke-linecap:round;stroke-linejoin:round"
       id="rect451"
       width="9.4440908"
       height="9.4440908"
       x="54.968231"
       y="8.6362572" />
    <path
       d="m 67.694619,13.725991 v -1.430468 q 0,-0.09067 -0.03022,-0.115844 -0.03023,-0.03022 -0.120898,-0.03022 h -0.176292 q -0.09067,0 -0.130956,0.04031 -0.03525,0.04028 -0.03525,0.136009 v 1.370025 q 0,0.0957 0.03525,0.135985 0.04031,0.04031 0.130956,0.04031 h 0.176292 q 0.09067,0 0.120898,-0.02514 0.03022,-0.03022 0.03022,-0.120873 z m -0.181321,-1.944227 h 0.176292 q 0.458355,0 0.458355,0.448281 v 1.566463 q 0,0.443242 -0.458355,0.443242 h -0.176292 q -0.246799,0 -0.312287,-0.196433 v 0.891529 h -0.453323 v -3.153082 h 0.453318 v 0.196439 q 0.06548,-0.196439 0.312287,-0.196439 z"
       id="path17447"
       style="font-size:4.31444px;font-family:Teko;-inkscape-font-specification:Teko;text-align:center;text-anchor:middle;fill:#333333;stroke:#ffccaa;stroke-width:0;stroke-linecap:round;stroke-linejoin:round" />
    <path
       d="m 69.135163,13.872061 h 0.176292 q 0.09067,0 0.125927,-0.04031 0.04028,-0.04031 0.04028,-0.135985 v -1.370024 q 0,-0.0957 -0.04028,-0.135985 -0.03525,-0.04031 -0.125927,-0.04031 h -0.176292 q -0.09067,0 -0.120897,0.03022 -0.03023,0.02514 -0.03023,0.115843 v 1.430469 q 0,0.09067 0.03023,0.120872 0.03022,0.02515 0.120897,0.02515 z m 0.342506,-2.090297 h 0.453319 v 2.457986 h -0.453319 v -0.196433 q -0.06548,0.196433 -0.312284,0.196433 h -0.181321 q -0.453315,0 -0.453315,-0.443242 v -1.566463 q 0,-0.448281 0.453315,-0.448281 h 0.181321 q 0.246799,0 0.312284,0.196439 z"
       id="path17449"
       style="font-size:4.31444px;font-family:Teko;-inkscape-font-specification:Teko;text-align:center;text-anchor:middle;fill:#333333;stroke:#ffccaa;stroke-width:0;stroke-linecap:round;stroke-linejoin:round" />
    <path
       d="m 71.139835,11.781764 h 0.176292 q 0.458352,0 0.458352,0.448281 v 2.009705 h -0.453315 v -1.944227 q 0,-0.09067 -0.03023,-0.115844 -0.03022,-0.03022 -0.120872,-0.03022 H 70.99377 q -0.09067,0 -0.130956,0.04031 -0.03525,0.04028 -0.03525,0.136009 v 1.914006 H 70.37423 v -2.45801 h 0.453318 v 0.196438 q 0.06548,-0.196438 0.312284,-0.196438 z"
       id="path17451"
       style="font-size:4.31444px;font-family:Teko;-inkscape-font-specification:Teko;text-align:center;text-anchor:middle;fill:#333333;stroke:#ffccaa;stroke-width:0;stroke-linecap:round;stroke-linejoin:round" />
    <path
       d="m 72.978287,11.781764 h 0.176293 q 0.458349,0 0.458349,0.448281 v 2.009705 h -0.453318 v -1.944227 q 0,-0.09067 -0.03022,-0.115844 -0.03022,-0.03022 -0.120873,-0.03022 h -0.176266 q -0.09067,0 -0.130956,0.04031 -0.03525,0.04028 -0.03525,0.136009 v 1.914006 H 72.21273 v -2.45801 h 0.453316 v 0.196438 q 0.06548,-0.196438 0.312286,-0.196438 z"
       id="path17453"
       style="font-size:4.31444px;font-family:Teko;-inkscape-font-specification:Teko;text-align:center;text-anchor:middle;fill:#333333;stroke:#ffccaa;stroke-width:0;stroke-linecap:round;stroke-linejoin:round" />
    <path
       d="m 74.625335,13.872061 h 0.176293 q 0.0907,0 0.125926,-0.04031 0.04028,-0.04031 0.04028,-0.135985 v -1.370024 q 0,-0.0957 -0.04028,-0.135985 -0.03525,-0.04031 -0.125926,-0.04031 h -0.176293 q -0.0907,0 -0.120872,0.03022 -0.03022,0.02514 -0.03022,0.115843 v 1.430469 q 0,0.09067 0.03022,0.120872 0.03025,0.02515 0.120872,0.02515 z m 0.342504,-2.090297 h 0.453318 v 2.457986 h -0.453318 v -0.196433 q -0.0655,0.196433 -0.312279,0.196433 h -0.181321 q -0.453318,0 -0.453318,-0.443242 v -1.566463 q 0,-0.448281 0.453318,-0.448281 h 0.181321 q 0.246799,0 0.312279,0.196439 z"
       id="path17455"
       style="font-size:4.31444px;font-family:Teko;-inkscape-font-specification:Teko;text-align:center;text-anchor:middle;fill:#333333;stroke:#ffccaa;stroke-width:0;stroke-linecap:round;stroke-linejoin:round" />
    <rect
       style="fill:#ffe8d1;fill-opacity:1;stroke:#ffccaa;stroke-width:0;stroke-linecap:round;stroke-linejoin:round"
       id="rect15895"
       width="9.4440908"
       height="9.4440908"
       x="54.968231"
       y="18.080351" />
    <rect
       style="fill:#d1ffd5;fill-opacity:1;stroke:#ffccaa;stroke-width:0;stroke-linecap:round;stroke-linejoin:round"
       id="rect15897"
       width="9.4440908"
       height="9.4440908"
       x="54.968231"
       y="27.52445" />
    <g
       id="g18111"
       transform="matrix(1.1674419,0,0,1.1674419,38.022886,-101.95872)">
      <path
         d="m 25.449859,107.55387 v -1.19043 q 0,-0.0749 -0.02497,-0.0999 -0.02497,-0.025 -0.0999,-0.025 h -0.228927 q -0.07492,0 -0.0999,0.025 -0.02081,0.025 -0.02081,0.0999 v 1.19043 q 0,0.0749 0.02081,0.0999 0.02497,0.025 0.0999,0.025 h 0.228927 q 0.07492,0 0.0999,-0.025 0.02497,-0.025 0.02497,-0.0999 z m -0.462016,-1.61082 h 0.445367 q 0.387095,0 0.387095,0.37045 v 1.29448 q 0,0.36628 -0.387095,0.36628 h -0.445367 q -0.382933,0 -0.382933,-0.36628 v -1.29448 q 0,-0.37045 0.382933,-0.37045 z"
         id="path17267"
         style="font-size:4.16231px;font-family:Teko;-inkscape-font-specification:Teko;text-align:center;text-anchor:middle;fill:#333333;stroke-width:0.646642;stroke-linecap:round;stroke-linejoin:round" />
      <path
         d="m 26.869211,105.93889 h 0.08325 v 0.32466 h -0.149843 q -0.262226,0 -0.262226,0.30801 v 1.4027 H 26.16578 v -2.03121 h 0.374608 v 0.24974 q 0.0333,-0.10822 0.116545,-0.17898 0.08741,-0.0749 0.212278,-0.0749 z"
         id="path17269"
         style="font-size:4.16231px;font-family:Teko;-inkscape-font-specification:Teko;text-align:center;text-anchor:middle;fill:#333333;stroke-width:0.646642;stroke-linecap:round;stroke-linejoin:round" />
      <path
         d="m 27.630917,107.67041 h 0.145681 q 0.07492,0 0.104057,-0.0333 0.0333,-0.0333 0.0333,-0.11238 v -1.13215 q 0,-0.0791 -0.0333,-0.11238 -0.02914,-0.0333 -0.104057,-0.0333 h -0.145681 q -0.07492,0 -0.0999,0.025 -0.02497,0.0208 -0.02497,0.0957 v 1.18209 q 0,0.0749 0.02497,0.0999 0.02497,0.0208 0.0999,0.0208 z m 0.283037,-1.72736 h 0.374608 v 2.03121 h -0.374608 v -0.16233 q -0.05411,0.16233 -0.258063,0.16233 h -0.149843 q -0.374608,0 -0.374608,-0.36628 v -1.29448 q 0,-0.37045 0.374608,-0.37045 h 0.149843 q 0.203953,0 0.258063,0.16233 z"
         id="path17271"
         style="font-size:4.16231px;font-family:Teko;-inkscape-font-specification:Teko;text-align:center;text-anchor:middle;fill:#333333;stroke-width:0.646642;stroke-linecap:round;stroke-linejoin:round" />
      <path
         d="M 29.287519,105.94305 H 29.4332 q 0.37877,0 0.37877,0.37045 v 1.66076 h -0.374608 v -1.60665 q 0,-0.0749 -0.02497,-0.0957 -0.02497,-0.025 -0.0999,-0.025 h -0.145681 q -0.07492,0 -0.10822,0.0333 -0.02914,0.0333 -0.02914,0.11238 v 1.58168 h -0.374607 v -2.03121 h 0.374607 v 0.16233 q 0.05411,-0.16233 0.258064,-0.16233 z"
         id="path17273"
         style="font-size:4.16231px;font-family:Teko;-inkscape-font-specification:Teko;text-align:center;text-anchor:middle;fill:#333333;stroke-width:0.646642;stroke-linecap:round;stroke-linejoin:round" />
      <path
         d="m 30.648593,107.64544 h 0.145681 q 0.07492,0 0.104058,-0.0333 0.0333,-0.0333 0.0333,-0.11238 v -1.10718 q 0,-0.0791 -0.0333,-0.11238 -0.02914,-0.0333 -0.104058,-0.0333 h -0.145681 q -0.07492,0 -0.0999,0.025 -0.02497,0.0208 -0.02497,0.0957 v 1.15712 q 0,0.0708 0.02497,0.0957 0.02497,0.025 0.0999,0.025 z m 0.283037,-1.70239 h 0.374608 v 2.23932 q 0,0.36629 -0.391257,0.36629 h -0.695106 v -0.29553 h 0.586886 q 0.07492,0 0.0999,-0.025 0.02497,-0.025 0.02497,-0.0957 v -0.34548 q -0.05411,0.16233 -0.258063,0.16233 h -0.149843 q -0.374608,0 -0.374608,-0.37044 v -1.26534 q 0,-0.37045 0.374608,-0.37045 h 0.149843 q 0.203953,0 0.258063,0.16233 z"
         id="path17275"
         style="font-size:4.16231px;font-family:Teko;-inkscape-font-specification:Teko;text-align:center;text-anchor:middle;fill:#333333;stroke-width:0.646642;stroke-linecap:round;stroke-linejoin:round" />
      <path
         d="m 32.030483,106.80049 h 0.44953 v -0.44121 q 0,-0.0708 -0.02497,-0.0957 -0.02081,-0.025 -0.09573,-0.025 h -0.203954 q -0.07492,0 -0.0999,0.025 -0.02497,0.025 -0.02497,0.0957 z m 0.02081,-0.85744 h 0.407906 q 0.391257,0 0.391257,0.37045 v 0.7617 h -0.819975 v 0.48283 q 0,0.0708 0.02497,0.0957 0.02497,0.025 0.0999,0.025 h 0.191467 q 0.07492,0 0.09989,-0.025 0.02497,-0.025 0.02497,-0.0999 v -0.1665 h 0.366283 v 0.22061 q 0,0.36628 -0.387095,0.36628 h -0.399581 q -0.387095,0 -0.387095,-0.36628 v -1.29448 q 0,-0.37045 0.387095,-0.37045 z"
         id="path17277"
         style="font-size:4.16231px;font-family:Teko;-inkscape-font-specification:Teko;text-align:center;text-anchor:middle;fill:#333333;stroke-width:0.646642;stroke-linecap:round;stroke-linejoin:round" />
      <path
         d="m 33.187608,106.89622 v -0.29136 h 0.907383 v 0.29136 z"
         id="path17279"
         style="font-size:4.16231px;font-family:Teko;-inkscape-font-specification:Teko;text-align:center;text-anchor:middle;fill:#333333;stroke-width:0.646642;stroke-linecap:round;stroke-linejoin:round" />
      <path
         d="m 34.856696,107.97426 h -0.374608 v -2.78459 h 0.374608 z"
         id="path17281"
         style="font-size:4.16231px;font-family:Teko;-inkscape-font-specification:Teko;text-align:center;text-anchor:middle;fill:#333333;stroke-width:0.646642;stroke-linecap:round;stroke-linejoin:round" />
      <path
         d="m 35.597586,107.97426 h -0.374608 v -2.03121 h 0.374608 z m -0.382933,-2.4183 v -0.37045 h 0.391257 v 0.37045 z"
         id="path17283"
         style="font-size:4.16231px;font-family:Teko;-inkscape-font-specification:Teko;text-align:center;text-anchor:middle;fill:#333333;stroke-width:0.646642;stroke-linecap:round;stroke-linejoin:round" />
      <path
         d="m 36.43837,107.64544 h 0.14568 q 0.07492,0 0.104058,-0.0333 0.0333,-0.0333 0.0333,-0.11238 v -1.10718 q 0,-0.0791 -0.0333,-0.11238 -0.02914,-0.0333 -0.104058,-0.0333 h -0.14568 q -0.07492,0 -0.0999,0.025 -0.02497,0.0208 -0.02497,0.0957 v 1.15712 q 0,0.0708 0.02497,0.0957 0.02497,0.025 0.0999,0.025 z m 0.283037,-1.70239 h 0.374608 v 2.23932 q 0,0.36629 -0.391258,0.36629 h -0.695105 v -0.29553 h 0.586885 q 0.07492,0 0.0999,-0.025 0.02497,-0.025 0.02497,-0.0957 v -0.34548 q -0.05411,0.16233 -0.258064,0.16233 H 36.3135 q -0.374608,0 -0.374608,-0.37044 v -1.26534 q 0,-0.37045 0.374608,-0.37045 h 0.149843 q 0.203954,0 0.258064,0.16233 z"
         id="path17285"
         style="font-size:4.16231px;font-family:Teko;-inkscape-font-specification:Teko;text-align:center;text-anchor:middle;fill:#333333;stroke-width:0.646642;stroke-linecap:round;stroke-linejoin:round" />
      <path
         d="m 38.094972,105.94305 h 0.145681 q 0.37877,0 0.37877,0.37045 v 1.66076 h -0.374607 v -1.60665 q 0,-0.0749 -0.02497,-0.0957 -0.02497,-0.025 -0.0999,-0.025 h -0.145681 q -0.07492,0 -0.10822,0.0333 -0.02914,0.0333 -0.02914,0.11238 v 1.58168 h -0.374608 v -2.78459 h 0.374608 v 0.91571 q 0.05411,-0.16233 0.258063,-0.16233 z"
         id="path17287"
         style="font-size:4.16231px;font-family:Teko;-inkscape-font-specification:Teko;text-align:center;text-anchor:middle;fill:#333333;stroke-width:0.646642;stroke-linecap:round;stroke-linejoin:round" />
      <path
         d="M 39.668325,106.2469 H 39.38945 v 1.28615 q 0,0.0749 0.02081,0.0999 0.02497,0.0208 0.0999,0.0208 h 0.158168 v 0.3205 H 39.40194 q -0.391257,0 -0.391257,-0.36628 v -1.36108 h -0.191467 v -0.30385 h 0.191467 v -0.34547 h 0.37877 v 0.34547 h 0.278875 z"
         id="path17289"
         style="font-size:4.16231px;font-family:Teko;-inkscape-font-specification:Teko;text-align:center;text-anchor:middle;fill:#333333;stroke-width:0.646642;stroke-linecap:round;stroke-linejoin:round" />
    </g>
    <g
       id="g18097"
       transform="matrix(1.1674419,0,0,1.1674419,36.465746,-101.95872)">
      <path
         d="m 33.187608,114.98579 v -0.29136 h 0.907383 v 0.29136 z"
         id="path17304"
         style="font-size:4.16231px;font-family:Teko;-inkscape-font-specification:Teko;text-align:center;text-anchor:middle;fill:#333333;stroke-width:0.646642;stroke-linecap:round;stroke-linejoin:round" />
      <path
         d="m 34.856696,116.06383 h -0.374608 v -2.78459 h 0.374608 z"
         id="path17306"
         style="font-size:4.16231px;font-family:Teko;-inkscape-font-specification:Teko;text-align:center;text-anchor:middle;fill:#333333;stroke-width:0.646642;stroke-linecap:round;stroke-linejoin:round" />
      <path
         d="m 35.597586,116.06383 h -0.374608 v -2.03121 h 0.374608 z m -0.382933,-2.4183 v -0.37045 h 0.391257 v 0.37045 z"
         id="path17308"
         style="font-size:4.16231px;font-family:Teko;-inkscape-font-specification:Teko;text-align:center;text-anchor:middle;fill:#333333;stroke-width:0.646642;stroke-linecap:round;stroke-linejoin:round" />
      <path
         d="m 36.43837,115.73501 h 0.14568 q 0.07492,0 0.104058,-0.0333 0.0333,-0.0333 0.0333,-0.11239 v -1.10717 q 0,-0.0791 -0.0333,-0.11238 -0.02914,-0.0333 -0.104058,-0.0333 h -0.14568 q -0.07492,0 -0.0999,0.025 -0.02497,0.0208 -0.02497,0.0957 v 1.15712 q 0,0.0708 0.02497,0.0957 0.02497,0.025 0.0999,0.025 z m 0.283037,-1.70239 h 0.374608 v 2.23932 q 0,0.36629 -0.391258,0.36629 h -0.695105 v -0.29553 h 0.586885 q 0.07492,0 0.0999,-0.025 0.02497,-0.025 0.02497,-0.0957 v -0.34548 q -0.05411,0.16233 -0.258064,0.16233 H 36.3135 q -0.374608,0 -0.374608,-0.37044 v -1.26534 q 0,-0.37045 0.374608,-0.37045 h 0.149843 q 0.203954,0 0.258064,0.16233 z"
         id="path17310"
         style="font-size:4.16231px;font-family:Teko;-inkscape-font-specification:Teko;text-align:center;text-anchor:middle;fill:#333333;stroke-width:0.646642;stroke-linecap:round;stroke-linejoin:round" />
      <path
         d="m 38.094972,114.03262 h 0.145681 q 0.37877,0 0.37877,0.37045 v 1.66076 h -0.374607 v -1.60665 q 0,-0.0749 -0.02497,-0.0957 -0.02497,-0.025 -0.0999,-0.025 h -0.145681 q -0.07492,0 -0.10822,0.0333 -0.02914,0.0333 -0.02914,0.11238 v 1.58168 h -0.374608 v -2.78459 h 0.374608 v 0.91571 q 0.05411,-0.16233 0.258063,-0.16233 z"
         id="path17312"
         style="font-size:4.16231px;font-family:Teko;-inkscape-font-specification:Teko;text-align:center;text-anchor:middle;fill:#333333;stroke-width:0.646642;stroke-linecap:round;stroke-linejoin:round" />
      <path
         d="M 39.668325,114.33647 H 39.38945 v 1.28615 q 0,0.0749 0.02081,0.0999 0.02497,0.0208 0.0999,0.0208 h 0.158168 v 0.3205 H 39.40194 q -0.391257,0 -0.391257,-0.36629 v -1.36107 h -0.191467 v -0.30385 h 0.191467 v -0.34547 h 0.37877 v 0.34547 h 0.278875 z"
         id="path17314"
         style="font-size:4.16231px;font-family:Teko;-inkscape-font-specification:Teko;text-align:center;text-anchor:middle;fill:#333333;stroke-width:0.646642;stroke-linecap:round;stroke-linejoin:round" />
      <g
         id="g17938"
         transform="translate(1.4016555,40.088652)">
        <path
           d="m 25.054789,75.613345 h 0.151005 q 0.07766,0 0.107861,-0.03452 0.03452,-0.03451 0.03452,-0.11649 v -1.147641 q 0,-0.08197 -0.03452,-0.11649 -0.0302,-0.03451 -0.107861,-0.03451 h -0.151005 q -0.07766,0 -0.103547,0.02589 -0.02589,0.02157 -0.02589,0.09923 v 1.199414 q 0,0.07335 0.02589,0.09923 0.02589,0.02589 0.103547,0.02589 z m 0.293382,-1.764606 h 0.388299 v 2.321168 q 0,0.379671 -0.405557,0.379671 h -0.720512 v -0.306325 h 0.608336 q 0.07766,0 0.103547,-0.02589 0.02589,-0.02589 0.02589,-0.09923 v -0.358098 q -0.05609,0.168263 -0.267496,0.168263 h -0.15532 q -0.388299,0 -0.388299,-0.383985 v -1.31159 q 0,-0.383985 0.388299,-0.383985 h 0.15532 q 0.211408,0 0.267496,0.168263 z"
           id="path17928"
           style="font-size:4.31444px;font-family:Teko;-inkscape-font-specification:Teko;text-align:center;text-anchor:middle;fill:#333333;stroke:#ffccaa;stroke-width:0;stroke-linecap:round;stroke-linejoin:round" />
        <path
           d="m 26.845284,73.844424 h 0.08629 v 0.336527 h -0.15532 q -0.27181,0 -0.27181,0.319268 v 1.453966 h -0.388299 v -2.105446 h 0.388299 v 0.258866 q 0.03452,-0.112175 0.120804,-0.185521 0.0906,-0.07766 0.220037,-0.07766 z"
           id="path17930"
           style="font-size:4.31444px;font-family:Teko;-inkscape-font-specification:Teko;text-align:center;text-anchor:middle;fill:#333333;stroke:#ffccaa;stroke-width:0;stroke-linecap:round;stroke-linejoin:round" />
        <path
           d="m 27.514026,74.737513 h 0.465959 v -0.45733 q 0,-0.07335 -0.02589,-0.09923 -0.02157,-0.02589 -0.09923,-0.02589 h -0.211408 q -0.07766,0 -0.103547,0.02589 -0.02589,0.02589 -0.02589,0.09923 z m 0.02157,-0.888774 h 0.422815 q 0.405557,0 0.405557,0.383985 v 0.789542 h -0.849944 v 0.500476 q 0,0.07335 0.02589,0.09923 0.02589,0.02589 0.103547,0.02589 h 0.198464 q 0.07766,0 0.103547,-0.02589 0.02589,-0.02589 0.02589,-0.103547 v -0.172578 h 0.379671 v 0.228666 q 0,0.37967 -0.401243,0.37967 h -0.414186 q -0.401243,0 -0.401243,-0.37967 v -1.341791 q 0,-0.383985 0.401243,-0.383985 z"
           id="path17932"
           style="font-size:4.31444px;font-family:Teko;-inkscape-font-specification:Teko;text-align:center;text-anchor:middle;fill:#333333;stroke:#ffccaa;stroke-width:0;stroke-linecap:round;stroke-linejoin:round" />
        <path
           d="m 29.067227,74.737513 h 0.465959 v -0.45733 q 0,-0.07335 -0.02589,-0.09923 -0.02157,-0.02589 -0.09923,-0.02589 H 29.19666 q -0.07766,0 -0.103546,0.02589 -0.02589,0.02589 -0.02589,0.09923 z m 0.02157,-0.888774 h 0.422815 q 0.405558,0 0.405558,0.383985 v 0.789542 h -0.849945 v 0.500476 q 0,0.07335 0.02589,0.09923 0.02589,0.02589 0.103546,0.02589 h 0.198464 q 0.07766,0 0.103547,-0.02589 0.02589,-0.02589 0.02589,-0.103547 v -0.172578 h 0.37967 v 0.228666 q 0,0.37967 -0.401243,0.37967 h -0.414186 q -0.401243,0 -0.401243,-0.37967 v -1.341791 q 0,-0.383985 0.401243,-0.383985 z"
           id="path17934"
           style="font-size:4.31444px;font-family:Teko;-inkscape-font-specification:Teko;text-align:center;text-anchor:middle;fill:#333333;stroke:#ffccaa;stroke-width:0;stroke-linecap:round;stroke-linejoin:round" />
        <path
           d="m 30.905181,73.848739 h 0.151005 q 0.392614,0 0.392614,0.383985 v 1.721461 h -0.388299 v -1.665373 q 0,-0.07766 -0.02589,-0.09923 -0.02589,-0.02589 -0.103547,-0.02589 h -0.151005 q -0.07766,0 -0.112175,0.03451 -0.0302,0.03452 -0.0302,0.11649 v 1.639487 h -0.388299 v -2.105446 h 0.388299 v 0.168263 q 0.05609,-0.168263 0.267496,-0.168263 z"
           id="path17936"
           style="font-size:4.31444px;font-family:Teko;-inkscape-font-specification:Teko;text-align:center;text-anchor:middle;fill:#333333;stroke:#ffccaa;stroke-width:0;stroke-linecap:round;stroke-linejoin:round" />
      </g>
    </g>
  </g>
</svg>
